M48
FMAT,2
INCH,LZ
T1C0.0100
T2C0.0138
T3C0.0300
T4C0.0315
T5C0.0350
T6C0.0362
T7C0.0472
T8C0.0512
T9C0.0560
T10C0.0906
T11C0.1083
%
T1
X017766Y022313
X01378Y010433
X02747Y022982
X020529Y023686
X035453Y023986
X006693Y019094
X039173Y008268
X03315Y021378
X034452Y02164
X024642Y002575
X029528Y012598
X012697Y015118
X014567Y020906
X011614Y016929
X019291Y010433
X024016Y008268
X041644Y02499
X006356Y023686
X013543Y021299
X006299Y019094
X041476Y024823
X02747Y022146
X039469Y006496
X013031Y014783
X039665Y004331
X047185Y014232
X039665Y004724
X014429Y014783
X006106Y02164
X015974Y02315
X013297Y02248
X036811Y010433
X029203Y010433
X041142Y022815
X030482Y02315
X015807Y024656
X044321Y024488
X031604Y022982
X035285Y024154
X027303Y02315
X037205Y014764
X006594Y001083
X009764Y021299
X006693Y012598
X042579Y014783
X037205Y016929
X036752Y02454
X002854Y004823
X024409Y008268
X016447Y008258
X021506Y01694
X02689Y012608
X008307Y004764
X017656Y02069
X042717Y004035
X017234Y01224
X013878Y002067
X027165Y005315
X029232Y020276
X027362Y005315
X011516Y002953
X014862Y001673
X02874Y020906
X003642Y004429
X003543Y004626
X002756Y018406
X027165Y005709
X045177Y025591
X012697Y002461
X026969Y010433
X005217Y019783
X012303Y002461
X012303Y002264
X013091Y002067
X023622Y008563
X002953Y004626
X02998Y023317
X019291Y012598
X026801Y023317
X025492Y015118
X043415Y017461
X030148Y023819
X003681Y024892
X042802Y02134
X004921Y020079
X02747Y02248
X012697Y002067
X004921Y019783
X023524Y019882
X014075Y002362
X033352Y02549
X012303Y002067
X015059Y003051
X017421Y000984
X011319Y002953
X005217Y020079
X010433Y020079
X01811Y00187
X02126Y023425
X022047Y025472
X037205Y012598
X040974Y023317
X026575Y008268
X020696Y023854
X003642Y004823
X038386Y004724
X002756Y017815
X015256Y020177
X03376Y020472
X045374Y025591
X011614Y008268
X007087Y023425
X028629Y02544
X017618Y003839
X006006Y02189
X005512Y020079
X003248Y004823
X02372Y019587
X015059Y003445
X008819Y010433
X040056Y01944
X018279Y02129
X008819Y008258
X017172Y025478
X041644Y02248
X031856Y02069
X010039Y002657
X020768Y026083
X010433Y002657
X01063Y002657
X010236Y002657
X042579Y012608
X041644Y023317
X009252Y001969
X009252Y001772
X009252Y001614
X009252Y002559
X029291Y017293
X017598Y022815
X009547Y004134
X016309Y023484
X006604Y024488
X003848Y008258
X034646Y012598
X006523Y023854
X032502Y02184
X038386Y005315
X017234Y01399
X014134Y021309
X008189Y025709
X027136Y023317
X015807Y023317
X014567Y001969
X017323Y003839
X019587Y020079
X015138Y002067
X024979Y02184
X020179Y02189
X017933Y02248
X012963Y024656
X018976Y021378
X008806Y02144
X013356Y02184
X04248Y021309
X04498Y024803
X011319Y026083
X00374Y012598
X015974Y023819
X018898Y012598
X039173Y010433
X012992Y025709
X042306Y01919
X039764Y008268
X041181Y014783
X006693Y016929
X01313Y022815
X01313Y022313
X013356Y02154
X014429Y015118
X012963Y022648
X003656Y02514
X01689Y002657
X027165Y025709
X026969Y02315
X016693Y003642
X003593Y022982
X005118Y020906
X006299Y010433
X034646Y014764
X032106Y022146
X010806Y02184
X026969Y019488
X006506Y02324
X002756Y018701
X028956Y01434
X00435Y016959
X006772Y024321
X042256Y01684
X011614Y019094
X008858Y014764
X028632Y017461
X00376Y02315
X039173Y019094
X042244Y015118
X030148Y024488
X035302Y02369
X039764Y014764
X003593Y022313
X032002Y02464
X012795Y022815
X038346Y020906
X008256Y02064
X01624Y003465
X0156Y017461
X032056Y01724
X027136Y024656
X031604Y022648
X012795Y02315
X017933Y022146
X014429Y012943
X012963Y022982
X015266Y017126
X013366Y012943
X017234Y01184
X003313Y025715
X028297Y017126
X015807Y023986
X041309Y024656
X031939Y023317
X034646Y008268
X020696Y024188
X031693Y010433
X022979Y02144
X027529Y02184
X024056Y01909
X017933Y022815
X006523Y023519
X018898Y014764
X014429Y012608
X03563Y023622
X043852Y02189
X024075Y014764
X034941Y025984
X039665Y025984
X01122Y012598
X020529Y024021
X026969Y016929
X016043Y003642
X003656Y02464
X037874Y021299
X024055Y010433
X017717Y000984
X027362Y005512
X032452Y02129
X016156Y01954
X019106Y01924
X006956Y02369
X007106Y023986
X029232Y020079
X013484Y002067
X019291Y014764
X019783Y020276
X019556Y01914
X020529Y024356
X013656Y02169
X02689Y012943
X015606Y02094
X034646Y010433
X032313Y008258
X007677Y003543
X007874Y003543
X017829Y02514
X009154Y003937
X007972Y001083
X024173Y020906
X006693Y010433
X027136Y022982
X009756Y02544
X00689Y002264
X014156Y01694
X027303Y022815
X008071Y003264
X008976Y002185
X017224Y001476
X026906Y01514
X02747Y023317
X022736Y019685
X011713Y002953
X023917Y007382
X015945Y017126
X041702Y02154
X034252Y012598
X037452Y02129
X011614Y012598
X040846Y015118
X032456Y01934
X030482Y023484
X003839Y004823
X01378Y008268
X021457Y012598
X015157Y002854
X029528Y019094
X019783Y020079
X036811Y014764
X042126Y008661
X023524Y008366
X042802Y02544
X039173Y014764
X045177Y025394
X003445Y004823
X031772Y02315
X026956Y01479
X014262Y019134
X00435Y014783
X020679Y02324
X037205Y010433
X008806Y02164
X00374Y014764
X022362Y025709
X036902Y02474
X044154Y023652
X031693Y014764
X034252Y019094
X044154Y024656
X027136Y022648
X007283Y023622
X043952Y02094
X019179Y02549
X041644Y022982
X00435Y012608
X031956Y01934
X002756Y007874
X001378Y022835
X002756Y008661
X002756Y00748
X002756Y009055
X004035Y025551
X013297Y023317
X041644Y022146
X014764Y00374
X015506Y02189
X041909Y012608
X037152Y02164
X034702Y024021
X034252Y014764
X013366Y012608
X044321Y023819
X04375Y017126
X026575Y010433
X021112Y024154
X02128Y023986
X025329Y02074
X017933Y02315
X011614Y014764
X034783Y024823
X028297Y017461
X029203Y008258
X044154Y024321
X003593Y022648
X00435Y019134
X016447Y010433
X008858Y019094
X025079Y02124
X026969Y019094
X006356Y024021
X032106Y022815
X011614Y010433
X024409Y012598
X032087Y010433
X00374Y016929
X010906Y02124
X01122Y019094
X014456Y02544
X006306Y02334
X011156Y02074
X037152Y02144
X01122Y008268
X034652Y02334
X003248Y004429
X009252Y014764
X040354Y007382
X002756Y01063
X002756Y009843
X002756Y008268
X002756Y009449
X002756Y006693
X002756Y010236
X031939Y022313
X024409Y014764
X039764Y012598
X01378Y016929
X015768Y019134
X025827Y014783
X034702Y023686
X009252Y019094
X027224Y012608
X02061Y024823
X014173Y010433
X017766Y022982
X006299Y016929
X031939Y022648
X032106Y02315
X024055Y012598
X030217Y025984
X031604Y023317
X004882Y021142
X00376Y022815
X020945Y024321
X006693Y014764
X006299Y014764
X002998Y025478
X018329Y02164
X004803Y021378
X003425Y022815
X02185Y010433
X02185Y014764
X028307Y021309
X017431Y022648
X002756Y007087
X029679Y02189
X004626Y01998
X017431Y023317
X034852Y02324
X009106Y02129
X00376Y02248
X039252Y02124
X006939Y024154
X026555Y012608
X003681Y019134
X00561Y000689
X042244Y012943
X028297Y019301
X019006Y01694
X023937Y021299
X023279Y02129
X006102Y001083
X02372Y007382
X008366Y001083
X032677Y012795
X036811Y016929
X024409Y019094
X017598Y02315
X042244Y014783
X002264Y022835
X004156Y02184
X036811Y008268
X045177Y025787
X011122Y002953
X025492Y025984
X00374Y004626
X003051Y004823
X00315Y004626
X02372Y008366
X013287Y002067
X028987Y017116
X017854Y024892
X021129Y02369
X026606Y01479
X032502Y02164
X019587Y019882
X012697Y002264
X017618Y001575
X013366Y015118
X019518Y008258
X003848Y010433
X021506Y01909
X021457Y014764
X02998Y024321
X028629Y02134
X026969Y008268
X022429Y02064
X023929Y02544
X017766Y022648
X013366Y014783
X031772Y022815
X012963Y023317
X034213Y010433
X020696Y023519
X007283Y002953
X034252Y016929
X036811Y019094
X003556Y02069
X018898Y010433
X037205Y008268
X027303Y022313
X013056Y01914
X026606Y01694
X041309Y023317
X009528Y021299
X026969Y022815
X041732Y008465
X035433Y023425
X003258Y023317
X016309Y02315
X015974Y024154
X042323Y010433
X015807Y024321
X015807Y023652
X008556Y02474
X032028Y024892
X015266Y017461
X041949Y004331
X041949Y004035
X042244Y005512
X009252Y008268
X0156Y017126
X003425Y02315
X042539Y005512
X041309Y022648
X039173Y012598
X032677Y014961
X02185Y019094
X028957Y019134
X041181Y015118
X044656Y023484
X02185Y008268
X003258Y022982
X01122Y010433
X039173Y016929
X003593Y023317
X021457Y023622
X003258Y022648
X006523Y024188
X027256Y01479
X009252Y016929
X014094Y012943
X012806Y01939
X008406Y02454
X039764Y016929
X016142Y023317
X031939Y022982
X042244Y012608
X032106Y02248
X015974Y023484
X013456Y01694
X01313Y024823
X013297Y02499
X01313Y02315
X006356Y024356
X013031Y015118
X044321Y024154
X006919Y008258
X015974Y024488
X03622Y025472
X013297Y022146
X014094Y015118
X030148Y02315
X028632Y017126
X041024Y025472
X003445Y004429
X010006Y02094
X014094Y014783
X042002Y02169
X02998Y024656
X034951Y024488
X019291Y020906
X019055Y021142
X016043Y026083
X034352Y02189
X017487Y025715
X041702Y02184
X02185Y012598
X03487Y024188
X017829Y02464
X020479Y02334
X041555Y010472
X039764Y010433
X03811Y021299
X037205Y019094
X004106Y02129
X034646Y019094
X008858Y012598
X041556Y01724
X03248Y016929
X036602Y02064
X016142Y003937
X034646Y016929
X031693Y012598
X035118Y024321
X015266Y019301
X009252Y010433
X04189Y021299
X008071Y003543
X043456Y01934
X007874Y003264
X036535Y025709
X030148Y023484
X026555Y012943
X027829Y02169
X007677Y003264
X00748Y002657
X023701Y021299
X014094Y012608
X029134Y012598
X041309Y022982
X017431Y022982
X041909Y012943
X043456Y01704
X04375Y017461
X042913Y020906
X041339Y025709
X03166Y025715
X019508Y016959
X017766Y023317
X012628Y023317
X02747Y02499
X026606Y01909
X031345Y025478
X017234Y01434
X014173Y008268
X027303Y024823
X029779Y02094
X021024Y008258
X022979Y02164
X041476Y022313
X041476Y022815
X041909Y014783
X02185Y016929
X044656Y02315
X026606Y01514
X024409Y010433
X042579Y015118
X034702Y024356
X007874Y025472
X022579Y02454
X015945Y01752
X024409Y016929
X044154Y023986
X009252Y012598
X041909Y015118
X039152Y02184
X044321Y02315
X03487Y023854
X030315Y023317
X039173Y003543
X036656Y01264
X021024Y010433
X044321Y023484
X02685Y025472
X01122Y016929
X025827Y015118
X038109Y025465
X041142Y02315
X033465Y020906
X02998Y023986
X030148Y024154
X033228Y021142
X027256Y01514
X027224Y012943
X044488Y023317
X004156Y02164
X024075Y016929
X018329Y02184
X007579Y004232
X042579Y012943
X022729Y02474
X016831Y000984
X005709Y020846
X002756Y01811
X045374Y025787
X020778Y024488
X003839Y004429
X003346Y004626
X023228Y019488
X023917Y019587
X027362Y005709
X015059Y020177
X019587Y020276
X002854Y004429
X003051Y004429
X027165Y005512
X013681Y002067
X027529Y02154
X020279Y02164
X01122Y014764
X006437Y024823
X00376Y022146
X006299Y012598
X034213Y008258
X029616Y014803
X041476Y02315
X045374Y025394
X032002Y02514
X039502Y02074
X013297Y022982
X02998Y023652
X014456Y02134
X03487Y023519
X039567Y005413
X04311Y005906
X044685Y005906
X039764Y019094
X027717Y021299
X012677Y025472
X041456Y01944
X008858Y016929
X044154Y023317
T2
X015354Y013976
X030709Y016142
X017913Y009646
X023031Y009646
X012628Y024321
X032902Y02464
X042702Y02429
X022079Y02399
X030709Y01437
X007874Y009252
X024429Y02464
X009256Y02464
X007874Y00748
X004906Y02429
X018729Y02359
X025591Y018701
X02815Y018701
X032902Y02359
X025591Y016535
X025213Y002378
X023659Y002397
X025606Y001886
X025114Y001886
X042702Y02394
X033268Y018307
X043504Y01437
X005315Y009252
X010433Y010039
X033252Y02324
X029823Y025984
X033268Y009646
X014006Y02429
X020472Y016535
X023031Y015748
X030709Y011417
X017913Y017913
X043504Y013976
X020472Y013583
X023429Y02324
X023779Y02324
X015056Y02464
X014006Y02359
X028529Y02394
X014006Y02394
X043402Y02464
X018729Y02429
X023779Y02429
X009606Y02394
X014356Y02324
X014006Y02324
X017913Y007087
X038386Y012205
X005315Y01437
X043898Y025689
X038386Y018701
X037602Y02429
X019079Y02464
X033268Y013976
X017913Y010039
X039173Y025768
X042352Y02429
X033252Y02429
X025591Y009252
X033902Y02464
X028179Y02464
X030669Y007874
X007874Y007874
X012628Y023986
X043504Y018701
X02815Y015748
X010433Y007087
X017913Y007874
X031752Y02424
X017913Y016535
X043504Y016142
X036252Y02399
X03378Y020945
X02815Y012205
X004556Y02324
X015354Y016535
X012795Y011811
X005315Y00748
X029055Y020906
X005206Y02464
X025591Y013583
X025591Y007874
X023031Y007874
X020472Y007874
X040945Y016142
X025591Y00748
X043898Y025984
X023031Y00748
X031402Y02004
X032002Y02004
X018729Y02324
X035902Y02399
X030669Y009252
X032902Y02429
X003056Y02404
X043504Y007087
X010433Y016535
X043504Y018307
X010433Y018307
X042352Y02359
X031702Y02004
X012795Y011417
X014706Y02464
X007874Y011417
X019606Y020945
X015354Y011417
X005315Y018307
X042702Y02464
X005315Y011811
X007874Y011811
X010433Y011811
X023031Y013976
X035902Y02434
X007874Y013976
X038386Y009646
X035827Y009646
X025591Y018307
X015354Y009646
X030669Y009646
X037952Y02429
X038386Y016535
X033268Y013583
X02815Y013583
X033552Y02464
X023031Y010039
X028179Y02394
X021729Y02399
X038252Y02464
X015354Y017913
X040974Y024321
X007874Y018307
X023031Y011417
X020472Y00748
X012795Y007874
X020374Y025984
X023031Y017913
X038386Y009252
X020472Y018307
X02472Y003264
X043504Y016535
X043504Y009252
X043504Y013583
X026467Y023986
X033252Y02359
X007874Y009646
X006201Y025984
X00689Y003543
X019379Y02464
X015354Y010039
X037952Y02359
X040945Y007087
X040945Y018701
X030709Y012205
X035827Y016535
X038386Y013976
X037602Y02464
X031402Y02404
X010433Y007874
X037602Y02394
X033252Y02394
X025591Y010039
X030709Y013976
X020472Y015748
X038661Y020906
X015354Y00748
X023031Y009252
X015354Y013583
X026801Y024321
X023779Y02394
X030709Y018307
X02815Y017913
X017913Y00748
X02815Y018307
X028179Y02359
X012795Y007087
X015354Y011811
X015354Y007087
X003056Y02439
X017913Y013583
X025606Y003264
X02472Y001886
X032902Y02394
X007906Y02399
X012293Y024321
X042702Y02324
X005433Y020945
X015354Y009252
X04064Y024321
X010433Y00748
X028529Y02324
X012795Y010039
X010256Y02464
X012293Y023986
X02815Y010039
X033268Y016535
X023031Y011811
X025591Y015748
X02815Y016535
X020472Y016142
X040945Y007874
X040945Y013583
X033268Y007874
X012795Y013976
X009906Y02464
X035827Y007874
X010433Y012205
X034547Y025787
X004906Y02359
X040945Y016535
X037952Y02324
X015354Y018701
X040945Y012205
X033268Y016142
X005315Y016142
X025606Y002378
X034547Y025984
X015354Y018307
X017579Y02424
X033268Y009252
X025591Y012205
X007874Y016142
X006693Y026083
X029229Y02464
X012795Y016535
X015354Y015748
X012795Y015748
X010433Y015748
X040945Y015748
X019729Y02464
X019079Y02429
X007874Y015748
X028179Y02429
X043504Y015748
X023429Y02394
X005315Y016535
X037602Y02359
X015354Y012205
X026098Y002772
X023659Y002747
X025606Y002772
X033268Y015748
X004556Y02359
X030709Y018701
X023031Y013583
X037602Y02324
X039173Y025984
X02815Y007874
X035827Y015748
X005315Y007087
X040945Y018307
X033252Y02464
X038386Y015748
X035827Y01437
X02815Y007087
X020472Y011417
X023031Y016535
X040945Y01437
X02815Y016142
X017229Y02439
X005556Y02464
X02815Y00748
X02815Y013976
X00187Y022047
X025114Y003264
X038386Y01437
X026098Y002378
X012795Y018307
X036252Y02434
X005315Y013976
X009256Y02394
X023031Y018307
X020472Y009252
X035827Y012205
X020472Y012205
X023031Y007087
X035827Y018701
X004556Y02394
X017229Y02004
X043504Y00748
X040945Y009646
X030669Y010039
X020472Y011811
X038386Y007087
X028529Y02464
X035827Y011811
X02815Y009252
X020374Y025787
X025591Y013976
X004906Y02464
X02815Y011811
X019079Y02394
X02815Y011417
X025591Y011417
X025213Y002772
X038386Y011811
X038386Y013583
X033268Y012205
X04064Y023986
X035827Y009252
X031402Y02439
X043228Y020906
X01565Y025787
X010925Y025787
X009256Y02359
X01565Y025984
X025591Y01437
X012795Y012205
X003406Y02424
X02815Y01437
X038386Y007874
X024488Y020906
X018729Y02394
X017913Y01437
X018729Y02464
X021729Y02434
X012795Y009252
X014356Y02429
X043504Y010039
X025098Y025984
X005315Y017913
X031402Y02474
X010433Y009252
X009606Y02464
X023031Y016142
X012795Y013583
X038386Y016142
X017913Y011811
X025591Y011811
X023779Y02359
X017229Y02474
X035827Y007087
X005315Y015748
X005315Y018701
X007874Y016535
X017913Y012205
X009256Y02324
X012795Y017913
X010433Y016142
X007874Y017913
X010433Y017913
X038602Y02464
X010433Y013976
X014882Y020906
X017829Y02004
X004906Y02324
X014356Y02394
X003056Y02004
X009606Y02359
X020472Y01437
X014356Y02359
X014006Y02464
X019079Y02359
X005315Y007874
X025591Y017913
X014356Y02464
X029823Y025787
X006201Y025787
X026801Y023986
X024114Y002303
X028529Y02359
X022079Y02434
X007874Y012205
X005315Y012205
X035827Y013583
X017913Y011417
X015354Y007874
X015354Y016142
X004556Y02429
X003056Y02474
X032902Y02324
X010925Y025984
X007556Y02399
X043504Y012205
X024079Y02464
X033268Y017913
X004556Y02464
X005315Y010039
X004906Y02394
X007874Y010039
X017913Y018701
X040945Y00748
X020472Y017913
X023429Y02464
X007874Y018701
X042352Y02324
X009606Y02324
X009256Y02429
X017913Y015748
X020472Y013976
X017913Y013976
X015354Y01437
X012795Y01437
X037952Y02394
X042352Y02394
X040974Y023986
X033268Y010039
X030669Y007087
X033268Y007087
X033268Y00748
X012795Y009646
X035827Y00748
X038386Y00748
X035827Y016142
X043504Y011811
X005315Y011417
X040945Y009252
X040945Y013976
X007906Y02434
X030669Y00748
X043504Y011417
X040945Y011417
X035827Y011417
X038386Y011417
X017529Y02004
X035827Y010039
X038386Y010039
X040945Y010039
X033268Y011417
X007874Y01437
X035827Y018307
X038386Y018307
X038386Y017913
X040945Y017913
X017913Y009252
X043504Y017913
X042352Y02464
X030709Y015748
X037952Y02464
X023031Y018701
X003356Y02004
X030709Y011811
X025591Y007087
X017229Y02404
X010433Y013583
X020472Y018701
X003622Y020039
X042702Y02359
X025098Y025787
X035827Y017913
X023429Y02359
X012795Y00748
X043504Y007874
X005315Y009646
X033268Y018701
X010433Y009646
X030709Y016535
X010433Y01437
X019079Y02324
X010315Y020906
X017913Y018307
X023031Y012205
X007874Y013583
X007556Y02434
X005315Y013583
X023031Y01437
X02815Y009646
X025591Y009646
X033268Y011811
X023429Y02429
X023779Y02464
X010433Y011417
X028879Y02464
X015846Y003051
X016437Y003051
X016437Y002067
X015846Y002067
X009606Y02429
X028179Y02324
X020472Y009646
X030709Y017913
X012795Y016142
X028529Y02429
X026467Y024321
X012795Y018701
X025591Y016142
X035827Y013976
X030709Y013583
X043504Y009646
X020472Y010039
X007874Y007087
X010433Y018701
X017913Y016142
X020472Y007087
X043052Y02464
X033268Y01437
X040945Y011811
T3
X014075Y004429
T4
X001969Y003642
X001949Y00561
T5
X04576Y003886
X04676Y007886
X04576Y008886
X04676Y008886
X04576Y009886
X04676Y009886
X04576Y010886
X04676Y010886
X04576Y011886
X04676Y011886
X04576Y012886
X04676Y003886
X04676Y012886
X04576Y013886
X04676Y013886
X04576Y014886
X04676Y014886
X04576Y015886
X04676Y015886
X04576Y016886
X04676Y016886
X04576Y017886
X04576Y004886
X04676Y017886
X04576Y018886
X04676Y018886
X04576Y019886
X04676Y019886
X04576Y020886
X04676Y020886
X04576Y021886
X04676Y021886
X04576Y022886
X04676Y004886
X04676Y022886
X04576Y005886
X04676Y005886
X04576Y006886
X04676Y006886
X04576Y007886
T6
X03324Y004807
X032256Y004807
X031469Y004807
X030484Y004807
T7
X000866Y003091
X000866Y006161
T8
X002382Y00315
X002362Y006102
T9
X011319Y004232
X013091Y004232
T10
X034449Y00374
X029276Y00374
T11
X001378Y024803
X04626Y001969
X037205Y001969
X04626Y024803
X001378Y001969
M30
