M48
FMAT,2
INCH,LZ
T1C0.0100
T2C0.0138
T3C0.0220
T4C0.0560
%
T1
X007618Y002894
X006594Y002933
X008219Y002854
X007874Y002815
T2
X006211Y000768
X002953Y003248
X002953Y002067
X00128Y001624
X001575Y000886
X00128Y001329
X007028Y000768
X002953Y001476
X00128Y000738
X00128Y000443
X002657Y001033
X001575Y000295
X00128Y001033
X002657Y002805
X002657Y00251
X001575Y003248
X001575Y001476
X001575Y002657
X00128Y00251
X001575Y002067
X00128Y002805
X002953Y000591
X002657Y0031
X002953Y002953
X002953Y001772
X000984Y002657
X002953Y001181
X000984Y003248
X002657Y002215
X000984Y000295
X000984Y002953
X000984Y002362
X000984Y000591
X002657Y001919
X000984Y000886
X007028Y001811
X002953Y002362
X000984Y001772
X000984Y002067
X000984Y001181
X000984Y001476
X002657Y001329
X001575Y002362
X002953Y002657
X00128Y002215
X002953Y000295
X00128Y0031
X001575Y000591
X001575Y001772
X001575Y001181
X001575Y002953
X002953Y000886
X006752Y000768
X002657Y001624
X002657Y000443
X006457Y002106
X00128Y001919
X002657Y000738
X006457Y001811
X003839Y000177
X007313Y001811
X006467Y000768
X006742Y001811
T3
X004488Y003366
X005217Y003366
T4
X009193Y003051
X009193Y000591
M30
