%FSTAX24Y24*%
%MOIN*%
%IN SILK2.GBR *%
%ADD10C,0.0005*%
%ADD11C,0.0028*%
%ADD12C,0.0040*%
%ADD13C,0.0050*%
%ADD14C,0.0100*%
D13*X007143Y001622D02*G01Y001922D01*X007443Y001622D02*Y001922D01*
X007138Y002311D02*X006838D01*X007138Y002611D02*X006838D01*
X008113Y00109D02*X007813D01*X008113Y00139D02*X007813D01*
X00671Y001622D02*Y001922D01*X00701Y001622D02*Y001922D01*
X007963Y001772D02*X007569D01*Y002362D01*X008356D01*Y001772D01*
X007963D01*X007748Y002822D02*X007448D01*X007748Y003122D02*X007448D01*
X006863Y003157D02*X006563D01*X006863Y003457D02*X006563D01*
X006154Y003152D02*Y002852D01*X005854Y003152D02*Y002852D01*
X008113Y000657D02*X007813D01*X008113Y000957D02*X007813D01*D12*
X005719Y000748D02*X005325D01*Y001142D02*X005719D01*D10*
X005322Y002631D02*X005337Y002646D01*X004932Y002626D02*
X004947Y002641D01*X005237Y002626D02*X005247Y002636D01*
X005222Y002601D02*X005232Y002611D01*X005212Y002586D02*
X005222Y002596D01*X005197Y002561D02*X005207Y002571D01*
X005182Y002536D02*X005192Y002546D01*X005167Y002511D02*
X005177Y002521D01*X005157Y002496D02*X005167Y002506D01*
X005457Y002511D02*X005462Y002516D01*X005452Y002486D02*
X005457Y002491D01*X005447Y002476D02*X005452Y002481D01*
X005437Y002471D02*X005442Y002476D01*X005407Y002466D02*
X005412Y002471D01*X005357Y002646D02*X005362Y002651D01*
X005317Y002611D02*X005322Y002616D01*X005317Y002546D02*
X005322Y002551D01*X005247Y002641D02*X005252Y002646D01*
X005232Y002616D02*X005237Y002621D01*X005207Y002576D02*
X005212Y002581D01*X005192Y002551D02*X005197Y002556D01*
X005177Y002526D02*X005182Y002531D01*X005152Y002486D02*
X005157Y002491D01*X005147Y002476D02*X005152Y002481D01*
X005122Y002641D02*X005127Y002646D01*X005057Y002471D02*
X005062Y002476D01*X004952Y002641D02*X004957Y002646D01*
X004927Y002616D02*X004932Y002621D01*X004922Y002601D02*
X004927Y002606D01*X005477D02*X005482Y002601D01*X005472Y002626D02*
X005477Y002621D01*X005462Y002641D02*X005472Y002631D01*
X005457Y002581D02*X005462Y002576D01*X005452Y002646D02*
X005457Y002641D01*X005442Y002626D02*X005457Y002611D01*
X005432Y002631D02*X005437Y002626D01*X005427Y002651D02*
X005432Y002646D01*X005397Y002551D02*X005402Y002546D01*
X005372Y002471D02*X005377Y002466D01*X005342Y002486D02*
X005357Y002471D01*X005342Y002456D02*X005347Y002451D01*
X005337Y002511D02*X005342Y002506D01*X005322Y002471D02*
X005337Y002456D01*X005317Y002596D02*X005322Y002591D01*
X005317Y002496D02*X005322Y002491D01*X005287Y002646D02*
X005292Y002641D01*X005267Y002456D02*X005272Y002451D01*
X005262Y002616D02*X005267Y002611D01*X005142Y002481D02*
X005147Y002476D01*X005137Y002646D02*X005142Y002641D01*
X005122Y002456D02*X005127Y002451D01*X005082Y002646D02*
X005087Y002641D01*X005057Y002631D02*X005062Y002626D01*
X004967Y002476D02*X004972Y002471D01*X004962Y002456D02*
X004967Y002451D01*X004952Y002486D02*X004962Y002476D01*
X004947Y002496D02*X004952Y002491D01*X004947Y002461D02*
X004952Y002456D01*X004942Y002516D02*X004947Y002511D01*
X004932Y002471D02*X004942Y002461D01*X004927Y002486D02*
X004932Y002481D01*X004922Y002506D02*X004927Y002501D01*
X005132Y002646D02*Y002451D01*X005127Y002646D02*Y002451D01*
X005122Y002646D02*Y002451D01*X005087Y002646D02*Y002451D01*
X005082Y002646D02*Y002451D01*X005137Y002646D02*Y002451D01*
X005077Y002646D02*Y002451D01*X005072Y002646D02*Y002451D01*
X005142Y002646D02*Y002451D01*X005267Y002646D02*Y002451D01*
X005067Y002646D02*Y002451D01*X005062Y002646D02*Y002451D01*
X005272Y002646D02*Y002451D01*X005277Y002646D02*Y002451D01*
X005282Y002646D02*Y002451D01*X005287Y002646D02*Y002451D01*
X005292Y002646D02*Y002451D01*X005462Y002641D02*Y002461D01*
X004942Y002636D02*Y002461D01*X005467Y002636D02*Y002461D01*
X004937Y002631D02*Y002466D01*X005472Y002631D02*Y002466D01*
X004932Y002626D02*Y002471D01*X005087D01*Y002631D02*X004937D01*
X005472D02*X005322D01*X005087Y002466D02*X004937D01*X005087Y002636D02*
X004942D01*X005472Y002466D02*X005327D01*X005087Y002461D02*X004942D01*
X005467Y002636D02*X005327D01*X005087Y002641D02*X004947D01*
X005477Y002621D02*Y002481D01*X005087Y002456D02*X004952D01*
X005467Y002461D02*X005332D01*X004927Y002616D02*Y002486D01*
X005087Y002646D02*X004957D01*X005462Y002641D02*X005332D01*
X005087Y002451D02*X004967D01*X005457Y002456D02*X005337D01*
X005452Y002646D02*X005337D01*X005482Y002601D02*Y002501D01*
X005442Y002451D02*X005347D01*X005337Y002551D02*Y002456D01*
X004922Y002601D02*Y002506D01*X005332Y002551D02*Y002461D01*
X005327Y002551D02*Y002466D01*X005402Y002531D02*X005317D01*
X005402Y002536D02*X005317D01*X005402Y002541D02*X005317D01*
X005402Y002546D02*X005317D01*X005402Y002551D02*X005317D01*X005322D02*
Y002471D01*X005427Y002651D02*X005362D01*X005472Y002471D02*X005412D01*
X005457Y002641D02*Y002581D01*X005292Y002616D02*X005232D01*
X005177Y002476D02*X005122D01*X005292Y002626D02*X005237D01*
X005292Y002621D02*X005237D01*X005317Y002551D02*Y002496D01*
X005457Y002511D02*Y002456D01*X005337Y002646D02*Y002591D01*
X005342Y002646D02*Y002591D01*X005187Y002541D02*Y002491D01*
X005372Y002471D02*X005322D01*X005192Y002551D02*Y002501D01*
X005197Y002561D02*Y002511D01*X005202Y002566D02*Y002516D01*
X005207Y002576D02*Y002526D01*X005182Y002536D02*Y002486D01*
X005212Y002586D02*Y002536D01*X005217Y002591D02*Y002541D01*
X005222Y002601D02*Y002551D01*X005227Y002606D02*Y002556D01*
X005232Y002616D02*Y002566D01*X005237Y002626D02*Y002576D01*
X005242Y002631D02*Y002581D01*X005172Y002471D02*X005122D01*
X005247Y002641D02*Y002591D01*X005332Y002641D02*Y002591D01*
X005342Y002506D02*Y002456D01*X005177Y002526D02*Y002476D01*
X005167Y002511D02*Y002461D01*X005162Y002501D02*Y002451D01*
X004947Y002511D02*Y002461D01*Y002641D02*Y002591D01*X004982Y002626D02*
X004932D01*X005292Y002631D02*X005242D01*X005292Y002641D02*X005247D01*
X005327Y002636D02*Y002591D01*X005167Y002461D02*X005122D01*
X005167Y002466D02*X005122D01*X005252Y002646D02*Y002601D01*
X005292Y002636D02*X005247D01*X005172Y002516D02*Y002471D01*
X005157Y002496D02*Y002451D01*X005292Y002646D02*X005252D01*
X005362Y002626D02*X005322D01*X005257Y002646D02*Y002606D01*
X005162Y002456D02*X005122D01*X005162Y002451D02*X005122D01*
X005322Y002631D02*Y002591D01*X005472Y002626D02*X005437D01*
X005152Y002486D02*Y002451D01*X004952Y002491D02*Y002456D01*
X004967Y002476D02*X004932D01*X005452Y002486D02*Y002456D01*Y002646D02*
Y002616D01*X005352Y002476D02*X005322D01*X005472D02*X005442D01*
X005477Y002621D02*X005447D01*X004962D02*X004932D01*X004952Y002641D02*
Y002611D01*X005347Y002481D02*Y002451D01*X005342Y002551D02*Y002521D01*
X004957Y002481D02*X004932D01*X005347Y002646D02*Y002621D01*
X005342Y002611D02*X005317D01*X005342Y002606D02*X005317D01*
X005342Y002601D02*X005317D01*X005342Y002591D02*X005317D01*
X005342Y002596D02*X005317D01*X004022Y000278D02*X004042Y000298D01*
X007977Y000283D02*X007992Y000298D01*X007827Y000223D02*
X007842Y000238D01*X007317Y000223D02*X007332Y000238D01*
X007247Y000118D02*X007262Y000133D01*X007172Y000223D02*
X007187Y000238D01*X007042Y000228D02*X007057Y000243D01*
X006792Y000123D02*X006807Y000138D01*X006207Y000223D02*
X006222Y000238D01*X006057Y000223D02*X006072Y000238D01*
X005987Y000118D02*X006002Y000133D01*X005667Y000223D02*
X005682Y000238D01*X005337Y000123D02*X005352Y000138D01*
X004867Y000188D02*X004882Y000203D01*X004732Y000123D02*
X004747Y000138D01*X004127Y000203D02*X004142Y000218D01*
X007972Y000193D02*X007982Y000203D01*X007622Y000228D02*
X007632Y000238D01*X007557Y000233D02*X007567Y000243D01*
X007397Y000123D02*X007407Y000133D01*X006917Y000233D02*
X006927Y000243D01*X005842Y000118D02*X005852Y000128D01*
X005417Y000283D02*X005427Y000293D01*X005227Y000283D02*
X005237Y000293D01*X004977Y000218D02*X004987Y000228D01*
X004977Y000123D02*X004987Y000133D01*X004132Y000123D02*
X004142Y000133D01*X008092Y000213D02*X008097Y000218D01*
X008092Y000123D02*X008097Y000128D01*X007987Y000203D02*
X007992Y000208D01*X007972Y000273D02*X007977Y000278D01*
X007967Y000178D02*X007972Y000183D01*X007917Y000133D02*
X007922Y000138D01*X007912Y000123D02*X007917Y000128D01*
X007902Y000118D02*X007907Y000123D01*X007862Y000183D02*
X007867Y000188D01*X007847Y000238D02*X007852Y000243D01*
X007847Y000178D02*X007852Y000183D01*X007822Y000208D02*
X007827Y000213D01*X007767Y000293D02*X007772Y000298D01*
X007707Y000123D02*X007712Y000128D01*X007697Y000118D02*
X007702Y000123D01*X007657Y000183D02*X007662Y000188D01*
X007642Y000238D02*X007647Y000243D01*X007642Y000178D02*
X007647Y000183D01*X007617Y000213D02*X007622Y000218D01*
X007487Y000238D02*X007492Y000243D01*X007472Y000233D02*
X007477Y000238D01*X007467Y000223D02*X007472Y000228D01*
X007462Y000198D02*X007467Y000203D01*X007407Y000148D02*
X007412Y000153D01*X007387Y000118D02*X007392Y000123D01*
X007342Y000238D02*X007347Y000243D01*X007312Y000148D02*
X007317Y000153D01*X007262Y000183D02*X007267Y000188D01*
X007262Y000138D02*X007267Y000143D01*X007197Y000238D02*
X007202Y000243D01*X007167Y000203D02*X007172Y000208D01*
X007167Y000138D02*X007172Y000143D01*X007107Y000238D02*
X007112Y000243D01*X007037Y000218D02*X007042Y000223D01*
X006862Y000238D02*X006867Y000243D01*X006852Y000233D02*
X006857Y000238D01*X006847Y000223D02*X006852Y000228D01*
X006807Y000163D02*X006812Y000168D01*X006767Y000118D02*
X006772Y000123D01*X006722Y000298D02*X006727Y000303D01*
X006697Y000293D02*X006702Y000298D01*X006687Y000288D02*
X006692Y000293D01*X006682Y000278D02*X006687Y000283D01*
X006677Y000253D02*X006682Y000258D01*X006442Y000178D02*
X006447Y000183D01*X006297Y000133D02*X006302Y000138D01*
X006292Y000123D02*X006297Y000128D01*X006282Y000118D02*
X006287Y000123D01*X006242Y000183D02*X006247Y000188D01*
X006227Y000238D02*X006232Y000243D01*X006227Y000178D02*
X006232Y000183D01*X006227Y000103D02*X006232Y000108D01*
X006202Y000198D02*X006207Y000203D01*X006147Y000158D02*
X006152Y000163D01*X006142Y000133D02*X006147Y000138D01*
X006137Y000123D02*X006142Y000128D01*X006127Y000118D02*
X006132Y000123D01*X006077Y000238D02*X006082Y000243D01*
X006052Y000198D02*X006057Y000203D01*X006052Y000148D02*
X006057Y000153D01*X006002Y000138D02*X006007Y000143D01*
X005932Y000238D02*X005937Y000243D01*X005922Y000233D02*
X005927Y000238D01*X005912Y000228D02*X005917Y000233D01*
X005907Y000213D02*X005912Y000218D01*X005852Y000268D02*
X005857Y000273D01*X005847Y000243D02*X005852Y000248D01*
X005802Y000238D02*X005807Y000243D01*X005797Y000148D02*
X005802Y000153D01*X005757Y000293D02*X005762Y000298D01*
X005752Y000233D02*X005757Y000238D01*X005687D02*X005692Y000243D01*
X005662Y000208D02*X005667Y000213D01*X005527Y000123D02*
X005532Y000128D01*X005452Y000298D02*X005457Y000303D01*
X005432Y000293D02*X005437Y000298D01*X005412Y000268D02*
X005417Y000273D01*X005412Y000118D02*X005417Y000123D01*
X005352Y000183D02*X005357Y000188D01*X005312Y000118D02*
X005317Y000123D01*X005262Y000298D02*X005267Y000303D01*
X005242Y000293D02*X005247Y000298D01*X005222Y000258D02*
X005227Y000263D01*X005092Y000293D02*X005097Y000298D01*
X004987Y000138D02*X004992Y000143D01*X004957Y000213D02*
X004962Y000218D01*X004957Y000118D02*X004962Y000123D01*
X004902Y000298D02*X004907Y000303D01*X004882Y000293D02*
X004887Y000298D01*X004872Y000288D02*X004877Y000293D01*
X004867Y000273D02*X004872Y000278D01*X004782Y000178D02*
X004787Y000183D01*X004747Y000178D02*X004752Y000183D01*
X004707Y000118D02*X004712Y000123D01*X004657Y000298D02*
X004662Y000303D01*X004637Y000293D02*X004642Y000298D01*
X004627Y000288D02*X004632Y000293D01*X004622Y000278D02*
X004627Y000283D01*X004617Y000258D02*X004622Y000263D01*
X004487Y000293D02*X004492Y000298D01*X004362Y000178D02*
X004367Y000183D01*X004317Y000123D02*X004322Y000128D01*
X004242Y000298D02*X004247Y000303D01*X004222Y000293D02*
X004227Y000298D01*X004212Y000288D02*X004217Y000293D01*
X004207Y000278D02*X004212Y000283D01*X004202Y000263D02*
X004207Y000268D01*X004202Y000118D02*X004207Y000123D01*
X004142Y000148D02*X004147Y000153D01*X004117Y000198D02*
X004122Y000203D01*X004112Y000118D02*X004117Y000123D01*
X004062Y000298D02*X004067Y000303D01*X004017Y000258D02*
X004022Y000263D01*X008112Y000298D02*X008117Y000293D01*
X008092Y000283D02*X008097Y000278D01*X008092Y000193D02*
X008097Y000188D01*X008012Y000218D02*X008017Y000213D01*
X008002Y000128D02*X008007Y000123D01*X007997Y000228D02*
X008007Y000218D01*X007992Y000243D02*X007997Y000238D01*
X007992Y000133D02*X007997Y000128D01*X007992Y000108D02*
X007997Y000103D01*X007987Y000213D02*X007992Y000208D01*
X007987Y000143D02*X007992Y000138D01*X007977Y000218D02*
X007982Y000213D01*X007972Y000233D02*X007977Y000228D01*
X007972Y000123D02*X007987Y000108D01*X007967Y000133D02*
X007972Y000128D01*X007937Y000168D02*X007942Y000163D01*
X007932Y000223D02*X007937Y000218D01*X007927Y000183D02*
X007937Y000173D01*X007922Y000238D02*X007932Y000228D01*
X007917Y000158D02*X007922Y000153D01*X007912Y000243D02*
X007917Y000238D01*X007912Y000168D02*X007917Y000163D01*
X007907Y000188D02*X007912Y000183D01*X007902Y000223D02*
X007922Y000203D01*X007897Y000173D02*X007902Y000168D01*
X007892Y000228D02*X007897Y000223D01*X007862Y000123D02*
X007867Y000118D01*X007857Y000108D02*X007862Y000103D01*
X007847Y000113D02*X007852Y000108D01*X007842Y000183D02*
X007847Y000178D01*X007842Y000138D02*X007857Y000123D01*
X007822Y000108D02*X007827Y000103D01*X007782Y000298D02*
X007787Y000293D01*X007767Y000108D02*X007772Y000103D01*
X007732Y000163D02*X007737Y000158D01*X007727Y000208D02*
X007732Y000203D01*X007727Y000178D02*X007732Y000173D01*
X007717Y000238D02*X007727Y000228D01*X007717Y000183D02*
X007722Y000178D01*X007707Y000208D02*X007712Y000203D01*
X007702Y000243D02*X007707Y000238D01*X007702Y000188D02*
X007707Y000183D01*X007702Y000168D02*X007712Y000158D01*
X007697Y000223D02*X007707Y000213D01*X007687Y000228D02*
X007692Y000223D01*X007687Y000173D02*X007692Y000168D01*
X007657Y000123D02*X007662Y000118D01*X007647Y000108D02*
X007652Y000103D01*X007637Y000183D02*X007642Y000178D01*
X007637Y000138D02*X007652Y000123D01*X007617Y000108D02*
X007622Y000103D01*X007577Y000243D02*X007582Y000238D01*
X007562Y000108D02*X007567Y000103D01*X007557Y000193D02*
X007562Y000188D01*X007552Y000208D02*X007557Y000203D01*
X007547Y000238D02*X007552Y000233D01*X007547Y000218D02*
X007552Y000213D01*X007537Y000243D02*X007542Y000238D01*
X007537Y000223D02*X007542Y000218D01*X007522Y000228D02*
X007527Y000223D01*X007462Y000108D02*X007467Y000103D01*
X007427Y000208D02*X007432Y000203D01*X007412Y000238D02*
X007427Y000223D01*X007407Y000198D02*X007412Y000193D01*
X007397Y000243D02*X007402Y000238D01*X007397Y000223D02*
X007407Y000213D01*X007382Y000228D02*X007387Y000223D01*
X007347Y000123D02*X007352Y000118D01*X007337Y000128D02*
X007342Y000123D01*X007337Y000108D02*X007342Y000103D01*
X007332Y000143D02*X007337Y000138D01*X007327Y000153D02*
X007332Y000148D01*X007317Y000203D02*X007322Y000198D01*
X007317Y000123D02*X007332Y000108D01*X007312Y000133D02*
X007317Y000128D01*X007282Y000218D02*X007287Y000213D01*
X007267Y000238D02*X007282Y000223D01*X007262Y000208D02*
X007267Y000203D01*X007262Y000168D02*X007267Y000163D01*
X007257Y000243D02*X007262Y000238D01*X007252Y000223D02*
X007262Y000213D01*X007237Y000228D02*X007242Y000223D01*
X007202Y000123D02*X007207Y000118D01*X007192Y000128D02*
X007197Y000123D01*X007187Y000188D02*X007192Y000183D01*
X007187Y000108D02*X007192Y000103D01*X007182Y000143D02*
X007192Y000133D01*X007172Y000118D02*X007182Y000108D01*
X007167Y000173D02*X007172Y000168D01*X007167Y000128D02*
X007172Y000123D01*X007127Y000243D02*X007132Y000238D01*
X007112Y000108D02*X007117Y000103D01*X007097Y000243D02*
X007102Y000238D01*X007097Y000223D02*X007112Y000208D01*
X007087Y000228D02*X007092Y000223D01*X007037Y000198D02*
X007042Y000193D01*X006937Y000243D02*X006942Y000238D01*
X006922Y000108D02*X006927Y000103D01*X006917Y000208D02*
X006922Y000203D01*X006907Y000243D02*X006917Y000233D01*
X006907Y000223D02*X006917Y000213D01*X006897Y000228D02*
X006902Y000223D01*X006847Y000198D02*X006852Y000193D01*
X006827Y000258D02*X006832Y000253D01*X006822Y000283D02*
X006827Y000278D01*X006817Y000293D02*X006822Y000288D01*
X006807Y000298D02*X006812Y000293D01*X006807Y000238D02*
X006812Y000233D01*X006802Y000268D02*X006807Y000263D01*
X006797Y000278D02*X006802Y000273D01*X006782Y000303D02*
X006787Y000298D01*X006782Y000283D02*X006787Y000278D01*
X006737Y000123D02*X006742Y000118D01*X006707Y000108D02*
X006712Y000103D01*X006702Y000138D02*X006717Y000123D01*
X006697Y000168D02*X006702Y000163D01*X006687Y000118D02*
X006697Y000108D01*X006682Y000128D02*X006687Y000123D01*
X006677Y000153D02*X006682Y000148D01*X006552Y000183D02*
X006557Y000178D01*X006442Y000168D02*X006447Y000163D01*
X006317Y000168D02*X006322Y000163D01*X006312Y000223D02*
X006317Y000218D01*X006307Y000183D02*X006317Y000173D01*
X006302Y000238D02*X006312Y000228D01*X006297Y000158D02*
X006302Y000153D01*X006292Y000243D02*X006297Y000238D01*
X006292Y000188D02*X006297Y000183D01*X006292Y000168D02*
X006297Y000163D01*X006282Y000223D02*X006302Y000203D01*
X006277Y000173D02*X006282Y000168D01*X006272Y000228D02*
X006277Y000223D01*X006242Y000123D02*X006247Y000118D01*
X006237Y000108D02*X006242Y000103D01*X006227Y000133D02*
X006237Y000123D01*X006227Y000113D02*X006232Y000108D01*
X006222Y000183D02*X006227Y000178D01*X006222Y000143D02*
X006227Y000138D01*X006222Y000108D02*X006227Y000103D01*
X006202Y000108D02*X006207Y000103D01*X006167Y000203D02*
X006172Y000198D01*X006162Y000223D02*X006167Y000218D01*
X006152Y000238D02*X006162Y000228D01*X006147Y000183D02*
X006152Y000178D01*X006137Y000243D02*X006142Y000238D01*
X006132Y000223D02*X006147Y000208D01*X006122Y000228D02*
X006127Y000223D01*X006087Y000123D02*X006092Y000118D01*
X006077Y000128D02*X006082Y000123D01*X006077Y000108D02*
X006082Y000103D01*X006072Y000138D02*X006077Y000133D01*
X006067Y000153D02*X006072Y000148D01*X006057Y000203D02*
X006062Y000198D01*X006057Y000118D02*X006067Y000108D01*
X006052Y000128D02*X006057Y000123D01*X006022Y000213D02*
X006027Y000208D01*X006007Y000238D02*X006022Y000223D01*
X006002Y000203D02*X006007Y000198D01*X005992Y000243D02*
X005997Y000238D01*X005992Y000223D02*X006002Y000213D01*
X005977Y000228D02*X005982Y000223D01*X005942Y000123D02*
X005947Y000118D01*X005932Y000128D02*X005937Y000123D01*
X005927Y000143D02*X005932Y000138D01*X005927Y000108D02*
X005932Y000103D01*X005912Y000118D02*X005922Y000108D01*
X005907Y000133D02*X005912Y000128D01*X005887Y000243D02*
X005892Y000238D01*X005877Y000248D02*X005882Y000243D01*
X005872Y000273D02*X005877Y000268D01*X005847Y000223D02*
X005852Y000218D01*X005817Y000128D02*X005827Y000118D01*
X005812Y000153D02*X005817Y000148D01*X005802Y000228D02*
X005807Y000223D01*X005802Y000113D02*X005812Y000103D01*
X005797Y000123D02*X005802Y000118D01*X005772Y000298D02*
X005777Y000293D01*X005757Y000108D02*X005762Y000103D01*
X005752Y000208D02*X005757Y000203D01*X005747Y000238D02*
X005752Y000233D01*X005742Y000223D02*X005752Y000213D01*
X005737Y000243D02*X005742Y000238D01*X005722Y000228D02*
X005727Y000223D01*X005662Y000108D02*X005667Y000103D01*
X005547Y000278D02*X005552Y000273D01*X005542Y000183D02*
X005552Y000173D01*X005537Y000293D02*X005547Y000283D01*
X005532Y000238D02*X005537Y000233D01*X005532Y000188D02*
X005537Y000183D01*X005527Y000298D02*X005532Y000293D01*
X005527Y000268D02*X005532Y000263D01*X005527Y000158D02*
X005532Y000153D01*X005522Y000278D02*X005527Y000273D01*
X005522Y000168D02*X005527Y000163D01*X005517Y000193D02*
X005522Y000188D01*X005512Y000173D02*X005517Y000168D01*
X005507Y000303D02*X005512Y000298D01*X005507Y000283D02*
X005512Y000278D01*X005487Y000198D02*X005492Y000193D01*
X005482Y000178D02*X005487Y000173D01*X005457Y000203D02*
X005462Y000198D01*X005447Y000183D02*X005452Y000178D01*
X005437Y000213D02*X005447Y000203D01*X005432Y000228D02*
X005437Y000223D01*X005432Y000188D02*X005437Y000183D01*
X005417Y000198D02*X005427Y000188D01*X005412Y000213D02*
X005417Y000208D01*X005412Y000108D02*X005417Y000103D01*
X005372Y000253D02*X005377Y000248D01*X005367Y000283D02*
X005372Y000278D01*X005362Y000293D02*X005367Y000288D01*
X005352Y000298D02*X005357Y000293D01*X005352Y000218D02*
X005357Y000213D01*X005337Y000278D02*X005352Y000263D01*
X005327Y000303D02*X005332Y000298D01*X005327Y000283D02*
X005332Y000278D01*X005282Y000123D02*X005287Y000118D01*
X005252Y000108D02*X005257Y000103D01*X005247Y000138D02*
X005262Y000123D01*X005242Y000158D02*X005247Y000153D01*
X005227Y000123D02*X005242Y000108D01*X005222Y000148D02*
X005227Y000143D01*X005162Y000258D02*X005177Y000243D01*
X005132Y000258D02*X005162Y000228D01*X005127Y000298D02*
X005162Y000263D01*X005117Y000278D02*X005132Y000263D01*
X005092Y000108D02*X005097Y000103D01*X005007Y000188D02*
X005012Y000183D01*X005002Y000198D02*X005007Y000193D01*
X004992Y000298D02*X005007Y000283D01*X004992Y000203D02*
X004997Y000198D01*X004987Y000173D02*X004992Y000168D01*
X004977Y000193D02*X004987Y000183D01*X004972Y000283D02*
X004987Y000268D01*X004967Y000303D02*X004972Y000298D01*
X004922Y000123D02*X004927Y000118D01*X004907Y000218D02*
X004912Y000213D01*X004892Y000228D02*X004902Y000218D01*
X004887Y000238D02*X004892Y000233D01*X004887Y000138D02*
X004902Y000123D01*X004887Y000108D02*X004892Y000103D01*
X004872Y000218D02*X004882Y000208D01*X004872Y000118D02*
X004882Y000108D01*X004867Y000228D02*X004872Y000223D01*
X004867Y000128D02*X004872Y000123D01*X004842Y000183D02*
X004847Y000178D01*X004782Y000168D02*X004787Y000163D01*
X004767Y000253D02*X004772Y000248D01*X004762Y000283D02*
X004767Y000278D01*X004757Y000293D02*X004762Y000288D01*
X004747Y000298D02*X004752Y000293D01*X004747Y000223D02*
X004752Y000218D01*X004742Y000268D02*X004747Y000263D01*
X004737Y000278D02*X004742Y000273D01*X004722Y000303D02*
X004727Y000298D01*X004722Y000283D02*X004727Y000278D01*
X004677Y000123D02*X004682Y000118D01*X004647Y000108D02*
X004652Y000103D01*X004642Y000138D02*X004657Y000123D01*
X004637Y000163D02*X004642Y000158D01*X004622Y000123D02*
X004637Y000108D01*X004617Y000148D02*X004622Y000143D01*
X004562Y000253D02*X004572Y000243D01*X004527Y000258D02*
X004557Y000228D01*X004522Y000298D02*X004562Y000258D01*
X004512Y000278D02*X004527Y000263D01*X004487Y000108D02*
X004492Y000103D01*X004417Y000183D02*X004422Y000178D01*
X004362Y000168D02*X004367Y000163D01*X004342Y000243D02*
X004347Y000238D01*X004342Y000153D02*X004347Y000148D01*
X004327Y000188D02*X004342Y000173D01*X004322Y000298D02*
X004342Y000278D01*X004322Y000238D02*X004327Y000233D01*
X004317Y000268D02*X004322Y000263D01*X004317Y000158D02*
X004322Y000153D01*X004312Y000278D02*X004317Y000273D01*
X004312Y000168D02*X004317Y000163D01*X004307Y000193D02*
X004312Y000188D01*X004302Y000173D02*X004307Y000168D01*
X004297Y000303D02*X004302Y000298D01*X004297Y000283D02*
X004302Y000278D01*X004277Y000198D02*X004282Y000193D01*
X004277Y000178D02*X004282Y000173D01*X004247Y000203D02*
X004252Y000198D01*X004237Y000183D02*X004242Y000178D01*
X004227Y000213D02*X004237Y000203D01*X004222Y000233D02*
X004227Y000228D01*X004222Y000188D02*X004227Y000183D01*
X004212Y000193D02*X004217Y000188D01*X004207Y000203D02*
X004212Y000198D01*X004202Y000218D02*X004207Y000213D01*
X004202Y000108D02*X004207Y000103D01*X004162Y000153D02*
X004167Y000148D01*X004157Y000278D02*X004162Y000273D01*
X004142Y000298D02*X004157Y000283D01*X004137Y000268D02*
X004142Y000263D01*X004132Y000278D02*X004137Y000273D01*
X004122Y000283D02*X004127Y000278D01*X004117Y000303D02*
X004122Y000298D01*X004077Y000123D02*X004082Y000118D01*
X004072Y000183D02*X004077Y000178D01*X004062Y000203D02*
X004067Y000198D01*X004052Y000188D02*X004057Y000183D01*
X004047Y000208D02*X004052Y000203D01*X004042Y000218D02*
X004047Y000213D01*X004042Y000138D02*X004057Y000123D01*
X004042Y000108D02*X004047Y000103D01*X004022Y000123D02*
X004037Y000108D01*X004017Y000143D02*X004022Y000138D01*
X005107Y000298D02*Y000103D01*X005102Y000298D02*Y000103D01*
X005097Y000298D02*Y000103D01*X005112Y000298D02*Y000103D01*
X005092Y000298D02*Y000103D01*X007767Y000298D02*Y000103D01*
X007772Y000298D02*Y000103D01*X007777Y000298D02*Y000103D01*
X007782Y000298D02*Y000103D01*X008117Y000298D02*Y000103D01*
X008112Y000298D02*Y000103D01*X005757Y000298D02*Y000103D01*
X005762Y000298D02*Y000103D01*X008097Y000298D02*Y000103D01*
X008102Y000298D02*Y000103D01*X008107Y000298D02*Y000103D01*
X007787Y000298D02*Y000103D01*X005777Y000298D02*Y000103D01*
X005772Y000298D02*Y000103D01*X005767Y000298D02*Y000103D01*
X004507Y000298D02*Y000103D01*X004502Y000298D02*Y000103D01*
X004497Y000298D02*Y000103D01*X004492Y000298D02*Y000103D01*
X004487Y000298D02*Y000103D01*X004887Y000298D02*Y000108D01*
X004042Y000298D02*Y000108D01*X004992Y000298D02*Y000108D01*
X004882Y000293D02*Y000108D01*X005242Y000293D02*Y000108D01*
X004037Y000293D02*Y000108D01*X004637Y000293D02*Y000108D01*
X006812Y000293D02*Y000108D01*X006697Y000293D02*Y000108D01*
X005237Y000293D02*Y000113D01*X005357Y000293D02*Y000113D01*
X006692Y000293D02*Y000113D01*X005362Y000293D02*Y000113D01*
X006817Y000293D02*Y000113D01*X004632Y000293D02*Y000113D01*
X004752Y000293D02*Y000113D01*X004757Y000293D02*Y000113D01*
X004032Y000288D02*Y000113D01*X004027Y000288D02*Y000118D01*
X005857Y000273D02*Y000103D01*X005852Y000273D02*Y000103D01*
X004627Y000288D02*Y000118D01*X005367Y000288D02*Y000118D01*
X004762Y000288D02*Y000118D01*X006687Y000288D02*Y000118D01*
X006822Y000288D02*Y000118D01*X005232Y000288D02*Y000118D01*
X005867Y000273D02*Y000108D01*X005862Y000273D02*Y000108D01*
X005872Y000273D02*Y000113D01*X005227Y000283D02*Y000123D01*
X004022Y000278D02*Y000123D01*X004622Y000278D02*Y000123D01*
X006827Y000278D02*Y000128D01*X004767Y000278D02*Y000128D01*
X005372Y000278D02*Y000128D01*X006682Y000278D02*Y000128D01*
X004347Y000123D02*X004202D01*X004347Y000118D02*X004202D01*
X004347Y000103D02*X004202D01*X008117Y000193D02*X007972D01*
X004347Y000108D02*X004202D01*X004347Y000113D02*X004202D01*
X008117Y000123D02*X007972D01*X007582Y000243D02*Y000103D01*
X007112Y000243D02*Y000103D01*X006932Y000243D02*Y000103D01*
X006937Y000243D02*Y000103D01*X006927Y000243D02*Y000103D01*
X007117Y000243D02*Y000103D01*X006922Y000243D02*Y000103D01*
X006942Y000243D02*Y000103D01*X008117Y000198D02*X007977D01*X004157D02*
X004017D01*X007562Y000243D02*Y000103D01*X005552Y000123D02*X005412D01*
X008117Y000118D02*X007977D01*X007567Y000243D02*Y000103D01*
X005552Y000118D02*X005412D01*X007572Y000243D02*Y000103D01*
X007577Y000243D02*Y000103D01*X007132Y000243D02*Y000103D01*
X008117Y000283D02*X007977D01*X007127Y000243D02*Y000103D01*
X008117Y000113D02*X007977D01*X005367Y000283D02*X005227D01*
X005552Y000113D02*X005412D01*X005552Y000108D02*X005412D01*
X005552Y000103D02*X005412D01*X005877Y000273D02*Y000133D01*
X007122Y000243D02*Y000103D01*X007487Y000238D02*Y000103D01*
X007482Y000238D02*Y000103D01*X007477Y000238D02*Y000103D01*
X007632Y000238D02*Y000103D01*X007637Y000238D02*Y000103D01*
X007842Y000238D02*Y000103D01*X004162Y000118D02*X004027D01*X004762D02*
X004627D01*X005007D02*X004872D01*X005367D02*X005232D01*X006822D02*
X006687D01*X004152Y000193D02*X004017D01*X005007D02*X004872D01*
X008117Y000203D02*X007982D01*X008117Y000213D02*X007982D01*
X008117Y000288D02*X007982D01*X006822D02*X006687D01*X005367D02*
X005232D01*X005682Y000238D02*Y000103D01*X006222Y000238D02*Y000103D01*
X004762Y000288D02*X004627D01*X008117Y000293D02*X007982D01*
X006822Y000283D02*X006687D01*X005007D02*X004872D01*X004762D02*
X004627D01*X005547D02*X005417D01*X005677Y000233D02*Y000103D01*
X004157Y000283D02*X004027D01*X005002Y000288D02*X004872D01*
X005927Y000238D02*Y000108D01*X008117D02*X007987D01*X006007Y000238D02*
Y000108D01*X007837Y000233D02*Y000103D01*X007832Y000233D02*Y000103D01*
X007472Y000233D02*Y000103D01*X006152Y000238D02*Y000108D01*
X004147Y000188D02*X004017D01*X006212Y000233D02*Y000103D01*
X006217Y000233D02*Y000103D01*X007627Y000233D02*Y000103D01*
X007267Y000238D02*Y000108D01*X007412Y000238D02*Y000108D01*
X005002Y000113D02*X004877D01*X005002Y000213D02*X004877D01*
X005362Y000113D02*X005237D01*X008117Y000208D02*X007992D01*
X006817Y000113D02*X006692D01*X008117Y000298D02*X007992D01*
X005002Y000198D02*X004877D01*X004152Y000288D02*X004027D01*
X006817Y000293D02*X006692D01*X005362D02*X005237D01*X004757D02*
X004632D01*X004987Y000298D02*Y000173D01*X006012Y000233D02*Y000108D01*
X007417Y000233D02*Y000108D01*X007272Y000233D02*Y000108D01*
X007622Y000228D02*Y000103D01*X005922Y000233D02*Y000108D01*
X005672Y000228D02*Y000103D01*X004337Y000283D02*X004212D01*
X004157Y000113D02*X004032D01*X004757D02*X004632D01*X007287Y000173D02*
X007167D01*X004997Y000293D02*X004877D01*X006207Y000223D02*Y000103D01*
X006157Y000233D02*Y000113D01*X007287Y000168D02*X007167D01*
X007287Y000183D02*X007167D01*X007287Y000178D02*X007167D01*
X006017Y000233D02*Y000113D01*X007827Y000223D02*Y000103D01*
X007992Y000298D02*Y000178D01*X007277Y000233D02*Y000113D01*
X005542Y000288D02*X005422D01*X005917Y000233D02*Y000113D01*
X004332Y000288D02*X004212D01*X005667Y000223D02*Y000103D01*X008117D02*
X007997D01*X007467Y000223D02*Y000103D01*X004142Y000298D02*Y000183D01*
X007422Y000228D02*Y000113D01*X006557Y000183D02*X006442D01*
X004017Y000258D02*Y000143D01*X006557Y000178D02*X006442D01*
X007937Y000173D02*X007822D01*X007732D02*X007617D01*X006557D02*
X006442D01*X006317D02*X006202D01*X006557Y000168D02*X006442D01*
X006557Y000163D02*X006442D01*X007937Y000118D02*X007822D01*X007732D02*
X007617D01*X006317D02*X006202D01*X004152Y000108D02*X004037D01*
X004997D02*X004882D01*X006812D02*X006697D01*X007582Y000228D02*
X007472D01*X004327Y000293D02*X004217D01*X004992Y000208D02*X004882D01*
X006162Y000228D02*Y000118D01*X006312Y000113D02*X006202D01*
X006312Y000178D02*X006202D01*X004327Y000188D02*X004217D01*
X005912Y000228D02*Y000118D01*X007727Y000178D02*X007617D01*
X004147Y000293D02*X004037D01*X007932Y000178D02*X007822D01*
X007727Y000113D02*X007617D01*X007932D02*X007822D01*X004617Y000258D02*
Y000148D01*X005537Y000293D02*X005427D01*X007617Y000213D02*Y000103D01*
X004747Y000108D02*X004637D01*X005352D02*X005242D01*X004992Y000203D02*
X004882D01*X007582Y000233D02*X007472D01*X005222Y000258D02*Y000148D01*
X007282Y000118D02*X007172D01*X006022D02*X005912D01*X004217Y000293D02*
Y000188D01*X005777Y000228D02*X005672D01*X004222Y000293D02*Y000188D01*
X006017Y000228D02*X005912D01*X007727D02*X007622D01*X007722Y000108D02*
X007617D01*X007282Y000223D02*Y000118D01*X007822Y000208D02*Y000103D01*
X005532Y000188D02*X005427D01*X004332Y000183D02*X004227D01*
X005427Y000293D02*Y000188D01*X005432Y000293D02*Y000188D01*
X004747Y000298D02*X004642D01*X006162Y000118D02*X006057D01*
X004992Y000298D02*X004887D01*X005662Y000208D02*Y000103D01*
X004147Y000293D02*Y000188D01*X005542Y000183D02*X005437D01*
X006022Y000223D02*Y000118D01*X005352Y000298D02*X005247D01*X006807D02*
X006702D01*X004142D02*X004042D01*X006832Y000253D02*Y000153D01*
X007427Y000223D02*Y000123D01*X006017Y000233D02*X005917D01*X005777D02*
X005677D01*X006677Y000253D02*Y000153D01*X006312Y000228D02*X006212D01*
X006162D02*X006062D01*X007422Y000118D02*X007322D01*X007277Y000228D02*
X007177D01*X007422D02*X007322D01*X007422Y000113D02*X007322D01*
X007277D02*X007177D01*X006017D02*X005917D01*X007932Y000228D02*
X007832D01*X007462Y000198D02*Y000103D01*X006157Y000233D02*X006062D01*
X006307D02*X006212D01*X005422Y000288D02*Y000193D01*X007277Y000233D02*
X007182D01*X007722D02*X007627D01*X007927D02*X007832D01*
X004337Y000178D02*X004242D01*X006202Y000198D02*Y000103D01*
X007987Y000203D02*Y000108D01*X004152Y000288D02*Y000193D01*
X005547Y000178D02*X005452D01*X006157Y000113D02*X006062D01*
X004307Y000193D02*X004212D01*Y000288D01*X004322Y000298D02*X004227D01*
X006167Y000218D02*Y000123D01*X005517Y000193D02*X005422D01*
X007417Y000233D02*X007327D01*X006942D02*X006852D01*X006942Y000228D02*
X006852D01*X005892Y000243D02*X005802D01*X007132Y000228D02*X007042D01*
X007982Y000203D02*Y000113D01*X005892Y000228D02*X005802D01*
X004997Y000198D02*Y000108D01*X006012D02*X005922D01*X005892Y000233D02*
X005802D01*X004137Y000103D02*X004047D01*X004982D02*X004892D01*
X007272Y000108D02*X007182D01*X005527Y000298D02*X005437D01*
X005892Y000223D02*X005802D01*X005892Y000238D02*X005802D01*
X005417Y000283D02*Y000198D01*X007717Y000238D02*X007632D01*
X005377Y000248D02*Y000163D01*X004142Y000183D02*X004057D01*
X004877Y000198D02*Y000113D01*X007977Y000198D02*Y000113D01*
X007132Y000233D02*X007047D01*X005002Y000198D02*Y000113D01*
X005532Y000188D02*Y000103D01*X006152Y000108D02*X006067D01*
X007132Y000238D02*X007047D01*X006797Y000103D02*X006712D01*
X004322Y000188D02*Y000103D01*X004772Y000248D02*Y000163D01*
X004737Y000103D02*X004652D01*X004327Y000188D02*Y000103D01*X005342D02*
X005257D01*X004157Y000283D02*Y000198D01*X007417Y000108D02*X007332D01*
X007712Y000183D02*Y000103D01*X004877Y000293D02*Y000213D01*
X005352Y000298D02*Y000218D01*X005537Y000183D02*Y000103D01*
X005542Y000183D02*Y000103D01*X005907Y000213D02*Y000133D01*
X007922Y000238D02*X007842D01*X004332Y000183D02*Y000103D01*
X004997Y000293D02*Y000213D01*X007412Y000238D02*X007332D01*X007267D02*
X007187D01*X007287Y000213D02*Y000133D01*X006302Y000238D02*X006222D01*
X006152D02*X006072D01*X006007D02*X005927D01*X007987Y000293D02*
Y000213D01*X007982Y000293D02*Y000213D01*X007927Y000183D02*X007852D01*
X005002Y000288D02*Y000213D01*X006307Y000183D02*Y000108D01*
X006302Y000183D02*Y000108D01*X005007Y000193D02*Y000118D01*
X006027Y000208D02*Y000133D01*X005547Y000178D02*Y000103D01*
X007717Y000183D02*Y000108D01*X005352Y000183D02*Y000108D01*X006307D02*
X006232D01*X004207Y000278D02*Y000203D01*X007927Y000108D02*X007852D01*
X004337Y000178D02*Y000103D01*X004747Y000298D02*Y000223D01*
X006307Y000183D02*X006232D01*X007927D02*Y000108D01*X004872Y000193D02*
Y000118D01*X007922Y000183D02*Y000108D01*X007262Y000103D02*X007192D01*
X005552Y000173D02*Y000103D01*X005872Y000118D02*X005802D01*
X005872Y000113D02*X005802D01*X007547Y000238D02*X007477D01*
X005487Y000198D02*X005417D01*X004872Y000288D02*Y000218D01*
X007187Y000238D02*Y000168D01*X004342Y000173D02*Y000103D01*X006002D02*
X005932D01*X007717Y000183D02*X007647D01*X007972Y000193D02*Y000123D01*
X007722Y000178D02*Y000108D01*X004747Y000178D02*Y000108D01*
X004847Y000163D02*X004782D01*X004847Y000173D02*X004782D01*
X004322Y000298D02*Y000233D01*X006312Y000178D02*Y000113D01*
X007727Y000178D02*Y000113D01*X005552Y000173D02*X005487D01*
X007932Y000178D02*Y000113D01*X004277Y000198D02*X004212D01*
X004847Y000168D02*X004782D01*X007182Y000233D02*Y000168D01*
X004847Y000183D02*X004782D01*X004847Y000178D02*X004782D01*
X004162Y000273D02*Y000208D01*X007432Y000203D02*Y000138D01*
X007977Y000283D02*Y000218D01*X005747Y000238D02*X005682D01*
X006292Y000243D02*X006232D01*X007912D02*X007852D01*X004422Y000173D02*
X004362D01*X004342D02*X004282D01*X005537Y000293D02*Y000233D01*
X005532Y000293D02*Y000233D01*X004422Y000168D02*X004362D01*
X004722Y000303D02*X004662D01*X004967D02*X004907D01*X005327D02*
X005267D01*X004422Y000163D02*X004362D01*X004867Y000188D02*Y000128D01*
X004422Y000183D02*X004362D01*X006142Y000103D02*X006082D01*
X007177Y000228D02*Y000168D01*X006807Y000298D02*Y000238D01*
X006702Y000298D02*Y000238D01*X004327Y000293D02*Y000233D01*
X005007Y000283D02*Y000223D01*X005867Y000108D02*X005807D01*
X007712Y000103D02*X007652D01*X007402D02*X007342D01*X004422Y000178D02*
X004362D01*X007732Y000173D02*Y000118D01*X007937Y000173D02*Y000118D01*
X005412Y000268D02*Y000213D01*X004542Y000278D02*X004487D01*
X006147Y000238D02*Y000183D01*X007917Y000103D02*X007862D01*
X007172Y000223D02*Y000168D01*X005282Y000123D02*X005227D01*
X005147Y000278D02*X005092D01*X004677Y000123D02*X004622D01*
X006297Y000103D02*X006242D01*X004077Y000123D02*X004022D01*
X006807Y000163D02*Y000108D01*X005542Y000288D02*Y000233D01*
X006702Y000163D02*Y000108D01*X006317Y000173D02*Y000118D01*
X005992Y000243D02*X005937D01*X006782Y000303D02*X006727D01*
X006137Y000243D02*X006082D01*X007582Y000223D02*X007527D01*
X007257Y000243D02*X007202D01*X006912Y000238D02*X006857D01*
X007702Y000243D02*X007647D01*X004332Y000288D02*Y000233D01*
X005777Y000223D02*X005727D01*X007997Y000238D02*Y000188D01*
X006147Y000158D02*Y000108D01*X004537Y000283D02*X004487D01*X005142D02*
X005092D01*X004642Y000298D02*Y000248D01*X005547Y000283D02*Y000233D01*
X004117Y000303D02*X004067D01*X005012Y000183D02*Y000133D01*
X004642Y000158D02*Y000108D01*X006822Y000123D02*X006772D01*
X006172Y000198D02*Y000148D01*X005817Y000153D02*Y000103D01*
X005812Y000153D02*Y000103D01*X004297Y000303D02*X004247D01*
X006737Y000123D02*X006687D01*X007057Y000243D02*Y000193D01*
X005507Y000303D02*X005457D01*X007397Y000243D02*X007347D01*
X004337Y000283D02*Y000233D01*X005247Y000298D02*Y000248D01*
X005367Y000123D02*X005317D01*X004922D02*X004872D01*X004892Y000233D02*
Y000183D01*X006867Y000243D02*Y000193D01*X004762Y000123D02*X004712D01*
X006072Y000153D02*Y000108D01*X006857Y000238D02*Y000193D01*
X005807Y000153D02*Y000108D01*X006067Y000153D02*Y000108D01*
X006862Y000238D02*Y000193D01*X004162Y000123D02*X004117D01*
X006247Y000168D02*X006202D01*X005137Y000288D02*X005092D01*
X007052Y000238D02*Y000193D01*X007967Y000178D02*Y000133D01*
X007047Y000238D02*Y000193D01*X004532Y000288D02*X004487D01*
X005007Y000123D02*X004962D01*X007867Y000168D02*X007822D01*
X004342Y000278D02*Y000233D01*X007662Y000168D02*X007617D01*
X005857Y000103D02*X005812D01*X004347Y000148D02*Y000103D01*
X004122Y000178D02*X004077D01*X005737Y000243D02*X005692D01*
X004062Y000203D02*X004017D01*X007332Y000153D02*Y000108D01*
X007362Y000223D02*X007317D01*X004142Y000153D02*Y000108D01*
X006227Y000238D02*Y000193D01*X004147Y000153D02*Y000108D01*
X004867Y000273D02*Y000228D01*X004152Y000153D02*Y000108D01*
X004227Y000228D02*Y000183D01*X007537Y000243D02*X007492D01*
X005247Y000153D02*Y000108D01*X006292Y000188D02*X006247D01*
X004202Y000263D02*Y000218D01*X006942Y000223D02*X006902D01*
X007097Y000243D02*X007057D01*X007132Y000223D02*X007092D01*
X004227Y000298D02*Y000258D01*X006907Y000243D02*X006867D01*
X004247Y000203D02*X004207D01*X007907Y000188D02*X007867D01*
X006077Y000238D02*Y000198D01*X005457Y000203D02*X005417D01*
X007327Y000153D02*Y000113D01*X006097Y000223D02*X006057D01*X006022D02*
X005982D01*X005952D02*X005912D01*X007337Y000238D02*Y000198D01*
X007972Y000273D02*Y000233D01*X007732Y000168D02*X007692D01*
X004157Y000153D02*Y000113D01*X004527Y000293D02*X004487D01*
X007332Y000238D02*Y000198D01*X007212Y000223D02*X007172D01*X005707D02*
X005667D01*X005002Y000218D02*X004962D01*X007557Y000233D02*Y000193D01*
X005437Y000223D02*Y000183D01*Y000298D02*Y000258D01*X006827Y000278D02*
X006787D01*X007862Y000123D02*X007822D01*X007507Y000223D02*X007467D01*
X007657Y000123D02*X007617D01*X005132Y000293D02*X005092D01*
X007427Y000223D02*X007387D01*X007582Y000218D02*X007542D01*
X008017Y000278D02*X007977D01*X005552Y000273D02*Y000233D01*
X006722Y000278D02*X006682D01*X005372D02*X005332D01*X005267D02*
X005227D01*X006852Y000233D02*Y000193D01*X006072Y000238D02*Y000198D01*
X006062Y000153D02*Y000113D01*X007407Y000148D02*Y000108D01*
X007702Y000188D02*X007662D01*X004062Y000278D02*X004022D01*
X007322Y000153D02*Y000113D01*X007282Y000223D02*X007242D01*
X007407Y000238D02*Y000198D01*X004342Y000278D02*X004302D01*
X006242Y000123D02*X006202D01*X004662Y000278D02*X004622D01*X004767D02*
X004727D01*X005802Y000153D02*Y000113D01*X007327Y000233D02*Y000198D01*
X005127Y000298D02*X005092D01*X004547Y000273D02*Y000238D01*
X004552Y000268D02*Y000233D01*X007262Y000138D02*Y000103D01*
X004557Y000263D02*Y000228D01*X007192Y000238D02*Y000203D01*
X004542Y000278D02*Y000243D01*X007727Y000223D02*X007692D01*X007862D02*
X007827D01*X007187Y000143D02*Y000108D01*X007182Y000143D02*Y000108D01*
X007997Y000298D02*Y000263D01*X007167Y000203D02*Y000168D01*
X004522Y000298D02*X004487D01*X007932Y000223D02*X007897D01*
X004537Y000283D02*Y000248D01*X004532Y000288D02*Y000253D01*
X004527Y000293D02*Y000258D01*X007042Y000228D02*Y000193D01*
X005137Y000288D02*Y000253D01*X005142Y000283D02*Y000248D01*
X004242Y000278D02*X004207D01*X005147D02*Y000243D01*X005152Y000273D02*
Y000238D01*X004342Y000168D02*X004307D01*X007712Y000238D02*Y000203D01*
X005452Y000278D02*X005417D01*X005547D02*X005512D01*X008012Y000218D02*
X007977D01*X005157Y000268D02*Y000233D01*X005162Y000263D02*Y000228D01*
X007922Y000238D02*Y000203D01*X004982Y000223D02*Y000188D01*
X007427Y000123D02*X007392D01*X007917Y000238D02*Y000203D01*
X007717Y000238D02*Y000203D01*X004897Y000223D02*Y000188D01*
X004907Y000218D02*X004872D01*X007847Y000238D02*Y000203D01*
X004892Y000298D02*Y000263D01*X004157Y000203D02*X004122D01*
X006312Y000223D02*X006277D01*X006242D02*X006207D01*X004162Y000153D02*
Y000118D01*X006162Y000223D02*X006127D01*X006322Y000163D02*Y000128D01*
X006302Y000238D02*Y000203D01*X006297Y000238D02*Y000203D01*
X004562Y000258D02*X004527D01*X007937Y000168D02*X007902D01*X006317D02*
X006282D01*X006067Y000233D02*Y000198D01*X006062Y000233D02*Y000198D01*
X006057Y000153D02*Y000118D01*X005132Y000293D02*Y000258D01*
X006002Y000238D02*Y000203D01*Y000138D02*Y000103D01*X005552Y000168D02*
X005517D01*X007942Y000163D02*Y000128D01*X005932Y000138D02*Y000103D01*
X006167Y000123D02*X006132D01*X007722Y000233D02*Y000203D01*
X007912Y000243D02*Y000213D01*X004892Y000133D02*Y000103D01*
X007917Y000133D02*Y000103D01*X007927Y000233D02*Y000203D01*
X004742Y000298D02*Y000268D01*X007202Y000123D02*X007172D01*X007282D02*
X007252D01*X007347D02*X007317D01*X007852Y000163D02*X007822D01*
X007647D02*X007617D01*X007732Y000123D02*X007702D01*X007937D02*
X007907D01*X004052Y000128D02*X004022D01*X004652D02*X004622D01*
X004767D02*X004737D01*X004897D02*X004867D01*X006232Y000163D02*
X006202D01*X005257Y000128D02*X005227D01*X005372D02*X005342D01*
X006232D02*X006202D01*X006712D02*X006682D01*X006827D02*X006797D01*
X007647D02*X007617D01*X007852D02*X007822D01*X008002D02*X007972D01*
X004562Y000258D02*Y000228D01*X007992Y000138D02*Y000108D01*
X008002Y000223D02*Y000193D01*X005167Y000253D02*X005137D01*
X004522Y000298D02*Y000268D01*X004317Y000298D02*Y000268D01*Y000188D02*
Y000158D01*X004572Y000243D02*X004542D01*X005177D02*X005147D01*
X004137Y000298D02*Y000268D01*Y000213D02*Y000183D01*X004567Y000248D02*
X004537D01*X004047Y000298D02*Y000268D01*X005172Y000248D02*X005142D01*
X005942Y000123D02*X005912D01*X006022D02*X005992D01*X006087D02*
X006057D01*X004047Y000133D02*Y000103D01*X006317Y000123D02*X006287D01*
X004987Y000138D02*Y000108D01*X005157Y000268D02*X005127D01*
X005372Y000273D02*X005342D01*X007337Y000138D02*Y000108D01*
X006292Y000243D02*Y000213D01*X007132Y000218D02*X007102D01*
X007322Y000228D02*Y000198D01*X006297Y000133D02*Y000103D01*
X007317Y000153D02*Y000123D01*X006307Y000233D02*Y000203D01*
X007262Y000238D02*Y000208D01*X005152Y000273D02*X005122D01*
X007192Y000133D02*Y000103D01*X007652Y000223D02*X007622D01*
X006942Y000218D02*X006912D01*X007177Y000143D02*Y000113D01*
X006877Y000223D02*X006847D01*X005777Y000218D02*X005747D01*
X006707Y000298D02*Y000268D01*X006802Y000298D02*Y000268D01*
X005347Y000298D02*Y000268D01*X006167Y000218D02*X006137D01*X006317D02*
X006287D01*X006847Y000223D02*Y000193D01*X004547Y000273D02*X004517D01*
X007707Y000238D02*Y000208D01*X007642Y000238D02*Y000208D01*
X005932Y000238D02*Y000208D01*X008002Y000273D02*X007972D01*
X007582Y000208D02*X007552D01*X004157Y000278D02*X004127D01*
X004047Y000213D02*X004017D01*X005797Y000153D02*Y000123D01*
X004902Y000278D02*X004872D01*X005007D02*X004977D01*X005687Y000238D02*
Y000208D01*X007937Y000218D02*X007907D01*X005527Y000298D02*Y000268D01*
X006142Y000133D02*Y000103D01*X005527Y000188D02*Y000158D01*
X004047Y000208D02*X004017D01*X004162D02*X004132D01*X007582Y000213D02*
X007552D01*X005872Y000123D02*X005847D01*X005937Y000243D02*Y000218D01*
X005347Y000133D02*Y000108D01*X007427Y000128D02*X007402D01*X007282D02*
X007257D01*X007192D02*X007167D01*X005167Y000253D02*Y000228D01*
X006077Y000128D02*X006052D01*X006022D02*X005997D01*X005442Y000298D02*
Y000273D01*X004162Y000128D02*X004137D01*X005252Y000133D02*Y000108D01*
X005752Y000233D02*Y000208D01*X005007Y000128D02*X004982D01*
X005692Y000243D02*Y000218D01*X005442Y000208D02*Y000183D01*
X005252Y000298D02*Y000273D01*X006227Y000138D02*X006202D01*X007337D02*
X007312D01*X007737D02*X007712D01*X004167Y000143D02*X004142D01*
X007737D02*X007712D01*X004167Y000148D02*X004142D01*X007737D02*
X007712D01*X004167Y000153D02*X004142D01*X004167Y000133D02*X004142D01*
X004647D02*X004622D01*X004767D02*X004742D01*X006077D02*X006052D01*
X006227D02*X006202D01*X006707D02*X006682D01*X006827D02*X006802D01*
X007192D02*X007167D01*X007337D02*X007312D01*X007642D02*X007617D01*
X007737D02*X007712D01*X007847D02*X007822D01*X004167Y000138D02*
X004142D01*X007932Y000228D02*Y000203D01*X004647Y000298D02*Y000273D01*
X007317Y000223D02*Y000198D01*X007257Y000243D02*Y000218D01*
X007172Y000143D02*Y000118D01*X007107Y000238D02*Y000213D01*
X007062Y000243D02*Y000218D01*X007037D02*Y000193D01*X007702Y000243D02*
Y000218D01*X007727Y000228D02*Y000203D01*X007737Y000158D02*Y000133D01*
X007852Y000243D02*Y000218D01*X007492Y000243D02*Y000218D01*
X007917Y000183D02*Y000158D01*X004982Y000298D02*Y000273D01*
X006232Y000243D02*Y000218D01*X006227Y000178D02*Y000153D01*
X006142Y000238D02*Y000213D01*X006082Y000243D02*Y000218D01*
X006057Y000223D02*Y000198D01*X006052Y000153D02*Y000128D01*
X005822Y000123D02*X005797D01*X004232Y000273D02*X004207D01*
X006917Y000233D02*Y000208D01*X006227Y000103D02*X006202D01*
X006872Y000243D02*Y000218D01*X004232Y000208D02*Y000183D01*
X006312Y000228D02*Y000203D01*X006297Y000183D02*Y000158D01*
X004347Y000233D02*X004322D01*X007067Y000223D02*X007042D01*
X007847Y000158D02*X007822D01*X007642D02*X007617D01*X007732Y000163D02*
X007707D01*X004347Y000238D02*X004322D01*X004572D02*X004547D01*
X005177D02*X005152D01*X006077Y000198D02*X006052D01*X006022Y000218D02*
X005997D01*X007197D02*X007172D01*X007342D02*X007317D01*X007427D02*
X007402D01*X006317Y000213D02*X006292D01*X007937D02*X007912D01*
X007937Y000208D02*X007917D01*X006317D02*X006297D01*X007937Y000203D02*
X007917D01*X007732D02*X007712D01*X006317D02*X006297D01*
X007187Y000143D02*X007167D01*X007332D02*X007312D01*X007332Y000153D02*
X007312D01*X007332Y000148D02*X007312D01*X007187Y000138D02*X007167D01*
X004567Y000233D02*X004552D01*X005172D02*X005157D01*X004286Y001127D02*
X004306Y001147D01*X003486Y001787D02*X003506Y001807D01*
X003466Y001762D02*X003486Y001782D01*X003421Y001722D02*
X003441Y001742D01*X003351Y001052D02*X003371Y001072D01*
X003346Y000917D02*X003366Y000937D01*X004336Y001182D02*
X004351Y001197D01*X004311Y001147D02*X004326Y001162D01*
X004261Y001102D02*X004276Y001117D01*X004241Y001087D02*
X004256Y001102D01*X004216Y001072D02*X004231Y001087D01*
X003516Y001832D02*X003531Y001847D01*X003516Y000957D02*
X003531Y000972D01*X003516Y000812D02*X003531Y000827D01*
X003386Y001697D02*X003401Y001712D01*X003366Y001687D02*
X003381Y001702D01*X003331Y001667D02*X003346Y001682D01*
X004661Y001777D02*X004671Y001787D01*X004381Y001262D02*
X004391Y001272D01*X004361Y001217D02*X004371Y001227D01*
X004351Y001202D02*X004361Y001212D01*X004326Y001167D02*
X004336Y001177D01*X004186Y001057D02*X004196Y001067D01*
X004156Y001042D02*X004166Y001052D01*X003556Y001912D02*
X003566Y001922D01*X003541Y001877D02*X003551Y001887D01*
X003536Y001862D02*X003546Y001872D01*X003506Y001812D02*
X003516Y001822D01*X003451Y001752D02*X003461Y001762D01*
X003406Y001712D02*X003416Y001722D01*X003351Y001677D02*
X003361Y001687D01*X003256Y001637D02*X003266Y001647D01*
X004881Y001417D02*X004886Y001422D01*X004881Y000637D02*
X004886Y000642D01*X004746Y002042D02*X004751Y002047D01*
X004741Y002027D02*X004746Y002032D01*X004736Y002012D02*
X004741Y002017D01*X004731Y001997D02*X004736Y002002D01*
X004726Y001982D02*X004731Y001987D01*X004721Y001962D02*
X004726Y001967D01*X004716Y001947D02*X004721Y001952D01*
X004711Y001932D02*X004716Y001937D01*X004706Y001912D02*
X004711Y001917D01*X004701Y001897D02*X004706Y001902D01*
X004696Y001882D02*X004701Y001887D01*X004691Y001862D02*
X004696Y001867D01*X004686Y001847D02*X004691Y001852D01*
X004681Y001832D02*X004686Y001837D01*X004676Y001812D02*
X004681Y001817D01*X004671Y001797D02*X004676Y001802D01*
X004531Y002042D02*X004536Y002047D01*X004526Y002027D02*
X004531Y002032D01*X004521Y002012D02*X004526Y002017D01*
X004516Y001997D02*X004521Y002002D01*X004511Y001977D02*
X004516Y001982D01*X004506Y001962D02*X004511Y001967D01*
X004501Y001942D02*X004506Y001947D01*X004496Y001927D02*
X004501Y001932D01*X004491Y001912D02*X004496Y001917D01*
X004486Y001892D02*X004491Y001897D01*X004481Y001877D02*
X004486Y001882D01*X004476Y001857D02*X004481Y001862D01*
X004471Y001842D02*X004476Y001847D01*X004466Y001827D02*
X004471Y001832D01*X004461Y001807D02*X004466Y001812D01*
X004456Y001792D02*X004461Y001797D01*X004451Y001772D02*
X004456Y001777D01*X004416Y001412D02*X004421Y001417D01*
X004416Y001392D02*X004421Y001397D01*X004411Y001377D02*
X004416Y001382D01*X004411Y001362D02*X004416Y001367D01*
X004411Y001352D02*X004416Y001357D01*X004406Y001327D02*
X004411Y001332D01*X004401Y001312D02*X004406Y001317D01*
X004396Y001302D02*X004401Y001307D01*X004391Y001287D02*
X004396Y001292D01*X004376Y001252D02*X004381Y001257D01*
X004371Y001232D02*X004376Y001237D01*X004336Y002042D02*
X004341Y002047D01*X004281Y001117D02*X004286Y001122D01*
X004206Y001067D02*X004211Y001072D01*X004176Y001052D02*
X004181Y001057D01*X004136Y001037D02*X004141Y001042D01*
X004116Y001032D02*X004121Y001037D01*X004101Y001797D02*
X004106Y001802D01*X004096Y001027D02*X004101Y001032D01*
X004086Y001027D02*X004091Y001032D01*X004076Y001802D02*
X004081Y001807D01*X004066Y001022D02*X004071Y001027D01*
X004051Y001022D02*X004056Y001027D01*X004026Y001802D02*
X004031Y001807D01*X004026Y001017D02*X004031Y001022D01*
X004021Y000637D02*X004026Y000642D01*X003676Y001227D02*
X003681Y001232D01*X003636Y001332D02*X003641Y001337D01*
X003631Y001412D02*X003636Y001417D01*X003631Y001367D02*
X003636Y001372D01*X003631Y001357D02*X003636Y001362D01*
X003611Y002187D02*X003616Y002192D01*X003606Y002147D02*
X003611Y002152D01*X003606Y002127D02*X003611Y002132D01*
X003601Y002102D02*X003606Y002107D01*X003601Y002087D02*
X003606Y002092D01*X003596Y002067D02*X003601Y002072D01*
X003596Y002057D02*X003601Y002062D01*X003596Y002047D02*
X003601Y002052D01*X003591Y002027D02*X003596Y002032D01*
X003586Y002007D02*X003591Y002012D01*X003581Y001987D02*
X003586Y001992D01*X003576Y001967D02*X003581Y001972D01*
X003571Y001947D02*X003576Y001952D01*X003566Y001932D02*
X003571Y001937D01*X003551Y001892D02*X003556Y001897D01*
X003536Y000867D02*X003541Y000872D01*X003531Y001852D02*
X003536Y001857D01*X003531Y000992D02*X003536Y000997D01*
X003531Y000842D02*X003536Y000847D01*X003506Y000807D02*
X003511Y000812D01*X003501Y000952D02*X003506Y000957D01*
X003461Y000947D02*X003466Y000952D01*X003446Y001742D02*
X003451Y001747D01*X003396Y000942D02*X003401Y000947D01*
X003391Y001077D02*X003396Y001082D01*X003376Y001072D02*
X003381Y001077D01*X003376Y000937D02*X003381Y000942D01*
X003346Y001032D02*X003351Y001037D01*X003341Y000902D02*
X003346Y000907D01*X003321Y001662D02*X003326Y001667D01*
X003306Y001657D02*X003311Y001662D01*X003291Y001652D02*
X003296Y001657D01*X003281Y001647D02*X003286Y001652D01*
X003241Y001632D02*X003246Y001637D01*X003231Y001627D02*
X003236Y001632D01*X003211Y001622D02*X003216Y001627D01*
X003196Y001617D02*X003201Y001622D01*X003176Y001612D02*
X003181Y001617D01*X003141Y002207D02*X003146Y002212D01*X004891D02*
X004896Y002207D01*X004881Y002197D02*X004886Y002192D01*
X004881Y001227D02*X004886Y001222D01*X004846D02*X004851Y001217D01*
X004771Y002047D02*X004776Y002042D01*X004756Y001192D02*
X004761Y001187D01*X004681Y001157D02*X004686Y001152D01*
X004656Y001782D02*X004661Y001777D01*X004651Y001802D02*
X004656Y001797D01*X004646Y001817D02*X004651Y001812D01*
X004641Y001837D02*X004646Y001832D01*X004636Y001852D02*
X004641Y001847D01*X004636Y001757D02*X004641Y001752D01*
X004631Y001867D02*X004636Y001862D01*X004631Y001772D02*
X004636Y001767D01*X004626Y001887D02*X004631Y001882D01*
X004626Y001792D02*X004631Y001787D01*X004621Y001902D02*
X004626Y001897D01*X004621Y001807D02*X004626Y001802D01*
X004616Y001922D02*X004621Y001917D01*X004616Y001827D02*
X004621Y001822D01*X004611Y001937D02*X004616Y001932D01*
X004611Y001842D02*X004616Y001837D01*X004606Y001952D02*
X004611Y001947D01*X004606Y001857D02*X004611Y001852D01*
X004601Y001972D02*X004606Y001967D01*X004601Y001877D02*
X004606Y001872D01*X004596Y001987D02*X004601Y001982D01*
X004596Y001892D02*X004601Y001887D01*X004591Y002007D02*
X004596Y002002D01*X004591Y001907D02*X004596Y001902D01*
X004586Y002022D02*X004591Y002017D01*X004586Y001927D02*
X004591Y001922D01*X004581Y002037D02*X004586Y002032D01*
X004581Y001942D02*X004586Y001937D01*X004576Y002047D02*
X004581Y002042D01*X004576Y001957D02*X004581Y001952D01*
X004571Y001977D02*X004576Y001972D01*X004566Y001992D02*
X004571Y001987D01*X004561Y002012D02*X004566Y002007D01*
X004556Y002022D02*X004561Y002017D01*X004496Y000972D02*
X004501Y000967D01*X004491Y000962D02*X004496Y000957D01*
X004461Y000882D02*X004466Y000877D01*X004456Y000862D02*
X004461Y000857D01*X004451Y000842D02*X004456Y000837D01*
X004446Y001777D02*X004451Y001772D01*X004441Y001792D02*
X004446Y001787D01*X004436Y001807D02*X004441Y001802D01*
X004436Y000762D02*X004441Y000757D01*X004431Y001822D02*
X004436Y001817D01*X004426Y001842D02*X004431Y001837D01*
X004426Y001757D02*X004431Y001752D01*X004426Y000642D02*
X004431Y000637D01*X004421Y001857D02*X004426Y001852D01*
X004421Y001767D02*X004426Y001762D01*X004416Y001872D02*
X004421Y001867D01*X004416Y001782D02*X004421Y001777D01*
X004416Y001407D02*X004421Y001402D01*X004411Y001887D02*
X004416Y001882D01*X004411Y001797D02*X004416Y001792D01*
X004411Y001372D02*X004416Y001367D01*X004411Y001362D02*
X004416Y001357D01*X004406Y001907D02*X004411Y001902D01*
X004406Y001812D02*X004411Y001807D01*X004401Y001922D02*
X004406Y001917D01*X004401Y001827D02*X004406Y001822D01*
X004401Y001497D02*X004406Y001492D01*X004401Y001487D02*
X004406Y001482D01*X004401Y001477D02*X004406Y001472D01*
X004396Y001937D02*X004401Y001932D01*X004396Y001847D02*
X004401Y001842D01*X004396Y001512D02*X004401Y001507D01*
X004391Y001952D02*X004396Y001947D01*X004391Y001862D02*
X004396Y001857D01*X004386Y001972D02*X004391Y001967D01*
X004386Y001877D02*X004391Y001872D01*X004386Y001542D02*
X004396Y001532D01*X004381Y001987D02*X004386Y001982D01*
X004381Y001892D02*X004386Y001887D01*X004376Y002002D02*
X004381Y001997D01*X004376Y001907D02*X004381Y001902D01*
X004376Y001572D02*X004386Y001562D01*X004371Y002017D02*
X004376Y002012D01*X004371Y001922D02*X004376Y001917D01*
X004371Y001582D02*X004376Y001577D01*X004366Y002037D02*
X004371Y002032D01*X004366Y001942D02*X004371Y001937D01*
X004366Y001597D02*X004371Y001592D01*X004361Y002047D02*
X004366Y002042D01*X004361Y001957D02*X004366Y001952D01*
X004356Y001972D02*X004361Y001967D01*X004356Y001612D02*
X004366Y001602D01*X004351Y001987D02*X004356Y001982D01*
X004346Y002002D02*X004351Y001997D01*X004346Y001627D02*
X004356Y001617D01*X004341Y002017D02*X004346Y002012D01*
X004341Y001637D02*X004346Y001632D01*X004336Y002037D02*
X004341Y002032D01*X004336Y001647D02*X004341Y001642D01*
X004331Y001657D02*X004336Y001652D01*X004321Y001662D02*
X004326Y001657D01*X004266Y001722D02*X004321Y001667D01*
X004236Y001747D02*X004261Y001722D01*X004221Y001752D02*
X004226Y001747D01*X004206Y001762D02*X004216Y001752D01*
X004196Y001767D02*X004201Y001762D01*X004181Y001777D02*
X004191Y001767D01*X004161Y001782D02*X004166Y001777D01*
X004151Y001787D02*X004156Y001782D01*X004136Y001792D02*
X004141Y001787D01*X004126Y001797D02*X004131Y001792D01*
X004106Y001802D02*X004111Y001797D01*X004096Y001802D02*
X004101Y001797D01*X004091Y001032D02*X004096Y001027D01*
X004081Y001807D02*X004086Y001802D01*X004066Y001807D02*
X004071Y001802D01*X004056Y001027D02*X004061Y001022D01*
X004026Y001812D02*X004031Y001807D01*X004026Y001427D02*
X004031Y001422D01*X004016Y001817D02*X004026Y001807D01*
X004016Y001817D02*X004021Y001812D01*X004011Y001417D02*
X004016Y001412D01*X003991Y001817D02*X003996Y001812D01*
X003986Y001032D02*X003991Y001027D01*X003961Y001037D02*
X003966Y001032D01*X003946Y001812D02*X003951Y001807D01*
X003946Y001037D02*X003951Y001032D01*X003936Y001042D02*
X003941Y001037D01*X003911Y001047D02*X003916Y001042D01*
X003896Y001052D02*X003901Y001047D01*X003881Y001057D02*
X003886Y001052D01*X003866Y001062D02*X003871Y001057D01*
X003856Y001067D02*X003861Y001062D01*X003846Y001072D02*
X003851Y001067D01*X003836Y001077D02*X003841Y001072D01*
X003831Y001772D02*X003836Y001767D01*X003811Y001092D02*
X003826Y001077D01*X003771Y001122D02*X003801Y001092D01*
X003721Y001167D02*X003766Y001122D01*X003701Y001192D02*
X003721Y001172D01*X003691Y001207D02*X003701Y001197D01*
X003676Y001227D02*X003691Y001212D01*X003671Y001617D02*
X003676Y001612D01*X003671Y001242D02*X003681Y001232D01*
X003661Y001257D02*X003671Y001247D01*X003656Y001272D02*
X003661Y001267D01*X003651Y001287D02*X003656Y001282D01*
X003646Y001302D02*X003651Y001297D01*X003641Y001322D02*
X003646Y001317D01*X003636Y001347D02*X003641Y001342D01*
X003636Y001332D02*X003641Y001327D01*X003631Y001517D02*
X003636Y001512D01*X003631Y001377D02*X003636Y001372D01*
X003631Y001367D02*X003636Y001362D01*X003631Y001357D02*
X003636Y001352D01*X003626Y001492D02*X003631Y001487D01*
X003621Y001452D02*X003626Y001447D01*X003621Y001422D02*
X003631Y001412D01*X003621Y001422D02*X003626Y001417D01*
X003611Y002197D02*X003616Y002192D01*X003606Y002147D02*
X003611Y002142D01*X003601Y002102D02*X003606Y002097D01*
X003596Y002067D02*X003601Y002062D01*X003596Y002057D02*
X003601Y002052D01*X003556Y001032D02*X003561Y001027D01*
X003556Y000872D02*X003561Y000867D01*X003551Y001052D02*
X003556Y001047D01*X003541Y001877D02*X003546Y001872D01*
X003536Y001072D02*X003551Y001057D01*X003531Y001017D02*
X003536Y001012D01*X003526Y001037D02*X003531Y001032D01*
X003521Y001077D02*X003526Y001072D01*X003516Y001052D02*
X003526Y001042D01*X003506Y001082D02*X003511Y001077D01*
X003506Y001057D02*X003511Y001052D01*X003476Y001062D02*
X003481Y001057D01*X003396Y000787D02*X003401Y000782D01*
X003391Y000812D02*X003396Y000807D01*X003381Y001702D02*
X003386Y001697D01*X003376Y000822D02*X003386Y000812D01*
X003376Y000792D02*X003381Y000787D01*X003371Y000832D02*
X003376Y000827D01*X003366Y000852D02*X003371Y000847D01*
X003351Y000807D02*X003366Y000792D01*X003346Y001682D02*
X003351Y001677D01*X003346Y001007D02*X003351Y001002D01*
X003346Y000817D02*X003351Y000812D01*X003341Y000832D02*
X003346Y000827D01*X003326Y001672D02*X003331Y001667D01*
X003151Y001617D02*X003156Y001612D01*X003151Y000642D02*
X003156Y000637D01*X003141Y000632D02*X003146Y000627D01*
X004896Y002212D02*X003141D01*X004896Y002207D02*X003141D01*
X004896Y002202D02*X003141D01*X004896Y002197D02*X003141D01*
X004896Y000627D02*X003141D01*X004896Y000632D02*X003141D01*
X004896Y000637D02*X003141D01*Y002212D02*Y000627D01*X003146Y002212D02*
Y000627D01*X003151Y002212D02*Y000627D01*X004886Y002212D02*Y000627D01*
X004891Y002212D02*Y000627D01*X004896Y002212D02*Y000627D01*
X004421Y001417D02*Y000627D01*X004426Y001417D02*Y000627D01*
X003616Y002212D02*Y001422D01*X003621Y002212D02*Y001422D01*
X004416Y001392D02*Y000627D01*X003611Y002187D02*Y001422D01*
X003626Y002212D02*Y001467D01*X004411Y001352D02*Y000627D01*
X004431Y001417D02*Y000692D01*X003631Y002212D02*Y001497D01*
X003606Y002127D02*Y001422D01*X004406Y001327D02*Y000627D01*
X003636Y002212D02*Y001522D01*X004401Y001312D02*Y000627D01*
X004436Y001417D02*Y000737D01*X003641Y002212D02*Y001537D01*
X004396Y001302D02*Y000627D01*X003601Y002087D02*Y001422D01*
X004391Y001287D02*Y000627D01*X003646Y002212D02*Y001557D01*
X003651Y002212D02*Y001567D01*X004441Y001417D02*Y000772D01*
X004386Y001267D02*Y000627D01*X003656Y002212D02*Y001577D01*
X004381Y001262D02*Y000627D01*X003661Y002212D02*Y001587D01*
X004376Y001252D02*Y000627D01*X003596Y002047D02*Y001422D01*
X003666Y002212D02*Y001597D01*X004446Y001417D02*Y000807D01*
X004371Y001232D02*Y000627D01*X003671Y002212D02*Y001607D01*
X003591Y002027D02*Y001422D01*X004366Y001222D02*Y000627D01*
X004361Y001217D02*Y000627D01*X004451Y001417D02*Y000827D01*
X003676Y002212D02*Y001622D01*X003681Y002212D02*Y001627D01*
X003586Y002007D02*Y001422D01*X004356Y001207D02*Y000627D01*
X003686Y002212D02*Y001637D01*X004351Y001202D02*Y000627D01*
X003691Y002212D02*Y001642D01*X004456Y001417D02*Y000847D01*
X003581Y001987D02*Y001422D01*X004346Y001192D02*Y000627D01*
X004341Y001192D02*Y000627D01*X003696Y002212D02*Y001647D01*
X003701Y002212D02*Y001657D01*X004336Y001182D02*Y000627D01*
X003706Y002212D02*Y001662D01*X003576Y001967D02*Y001422D01*
X003711Y002212D02*Y001667D01*X004326Y001172D02*Y000627D01*
X004331Y001172D02*Y000627D01*X004461Y001417D02*Y000872D01*
X003676Y001612D02*X003141D01*X003716Y002212D02*Y001677D01*
X004321Y001157D02*Y000627D01*X003721Y002212D02*Y001682D01*
X003671Y001607D02*X003141D01*X004466Y001417D02*Y000887D01*
X004316Y001152D02*Y000627D01*X004896Y001227D02*X004371D01*
X004896Y001232D02*X004371D01*X003571Y001947D02*Y001422D01*
X003666Y001597D02*X003141D01*X003666Y001602D02*X003141D01*
X003726Y002212D02*Y001687D01*X003661Y001592D02*X003141D01*
X003661Y001587D02*X003141D01*X004896Y001252D02*X004376D01*
X003731Y002212D02*Y001692D01*X004311Y001147D02*Y000627D01*
X004306Y001147D02*Y000627D01*X004896Y001242D02*X004376D01*
X004896Y001237D02*X004376D01*X004896Y001247D02*X004376D01*
X004301Y001142D02*Y000627D01*X004896Y001257D02*X004381D01*
X003656Y001582D02*X003141D01*X003736Y002212D02*Y001697D01*
X004896Y001262D02*X004381D01*X003656Y001577D02*X003141D01*
X004471Y001417D02*Y000902D01*X004476Y001417D02*Y000907D01*
X003741Y002212D02*Y001702D01*X004896Y001267D02*X004386D01*
X004016Y001817D02*X003506D01*X003651Y001572D02*X003141D01*
X004296Y001137D02*Y000627D01*X003566Y001932D02*Y001422D01*
X003651Y001567D02*X003141D01*X003646Y001557D02*X003141D01*
X004896Y001287D02*X004391D01*X003751Y002212D02*Y001707D01*
X003746Y002212D02*Y001707D01*X004896Y001277D02*X004391D01*
X004896Y001272D02*X004391D01*X004291Y001132D02*Y000627D01*
X003646Y001562D02*X003141D01*X004896Y001282D02*X004391D01*
X004531Y001022D02*X004026D01*X004016Y001822D02*X003516D01*
X004016Y001827D02*X003516D01*X004896Y001302D02*X004396D01*
X004526Y001017D02*X004026D01*X004896Y001292D02*X004396D01*
X003641Y001552D02*X003141D01*X004286Y001127D02*Y000627D01*
X004896Y001297D02*X004396D01*X003641Y001537D02*X003141D01*
X003641Y001542D02*X003141D01*X004016Y001832D02*X003516D01*
X003641Y001547D02*X003141D01*X004016Y001837D02*X003521D01*
X003636Y001527D02*X003141D01*X004896Y001307D02*X004401D01*
X004896Y001312D02*X004401D01*X003636Y001522D02*X003141D01*
X004521Y001007D02*X004026D01*X003756Y002212D02*Y001717D01*
X003636Y001512D02*X003141D01*X004521Y001012D02*X004026D01*
X003561Y001917D02*Y001422D01*X004481Y001417D02*Y000922D01*
X003636Y001532D02*X003141D01*X004896Y001322D02*X004406D01*
X004281Y001117D02*Y000627D01*X004276Y001117D02*Y000627D01*
X004516Y001002D02*X004026D01*X003631Y001517D02*X003141D01*
X004896Y001317D02*X004406D01*X003761Y002212D02*Y001722D01*
X003556Y001912D02*Y001422D01*X003671Y001617D02*X003181D01*
X004856Y001222D02*X004366D01*X003631Y001487D02*X003141D01*
X004896Y001327D02*X004406D01*X003631Y001497D02*X003141D01*
X004016Y001842D02*X003526D01*X003631Y001502D02*X003141D01*
X003631Y001507D02*X003141D01*X003626Y001467D02*X003141D01*
X004271Y001112D02*Y000627D01*X004896Y001337D02*X004411D01*
X004896Y001332D02*X004411D01*X004511Y000997D02*X004026D01*
X004896Y001342D02*X004411D01*X003626Y001442D02*X003141D01*
X004896Y001377D02*X004411D01*X003626Y001472D02*X003141D01*
X004896Y001372D02*X004411D01*X003626Y001477D02*X003141D01*
X004016Y001852D02*X003531D01*X004896Y001347D02*X004411D01*
X004896Y001362D02*X004411D01*X003626Y001482D02*X003141D01*
X003626Y001492D02*X003141D01*X004511Y000992D02*X004026D01*
X004896Y001352D02*X004411D01*X003626Y001447D02*X003141D01*
X003766Y002212D02*Y001727D01*X004016Y001847D02*X003531D01*
X003621Y001437D02*X003141D01*X004896Y001417D02*X004416D01*
X004841Y001217D02*X004361D01*X003621Y001432D02*X003141D01*
X004506Y000982D02*X004026D01*X004896Y001412D02*X004416D01*
X004506Y000987D02*X004026D01*X003621Y001457D02*X003141D01*
X004896Y001382D02*X004416D01*X004016Y001867D02*X003536D01*
X004896Y001367D02*X004416D01*X003776Y002212D02*Y001732D01*
X003621Y001427D02*X003141D01*X004896Y001387D02*X004416D01*
X004896Y001407D02*X004416D01*X003771Y002212D02*Y001732D01*
X004016Y001862D02*X003536D01*X003621Y001452D02*X003141D01*
X004896Y001357D02*X004416D01*X004896Y001392D02*X004416D01*
X004016Y001857D02*X003536D01*X003781Y002212D02*Y001732D01*
X003621Y001422D02*X003141D01*X004266Y001107D02*Y000627D01*
X003621Y001462D02*X003141D01*X004016Y001877D02*X003541D01*
X004501Y000977D02*X004026D01*X004896Y001397D02*X004421D01*
X004896Y001402D02*X004421D01*X004501Y000967D02*X004026D01*
X004486Y001417D02*Y000942D01*X004256Y001102D02*Y000627D01*
X004261Y001102D02*Y000627D01*X003676Y001622D02*X003201D01*
X003551Y001892D02*Y001422D01*X004016Y001882D02*X003546D01*
X003786Y002212D02*Y001742D01*X004496Y000957D02*X004026D01*
X003791Y002212D02*Y001742D01*X004496Y000972D02*X004026D01*
X004016Y001872D02*X003546D01*X003976Y001812D02*X003506D01*
X004246Y001097D02*Y000627D01*X004251Y001097D02*Y000627D01*
X004491Y000962D02*X004026D01*X004016Y001892D02*X003551D01*
X004016Y001887D02*X003551D01*X004826Y001212D02*X004361D01*
X003796Y002212D02*Y001747D01*X004491Y000952D02*X004026D01*
X003681Y001627D02*X003216D01*X004491Y001417D02*Y000952D01*
X004016Y001907D02*X003556D01*X004016Y001912D02*X003556D01*
X003546Y001882D02*Y001422D01*X004016Y001902D02*X003556D01*
X004016Y001897D02*X003556D01*X004531Y001027D02*X004071D01*
X003806Y002212D02*Y001752D01*X004486Y000947D02*X004026D01*
X004241Y001087D02*Y000627D01*X003801Y002212D02*Y001752D01*
X004236Y001087D02*Y000627D01*X004486Y000942D02*X004026D01*
X004231Y001087D02*Y000627D01*X004016Y001917D02*X003561D01*
X004226Y001082D02*Y000627D01*X004481Y000927D02*X004026D01*
X004481Y000937D02*X004026D01*X004811Y001207D02*X004356D01*
X004481Y000922D02*X004026D01*X004481Y000932D02*X004026D01*
X003811Y002212D02*Y001757D01*X003826Y002212D02*Y001762D01*
X004016Y001922D02*X003566D01*X003821Y002212D02*Y001762D01*
X004221Y001077D02*Y000627D01*X004016Y001927D02*X003566D01*
X004476Y000907D02*X004026D01*X003816Y002212D02*Y001762D01*
X004476Y000917D02*X004026D01*X004476Y000912D02*X004026D01*
X004016Y001932D02*X003566D01*X004496Y001417D02*Y000967D01*
X004216Y001072D02*Y000627D01*X003836Y002212D02*Y001767D01*
X004471Y000902D02*X004026D01*X004211Y001072D02*Y000627D01*
X004016Y001942D02*X003571D01*X004016Y001947D02*X003571D01*
X003541Y001867D02*Y001422D01*X004016Y001937D02*X003571D01*
X003536Y001867D02*Y001422D01*X003681Y001632D02*X003236D01*
X004791Y001202D02*X004351D01*X004466Y000887D02*X004026D01*
X003686Y001637D02*X003246D01*X004196Y001067D02*Y000627D01*
X004016Y001957D02*X003576D01*X003831Y002212D02*Y001772D01*
X004016Y001967D02*X003576D01*X004501Y001417D02*Y000977D01*
X004541Y001032D02*X004101D01*X003841Y002212D02*Y001772D01*
X004466Y000892D02*X004026D01*X004201Y001067D02*Y000627D01*
X004206Y001067D02*Y000627D01*X004466Y000897D02*X004026D01*
X004016Y001952D02*X003576D01*X004016Y001962D02*X003576D01*
X004466Y000877D02*X004026D01*X003856Y002212D02*Y001777D01*
X004461Y000882D02*X004026D01*X004016Y001972D02*X003581D01*
X003851Y002212D02*Y001777D01*X004461Y000872D02*X004026D01*
X004461Y000857D02*X004026D01*X004016Y001987D02*X003581D01*
X004506Y001417D02*Y000982D01*X004016Y001982D02*X003581D01*
X004191Y001062D02*Y000627D01*X003846Y002212D02*Y001777D01*
X004016Y001977D02*X003581D01*X004016Y002007D02*X003586D01*
X004456Y000862D02*X004026D01*X004456Y000837D02*X004026D01*
X004181Y001057D02*Y000627D01*X004016Y001992D02*X003586D01*
X004781Y001197D02*X004351D01*X004456Y000852D02*X004026D01*
X003531Y001852D02*Y001422D01*X003936Y001807D02*X003506D01*
X004456Y000867D02*X004026D01*X004016Y001997D02*X003586D01*
X004016Y002002D02*X003586D01*X003696Y001647D02*X003266D01*
X003861Y002212D02*Y001782D01*X003691Y001642D02*X003261D01*
X004186Y001057D02*Y000627D01*X004456Y000847D02*X004026D01*
X003866Y002212D02*Y001787D01*X003871Y002212D02*Y001787D01*
X004451Y000842D02*X004026D01*X004451Y000832D02*X004026D01*
X004016Y002017D02*X003591D01*X004766Y001192D02*X004341D01*
X004016Y002012D02*X003591D01*X004511Y001417D02*Y000992D01*
X004161Y001052D02*Y000627D01*X004016Y002027D02*X003591D01*
X004176Y001052D02*Y000627D01*X004451Y000827D02*X004026D01*
X004016Y002022D02*X003591D01*X004166Y001052D02*Y000627D01*
X004171Y001052D02*Y000627D01*X003876Y002212D02*Y001792D01*
X003886Y002212D02*Y001792D01*X003881Y002212D02*Y001792D01*
X003921Y001802D02*X003501D01*X004446Y000817D02*X004026D01*
X004016Y002042D02*X003596D01*X004016Y002037D02*X003596D01*
X004446Y000812D02*X004026D01*X004446Y000822D02*X004026D01*
X004016Y002047D02*X003596D01*X004016Y002032D02*X003596D01*
X004446Y000807D02*X004026D01*X004016Y002067D02*X003596D01*
X003526Y001842D02*Y001422D01*X004541Y001037D02*X004121D01*
X004016Y002057D02*X003596D01*X004441Y000797D02*X004026D01*
X004441Y000792D02*X004026D01*X004441Y000777D02*X004026D01*
X004141Y001042D02*Y000627D01*X004146Y001042D02*Y000627D01*
X004016Y002102D02*X003601D01*X004016Y002087D02*X003601D01*
X003901Y002212D02*Y001797D01*X004441Y000782D02*X004026D01*
X004016Y002077D02*X003601D01*X004441Y000787D02*X004026D01*
X004151Y001042D02*Y000627D01*X003896Y002212D02*Y001797D01*
X004156Y001042D02*Y000627D01*X004016Y002082D02*X003601D01*
X003521Y001837D02*Y001422D01*X003891Y002212D02*Y001797D01*
X004016Y002072D02*X003601D01*X004016Y002062D02*X003601D01*
X004016Y002052D02*X003601D01*X004516Y001417D02*Y001002D01*
X004441Y000757D02*X004026D01*X004441Y000802D02*X004026D01*
X004441Y000772D02*X004026D01*X004016Y002097D02*X003606D01*
X004016Y002092D02*X003606D01*X003696Y001652D02*X003286D01*
X004521Y001417D02*Y001007D01*X004751Y001187D02*X004341D01*
X003516Y001832D02*Y001422D01*X004436Y000762D02*X004026D01*
X004436Y000737D02*X004026D01*X003901Y001797D02*X003491D01*
X004436Y000752D02*X004026D01*X004436Y000747D02*X004026D01*
X004436Y000742D02*X004026D01*X004131Y001037D02*Y000627D01*
X003916Y002212D02*Y001802D01*X004136Y001037D02*Y000627D01*
X004016Y002127D02*X003606D01*X004016Y002122D02*X003606D01*
X004016Y002117D02*X003606D01*X003911Y002212D02*Y001802D01*
X004016Y002147D02*X003606D01*X003921Y002212D02*Y001802D01*
X004016Y002112D02*X003606D01*X004016Y002107D02*X003606D01*
X004126Y001037D02*Y000627D01*X003906Y002212D02*Y001802D01*
X004121Y001037D02*Y000627D01*X004436Y000767D02*X004026D01*
X004111Y001032D02*Y000627D01*X004116Y001032D02*Y000627D01*
X003701Y001657D02*X003296D01*X004106Y001032D02*Y000627D01*
X004431Y000692D02*X004026D01*X004101Y001032D02*Y000627D01*
X004016Y002177D02*X003611D01*X004016Y002167D02*X003611D01*
X004016Y002187D02*X003611D01*X004016Y002162D02*X003611D01*
X003951Y002212D02*Y001807D01*X004016Y002182D02*X003611D01*
X003936Y002212D02*Y001807D01*X004016Y002157D02*X003611D01*
X003931Y002212D02*Y001807D01*X004431Y000732D02*X004026D01*
X003926Y002212D02*Y001807D01*X004016Y002152D02*X003611D01*
X004016Y002142D02*X003611D01*X004016Y002137D02*X003611D01*
X004431Y000727D02*X004026D01*X004091Y001032D02*Y000627D01*
X004546Y001042D02*X004141D01*X004431Y000697D02*X004026D01*
X004431Y000702D02*X004026D01*X004741Y001182D02*X004336D01*
X004431Y000707D02*X004026D01*X004431Y000712D02*X004026D01*
X004016Y002172D02*X003611D01*X004431Y000717D02*X004026D01*
X004431Y000722D02*X004026D01*X004016Y002132D02*X003611D01*
X004426Y000642D02*X004026D01*X004426Y000662D02*X004026D01*
X004426Y000672D02*X004026D01*X004426Y000657D02*X004026D01*
X004426Y000647D02*X004026D01*X004426Y000652D02*X004026D01*
X004426Y000667D02*X004026D01*X004096Y001027D02*Y000627D01*
X004726Y001172D02*X004326D01*X004086Y001027D02*Y000627D01*
X004081Y001027D02*Y000627D01*X004076Y001027D02*Y000627D01*
X004071Y001027D02*Y000627D01*X004056Y001027D02*Y000627D01*
X004001Y002212D02*Y001812D01*X003996Y002212D02*Y001812D01*
X004526Y001417D02*Y001017D01*X003976Y002212D02*Y001812D01*
X003971Y002212D02*Y001812D01*X003966Y002212D02*Y001812D01*
X003961Y002212D02*Y001812D01*X003956Y002212D02*Y001812D01*
X003946Y002212D02*Y001812D01*X003941Y002212D02*Y001812D01*
X004426Y000687D02*X004026D01*X004016Y002192D02*X003616D01*
X004426Y000682D02*X004026D01*X004426Y000677D02*X004026D01*
X003706Y001662D02*X003311D01*X004531Y001417D02*Y001022D01*
X003506Y001817D02*Y001422D01*X003511Y001817D02*Y001422D01*
X004731Y001177D02*X004336D01*X003886Y001792D02*X003491D01*
X004551Y001052D02*X004161D01*X004551Y001047D02*X004161D01*
X004716Y001167D02*X004326D01*X003996Y001417D02*Y001027D01*
X004026Y001812D02*Y001422D01*X003991Y001417D02*Y001027D01*
X004016Y001417D02*X003626D01*X004081Y001807D02*Y001422D01*
X004016Y001382D02*X003631D01*X003711Y001667D02*X003326D01*
X004016Y001377D02*X003631D01*X004016Y001367D02*X003631D01*
X004016Y001417D02*Y001032D01*X003951Y001417D02*Y001032D01*
X004011Y001417D02*Y001032D01*X004016Y001357D02*X003631D01*
X004006Y001417D02*Y001032D01*X004001Y001417D02*Y001032D01*
X003986Y001417D02*Y001032D01*X003981Y001417D02*Y001032D01*
X003966Y001417D02*Y001032D01*X003971Y001417D02*Y001032D01*
X003976Y001417D02*Y001032D01*X004541Y001417D02*Y001032D01*
X004536Y001417D02*Y001032D01*X004041Y001807D02*Y001422D01*
X004016Y001392D02*X003631D01*X004046Y001807D02*Y001422D01*
X004051Y001807D02*Y001422D01*X004056Y001807D02*Y001422D01*
X004016Y001397D02*X003631D01*X004061Y001807D02*Y001422D01*
X004036Y001807D02*Y001422D01*X004016Y001402D02*X003631D01*
X004016Y001387D02*X003631D01*X004066Y001807D02*Y001422D01*
X004031Y001807D02*Y001422D01*X004016Y001407D02*X003631D01*
X004016Y001412D02*X003631D01*X003871Y001787D02*X003486D01*
X004406Y001492D02*X004026D01*X004016Y001347D02*X003636D01*
X004016Y001352D02*X003636D01*X004406Y001427D02*X004026D01*
X004406Y001422D02*X004026D01*X003501Y001802D02*Y001422D01*
X004016Y001362D02*X003636D01*X004016Y001372D02*X003636D01*
X003716Y001677D02*X003336D01*X004071Y001802D02*Y001422D01*
X004106Y001802D02*Y001422D01*X004096Y001802D02*Y001422D01*
X004091Y001802D02*Y001422D01*X004086Y001802D02*Y001422D01*
X004076Y001802D02*Y001422D01*X004406Y001462D02*X004026D01*
X003946Y001417D02*Y001037D01*X004406Y001442D02*X004026D01*
X003941Y001417D02*Y001037D01*X004406Y001467D02*X004026D01*
X004406Y001447D02*X004026D01*X004406Y001457D02*X004026D01*
X004406Y001437D02*X004026D01*X003956Y001417D02*Y001037D01*
X004016Y001332D02*X003636D01*X004406Y001472D02*X004026D01*
X003961Y001417D02*Y001037D01*X004406Y001452D02*X004026D01*
X004406Y001432D02*X004026D01*X004406Y001482D02*X004026D01*
X004566Y001062D02*X004191D01*X003491Y001797D02*Y001422D01*
X003931Y001417D02*Y001042D01*X004101Y001797D02*Y001422D01*
X003711Y001672D02*X003336D01*X004556Y001057D02*X004181D01*
X003936Y001417D02*Y001042D01*X004111Y001797D02*Y001422D01*
X003926Y001417D02*Y001042D01*X004116Y001797D02*Y001422D01*
X004121Y001797D02*Y001422D01*X004126Y001797D02*Y001422D01*
X004401Y001487D02*X004026D01*X004546Y001417D02*Y001042D01*
X004401Y001477D02*X004026D01*X004016Y001342D02*X003641D01*
X003496Y001797D02*Y001422D01*X004401Y001497D02*X004026D01*
X004401Y001502D02*X004026D01*X004016Y001337D02*X003641D01*
X004401Y001507D02*X004026D01*X004016Y001327D02*X003641D01*
X003916Y001417D02*Y001042D01*X004016Y001322D02*X003641D01*
X003856Y001777D02*X003481D01*X003921Y001417D02*Y001042D01*
X003861Y001782D02*X003486D01*X003911Y001417D02*Y001047D01*
X004016Y001307D02*X003646D01*X004016Y001312D02*X003646D01*
X003906Y001417D02*Y001047D01*X004016Y001302D02*X003646D01*
X004566Y001067D02*X004196D01*X004016Y001317D02*X003646D01*
X003901Y001417D02*Y001047D01*X004396Y001527D02*X004026D01*
X004691Y001157D02*X004321D01*X004696Y001162D02*X004326D01*
X004396Y001532D02*X004026D01*X004396Y001522D02*X004026D01*
X004396Y001517D02*X004026D01*X004396Y001512D02*X004026D01*
X004136Y001792D02*Y001422D01*X004131Y001792D02*Y001422D01*
X004551Y001417D02*Y001047D01*X003886Y001417D02*Y001052D01*
X003826Y001762D02*X003461D01*X003891Y001417D02*Y001052D01*
X003486Y001787D02*Y001422D01*X004016Y001287D02*X003651D01*
X003726Y001687D02*X003361D01*X003721Y001682D02*X003356D01*
X004016Y001292D02*X003651D01*X003841Y001772D02*X003476D01*
X003896Y001417D02*Y001052D01*X004671Y001147D02*X004306D01*
X004151Y001787D02*Y001422D01*X004146Y001787D02*Y001422D01*
X004141Y001787D02*Y001422D01*X004391Y001537D02*X004026D01*
X004016Y001297D02*X003651D01*X004386Y001547D02*X004026D01*
X004661Y001142D02*X004301D01*X004386Y001542D02*X004026D01*
X004591Y001087D02*X004231D01*X004016Y001272D02*X003656D01*
X004386Y001552D02*X004026D01*X004016Y001277D02*X003656D01*
X004586Y001082D02*X004226D01*X004016Y001282D02*X003656D01*
X004656Y001137D02*X004296D01*X004581Y001077D02*X004221D01*
X004386Y001557D02*X004026D01*X004651Y001132D02*X004291D01*
X004571Y001072D02*X004211D01*X004386Y001562D02*X004026D01*
X004676Y001152D02*X004316D01*X003731Y001692D02*X003371D01*
X004161Y001782D02*Y001422D01*X004156Y001782D02*Y001422D01*
X003881Y001417D02*Y001057D01*X003736Y001697D02*X003376D01*
X003871Y001417D02*Y001057D01*X003876Y001417D02*Y001057D01*
X004556Y001417D02*Y001057D01*X004381Y001567D02*X004026D01*
X003806Y001752D02*X003451D01*X003481Y001777D02*Y001422D01*
X004601Y001097D02*X004246D01*X004181Y001777D02*Y001422D01*
X003866Y001417D02*Y001062D01*X003811Y001757D02*X003456D01*
X003861Y001417D02*Y001062D01*X003826Y001767D02*X003471D01*
X004176Y001777D02*Y001422D01*X003751Y001707D02*X003396D01*
X004641Y001127D02*X004286D01*X004171Y001777D02*Y001422D01*
X004016Y001257D02*X003661D01*X004016Y001262D02*X003661D01*
X004561Y001417D02*Y001062D01*X004016Y001267D02*X003661D01*
X004166Y001777D02*Y001422D01*X004566Y001417D02*Y001062D01*
X003851Y001417D02*Y001067D01*X004636Y001122D02*X004286D01*
X004186Y001772D02*Y001422D01*X003761Y001722D02*X003411D01*
X003781Y001732D02*X003431D01*X003781Y001737D02*X003431D01*
X003751Y001712D02*X003401D01*X003791Y001742D02*X003441D01*
X003741Y001702D02*X003391D01*X004376Y001577D02*X004026D01*
X004016Y001252D02*X003666D01*X004376Y001572D02*X004026D01*
X004606Y001102D02*X004256D01*X003476Y001772D02*Y001422D01*
X003856Y001417D02*Y001067D01*X004626Y001117D02*X004276D01*
X004371Y001592D02*X004026D01*X004571Y001417D02*Y001072D01*
X004371Y001587D02*X004026D01*X003756Y001717D02*X003411D01*
X004591Y001092D02*X004246D01*X004371Y001582D02*X004026D01*
X003846Y001417D02*Y001072D01*X004016Y001247D02*X003671D01*
X004016Y001242D02*X003671D01*X003796Y001747D02*X003451D01*
X003841Y001417D02*Y001072D01*X003471Y001767D02*Y001422D01*
X004611Y001107D02*X004266D01*X004616Y001112D02*X004271D01*
X004191Y001767D02*Y001422D01*X004196Y001767D02*Y001422D01*
X003766Y001727D02*X003426D01*X003836Y001417D02*Y001077D01*
X003831Y001417D02*Y001077D01*X003826Y001417D02*Y001077D01*
X004206Y001762D02*Y001422D01*X004201Y001762D02*Y001422D01*
X004211Y001762D02*Y001422D01*X004016Y001237D02*X003676D01*
X004016Y001227D02*X003676D01*X004366Y001597D02*X004026D01*
X004366Y001602D02*X004026D01*X004361Y001607D02*X004026D01*
X003821Y001417D02*Y001082D01*X004016Y001222D02*X003681D01*
X004016Y001232D02*X003681D01*X004216Y001752D02*Y001422D01*
X004221Y001752D02*Y001422D01*X003816Y001417D02*Y001087D01*
X004016Y001217D02*X003686D01*X004356Y001612D02*X004026D01*
X004356Y001617D02*X004026D01*X004226Y001747D02*Y001422D01*
X004231Y001747D02*Y001422D01*X004236Y001747D02*Y001422D01*
X003811Y001417D02*Y001092D01*X003806Y001417D02*Y001092D01*
X004016Y001202D02*X003691D01*X004016Y001207D02*X003691D01*
X003801Y001417D02*Y001092D01*X004016Y001212D02*X003691D01*
X004351Y001622D02*X004026D01*X004346Y001627D02*X004026D01*
X004241Y001742D02*Y001422D01*X004346Y001632D02*X004026D01*
X003796Y001417D02*Y001097D01*X004016Y001192D02*X003701D01*
X004341Y001637D02*X004026D01*X004246Y001737D02*Y001422D01*
X004341Y001642D02*X004026D01*X004016Y001197D02*X003701D01*
X003791Y001417D02*Y001102D01*X004016Y001187D02*X003706D01*
X004251Y001732D02*Y001422D01*X004336Y001647D02*X004026D01*
X004336Y001652D02*X004026D01*X003786Y001417D02*Y001107D01*
X003776Y001417D02*Y001112D01*X004331Y001657D02*X004026D01*
X004016Y001177D02*X003711D01*X004256Y001727D02*Y001422D01*
X004016Y001182D02*X003711D01*X003781Y001417D02*Y001112D01*
X004266Y001722D02*Y001422D01*X004261Y001722D02*Y001422D01*
X004321Y001667D02*X004026D01*X003771Y001417D02*Y001122D01*
X004321Y001662D02*X004026D01*X004016Y001167D02*X003721D01*
X004271Y001717D02*Y001422D01*X004276Y001717D02*Y001422D01*
X003766Y001417D02*Y001122D01*X004016Y001172D02*X003721D01*
X004016Y001157D02*X003726D01*X003761Y001417D02*Y001127D01*
X003756Y001417D02*Y001127D01*X004316Y001672D02*X004026D01*
X004016Y001162D02*X003726D01*X004311Y001677D02*X004026D01*
X004281Y001707D02*Y001422D01*X003381Y001702D02*Y001422D01*
X003751Y001417D02*Y001137D01*X004286Y001702D02*Y001422D01*
X004306Y001682D02*X004026D01*X004016Y001152D02*X003736D01*
X004291Y001697D02*Y001422D01*X003746Y001417D02*Y001142D01*
X004301Y001687D02*X004026D01*X004016Y001147D02*X003741D01*
X004296Y001692D02*Y001422D01*X004686Y001417D02*Y001152D01*
X003346Y001682D02*Y001422D01*X003326Y001672D02*Y001422D01*
X004761Y001417D02*Y001187D01*X004851Y001417D02*Y001217D01*
X003551Y000807D02*X003351D01*X003546Y000802D02*X003356D01*
X003546Y001062D02*X003361D01*X003546Y000797D02*X003361D01*
X003541Y001067D02*X003361D01*X003536Y000792D02*X003366D01*
X003526Y000932D02*X003356D01*X003536Y000937D02*X003366D01*
X003536Y001072D02*X003371D01*X003516Y000927D02*X003356D01*
X003541Y000942D02*X003381D01*X003526Y000787D02*X003381D01*
X003366Y000937D02*Y000792D01*X003546Y000947D02*X003401D01*
X003521Y001077D02*X003381D01*X003491Y000922D02*X003351D01*
X003361Y000932D02*Y000797D01*X003536Y001072D02*Y000937D01*
X003356Y000932D02*Y000802D01*X003541Y001067D02*Y000942D01*
X003351Y000922D02*Y000807D01*X004491Y001912D02*Y001797D01*
X003546Y001062D02*Y000947D01*X004596Y002002D02*Y001892D01*X004486D02*
Y001782D01*X004591Y002017D02*Y001907D01*X004531Y002047D02*Y001937D01*
X004496Y001927D02*Y001817D01*X004606Y001967D02*Y001857D01*
X004526Y002027D02*Y001917D01*X004726Y001982D02*Y001872D01*
X004521Y002012D02*Y001902D01*X004516Y001997D02*Y001887D01*
X004501Y001942D02*Y001832D01*X004621Y001917D02*Y001807D01*
X004746Y002047D02*Y001937D01*X004631Y001882D02*Y001772D01*
X004506Y001962D02*Y001852D01*X004371Y002032D02*Y001922D01*
X004511Y001977D02*Y001867D01*X004481Y001877D02*Y001767D01*
X003506Y001082D02*X003396D01*X004716Y001947D02*Y001842D01*
X004721Y001962D02*Y001857D01*X004381Y001997D02*Y001892D01*
X004741Y002027D02*Y001922D01*X004586Y002032D02*Y001927D01*
X004376Y002012D02*Y001907D01*X004581Y002047D02*Y001942D01*
X004736Y002012D02*Y001907D01*X004731Y001997D02*Y001892D01*
X004386Y001982D02*Y001877D01*X004711Y001932D02*Y001827D01*
X004601Y001982D02*Y001877D01*X004706Y001912D02*Y001807D01*
X004701Y001897D02*Y001792D01*X004391Y001967D02*Y001862D01*
X004696Y001882D02*Y001777D01*X004611Y001947D02*Y001842D01*
X004616Y001932D02*Y001827D01*X004626Y001897D02*Y001792D01*
X004636Y001862D02*Y001757D01*X004401Y001932D02*Y001827D01*
X003551Y001057D02*Y000952D01*X004411Y001902D02*Y001797D01*
X004406Y001917D02*Y001812D01*X003506Y000782D02*X003401D01*
X004366Y002047D02*Y001942D01*X004476Y001857D02*Y001752D01*
X004691Y001862D02*Y001762D01*X003346Y000917D02*Y000817D01*
X004396Y001947D02*Y001847D01*X004416Y001882D02*Y001782D01*
X004421Y001867D02*Y001767D01*X004426Y001852D02*Y001752D01*
X004536Y002047D02*Y001952D01*X004686Y001847D02*Y001752D01*
X004641Y001847D02*Y001752D01*X004361Y002047D02*Y001957D01*
X004471Y001842D02*Y001752D01*X004576Y002047D02*Y001957D01*
X004751Y002047D02*Y001957D01*X003551Y000952D02*X003466D01*
X004431Y001837D02*Y001752D01*X003556Y001047D02*Y000962D01*
X004681Y001832D02*Y001752D01*X004646Y001832D02*Y001752D01*
X003536Y000872D02*Y000792D01*X003541Y000872D02*Y000797D01*
X004756Y002047D02*Y001972D01*X004541Y002047D02*Y001972D01*
X004466Y001827D02*Y001752D01*X003546Y000872D02*Y000797D01*
X004356Y002047D02*Y001972D01*X004571Y002047D02*Y001977D01*
X003341Y000902D02*Y000832D01*X003551Y001057D02*X003481D01*
X003376Y001072D02*Y001002D01*X003371Y001072D02*Y001002D01*
X003411Y000917D02*X003346D01*X003361Y001067D02*Y001002D01*
X004696Y001777D02*X004631D01*X004436Y001817D02*Y001752D01*
X003551Y000872D02*Y000807D01*X003421Y001057D02*X003356D01*
X003366Y001067D02*Y001002D01*X004651Y001812D02*Y001752D01*
X004691Y001772D02*X004631D01*X003556Y000872D02*Y000812D01*
X004676Y001812D02*Y001752D01*X004761Y002047D02*Y001987D01*
X004481Y001772D02*X004421D01*X004586Y002027D02*X004526D01*
X004481Y001767D02*X004421D01*X004351Y002047D02*Y001987D01*
X004586Y002022D02*X004526D01*X004546Y002047D02*Y001987D01*
X003371Y000847D02*Y000792D01*X004691Y001767D02*X004636D01*
X003356Y001057D02*Y001002D01*X004691Y001762D02*X004636D01*
X003531Y001072D02*Y001017D01*Y000992D02*Y000937D01*X004586Y002032D02*
X004531D01*X004566Y002047D02*Y001992D01*X004461Y001807D02*Y001752D01*
X004476Y001757D02*X004426D01*X004476Y001752D02*X004426D01*
X004686Y001757D02*X004636D01*X004476Y001762D02*X004426D01*
X003371Y000937D02*Y000887D01*X004441Y001802D02*Y001752D01*
X004581Y002047D02*X004531D01*X003531Y000842D02*Y000792D01*
X004581Y002042D02*X004531D01*X004581Y002037D02*X004531D01*
X003561Y001027D02*Y000977D01*X003351Y001052D02*Y001002D01*
X003561Y000872D02*Y000827D01*X004671Y001797D02*Y001752D01*
X004346Y002047D02*Y002002D01*X004686Y001752D02*X004641D01*
X003551Y000957D02*X003506D01*X003556Y000812D02*X003511D01*
X004766Y002047D02*Y002002D01*X003396Y001052D02*X003351D01*
X004656Y001797D02*Y001752D01*X003381Y001077D02*Y001037D01*
X003391Y000812D02*X003351D01*X003551Y001052D02*X003511D01*
X004551Y002047D02*Y002007D01*X004456Y001792D02*Y001752D01*
X003386Y000912D02*X003346D01*X004446Y001787D02*Y001752D01*
X003376Y000827D02*Y000792D01*X003526Y000967D02*Y000932D01*
X003386Y001047D02*X003351D01*X004561Y002047D02*Y002012D01*
X003556Y000817D02*X003521D01*X003381D02*X003346D01*X003526Y001072D02*
Y001037D01*Y000822D02*Y000787D01*X003556Y001047D02*X003521D01*
X003556Y000962D02*X003521D01*X003376Y000937D02*Y000907D01*
X004696Y001782D02*X004666D01*X003346Y001032D02*Y001002D01*
X004341Y002047D02*Y002017D01*X004771Y002022D02*X004741D01*
X004771Y002027D02*X004741D01*X004366Y002037D02*X004336D01*X004776D02*
X004746D01*X004366Y002042D02*X004336D01*X004776D02*X004746D01*
X004366Y002047D02*X004336D01*X004776D02*X004746D01*X004771Y002032D02*
X004746D01*X004026Y001812D02*X004021D01*X004501Y002531D02*
X004516Y002546D01*X004501Y002636D02*X004511Y002646D01*
X004426Y002476D02*X004436Y002486D01*X004216Y002631D02*
X004226Y002641D01*X004201Y002606D02*X004211Y002616D01*
X004186Y002581D02*X004196Y002591D01*X004171Y002556D02*
X004181Y002566D01*X004161Y002541D02*X004171Y002551D01*
X004146Y002516D02*X004156Y002526D01*X004131Y002491D02*
X004141Y002501D01*X004621Y002556D02*X004626Y002561D01*
X004516Y002646D02*X004521Y002651D01*X004496Y002621D02*
X004501Y002626D01*X004496Y002506D02*X004501Y002511D01*
X004441Y002646D02*X004446Y002651D01*X004436Y002491D02*
X004441Y002496D01*X004401Y002471D02*X004406Y002476D01*
X004306Y002646D02*X004311Y002651D01*X004226Y002646D02*
X004231Y002651D01*X004211Y002621D02*X004216Y002626D01*
X004196Y002596D02*X004201Y002601D01*X004181Y002571D02*
X004186Y002576D01*X004156Y002531D02*X004161Y002536D01*
X004141Y002506D02*X004146Y002511D01*X004101Y002646D02*
X004106Y002651D01*X004641D02*X004646Y002646D01*X004626Y002461D02*
X004631Y002456D01*X004621Y002636D02*X004626Y002631D01*
X004621Y002536D02*X004626Y002531D01*X004521Y002571D02*
X004536Y002556D01*X004516Y002581D02*X004521Y002576D01*
X004511Y002551D02*X004516Y002546D01*X004501Y002556D02*
X004506Y002551D01*X004496Y002571D02*X004501Y002566D01*
X004496Y002461D02*X004501Y002456D01*X004456Y002651D02*
X004461Y002646D01*X004366Y002476D02*X004371Y002471D01*
X004336Y002461D02*X004341Y002456D01*X004331Y002491D02*
X004346Y002476D01*X004326Y002651D02*X004331Y002646D01*
X004311Y002476D02*X004326Y002461D01*X004306Y002496D02*
X004311Y002491D01*X004266Y002651D02*X004271Y002646D01*
X004246Y002461D02*X004251Y002456D01*X004241Y002621D02*
X004246Y002616D01*X004126Y002496D02*X004131Y002491D01*
X004121Y002651D02*X004126Y002646D01*X004101Y002461D02*
X004106Y002456D01*X004626Y002651D02*Y002456D01*X004631Y002651D02*
Y002456D01*X004636Y002651D02*Y002456D01*X004271Y002651D02*Y002456D01*
X004266Y002651D02*Y002456D01*X004261Y002651D02*Y002456D01*
X004641Y002651D02*Y002456D01*X004256Y002651D02*Y002456D01*
X004251Y002651D02*Y002456D01*X004246Y002651D02*Y002456D01*
X004126Y002651D02*Y002456D01*X004646Y002651D02*Y002456D01*
X004121Y002651D02*Y002456D01*X004116Y002651D02*Y002456D01*
X004111Y002651D02*Y002456D01*X004106Y002651D02*Y002456D01*
X004101Y002651D02*Y002456D01*X004516Y002646D02*Y002456D01*
X004441Y002651D02*Y002461D01*X004331Y002651D02*Y002461D01*
X004326Y002651D02*Y002461D01*X004321Y002651D02*Y002466D01*
X004446Y002651D02*Y002466D01*X004451Y002651D02*Y002466D01*
X004456Y002651D02*Y002471D01*X004316Y002651D02*Y002471D01*
X004311Y002651D02*Y002476D01*X004461Y002651D02*Y002481D01*
X004306Y002651D02*Y002496D01*X004646Y002636D02*X004501D01*
X004646Y002556D02*X004501D01*X004646Y002641D02*X004506D01*
X004456Y002471D02*X004316D01*X004646Y002536D02*X004506D01*
X004646Y002551D02*X004506D01*X004646Y002646D02*X004511D01*
X004646Y002541D02*X004511D01*X004451Y002466D02*X004321D01*
X004646Y002546D02*X004516D01*X004646Y002651D02*X004521D01*Y002576D02*
Y002456D01*X004441Y002461D02*X004326D01*X004511Y002646D02*Y002551D01*
X004431Y002456D02*X004341D01*X004506Y002641D02*Y002551D01*
X004511Y002541D02*Y002456D01*X004506Y002536D02*Y002456D01*
X004501Y002636D02*Y002556D01*Y002531D02*Y002456D01*X004161Y002491D02*
X004101D01*X004271Y002621D02*X004211D01*X004156Y002481D02*X004101D01*
X004366Y002476D02*X004311D01*X004271Y002626D02*X004216D01*
X004156Y002486D02*X004101D01*X004271Y002631D02*X004216D01*
X004146Y002516D02*Y002466D01*X004141Y002506D02*Y002456D01*
X004151Y002521D02*Y002471D01*X004271Y002636D02*X004221D01*
X004151Y002471D02*X004101D01*X004151Y002476D02*X004101D01*
X004156Y002531D02*Y002481D01*X004456Y002476D02*X004406D01*
X004496Y002506D02*Y002456D01*Y002621D02*Y002571D01*X004161Y002541D02*
Y002491D01*X004166Y002546D02*Y002496D01*X004171Y002556D02*Y002506D01*
X004181Y002571D02*Y002521D01*X004186Y002581D02*Y002531D01*
X004191Y002586D02*Y002536D01*X004196Y002596D02*Y002546D01*
X004201Y002606D02*Y002556D01*X004206Y002611D02*Y002561D01*
X004211Y002621D02*Y002571D01*X004216Y002631D02*Y002581D01*
X004221Y002636D02*Y002586D01*X004226Y002646D02*Y002596D01*
X004231Y002651D02*Y002601D01*X004271Y002641D02*X004226D01*
X004146Y002466D02*X004101D01*X004526Y002566D02*Y002521D01*
X004271Y002646D02*X004226D01*X004176Y002561D02*Y002516D01*
X004141Y002461D02*X004101D01*X004271Y002651D02*X004231D01*
X004141Y002456D02*X004101D01*X004521Y002651D02*Y002611D01*
X004136Y002496D02*Y002456D01*X004541Y002631D02*X004501D01*
X004236Y002651D02*Y002611D01*X004536Y002531D02*X004501D01*
X004531Y002561D02*Y002526D01*X004341Y002481D02*X004311D01*X004461D02*
X004431D01*X004436Y002491D02*Y002461D01*X004526Y002626D02*X004501D01*
X004336Y002486D02*Y002461D01*D14*X003199Y003248D02*X003494D01*
X008829Y003258D02*X008533D01*X008829D01*X008681Y003406D02*Y00311D01*
D11*X008434Y002177D02*X008574D01*X008602Y002148D01*Y002092D01*
X008574Y002064D01*X008434D01*X008462Y002008D02*X008434Y00198D01*
Y001924D01*X008462Y001895D01*X00849D01*X008518Y001924D01*
X008574Y002008D01*X008602D01*Y001895D01*X008422Y003113D02*
X008451Y003141D01*X008507D01*X008535Y003113D01*Y003001D01*
X008507Y002972D01*X008451D01*X008422Y003001D01*X008366Y003141D02*
Y003057D01*Y002972D01*Y003057D02*X008254D01*Y003141D01*Y003057D02*
Y002972D01*X008085Y003141D02*X008197D01*Y003057D01*Y002972D01*
Y003057D02*X008113D01*X008023Y003248D02*Y003417D01*X007939D01*
X007911Y003389D01*Y003361D01*X007939Y003332D01*X007911Y003248D01*
X007939Y003332D02*X008023D01*X007742Y003389D02*X00777Y003417D01*
X007826D01*X007854Y003389D01*Y003276D01*X007826Y003248D01*X00777D01*
X007742Y003276D01*X007573Y003389D02*X007601Y003417D01*X007657D01*
X007686Y003389D01*Y003276D01*X007657Y003248D01*X007601D01*
X007573Y003276D01*Y003389D01*X007517Y003248D02*Y003417D01*
X007461Y003332D01*X007404Y003417D01*Y003248D01*X007348D02*Y003417D01*
X007264D01*X007236Y003389D01*Y003361D01*X007264Y003332D01*X007348D01*
X005922Y002379D02*X005894Y002407D01*Y002463D01*X005922Y002492D01*
X006035D01*X006063Y002463D01*Y002407D01*X006035Y002379D01*
X005922Y00221D02*X005894Y002238D01*Y002295D01*X005922Y002323D01*
X006035D01*X006063Y002295D01*Y002238D01*X006035Y00221D01*
X005922Y002042D02*X005894Y00207D01*Y002126D01*X005922Y002154D01*
X006035D01*X006063Y002126D01*Y00207D01*X006035Y002042D01*X005922D01*
X006063Y001985D02*X005894D01*X005979Y001929D01*X005894Y001873D01*
X006063D01*Y001817D02*X005894D01*Y001732D01*X005922Y001704D01*
X005951D01*X005979Y001732D01*Y001817D01*X008318Y000354D02*Y000523D01*
X008234D01*X008206Y000495D01*Y000467D01*X008234Y000439D01*
X008206Y000354D01*X008234Y000439D02*X008318D01*X008037Y000495D02*
X008065Y000523D01*X00815D01*Y000354D01*X008065D01*X008037Y000382D01*
Y000495D01*X007953Y000354D02*Y000523D01*X007868D02*X007812Y000354D01*
X007756Y000523D01*X0077D02*Y000439D01*Y000354D01*Y000439D02*X007587D01*
Y000523D01*Y000439D02*Y000354D01*X005785Y000574D02*X005813Y000602D01*
X005869D01*X005897Y000574D01*Y000461D01*X005869Y000433D01*X005813D01*
X005785Y000461D01*X005616Y000574D02*X005644Y000602D01*X0057D01*
X005728Y000574D01*Y000461D01*X0057Y000433D01*X005644D01*
X005616Y000461D01*Y000574D01*X00556Y000602D02*Y000461D01*
X005531Y000433D01*X005475D01*X005447Y000461D01*Y000602D01*
X005335Y000433D02*Y000602D01*X005278D01*X005335D02*X005391D01*
X005194Y000574D02*X005166Y000602D01*Y000433D01*X005138D01*X005166D02*
X005194D01*X007222Y001159D02*X007193Y001187D01*Y001243D01*
X007222Y001271D01*X007334D01*X007362Y001243D01*Y001187D01*
X007334Y001159D01*X007222Y00099D02*X007193Y001018D01*Y001102D01*
X007362D01*Y001018D01*X007334Y00099D01*X007222D01*X007362Y000906D02*
X007193D01*Y000821D02*X007362Y000765D01*X007193Y000709D01*Y000652D02*
X007362D01*Y00054D01*X006999Y002697D02*Y002866D01*X006915D01*
X006887Y002837D01*Y002809D01*X006915Y002781D01*X006887Y002697D01*
X006915Y002781D02*X006999D01*X006831Y002697D02*Y002866D01*X006746D01*
X006718Y002837D01*Y002809D01*X006746Y002781D01*X006718Y002697D01*
X006746Y002781D02*X006831D01*X006606Y002697D02*Y002866D01*X006549D01*
X006606D02*X006662D01*X009052Y0014D02*X00908Y001429D01*X009137D01*
X009165Y0014D01*Y001288D01*X009137Y00126D01*X00908D01*
X009052Y001288D01*X008884Y0014D02*X008912Y001429D01*X008996D01*
Y00126D01*X008912D01*X008884Y001288D01*Y0014D01*X008799Y00126D02*
Y001429D01*X008715D02*X008659Y00126D01*X008602Y001429D01*X008546D02*
Y001344D01*Y00126D01*Y001344D02*X008434D01*Y001429D01*Y001344D02*
Y00126D01*X006949Y001271D02*X00678D01*Y001187D01*X006808Y001159D01*
X006836D01*X006864Y001187D01*X006949Y001159D01*X006864Y001187D02*
Y001271D01*X006808Y00099D02*X00678Y001018D01*Y001102D01*X006949D01*
Y001018D01*X006921Y00099D01*X006808D01*X006949Y000906D02*X00678D01*
Y000821D02*X006949Y000765D01*X00678Y000709D01*Y000652D02*X006949D01*
Y00054D01*
M02*