%FSTAX24Y24*%
%MOIN*%
%IN MASK1.GBR *%
%ADD10C,0.0020*%
%ADD11C,0.0120*%
%ADD12C,0.0720*%
%ADD13R,0.0225X0.0410*%
%ADD14R,0.0296X0.0414*%
%ADD15R,0.0336X0.0572*%
%ADD16R,0.0414X0.0296*%
%ADD17R,0.0434X0.2540*%
%ADD18R,0.0572X0.0336*%
%ADD19R,0.1180X0.0710*%
%ADD20R,0.2422X0.3406*%
D10*X005295Y000197D02*G01Y002679D01*X004823Y000197D02*X005295D01*
X004823Y00065D02*Y000197D01*X004843Y000669D02*X004823Y00065D01*
X004966Y000756D02*X004843Y000669D01*X005073Y000863D02*
X004966Y000756D01*X00516Y000986D02*X005073Y000863D01*X005223Y001123D02*
X00516Y000986D01*X005262Y001269D02*X005223Y001123D01*X005276Y001419D02*
X005262Y001269D01*Y00157D02*X005276Y001419D01*X005223Y001716D02*
X005262Y00157D01*X00516Y001852D02*X005223Y001716D01*X005073Y001976D02*
X00516Y001852D01*X004966Y002083D02*X005073Y001976D01*X004823Y002207D02*
X004966Y002083D01*X004823Y002657D02*Y002207D01*X005295Y002657D02*
X004823D01*G36*X005295Y002679D02*G01Y000197D01*X004823D01*Y00065D01*
X004843Y000669D01*X004966Y000756D01*X005073Y000863D01*X00516Y000986D01*
X005223Y001123D01*X005262Y001269D01*X005276Y001419D01*X005262Y00157D01*
X005223Y001716D01*X00516Y001852D01*X005073Y001976D01*X004966Y002083D01*
X004823Y002207D01*Y002657D01*X005295D01*G37*X003543Y000197D02*
G01X004016D01*Y00065D01*X003872Y000774D01*X003766Y00088D01*
X003679Y001004D01*X003615Y001141D01*X003576Y001287D01*
X003563Y001437D01*X003576Y001587D01*X003615Y001733D01*X003679Y00187D01*
X003766Y001994D01*X003872Y002101D01*X003996Y002187D01*
X004016Y002207D01*Y002657D01*X003563D01*X003543Y000197D01*G36*
G01X004016D01*Y00065D01*X003872Y000774D01*X003766Y00088D01*
X003679Y001004D01*X003615Y001141D01*X003576Y001287D01*
X003563Y001437D01*X003576Y001587D01*X003615Y001733D01*X003679Y00187D01*
X003766Y001994D01*X003872Y002101D01*X003996Y002187D01*
X004016Y002207D01*Y002657D01*X003563D01*X003543Y000197D01*G37*
%LPC*%
%LPD*%
D14*X006516Y000374D03*X005925D03*D15*X004124Y003012D03*X004872D03*D17*
X005472Y001437D03*X003366D03*D16*X008533Y001496D03*Y002087D03*D18*
X006329Y000768D03*Y001516D03*D13*X00813Y002815D03*X007618Y001161D03*
X007874D03*X00813D03*D19*X00749Y001988D03*D13*X007874Y002815D03*
X007618D03*X007362D03*X007106D03*X00685D03*Y001161D03*X007106D03*
X007362D03*D20*X010925Y001772D03*X00128D03*D12*X009193Y003051D03*
Y000591D03*
M02*