%FSTAX24Y24*%
%MOIN*%
%IN LAYER1.GBR *%
%ADD10C,0.0010*%
%ADD11C,0.0050*%
%ADD12C,0.0060*%
%ADD13C,0.0100*%
%ADD14C,0.0118*%
%ADD15C,0.0130*%
%ADD16C,0.0157*%
%ADD17C,0.0180*%
%ADD18C,0.0200*%
%ADD19C,0.0238*%
%ADD20C,0.0250*%
%ADD21C,0.0256*%
%ADD22C,0.0276*%
%ADD23C,0.0277*%
%ADD24C,0.0300*%
%ADD25C,0.0320*%
%ADD26C,0.0440*%
%ADD27C,0.0640*%
%ADD28C,0.0660*%
%ADD29C,0.0780*%
%ADD30R,0.0145X0.0330*%
%ADD31R,0.0165X0.0350*%
%ADD32R,0.0216X0.0334*%
%ADD33R,0.0236X0.0354*%
%ADD34R,0.0256X0.0492*%
%ADD35R,0.0274X0.2380*%
%ADD36R,0.0276X0.0512*%
%ADD37R,0.0285X0.0470*%
%ADD38R,0.0334X0.0216*%
%ADD39R,0.0354X0.0236*%
%ADD40R,0.0356X0.0474*%
%ADD41R,0.0374X0.2480*%
%ADD42R,0.0474X0.0356*%
%ADD43R,0.0492X0.0256*%
%ADD44R,0.0512X0.0276*%
%ADD45R,0.1100X0.0630*%
%ADD46R,0.1120X0.0650*%
%ADD47R,0.2342X0.3326*%
%ADD48R,0.2362X0.3346*%
D11*X004813Y00065D02*G01X004976Y000774D01*X005083Y00088D01*
X005169Y001004D01*X005233Y001141D01*X005272Y001287D01*
X005285Y001437D01*X005272Y001587D01*X005233Y001733D01*X005169Y00187D01*
X005083Y001994D01*X004976Y002101D01*X004813Y002224D01*Y002657D01*
X00564D01*Y000217D01*X004813D01*Y00065D01*G36*G01X004976Y000774D01*
X005083Y00088D01*X005169Y001004D01*X005233Y001141D01*X005272Y001287D01*
X005285Y001437D01*X005272Y001587D01*X005233Y001733D01*X005169Y00187D01*
X005083Y001994D01*X004976Y002101D01*X004813Y002224D01*Y002657D01*
X00564D01*Y000217D01*X004813D01*Y00065D01*G37*X004026Y002224D02*
G01X003863Y002101D01*X003756Y001994D01*X003669Y00187D01*
X003605Y001733D01*X003566Y001587D01*X003553Y001437D01*
X003566Y001287D01*X003605Y001141D01*X003669Y001004D01*X003756Y00088D01*
X003863Y000774D01*X004026Y00065D01*Y000217D01*X003199D01*Y002657D01*
X004026D01*Y002224D01*G36*G01X003863Y002101D01*X003756Y001994D01*
X003669Y00187D01*X003605Y001733D01*X003566Y001587D01*X003553Y001437D01*
X003566Y001287D01*X003605Y001141D01*X003669Y001004D01*X003756Y00088D01*
X003863Y000774D01*X004026Y00065D01*Y000217D01*X003199D01*Y002657D01*
X004026D01*Y002224D01*G37*D10*X006939Y001339D02*G01X006683D01*
X006644Y001299D01*X006054D01*X006012Y001317D01*X005994Y001359D01*
X006004Y002343D01*X005669Y002677D01*X005295D01*X005285Y00002D01*
X005994D01*Y000944D01*X006012Y000986D01*X006054Y001004D01*X006939D01*
Y001339D01*G36*G01X006683D01*X006644Y001299D01*X006054D01*
X006012Y001317D01*X005994Y001359D01*X006004Y002343D01*
X005669Y002677D01*X005295D01*X005285Y00002D01*X005994D01*Y000944D01*
X006012Y000986D01*X006054Y001004D01*X006939D01*Y001339D01*G37*
X000295Y00002D02*G01X000118D01*X000069Y000033D01*X000033Y000069D01*
X00002Y000118D01*Y003425D01*X000033Y003474D01*X000069Y00351D01*
X000118Y003524D01*X003957D01*X004252Y003268D01*Y002657D01*X003563D01*
Y000217D01*X004035Y000236D01*Y00002D01*X000295D01*G36*G01X000118D01*
X000069Y000033D01*X000033Y000069D01*X00002Y000118D01*Y003425D01*
X000033Y003474D01*X000069Y00351D01*X000118Y003524D01*X003957D01*
X004252Y003268D01*Y002657D01*X003563D01*Y000217D01*X004035Y000236D01*
Y00002D01*X000295D01*G37*X007018Y001339D02*G01X007195D01*X007175D01*
X007195D01*Y00067D01*X007177Y000628D01*X007135Y00061D01*X006073D01*
Y000925D01*X006958D01*X007Y000943D01*X007018Y000985D01*Y001339D01*
X007096D01*G36*X007018D02*G01X007195D01*X007175D01*X007195D01*
Y00067D01*X007177Y000628D01*X007135Y00061D01*X006073D01*Y000925D01*
X006958D01*X007Y000943D01*X007018Y000985D01*Y001339D01*X007096D01*G37*
X007283Y001417D02*G01Y00002D01*X012087D01*X012136Y000033D01*
X012172Y000069D01*X012185Y000118D01*Y003425D01*X012172Y003474D01*
X012136Y00351D01*X012087Y003524D01*X005059D01*X004744Y003268D01*
Y002756D01*X005709D01*X006083Y002402D01*X006073Y001378D01*X006624D01*
X006663Y001417D01*X007283D01*G36*G01Y00002D01*X012087D01*
X012136Y000033D01*X012172Y000069D01*X012185Y000118D01*Y003425D01*
X012172Y003474D01*X012136Y00351D01*X012087Y003524D01*X005059D01*
X004744Y003268D01*Y002756D01*X005709D01*X006083Y002402D01*
X006073Y001378D01*X006624D01*X006663Y001417D01*X007283D01*G37*
%LPC*%
D21*X002657Y001624D03*Y000443D03*X006457Y002106D03*X00128Y001919D03*
X002657Y000738D03*X006457Y001811D03*X003839Y000177D03*D37*
X007874Y001161D03*D21*X007313Y001811D03*X006467Y000768D03*
X006742Y001811D03*D40*X006516Y000374D03*D37*X007362Y001161D03*D32*
X005925Y000374D03*D34*X004124Y003012D03*X004872D03*D35*
X005472Y001437D03*X003366D03*D38*X008533Y002087D03*D43*
X006329Y000768D03*Y001516D03*D37*X007618Y001161D03*D42*
X008533Y001496D03*D37*X007362Y002815D03*X00685D03*X00813Y001161D03*D45*
X00749Y001988D03*D37*X007874Y002815D03*D25*D03*D30*X00685Y001161D03*
X007106D03*D21*X006211Y000768D03*D25*X007618Y002894D03*D37*Y002815D03*
D47*X010925Y001772D03*D21*X002953Y003248D03*D47*X00128Y001772D03*D21*
X002953Y002067D03*X00128Y001624D03*X001575Y000886D03*X00128Y001329D03*
X007028Y000768D03*X002953Y001476D03*X00128Y000738D03*Y000443D03*
X002657Y001033D03*X001575Y000295D03*X00128Y001033D03*X002657Y002805D03*
Y00251D03*X001575Y003248D03*Y001476D03*Y002657D03*X00128Y00251D03*
X001575Y002067D03*X00128Y002805D03*X002953Y000591D03*X002657Y0031D03*
X002953Y002953D03*Y001772D03*X000984Y002657D03*X002953Y001181D03*
X000984Y003248D03*X002657Y002215D03*X000984Y000295D03*Y002953D03*
Y002362D03*Y000591D03*X002657Y001919D03*X000984Y000886D03*
X007028Y001811D03*X002953Y002362D03*X000984Y001772D03*Y002067D03*
Y001181D03*Y001476D03*D27*X009193Y003051D03*D29*Y000591D03*D25*
X006594Y002933D03*D37*X007106Y002815D03*D21*X002657Y001329D03*
X001575Y002362D03*X002953Y002657D03*X00128Y002215D03*X002953Y000295D03*
X00128Y0031D03*X001575Y000591D03*Y001772D03*Y001181D03*Y002953D03*
X002953Y000886D03*X006752Y000768D03*D25*X008219Y002854D03*D37*
X00813Y002815D03*D26*X004488Y003366D03*D24*X005217D03*D12*
X003839Y000177D02*G01X003976Y000098D01*X004134D01*D17*
X006671Y000107D01*X007248Y000337D01*X00729Y000355D01*X00745Y000515D01*
X007791Y000949D01*X007874Y001161D01*D19*X006516Y000374D02*
X007186Y000486D01*X007229Y000504D01*X007301Y000576D01*
X007319Y000619D01*X007362Y001161D01*D23*X007618D02*X007653Y001394D01*
X007734Y001475D01*X008533Y001496D01*X008858Y001949D01*Y002285D01*
X008842Y002327D01*X008801Y002345D01*X008425Y002362D01*X008071Y00248D01*
X007362Y0025D01*Y002815D01*Y0025D02*X006966Y002501D01*
X006885Y002582D01*X00685Y002815D01*X007874D02*D17*X007618Y002894D02*
Y002815D01*X006594Y002933D02*X006678Y003027D01*X00673Y00308D01*
X00697D01*X007023Y003027D01*X007106Y002815D01*X008219Y002854D02*
X00813Y002815D01*
%LPD*%
D22*X002657Y001624D03*D13*X002795D02*X002785D01*D22*X002657Y000443D03*
D13*X002795D02*X002785D01*D22*X006457Y002106D03*D13*X006594D02*
X006584D01*D22*X00128Y001919D03*D13*X001417D02*X001407D01*D22*
X002657Y000738D03*D13*X002795D02*X002785D01*D22*X006457Y001811D03*D13*
X006594D02*X006584D01*D22*X003839Y000177D03*D13*X003701D02*X003711D01*
D31*X007874Y001161D03*D22*X007313Y001811D03*D13*X007451D02*X007441D01*
D22*X006467Y000768D03*D13*X006604D02*X006594D01*D22*X006742Y001811D03*
D13*X00688D02*X00687D01*D33*X006516Y000374D03*D31*X007362Y001161D03*
D33*X005925Y000374D03*D12*X005807D02*X005817D01*D36*X004124Y003012D03*
D12*X003986D02*X003996D01*D36*X004872D03*D12*Y003268D02*Y003258D01*D41*
X005472Y001437D03*D12*X005659D02*X005609D01*D41*X003366D03*D12*
X003179D02*X003229D01*D39*X008533Y002087D03*D12*X008356D02*X008366D01*
D44*X006329Y000768D03*D12*X006585D02*X006575D01*D44*X006329Y001516D03*
D12*Y001654D02*Y001644D01*D31*X007618Y001161D03*D39*X008533Y001496D03*
D31*X007362Y002815D03*X00685D03*X00813Y001161D03*D46*X00749Y001988D03*
D12*X00693D02*X00694D01*D31*X007874Y002815D03*D18*D03*D31*
X00685Y001161D03*D13*X006768D02*X006778D01*D31*X007106D03*D12*
Y000986D02*Y000996D01*D22*X006211Y000768D03*D13*X006348D02*X006338D01*
D18*X007618Y002894D03*D31*Y002815D03*D48*X010925Y001772D03*D13*
X009744D02*X009754D01*D22*X002953Y003248D03*D13*X003091D02*X003081D01*
D48*X00128Y001772D03*D13*X002461D02*X002451D01*D22*X002953Y002067D03*
D13*X003091D02*X003081D01*D22*X00128Y001624D03*D13*X001417D02*
X001407D01*D22*X001575Y000886D03*D13*X001713D02*X001703D01*D22*
X00128Y001329D03*D13*X001417D02*X001407D01*D22*X007028Y000768D03*D13*
X00689D02*X0069D01*D22*X002953Y001476D03*D13*X003091D02*X003081D01*D22*
X00128Y000738D03*D13*X001417D02*X001407D01*D22*X00128Y000443D03*D13*
X001417D02*X001407D01*D22*X002657Y001033D03*D13*X002795D02*X002785D01*
D22*X001575Y000295D03*D13*X001713D02*X001703D01*D22*X00128Y001033D03*
D13*X001417D02*X001407D01*D22*X002657Y002805D03*D13*X002795D02*
X002785D01*D22*X002657Y00251D03*D13*X002795D02*X002785D01*D22*
X001575Y003248D03*D13*X001713D02*X001703D01*D22*X001575Y001476D03*D13*
X001713D02*X001703D01*D22*X001575Y002657D03*D13*X001713D02*X001703D01*
D22*X00128Y00251D03*D13*X001417D02*X001407D01*D22*X001575Y002067D03*
D13*X001713D02*X001703D01*D22*X00128Y002805D03*D13*X001417D02*
X001407D01*D22*X002953Y000591D03*D13*X003091D02*X003081D01*D22*
X002657Y0031D03*D13*X002795D02*X002785D01*D22*X002953Y002953D03*D13*
X003091D02*X003081D01*D22*X002953Y001772D03*D13*X003091D02*X003081D01*
D22*X000984Y002657D03*D13*X001122D02*X001112D01*D22*X002953Y001181D03*
D13*X003091D02*X003081D01*D22*X000984Y003248D03*D13*X001122D02*
X001112D01*D22*X002657Y002215D03*D13*X002795D02*X002785D01*D22*
X000984Y000295D03*D13*X001122D02*X001112D01*D22*X000984Y002953D03*D13*
X001122D02*X001112D01*D22*X000984Y002362D03*D13*X001122D02*X001112D01*
D22*X000984Y000591D03*D13*X001122D02*X001112D01*D22*X002657Y001919D03*
D13*X002795D02*X002785D01*D22*X000984Y000886D03*D13*X001122D02*
X001112D01*D22*X007028Y001811D03*D13*X007165D02*X007155D01*D22*
X002953Y002362D03*D13*X003091D02*X003081D01*D22*X000984Y001772D03*D13*
X001122D02*X001112D01*D22*X000984Y002067D03*D13*X001122D02*X001112D01*
D22*X000984Y001181D03*D13*X001122D02*X001112D01*D22*X000984Y001476D03*
D13*X001122D02*X001112D01*D28*X009193Y003051D03*D13*X008863D02*
X008873D01*X009523D02*X009513D01*D28*X009193Y000591D03*D18*
X006594Y002933D03*D31*X007106Y002815D03*D22*X002657Y001329D03*D13*
X002795D02*X002785D01*D22*X001575Y002362D03*D13*X001713D02*X001703D01*
D22*X002953Y002657D03*D13*X003091D02*X003081D01*D22*X00128Y002215D03*
D13*X001417D02*X001407D01*D22*X002953Y000295D03*D13*X003091D02*
X003081D01*D22*X00128Y0031D03*D13*X001417D02*X001407D01*D22*
X001575Y000591D03*D13*X001713D02*X001703D01*D22*X001575Y001772D03*D13*
X001713D02*X001703D01*D22*X001575Y001181D03*D13*X001713D02*X001703D01*
D22*X001575Y002953D03*D13*X001713D02*X001703D01*D22*X002953Y000886D03*
D13*X003091D02*X003081D01*D22*X006752Y000768D03*D13*X00689D02*
X00688D01*D18*X008219Y002854D03*D31*X00813Y002815D03*D25*
X004488Y003366D03*X005217D03*D13*X005377D02*X005367D01*D12*
X003839Y000177D02*X003976Y000098D01*X004134D01*X006671Y000107D01*
X007248Y000337D01*X00729Y000355D01*X00745Y000515D01*X007791Y000949D01*
X007874Y001161D01*D14*X006516Y000374D02*X007186Y000486D01*
X007229Y000504D01*X007301Y000576D01*X007319Y000619D01*
X007362Y001161D01*D16*X007618D02*X007653Y001394D01*X007734Y001475D01*
X008533Y001496D01*X008858Y001949D01*Y002285D01*X008842Y002327D01*
X008801Y002345D01*X008425Y002362D01*X008071Y00248D01*X007362Y0025D01*
Y002815D01*Y0025D02*X006966Y002501D01*X006885Y002582D01*
X00685Y002815D01*X007874D02*D12*X007618Y002894D02*Y002815D01*
X006594Y002933D02*X006678Y003027D01*X00673Y00308D01*X00697D01*
X007023Y003027D01*X007106Y002815D01*X008219Y002854D02*X00813Y002815D01*
M02*