%FSTAX24Y24*%
%MOIN*%
%IN LAYER3.GBR *%
%ADD10C,0.0020*%
%ADD11C,0.0050*%
%ADD12C,0.0098*%
%ADD13C,0.0120*%
%ADD14C,0.0130*%
%ADD15C,0.0150*%
%ADD16C,0.0160*%
%ADD17C,0.0177*%
%ADD18C,0.0180*%
%ADD19C,0.0190*%
%ADD20C,0.0197*%
%ADD21C,0.0217*%
%ADD22C,0.0236*%
%ADD23C,0.0250*%
%ADD24C,0.0256*%
%ADD25C,0.0276*%
%ADD26C,0.0280*%
%ADD27C,0.0300*%
%ADD28C,0.0376*%
%ADD29C,0.0380*%
%ADD30C,0.0394*%
%ADD31C,0.0413*%
%ADD32C,0.0433*%
%ADD33C,0.0480*%
%ADD34C,0.0494*%
%ADD35C,0.0500*%
%ADD36C,0.0533*%
%ADD37C,0.0600*%
%ADD38C,0.0660*%
%ADD39C,0.0760*%
%ADD40C,0.0964*%
%ADD41C,0.0984*%
%ADD42C,0.1161*%
%ADD43C,0.1181*%
%ADD44C,0.1281*%
%ADD45O,0.0689X0.0472*%
%ADD46O,0.0709X0.0492*%
%ADD47O,0.0767X0.0551*%
%ADD48O,0.0787X0.0571*%
D11*X044685Y02628D02*G01X044783Y026772D01*X047835D01*Y0D01*X0D01*
Y026772D01*X044783D01*X044685Y02628D01*D10*X044291Y006594D01*D11*
X026476D01*Y004921D01*X045866Y00502D01*D10*Y02628D01*X044685D01*G36*
G01X044783Y026772D01*X047835D01*Y0D01*X0D01*Y026772D01*X044783D01*
X044685Y02628D01*X044291Y006594D01*X026476D01*Y004921D01*
X045866Y00502D01*Y02628D01*X044685D01*G37*X04439Y006496D02*
G01X026575D01*Y00502D01*X030118D01*X030315Y005118D01*X03061D01*
X030807Y00502D01*X045669Y005118D01*Y026181D01*X044783D01*
X04439Y006496D01*G36*G01X026575D01*Y00502D01*X030118D01*
X030315Y005118D01*X03061D01*X030807Y00502D01*X045669Y005118D01*
Y026181D01*X044783D01*X04439Y006496D01*G37*
%LPC*%
D28*X023659Y002397D03*X025606Y001886D03*X025114D03*D26*
X041142Y022815D03*X042579Y015118D03*D28*X042702Y02394D03*
X033268Y018307D03*D26*X030482Y02315D03*X02185Y008268D03*D28*
X043504Y01437D03*D26*X015807Y024656D03*X013366Y012943D03*
X035285Y024154D03*X041909Y012608D03*D28*X005315Y009252D03*
X010433Y010039D03*D26*X027303Y02315D03*X027256Y01479D03*D24*
X033252Y02324D03*D28*X029823Y025984D03*X033268Y009646D03*
X014006Y02429D03*D26*X037205Y014764D03*D28*X020472Y016535D03*
X023031Y015748D03*X030709Y011417D03*X017913Y017913D03*Y015748D03*
X015354Y009252D03*Y007087D03*D26*X006594Y001083D03*X009764Y021299D03*
X006693Y012598D03*X042579Y014783D03*X041309Y022648D03*D28*
X043504Y013976D03*D26*X037205Y016929D03*X036752Y02454D03*
X03622Y025472D03*X002854Y004823D03*D28*X020472Y013583D03*D24*
X023429Y02324D03*D28*X023779D03*D26*X024409Y008268D03*X030148Y02315D03*
D28*X015056Y02464D03*D26*X016447Y008258D03*X017854Y024892D03*D28*
X014006Y02359D03*X028529Y02394D03*X014006D03*D39*X011319Y004232D03*D16*
X008307Y004764D03*D28*X043402Y02464D03*X018729Y02429D03*X023779D03*
X009606Y02394D03*X014356Y02324D03*D26*X017656Y02069D03*D16*
X042717Y004035D03*D26*X017234Y01224D03*D28*X014006Y02324D03*D26*
X013878Y002067D03*X027165Y005315D03*X029232Y020276D03*
X027362Y005315D03*X011516Y002953D03*X014862Y001673D03*D28*
X017913Y007087D03*X038386Y012205D03*D26*X02874Y020906D03*D28*
X005315Y01437D03*D26*X003642Y004429D03*X003543Y004626D03*
X002756Y018406D03*D16*X027165Y005709D03*D26*X045177Y025591D03*
X012697Y002461D03*X026969Y010433D03*X030148Y023819D03*D28*
X043898Y025689D03*X038386Y018701D03*X037602Y02429D03*D26*
X005217Y019783D03*X012303Y002461D03*Y002264D03*X013091Y002067D03*
X023622Y008563D03*X002953Y004626D03*D28*X019079Y02464D03*
X033268Y013976D03*D26*X019291Y012598D03*X043415Y017461D03*
X044321Y024488D03*D24*X039173Y025768D03*D26*X003681Y024892D03*
X00374Y016929D03*D28*X042352Y02429D03*D26*X042802Y02134D03*D28*
X033252Y02429D03*D26*X004921Y020079D03*X012697Y002067D03*D28*
X025591Y009252D03*D24*X033902Y02464D03*D26*X004921Y019783D03*
X023524Y019882D03*X014075Y002362D03*X012303Y002067D03*
X015059Y003051D03*X017421Y000984D03*X011319Y002953D03*
X005217Y020079D03*X010433D03*X01811Y00187D03*X02126Y023425D03*
X026606Y01479D03*D28*X028179Y02464D03*D26*X037205Y012598D03*
X026575Y008268D03*X020479Y02334D03*X003642Y004823D03*X038386Y004724D03*
X002756Y017815D03*X015256Y020177D03*X03376Y020472D03*X045374Y025591D03*
D28*X007874Y007874D03*X012628Y023986D03*D26*X007087Y023425D03*
X013056Y01914D03*D28*X043504Y018701D03*D26*X017618Y003839D03*D28*
X02815Y015748D03*D26*X005512Y020079D03*X003248Y004823D03*
X02372Y019587D03*X015059Y003445D03*D28*X010433Y007087D03*D26*
X018279Y02129D03*D28*X031752Y02424D03*D26*X017172Y025478D03*
X041644Y02248D03*X042244Y012608D03*D28*X017913Y016535D03*D26*
X031856Y02069D03*X020768Y026083D03*X020179Y02189D03*D28*
X043504Y016142D03*D26*X010433Y002657D03*X01063D03*D28*X036252Y02399D03*
D26*X010236Y002657D03*X042579Y012608D03*X041644Y022982D03*D28*
X03378Y020945D03*D26*X009252Y001969D03*Y001772D03*Y001614D03*
Y002559D03*X029291Y017293D03*X026969Y02315D03*X017598Y022815D03*
X019518Y008258D03*X009547Y004134D03*X006604Y024488D03*
X008819Y008258D03*X003848D03*X003258Y022982D03*X034646Y012598D03*D28*
X02815Y012205D03*D24*X004556Y02324D03*D26*X006523Y023854D03*
X01122Y014764D03*D28*X015354Y016535D03*D26*X032502Y02184D03*D28*
X012795Y011811D03*D26*X038386Y005315D03*X014134Y021309D03*
X015807Y023317D03*X011614Y010433D03*X014567Y001969D03*
X017323Y003839D03*X019587Y020079D03*X015138Y002067D03*D28*
X005315Y00748D03*D26*X024979Y02184D03*X025492Y025984D03*D28*
X029055Y020906D03*X005206Y02464D03*X025591Y013583D03*Y007874D03*
X023031D03*X040945Y016142D03*X025591Y00748D03*D26*X012963Y024656D03*
X013031Y015118D03*D28*X043898Y025984D03*X023031Y00748D03*
X031402Y02004D03*X032002D03*D24*X018729Y02324D03*D26*X018976Y021378D03*
X013356Y02184D03*X04248Y021309D03*D16*X04498Y024803D03*D26*
X00374Y012598D03*X003258Y022648D03*D28*X035902Y02399D03*
X030669Y009252D03*D26*X012992Y025709D03*X042306Y01919D03*
X040974Y023317D03*X041181Y014783D03*X041309Y024656D03*D28*
X032902Y02429D03*D26*X006693Y016929D03*X013356Y02154D03*
X003656Y02514D03*X003681Y019134D03*D28*X003056Y02404D03*
X043504Y007087D03*D26*X01689Y002657D03*X027165Y025709D03*
X016693Y003642D03*X003593Y022982D03*X006919Y008258D03*D28*
X010433Y016535D03*D26*X005118Y020906D03*D28*X043504Y018307D03*D26*
X006299Y010433D03*X00376Y022815D03*X034646Y014764D03*X032106Y022146D03*
X034252Y012598D03*X010806Y02184D03*X011319Y026083D03*D28*
X010433Y018307D03*X042352Y02359D03*X031702Y02004D03*X012795Y011417D03*
D26*X006506Y02324D03*X01378Y010433D03*D28*X014706Y02464D03*
X007874Y011417D03*D26*X002756Y018701D03*X028956Y01434D03*
X021129Y02369D03*D28*X019606Y020945D03*D26*X00435Y016959D03*
X006772Y024321D03*X013366Y012608D03*D28*X015354Y011417D03*
X005315Y018307D03*X042702Y02464D03*X005315Y011811D03*X007874D03*
X010433D03*X023031Y013976D03*D26*X011614Y019094D03*X008858Y014764D03*
X003425Y02315D03*D28*X035902Y02434D03*X007874Y013976D03*D26*
X028632Y017461D03*X026801Y023317D03*D28*X038386Y009646D03*D26*
X042244Y015118D03*X041142Y02315D03*X030148Y024488D03*X02689Y012943D03*
X039764Y014764D03*X003593Y022313D03*X006299Y016929D03*D28*
X035827Y009646D03*D42*X001378Y024803D03*D28*X025591Y018307D03*D26*
X032002Y02464D03*X031693Y014764D03*X012795Y022815D03*X014429Y015118D03*
X038346Y020906D03*X008256Y02064D03*X01624Y003465D03*X032056Y01724D03*
X032028Y024892D03*X027136Y024656D03*X028632Y017126D03*
X031604Y022648D03*X029203Y008258D03*X012795Y02315D03*X014094Y014783D03*
D28*X015354Y009646D03*X030669D03*D26*X014429Y012943D03*
X015807Y024321D03*D28*X037952Y02429D03*D26*X012963Y022982D03*
X014094Y015118D03*X015266Y017126D03*X01313Y022313D03*D28*
X038386Y016535D03*D26*X017234Y01184D03*X017829Y02464D03*
X003313Y025715D03*D28*X033268Y013583D03*X02815D03*X033552Y02464D03*
X023031Y010039D03*X028179Y02394D03*D26*X031939Y023317D03*
X036811Y014764D03*D28*X021729Y02399D03*D26*X034646Y008268D03*
X044656Y02315D03*X020696Y024188D03*X024055Y010433D03*D28*
X038252Y02464D03*X015354Y017913D03*X040974Y024321D03*D26*
X027529Y02184D03*D28*X007874Y018307D03*X023031Y011417D03*
X020472Y00748D03*X012795Y007874D03*D26*X018898Y014764D03*
X017933Y02248D03*X014429Y012608D03*X015974Y023819D03*X03563Y023622D03*
X040056Y01944D03*X043852Y02189D03*D24*X020374Y025984D03*D28*
X023031Y017913D03*D26*X024075Y014764D03*X020696Y023854D03*
X034941Y025984D03*X034352Y02189D03*D28*X038386Y009252D03*
X020472Y018307D03*X02472Y003264D03*D26*X01122Y012598D03*
X006356Y024021D03*X020529D03*X024055Y012598D03*X026969Y016929D03*
X016043Y003642D03*D28*X043504Y016535D03*Y009252D03*D26*
X003656Y02464D03*X00374Y014764D03*D28*X043504Y013583D03*
X026467Y023986D03*X033252Y02359D03*D26*X037874Y021299D03*D28*
X007874Y009646D03*D24*X006201Y025984D03*D26*X017717Y000984D03*
X027362Y005512D03*D28*X00689Y003543D03*D26*Y002264D03*
X010039Y002657D03*X032452Y02129D03*D28*X019379Y02464D03*D34*
X001969Y003642D03*X001949Y00561D03*D47*X002382Y00315D03*
X002362Y006102D03*D45*X000866Y003091D03*Y006161D03*D28*
X015354Y010039D03*D26*X016156Y01954D03*X015807Y023986D03*D28*
X037952Y02359D03*X040945Y007087D03*Y018701D03*X030709Y012205D03*D26*
X019106Y01924D03*X017933Y022146D03*X006956Y02369D03*X01378Y016929D03*
D28*X035827Y016535D03*D26*X007106Y023986D03*X012806Y01939D03*
X029232Y020079D03*D28*X038386Y013976D03*D26*X013484Y002067D03*D28*
X037602Y02464D03*X031402Y02404D03*D26*X019291Y014764D03*
X019783Y020276D03*X019556Y01914D03*D28*X010433Y007874D03*D26*
X013656Y02169D03*X015606Y02094D03*D28*X037602Y02394D03*D26*
X032313Y008258D03*X031939Y022313D03*D28*X033252Y02394D03*
X025591Y010039D03*D26*X007677Y003543D03*X007874D03*X017829Y02514D03*
X017234Y01399D03*X009154Y003937D03*X007972Y001083D03*X024173Y020906D03*
D28*X030709Y013976D03*X020472Y015748D03*X038661Y020906D03*D26*
X006693Y010433D03*X016309Y023484D03*D28*X015354Y00748D03*
X023031Y009252D03*X015354Y013583D03*D26*X027136Y022982D03*
X028297Y019301D03*D28*X026801Y024321D03*D26*X014156Y01694D03*
X013297Y02499D03*X027303Y022815D03*X026956Y01479D03*X008071Y003264D03*
D28*X023779Y02394D03*D26*X008976Y002185D03*X017224Y001476D03*
X02747Y023317D03*X029616Y014803D03*D28*X030709Y018307D03*D26*
X022736Y019685D03*D28*X02815Y017913D03*X017913Y00748D03*
X02815Y018307D03*D26*X011713Y002953D03*X023917Y007382D03*D28*
X028179Y02359D03*X012795Y007087D03*X015354Y011811D03*D26*
X015945Y017126D03*X041702Y02154D03*D28*X003056Y02439D03*D26*
X037452Y02129D03*D28*X017913Y013583D03*X025606Y003264D03*
X02472Y001886D03*D26*X011614Y012598D03*D28*X032902Y02394D03*
X007906Y02399D03*X012293Y024321D03*X042702Y02324D03*X005433Y020945D03*
D26*X032456Y01934D03*X003839Y004823D03*D28*X04064Y024321D03*
X010433Y00748D03*X028529Y02324D03*D26*X01378Y008268D03*
X006306Y02334D03*X021457Y012598D03*X017933Y02315D03*X015157Y002854D03*
D28*X012795Y010039D03*D26*X029528Y019094D03*X02747Y022982D03*
X019783Y020079D03*X042126Y008661D03*X044154Y023652D03*
X023524Y008366D03*D28*X010256Y02464D03*X012293Y023986D03*
X02815Y010039D03*D26*X045177Y025394D03*D28*X033268Y016535D03*D26*
X003445Y004823D03*D28*X023031Y011811D03*D26*X014262Y019134D03*
X012963Y022648D03*D28*X025591Y015748D03*X02815Y016535D03*
X020472Y016142D03*X040945Y007874D03*Y013583D03*D26*X00435Y014783D03*
D28*X012795Y013976D03*D26*X020679Y02324D03*X026575Y010433D03*
X037205D03*X044154Y023317D03*X008806Y02164D03*Y02144D03*
X022362Y025709D03*X022729Y02474D03*D28*X009906Y02464D03*
X035827Y007874D03*X010433Y012205D03*D24*X034547Y025787D03*D28*
X004906Y02359D03*D26*X034252Y019094D03*X031939Y022982D03*
X027136Y022648D03*X025827Y014783D03*D28*X040945Y016535D03*
X037952Y02324D03*X015354Y018701D03*X040945Y012205D03*X033268Y016142D03*
D26*X043952Y02094D03*D28*X005315Y016142D03*X025606Y002378D03*D24*
X034547Y025984D03*D28*X015354Y018307D03*X017579Y02424D03*
X033268Y009252D03*D26*X00435Y012608D03*D28*X025591Y012205D03*D26*
X031956Y01934D03*X032002Y02514D03*D28*X007874Y016142D03*D26*
X002756Y007874D03*D16*X001378Y022835D03*D37*X04576Y003886D03*
X04676Y007886D03*X04576Y008886D03*X04676D03*X04576Y009886D03*X04676D03*
X04576Y010886D03*X04676D03*X04576Y011886D03*X04676D03*X04576Y012886D03*
X04676Y003886D03*Y012886D03*X04576Y013886D03*X04676D03*
X04576Y014886D03*X04676D03*X04576Y015886D03*X04676D03*X04576Y016886D03*
X04676D03*X04576Y017886D03*X04576Y004886D03*X04676Y017886D03*
X04576Y018886D03*X04676D03*X04576Y019886D03*X04676D03*X04576Y020886D03*
X04676D03*X04576Y021886D03*X04676D03*X04576Y022886D03*X04676Y004886D03*
Y022886D03*X04576Y005886D03*X04676D03*X04576Y006886D03*X04676D03*
X04576Y007886D03*D42*X04626Y001969D03*X037205D03*D44*X04626Y024803D03*
D26*X002756Y008661D03*Y00748D03*D28*X006693Y026083D03*D26*
X006006Y02189D03*X002756Y009055D03*D28*X029229Y02464D03*D26*
X004035Y025551D03*X009756Y02544D03*X014456D03*X019179Y02549D03*
X023929Y02544D03*X028629D03*X033352Y02549D03*X038109Y025465D03*
X042802Y02544D03*X013297Y023317D03*X015945Y01752D03*X041644Y022146D03*
X042244Y012943D03*D16*X014764Y00374D03*D26*X015506Y02189D03*D28*
X012795Y016535D03*X015354Y015748D03*X012795D03*X010433D03*X040945D03*
D24*X019729Y02464D03*D28*X019079Y02429D03*X007874Y015748D03*
X028179Y02429D03*X043504Y015748D03*X023429Y02394D03*D26*
X025329Y02074D03*D28*X005315Y016535D03*D26*X011614Y014764D03*
X028297Y017461D03*X027136Y023317D03*D28*X037602Y02359D03*
X015354Y012205D03*D26*X00435Y019134D03*D28*X026098Y002772D03*
X023659Y002747D03*X025606Y002772D03*X033268Y015748D03*D26*
X008858Y019094D03*X00376Y02315D03*D28*X004556Y02359D03*
X030709Y018701D03*X023031Y013583D03*D26*X025079Y02124D03*
X026969Y019094D03*D28*X037602Y02324D03*D24*X039173Y025984D03*D28*
X02815Y007874D03*X035827Y015748D03*X005315Y007087D03*X040945Y018307D03*
X033252Y02464D03*D26*X024409Y012598D03*D28*X038386Y015748D03*D26*
X010906Y02124D03*X01122Y019094D03*X006523Y023519D03*D28*
X035827Y01437D03*X02815Y007087D03*X020472Y011417D03*X023031Y016535D03*
D26*X011156Y02074D03*X037152Y02144D03*Y02164D03*D28*X040945Y01437D03*
D26*X01122Y008268D03*X006356Y024356D03*X034652Y02334D03*
X039173Y019094D03*X003248Y004429D03*D28*X02815Y016142D03*D26*
X009252Y014764D03*D28*X017229Y02439D03*D26*X040354Y007382D03*D24*
X005556Y02464D03*D42*X001378Y001969D03*D28*X02815Y00748D03*Y013976D03*
D26*X002756Y01063D03*Y009843D03*Y008268D03*Y009449D03*D28*
X00187Y022047D03*D26*X002756Y006693D03*Y010236D03*D28*
X025114Y003264D03*X038386Y01437D03*D26*X024409Y014764D03*D28*
X026098Y002378D03*X012795Y018307D03*X036252Y02434D03*X005315Y013976D03*
D26*X039764Y012598D03*D28*X009256Y02394D03*X023031Y018307D03*D26*
X015768Y019134D03*D28*X020472Y009252D03*D26*X034702Y023686D03*
X039173Y014764D03*X009252Y019094D03*X02061Y024823D03*X026969Y019488D03*
D28*X035827Y012205D03*D26*X014173Y010433D03*X015807Y023652D03*D28*
X020472Y012205D03*D26*X031939Y022648D03*X031693Y010433D03*D28*
X023031Y007087D03*D26*X030217Y025984D03*X004882Y021142D03*D28*
X035827Y018701D03*D26*X006693Y014764D03*D28*X004556Y02394D03*
X017229Y02004D03*D26*X002998Y025478D03*X018329Y02164D03*
X004803Y021378D03*D28*X043504Y00748D03*X040945Y009646D03*
X030669Y010039D03*Y007874D03*X033268D03*Y010039D03*X020472Y011811D03*
X038386Y007087D03*X028529Y02464D03*D26*X02185Y014764D03*
X028307Y021309D03*D28*X035827Y011811D03*D26*X002756Y007087D03*D28*
X02815Y009252D03*D24*X020374Y025787D03*D28*X025591Y013976D03*D39*
X013091Y004232D03*D28*X004906Y02464D03*D26*X029679Y02189D03*D28*
X02815Y011811D03*D26*X004626Y01998D03*X017431Y023317D03*
X021506Y01909D03*X034852Y02324D03*X039173Y010433D03*D28*
X019079Y02394D03*X02815Y011417D03*D26*X009106Y02129D03*X00376Y02248D03*
X006299Y014764D03*X039252Y02124D03*D28*X025591Y011417D03*D26*
X006939Y024154D03*X013366Y014783D03*X026555Y012608D03*
X021112Y024154D03*D28*X025213Y002772D03*D26*X00561Y000689D03*D28*
X038386Y011811D03*Y013583D03*X033268Y012205D03*X04064Y023986D03*D26*
X023937Y021299D03*X023279Y02129D03*D28*X035827Y009252D03*D26*
X006102Y001083D03*X02372Y007382D03*X008366Y001083D03*X032677Y012795D03*
D28*X031402Y02439D03*D26*X036811Y016929D03*X031772Y02315D03*D28*
X043228Y020906D03*D24*X01565Y025787D03*X010925D03*D26*
X024409Y019094D03*D28*X009256Y02359D03*D24*X01565Y025984D03*D28*
X025591Y01437D03*D26*X017598Y02315D03*X021506Y01694D03*
X042244Y014783D03*X041309Y022982D03*D28*X012795Y012205D03*
X003406Y02424D03*X02815Y01437D03*X038386Y007874D03*X024488Y020906D03*
D16*X002264Y022835D03*D26*X004156Y02184D03*X036811Y008268D03*
X03487Y024188D03*X045177Y025787D03*X011122Y002953D03*D28*
X018729Y02394D03*D26*X00374Y004626D03*X003051Y004823D03*
X00315Y004626D03*X02372Y008366D03*X013287Y002067D03*X028987Y017116D03*
X020778Y024488D03*X032502Y02164D03*X019587Y019882D03*X012697Y002264D03*
X017618Y001575D03*D28*X017913Y01437D03*Y012205D03*Y010039D03*
Y007874D03*X020472D03*Y010039D03*D26*X003848Y010433D03*
X003425Y022815D03*D28*X018729Y02464D03*X021729Y02434D03*
X012795Y009252D03*X014356Y02429D03*D26*X028629Y02134D03*D28*
X043504Y010039D03*D26*X022429Y02064D03*D24*X025098Y025984D03*D28*
X005315Y017913D03*D26*X017766Y022648D03*X018898Y012598D03*D28*
X031402Y02474D03*X010433Y009252D03*X009606Y02464D03*D26*
X034213Y010433D03*X034783Y024823D03*D28*X023031Y016142D03*D26*
X020696Y023519D03*X024056Y01909D03*D28*X012795Y013583D03*
X038386Y016142D03*X017913Y011811D03*X025591D03*D26*X007283Y002953D03*
D28*X023779Y02359D03*X017229Y02474D03*D26*X034252Y016929D03*
X032106Y022815D03*X036811Y019094D03*X031604Y023317D03*D28*
X035827Y007087D03*X005315Y015748D03*Y018701D03*D26*X003556Y02069D03*
D28*X007874Y016535D03*D26*X018898Y010433D03*X017431Y022648D03*D28*
X009256Y02324D03*D26*X027303Y022313D03*X026906Y01514D03*
X026606Y01694D03*X021457Y023622D03*D28*X012795Y017913D03*D26*
X041309Y023317D03*X042256Y01684D03*X009528Y021299D03*D28*
X010433Y016142D03*X007874Y017913D03*X010433D03*X038602Y02464D03*
X010433Y013976D03*X014882Y020906D03*D26*X016309Y02315D03*
X009252Y008268D03*D28*X017829Y02004D03*X004906Y02324D03*
X014356Y02394D03*D26*X042323Y010433D03*X044321Y023819D03*D28*
X003056Y02004D03*X009606Y02359D03*D26*X008556Y02474D03*
X008189Y025709D03*D28*X020472Y01437D03*X014356Y02359D03*
X014006Y02464D03*X019079Y02359D03*X005315Y007874D03*X025591Y017913D03*
X014356Y02464D03*D26*X015266Y017461D03*X013297Y022146D03*D28*
X029823Y025787D03*D26*X041949Y004331D03*Y004035D03*X042244Y005512D03*
D24*X006201Y025787D03*D28*X026801Y023986D03*X024114Y002303D03*D26*
X042539Y005512D03*D28*X028529Y02359D03*X022079Y02434D03*D26*
X032677Y014961D03*X02185Y019094D03*D28*X007874Y012205D03*X005315D03*
D26*X028957Y019134D03*D28*X035827Y013583D03*D26*X044656Y023484D03*
X032087Y010433D03*D28*X017913Y011417D03*X015354Y007874D03*D26*
X01122Y010433D03*X006523Y024188D03*D28*X015354Y016142D03*
X004556Y02429D03*X003056Y02474D03*D24*X032902Y02324D03*
X010925Y025984D03*D28*X007556Y02399D03*X043504Y012205D03*D26*
X009252Y016929D03*X014094Y012943D03*X015974Y024488D03*
X039764Y016929D03*D28*X024079Y02464D03*D26*X032106Y02248D03*
X034252Y014764D03*X013456Y01694D03*X007283Y023622D03*D28*
X033268Y017913D03*X004556Y02464D03*X005315Y010039D03*X004906Y02394D03*
X007874Y010039D03*X017913Y018701D03*X040945Y00748D03*X020472Y017913D03*
D26*X041024Y025472D03*X003445Y004429D03*D28*X023429Y02464D03*D26*
X010006Y02094D03*D28*X007874Y018701D03*X042352Y02324D03*X009606D03*
X009256Y02429D03*D26*X042002Y02169D03*D28*X020472Y013976D03*X017913D03*
X015354Y01437D03*X012795D03*D26*X019291Y020906D03*X019055Y021142D03*
D28*X037952Y02394D03*D26*X016043Y026083D03*X017487Y025715D03*
X041702Y02184D03*X02185Y012598D03*D28*X042352Y02394D03*
X040974Y023986D03*D26*X041555Y010472D03*X039764Y010433D03*
X041476Y02315D03*X03811Y021299D03*X037205Y019094D03*D28*
X030669Y007087D03*D26*X004106Y02129D03*D28*X033268Y007087D03*Y00748D03*
D26*X034646Y019094D03*D28*X012795Y009646D03*D26*X008858Y012598D03*
X003258Y023317D03*X041556Y01724D03*X035433Y023425D03*X03248Y016929D03*
X036602Y02064D03*D16*X016142Y003937D03*D28*X035827Y00748D03*D26*
X034646Y016929D03*X031693Y012598D03*X031772Y022815D03*
X035118Y024321D03*X041732Y008465D03*D28*X038386Y00748D03*
X035827Y016142D03*X043504Y011811D03*X005315Y011417D03*
X040945Y009252D03*Y013976D03*X007906Y02434D03*X030669Y00748D03*
X043504Y011417D03*X040945D03*X035827D03*D26*X015266Y019301D03*
X01313Y02315D03*D28*X038386Y011417D03*X017529Y02004D03*
X035827Y010039D03*X038386D03*D26*X009252Y010433D03*X016142Y023317D03*
D28*X040945Y010039D03*D26*X04189Y021299D03*D28*X033268Y011417D03*
X007874Y01437D03*X035827Y018307D03*X038386D03*D26*X008071Y003543D03*
X043456Y01934D03*X044154Y024656D03*X007874Y003264D03*X036535Y025709D03*
X036902Y02474D03*D28*X038386Y017913D03*X040945D03*D26*
X030148Y023484D03*X026969Y008268D03*D28*X017913Y009252D03*D26*
X026555Y012943D03*X02998Y024656D03*D28*X043504Y017913D03*D26*
X027829Y02169D03*X007677Y003264D03*D28*X042352Y02464D03*D26*
X00748Y002657D03*D28*X030709Y015748D03*D26*X023701Y021299D03*
X014094Y012608D03*X015974Y024154D03*X029134Y012598D03*
X020945Y024321D03*X017431Y022982D03*X016447Y010433D03*
X041909Y012943D03*X041476Y022313D03*X043456Y01704D03*X044154Y024321D03*
D28*X037952Y02464D03*D26*X04375Y017461D03*X044321Y024154D03*
X042913Y020906D03*D28*X023031Y018701D03*D26*X041339Y025709D03*D28*
X003356Y02004D03*D26*X03166Y025715D03*X019508Y016959D03*
X017766Y023317D03*X021457Y014764D03*X012628Y023317D03*
X013366Y015118D03*X02747Y02499D03*X025492Y015118D03*X026606Y01909D03*
X02128Y023986D03*X031345Y025478D03*X017234Y01434D03*X014173Y008268D03*
X015974Y023484D03*X027303Y024823D03*X028297Y017126D03*X029779Y02094D03*
X021024Y008258D03*X017933Y022815D03*D28*X030709Y011811D03*D26*
X022979Y02164D03*Y02144D03*X041476Y022815D03*X042579Y012943D03*
X041909Y014783D03*X035302Y02369D03*X02185Y016929D03*X026606Y01514D03*
X02747Y02248D03*X024409Y010433D03*X02998Y023317D03*D28*
X025591Y007087D03*X017229Y02404D03*D26*X034702Y024356D03*
X036811Y010433D03*X007874Y025472D03*X008406Y02454D03*X022579D03*
X022047Y025472D03*D28*X010433Y013583D03*D26*X024409Y016929D03*D28*
X020472Y018701D03*D26*X044154Y023986D03*X04375Y017126D03*
X009252Y012598D03*X041909Y015118D03*X041644Y023317D03*D28*
X003622Y020039D03*D26*X039152Y02184D03*X039665Y025984D03*
X044321Y02315D03*X037205Y008268D03*X03487Y023854D03*X039173Y012598D03*
X030315Y023317D03*X02185Y010433D03*D16*X039173Y003543D03*D28*
X042702Y02359D03*D24*X025098Y025787D03*D28*X035827Y017913D03*
X023429Y02359D03*D26*X036656Y01264D03*X032106Y02315D03*
X021024Y010433D03*X017766Y022982D03*X044321Y023484D03*
X039764Y008268D03*D28*X012795Y00748D03*X043504Y007874D03*
X005315Y009646D03*D26*X02685Y025472D03*X025827Y015118D03*
X026969Y022815D03*D28*X033268Y018701D03*X010433Y009646D03*
X030709Y016535D03*D26*X033465Y020906D03*D28*X010433Y01437D03*
X019079Y02324D03*D26*X02998Y023986D03*X027224Y012608D03*D28*
X010315Y020906D03*D26*X030148Y024154D03*X02689Y012608D03*
X033228Y021142D03*D28*X017913Y018307D03*D26*X027224Y012943D03*
X02998Y024321D03*D28*X023031Y012205D03*D26*X044488Y023317D03*
X034646Y010433D03*D28*X007874Y013583D03*D26*X004156Y02164D03*D28*
X007556Y02434D03*X005315Y013583D03*X023031Y01437D03*D26*
X024075Y016929D03*X020529Y023686D03*X018329Y02184D03*X007579Y004232D03*
D28*X02815Y009646D03*X025591D03*X033268Y011811D03*X023429Y02429D03*
X023779Y02464D03*D26*X016831Y000984D03*X005709Y020846D03*
X002756Y01811D03*X045374Y025787D03*X003839Y004429D03*X003346Y004626D03*
X023228Y019488D03*X023917Y019587D03*D16*X027362Y005709D03*D28*
X010433Y011417D03*D26*X015059Y020177D03*X019587Y020276D03*
X002854Y004429D03*X003051D03*X027165Y005512D03*X013681Y002067D03*
X027529Y02154D03*D28*X028879Y02464D03*D26*X020279Y02164D03*
X006437Y024823D03*X008819Y010433D03*D28*X015846Y003051D03*X016437D03*
Y002067D03*X015846D03*X009606Y02429D03*X028179Y02324D03*D26*
X006299Y012598D03*X003593Y022648D03*D28*X020472Y009646D03*D26*
X034213Y008258D03*X034951Y024488D03*D28*X030709Y017913D03*D26*
X045374Y025394D03*D28*X012795Y016142D03*D36*X03324Y004807D03*
X032256D03*X031469D03*D31*X030484D03*D40*X034449Y00374D03*X029276D03*
D28*X028529Y02429D03*X026467Y024321D03*X012795Y018701D03*
X025591Y016142D03*X035827Y013976D03*D26*X039502Y02074D03*D28*
X030709Y013583D03*X043504Y009646D03*D26*X013297Y022982D03*
X0156Y017461D03*X014456Y02134D03*X03487Y023519D03*X039173Y016929D03*
X039567Y005413D03*D28*X007874Y007087D03*X010433Y018701D03*
X017913Y016142D03*D26*X04311Y005906D03*X044685D03*X039764Y019094D03*
X027717Y021299D03*X012677Y025472D03*D28*X020472Y007087D03*D26*
X008858Y016929D03*X003593Y023317D03*D28*X043052Y02464D03*
X033268Y01437D03*X040945Y011811D03*X015354Y013976D03*X030709Y016142D03*
D26*X017766Y022313D03*X019006Y01694D03*D28*X017913Y009646D03*D26*
X035453Y023986D03*X041456Y01944D03*X006693Y019094D03*D28*
X023031Y009646D03*D26*X039173Y008268D03*X034702Y024021D03*D28*
X012628Y024321D03*D26*X03315Y021378D03*D28*X032902Y02464D03*
X042702Y02429D03*D26*X034452Y02164D03*X024642Y002575D03*D28*
X022079Y02399D03*D26*X029528Y012598D03*X02998Y023652D03*
X012697Y015118D03*X01313Y024823D03*X014567Y020906D03*D28*
X030709Y01437D03*X007874Y009252D03*D26*X011614Y016929D03*
X019291Y010433D03*X030482Y023484D03*X024016Y008268D03*
X020529Y024356D03*D28*X024429Y02464D03*D26*X041644Y02499D03*
X040846Y015118D03*D28*X009256Y02464D03*D26*X006356Y023686D03*
X01122Y016929D03*X013543Y021299D03*X006299Y019094D03*X00376Y022146D03*
X041476Y024823D03*X041181Y015118D03*X02747Y022146D03*X027256Y01514D03*
X039469Y006496D03*X013031Y014783D03*X012963Y023317D03*D16*
X039665Y004331D03*D26*X047185Y014232D03*D33*X014075Y004429D03*D28*
X007874Y00748D03*D16*X039665Y004724D03*D28*X004906Y02429D03*
X018729Y02359D03*D26*X014429Y014783D03*X01313Y022815D03*
X006106Y02164D03*X015974Y02315D03*X011614Y008268D03*D28*
X025591Y018701D03*D26*X013297Y02248D03*X0156Y017126D03*D28*
X02815Y018701D03*X032902Y02359D03*D26*X029203Y010433D03*
X031604Y022982D03*D28*X025591Y016535D03*X025213Y002378D03*D15*
X041142Y022815D02*G01X041144Y022579D01*X041337Y021389D01*
X041525Y021148D01*X042521Y019881D01*X042671Y019341D01*Y019039D01*
X042621Y016689D01*X042579Y015118D01*X030482Y02315D02*X030844Y021381D01*
X03109Y019911D01*X03124Y019611D01*X031721Y01912D01*Y015328D01*
X031428Y014874D01*X031321Y013329D01*X030396Y012334D01*
X028938Y010543D01*X028762Y008998D01*X028403Y008639D01*
X027161Y007803D01*X025679Y006874D01*X022943D01*X022819Y006998D01*
X02185Y008268D01*X015807Y024656D02*X015697Y024586D01*X015542Y024431D01*
X014942Y023675D01*X014941Y022124D01*Y021656D01*X015195Y021035D01*
X015241Y020789D01*X015521Y020287D01*X015603Y019066D01*
X015767Y018872D01*X01611Y017588D01*Y017058D01*X015567Y01566D01*
X013366Y012943D01*X035285Y024154D02*X035137Y023759D01*Y023622D01*
X035168Y023315D01*X036887Y02133D01*X037043Y021175D01*X039324Y019459D01*
X039538Y019246D01*X039599Y010365D01*X039695Y010268D01*X039832D01*
X041033Y011205D01*X041158Y011329D01*X041909Y012608D01*X027303Y02315D02*
X027539Y023147D01*X027635Y023051D01*X028794Y021409D01*Y021272D01*
X028575Y020974D01*Y020837D01*X029067Y02001D01*X029693Y019163D01*
X030056Y01761D01*Y016976D01*X028962Y015411D01*X028486Y014935D01*
X027256Y01479D01*D28*X017913Y017913D02*X017588Y01667D01*Y016007D01*
X017779Y015816D01*X017913Y015748D01*X016956Y014455D01*X01668Y013034D01*
X01568Y009511D01*X015489Y00932D01*X015354Y009252D01*X01568Y008009D01*
Y007345D01*X015489Y007155D01*X015354Y007087D01*D15*X042579Y014783D02*
X042744Y01505D01*X04275Y017736D01*X042771Y018998D01*Y019383D01*
X042621Y019923D01*X041625Y021189D01*X041437Y02143D01*X041311Y022245D01*
X041309Y022648D01*X036752Y02454D02*X03622Y025472D01*X024409Y008268D02*
X02572Y008187D01*X026465Y008003D01*X027078D01*X028321Y008839D01*
X028562Y009081D01*X028738Y010626D01*X030196Y012417D01*
X031121Y013412D01*X031228Y014956D01*X031521Y015411D01*Y019037D01*
X03104Y019528D01*X03089Y019828D01*X030644Y021298D01*X030148Y02315D01*
X016447Y008258D02*X016282Y010365D01*Y010501D01*X017399Y013922D01*
X017499Y01423D01*X017501Y014541D01*X018226Y015618D01*Y01883D01*
X018142Y02017D01*X017959Y020353D01*X017546Y020425D01*X017391Y02058D01*
X017001Y021996D01*X016966Y022455D01*Y02284D01*X017166Y023427D01*
X017792Y024152D01*Y024328D01*X017664Y024572D01*Y024709D01*
X017761Y024805D01*X017854Y024892D01*X026969Y010433D02*
X028238Y011205D01*X028362Y011329D01*X029299Y01253D01*X029363Y012667D01*
X030396Y0145D01*X031121Y015577D01*Y018872D01*X03064Y019362D01*
X03049Y019662D01*X030244Y021133D01*X029615Y023166D01*Y023468D01*
X029815Y02372D01*X029912Y023817D01*X030148Y023819D01*X043415Y017461D02*
X043485Y01757D01*X043717Y017825D01*Y018789D01*X043389Y023D01*
Y023634D01*X043989Y024389D01*X044085Y024486D01*X044321Y024488D01*
X003681Y024892D02*X003588Y024805D01*X003491Y024709D01*Y024572D01*
X003619Y024328D01*Y024152D01*X002993Y023427D01*X002893Y022799D01*
Y022496D01*X003291Y02058D01*X003446Y020425D01*X00371Y020252D01*
X003835Y020128D01*X003846Y019202D01*Y019066D01*X00374Y016929D01*
X02126Y023425D02*X022814Y021372D01*X022911Y021275D01*X024193Y020252D01*
X025074Y01937D01*X025327Y01505D01*X025758Y014618D01*X025895D01*
X026606Y01479D01*X026575Y008268D02*X025378Y011329D01*X024978Y013329D01*
X024827Y014843D01*X024574Y019163D01*X023986Y019752D01*
X022704Y020775D01*X022314Y021165D01*X020514Y023172D01*X020479Y02334D01*
X007087Y023425D02*X008874Y021805D01*X008971Y021709D01*
X009271Y021359D01*X009363Y021231D01*X009459Y021134D01*
X009938Y020775D01*X010626Y020544D01*X012696Y019125D01*X012916D01*
X013056Y01914D01*X041644Y02248D02*X042267Y0218D01*Y02158D01*
X042215Y021419D01*Y021199D01*X042921Y020047D01*X043071Y019507D01*
Y018873D01*X04305Y017612D01*X043044Y014925D01*X042414Y013011D01*
X042409Y012875D01*X042244Y012608D01*X020768Y026083D02*
X020669Y025591D01*X01998Y024587D01*X019714Y023657D01*Y023023D01*
X020179Y02189D01*X042579Y012608D02*X042744Y012875D01*X043244Y014843D01*
X04325Y017529D01*X043271Y01879D01*Y01959D01*X043121Y02013D01*
X042748Y020837D01*Y020974D01*X042967Y021272D01*Y021409D01*
X041644Y022982D01*X029291Y017293D02*X028362Y018789D01*
X026764Y021223D01*X026704Y022705D01*Y022925D01*X026859Y02308D01*
X026969Y02315D01*X017598Y022815D02*X017363Y022813D01*X017266Y022716D01*
Y022579D01*X017301Y02212D01*X017368Y021912D01*X017714Y021056D01*
X018442Y020294D01*X018526Y018955D01*X018533Y014613D01*
X018733Y010365D01*X019518Y008258D01*X006604Y024488D02*
X006424Y024521D01*X006288D01*X006191Y024424D01*X005541Y023657D01*
Y023023D01*X005641Y022882D01*X007591Y020365D01*X00798Y019975D01*
X009445Y019559D01*X009717Y019287D01*Y016737D01*X009617Y014613D01*
X009417Y01253D01*X009087Y010501D01*X008819Y008258D01*X003848D02*
X003683Y010365D01*X003575Y01253D01*Y012667D01*X004515Y01689D01*
Y019202D01*X004161Y019788D01*X004035Y02021D01*X003641Y021098D01*
X003295Y021953D01*X003093Y022579D01*Y022716D01*X003258Y022982D01*
X006523Y023854D02*X006288Y023851D01*X006191Y023755D01*
X005941Y023491D01*Y023189D01*X006041Y023048D01*X007991Y02053D01*
X008146Y020375D01*X00961Y019959D01*X010117Y019453D01*X010646Y018789D01*
X01122Y014764D01*X015807Y023317D02*X015809Y023081D01*X016271Y021216D01*
X016621Y019733D01*X01681Y017878D01*Y016768D01*X016343Y014709D01*
X016067Y013287D01*X01565Y01287D01*X015225Y012518D01*X015042Y012334D01*
X014338Y008199D01*X014242Y008103D01*X013711D01*X012707Y009039D01*
X012582Y009164D01*X011614Y010433D01*X024979Y02184D02*X025492Y025984D01*
X012963Y024656D02*X012205Y024534D01*X012081Y024409D01*Y023898D01*
X012265Y021955D01*X012391Y02114D01*X013521Y019333D01*X013597Y018858D01*
X014421Y01705D01*Y01683D01*X013101Y015228D01*X013031Y015118D01*
X00374Y012598D02*X004515Y014715D01*X004615Y016849D01*Y019244D01*
X004261Y019829D01*X004135Y020252D01*X003741Y021139D01*
X003395Y021994D01*X003328Y022203D01*X003258Y022648D01*X042306Y01919D02*
X042221Y019757D01*X041225Y021024D01*X041037Y021265D01*
X040777Y022664D01*Y022966D01*X040974Y023317D01*X041181Y014783D02*
X041346Y01505D01*X041891Y016991D01*X041921Y017089D01*Y017391D01*
X041841Y018998D01*X041821Y019591D01*X040825Y020858D01*
X040637Y021099D01*X040377Y022498D01*Y023132D01*X040427Y024409D01*
X040552Y024534D01*X041309Y024656D01*X003656Y02514D02*X002968Y024953D01*
X002843Y024828D01*X002793Y02284D01*Y022455D01*X002843Y019952D01*
X002993Y019652D01*X003118Y019527D01*X003681Y019134D01*
X003593Y022982D02*X003828Y02298D01*X005818Y021111D01*X005974Y020956D01*
X007158Y019287D01*Y016737D01*X006958Y012489D01*X006528Y010501D01*
Y010365D01*X006919Y008258D01*X006299Y010433D02*X006858Y01253D01*
X007058Y016778D01*Y019246D01*X005874Y020915D01*X005777Y021011D01*
X00387Y022745D01*X00376Y022815D01*X032106Y022146D02*X032287Y021222D01*
X033015Y02046D01*X033481Y018789D01*X034252Y012598D01*X010806Y02184D02*
X011319Y026083D01*X006506Y02324D02*X008341Y021248D01*X008613Y020975D01*
X009776Y020359D01*X010365Y019914D01*X011683Y019259D01*
X011779Y019163D01*X012482Y013453D01*X013008Y012293D01*X01378Y010433D01*
X028956Y01434D02*X028362Y013495D01*X028238Y01337D01*X025502D01*
X025378Y013495D01*X025227Y015008D01*X024974Y019329D01*
X024151Y020152D01*X022869Y021175D01*X022714Y02133D01*X021095Y023357D01*
Y023494D01*X021129Y02369D01*X006772Y024321D02*X006691Y0238D01*
Y02358D01*X006722Y023274D01*X008441Y021289D01*X008655Y021075D01*
X009813Y020475D01*X010501Y020244D01*X011724Y019359D01*
X011879Y019204D01*X012582Y013495D01*X013366Y012608D01*
X008858Y014764D02*X009417Y016861D01*Y019163D01*X00932Y019259D01*
X007856Y019675D01*X005996Y021375D01*X00387Y023415D01*X003661Y023482D01*
X003524D01*X003428Y023385D01*X003425Y02315D01*X028632Y017461D02*
X028366Y017626D01*X028061Y017701D01*X027937Y017825D01*X027634Y01937D01*
X027534Y019722D01*X026664Y021182D01*X026604Y022664D01*Y022966D01*
X026801Y023317D01*X042244Y015118D02*X042421Y016772D01*
X042471Y019122D01*Y019259D01*X042321Y019798D01*X041325Y021065D01*
X041137Y021306D01*X040877Y022705D01*Y022925D01*X041032Y02308D01*
X041142Y02315D01*X030148Y024488D02*X029912Y024486D01*X029815Y024389D01*
X029215Y023634D01*Y023D01*X029314Y021739D01*X029993Y019287D01*
X030356Y017734D01*Y016852D01*X029881Y014693D01*X029726Y014538D01*
X028321Y01317D01*X027156Y013108D01*X02689Y012943D01*X003593Y022313D02*
X003595Y022077D01*X003941Y021222D01*X004335Y020335D01*
X004461Y019912D01*X005528Y018789D01*X006299Y016929D01*X032002Y02464D02*
X032065Y02437D01*Y024111D01*X031439Y023385D01*X031339Y022757D01*
Y022538D01*X031374Y022079D01*X031691Y020622D01*X031788Y020525D01*
X032173Y020453D01*X032415Y020211D01*Y019869D01*X032291Y019409D01*
X032221Y017172D01*X031921Y015246D01*X031693Y014764D01*
X012795Y022815D02*X012765Y022464D01*Y022162D01*X012891Y021348D01*
X014021Y01954D01*X014097Y019066D01*X014921Y017257D01*Y016623D01*
X014429Y015118D01*X032056Y01724D02*X032191Y01945D01*X032315Y019911D01*
Y02017D01*X032132Y020353D01*X031746Y020425D01*X031591Y02058D01*
X031274Y022038D01*X031239Y022496D01*Y022799D01*X031339Y023427D01*
X031965Y024152D01*Y024328D01*X031837Y024572D01*Y024709D01*
X031934Y024805D01*X032028Y024892D01*X027136Y024656D02*
X027014Y023898D01*X026889Y023773D01*X026691Y023582D01*
X026536Y023427D01*X026404Y023049D01*Y022581D01*X026464Y021099D01*
X027334Y019639D01*X027434Y019287D01*X027737Y017742D01*
X027979Y017501D01*X028229Y017296D01*X028366Y017291D01*
X028632Y017126D01*X031604Y022648D02*X031574Y022464D01*Y022162D01*
X031887Y021056D01*X032615Y020294D01*X032721Y01945D01*X032745Y017039D01*
Y016819D01*X031621Y013205D01*X031021Y011288D01*X029203Y008258D01*
X012795Y02315D02*X012686Y02308D01*X01253Y022925D01*Y022705D01*
X012565Y022079D01*X012691Y021265D01*X013821Y019457D01*
X013897Y018983D01*X014721Y017174D01*Y016706D01*X013929Y015186D01*
Y01505D01*X014094Y014783D01*X014429Y012943D02*X015442Y01337D01*
X015567Y013495D01*X015843Y014916D01*X01631Y016975D01*Y017671D01*
X016033Y019244D01*X015891Y01943D01*X015721Y02037D01*X015441Y020872D01*
X015395Y021118D01*X015141Y021739D01*Y022041D01*X015142Y023592D01*
X015542Y024096D01*X015697Y024251D01*X015807Y024321D01*
X012963Y022982D02*X012727Y02298D01*X01263Y022883D01*Y022747D01*
X012665Y02212D01*X012791Y021306D01*X013921Y019498D01*X013997Y019024D01*
X014821Y017216D01*Y016665D01*X014094Y015118D01*X015266Y017126D02*
X015101Y017392D01*X014942Y017742D01*X014527Y019244D01*
X014321Y019664D01*X013191Y021472D01*X013132Y022077D01*X01313Y022313D01*
X017234Y01184D02*X017399Y012172D01*X017599Y014189D01*X017601Y0145D01*
X018326Y015577D01*Y018872D01*X018242Y020211D01*X018Y020453D01*
X017588Y020525D01*X017491Y020622D01*X017101Y022038D01*
X017066Y022496D01*Y022799D01*X017266Y023385D01*X017892Y024111D01*
Y02437D01*X017829Y02464D01*X031939Y023317D02*X032175Y023315D01*
X032271Y023218D01*X03614Y01883D01*X036811Y014764D01*X034646Y008268D02*
X035614Y006998D01*X035739Y006874D01*X040815Y006774D01*X043634D01*
X043817Y006957D01*X044117Y008998D01*X044717Y017411D01*
X044817Y020582D01*Y021298D01*X044656Y02315D01*X020696Y024188D02*
X020461Y024186D01*X020364Y024089D01*X019914Y023574D01*Y023106D01*
X022115Y019204D01*X022819Y013495D01*X024055Y010433D01*
X018898Y014764D02*X018841Y016872D01*X018826Y019079D01*
X018742Y020418D01*X018014Y02118D01*X017668Y022036D01*X017601Y022245D01*
Y022381D01*X017697Y022478D01*X017933Y02248D01*X014429Y012608D02*
X015525Y01317D01*X015767Y013412D01*X016043Y014833D01*X01651Y016892D01*
Y017754D01*X016321Y019609D01*X015971Y021091D01*X015442Y023166D01*
Y023468D01*X015642Y02372D01*X015739Y023817D01*X015974Y023819D01*
X03563Y023622D02*X03875Y021118D01*X038874Y020994D01*X040056Y01944D01*
X024075Y014764D02*X023244Y016624D01*X022719Y017784D01*
X022315Y019287D01*X020114Y023189D01*Y023491D01*X020364Y023755D01*
X020461Y023851D01*X020696Y023854D01*X034941Y025984D02*
X034843Y025591D01*X034134Y024567D01*X033687Y02374D01*Y02294D01*
X034352Y02189D01*X01122Y012598D02*X010646Y016624D01*X01022Y017825D01*
X010017Y019411D01*X009569Y019859D01*X008105Y020275D01*
X007891Y020489D01*X005941Y023006D01*X005841Y023148D01*Y023533D01*
X006091Y023796D01*X006246Y023951D01*X006356Y024021D01*X020529D02*
X020419Y023951D01*X020264Y023796D01*X020014Y023533D01*Y023148D01*
X022215Y019246D01*X022819Y01566D01*X024055Y012598D01*X003656Y02464D02*
X003719Y02437D01*Y024111D01*X003093Y023385D01*X002993Y022757D01*
Y022538D01*X003391Y020622D01*X003488Y020525D01*X003752Y020352D01*
X003935Y020169D01*X003946Y019244D01*Y019024D01*X003905Y016861D01*
X00374Y014764D01*D26*X00689Y003543D02*Y002264D01*X007576Y002427D01*
X008957Y002953D01*X009547D01*X010039Y002657D01*D15*X016156Y01954D02*
X015871Y02105D01*X015341Y021822D01*Y021959D01*X015342Y02351D01*
X015542Y023761D01*X015697Y023917D01*X015807Y023986D01*X019106Y01924D02*
X018942Y020501D01*X018444Y021359D01*X018347Y021455D01*
X018261Y021475D01*X018164Y021572D01*X017933Y022146D01*X006956Y02369D02*
X006922Y023494D01*Y023357D01*X008641Y021372D01*X008738Y021275D01*
X009896Y020675D01*X010584Y020444D01*X012655Y019025D01*
X012883Y018914D01*X013008Y018789D01*X01378Y016929D01*X007106Y023986D02*
X010838Y021075D01*X011224Y020905D01*X012806Y01939D01*X032313Y008258D02*
X031922Y010365D01*Y010501D01*X032842Y012727D01*X033042Y014809D01*
X033045Y016695D01*Y017163D01*X033021Y019574D01*X032915Y020418D01*
X032187Y02118D01*X031941Y022077D01*X031939Y022313D01*X017829Y02514D02*
X017141Y024953D01*X017016Y024828D01*X016866Y022882D01*Y022414D01*
X016901Y021955D01*X017291Y020539D01*X017505Y020325D01*
X017917Y020253D01*X018042Y020128D01*X018126Y018789D01*Y01566D01*
X017401Y014582D01*X017399Y014272D01*X017234Y01399D01*X006693Y010433D02*
X007661Y009164D01*X007786Y009039D01*X008751Y008093D01*
X010304Y006774D01*X012925D01*X014407Y007703D01*X014738Y008034D01*
X015142Y010128D01*X015767Y011246D01*X016467Y013122D01*
X016743Y014543D01*X01721Y016602D01*Y018044D01*X017021Y019898D01*
X016474Y023218D01*X016309Y023484D01*X027136Y022982D02*X0269Y02298D01*
X026804Y022883D01*Y022747D01*X026864Y021265D01*X028297Y019301D01*
X014156Y01694D02*X013397Y018776D01*X013321Y01925D01*X012191Y021058D01*
X012065Y021872D01*X011881Y023815D01*Y024492D01*X012122Y024734D01*
X013062Y024988D01*X013297Y02499D01*X027303Y022815D02*X027539Y022645D01*
X027635Y022549D01*X027994Y021759D01*X028042Y021199D01*
X028867Y019928D01*X029322Y019285D01*X029363Y019026D01*
X029956Y017569D01*Y017018D01*X028862Y015453D01*X028445Y015035D01*
X027188Y014955D01*X026956Y01479D01*X02747Y023317D02*X02758Y023247D01*
X027735Y023092D01*X029268Y020994D01*X029793Y019204D01*
X030156Y017652D01*Y016935D01*X029616Y014803D01*X01378Y008268D02*
X012582Y011329D01*X011779Y016997D01*X011385Y019163D01*
X011289Y019259D01*X010323Y019814D01*X009735Y020259D01*
X008572Y020875D01*X008241Y021206D01*X006341Y023172D01*X006306Y02334D01*
X021457Y012598D02*X02026Y01566D01*X019948Y020344D01*X019819Y021033D01*
X018198Y022925D01*X018043Y02308D01*X017933Y02315D01*X029528Y019094D02*
X029422Y019326D01*X028967Y019969D01*X028142Y021241D01*X028094Y0218D01*
X027735Y02259D01*X02747Y022982D01*X042126Y008661D02*X043717Y011329D01*
X044217Y017618D01*X044317Y020789D01*Y021091D01*X044217Y022041D01*
X043889Y023207D01*Y023427D01*X044044Y023582D01*X044154Y023652D01*
X014262Y019134D02*X014121Y019581D01*X012991Y021389D01*
X012865Y022203D01*Y022423D01*X012963Y022648D01*X020679Y02324D02*
X022414Y021206D01*X022745Y020875D01*X024027Y019852D01*
X024674Y019204D01*X024927Y014884D01*X025078Y01337D01*X025803Y012293D01*
X026575Y010433D01*X037205D02*X038173Y009164D01*X039008Y008199D01*
X039105Y008103D01*X039832D01*X040815Y008187D01*X041842Y0082D01*
X043634Y008939D01*X043817Y009122D01*X044417Y017535D01*
X044517Y020706D01*Y021174D01*X044417Y022124D01*X044156Y023081D01*
X044154Y023317D01*X008806Y02164D02*Y02144D01*X022362Y025709D02*
X022729Y02474D01*X034252Y019094D02*X033063Y021073D01*X032767Y02195D01*
X032271Y022883D01*X032175Y02298D01*X031939Y022982D01*X027136Y022648D02*
X027038Y022423D01*Y022203D01*X027064Y021348D01*X028562Y019411D01*
X028692Y019024D01*X029556Y017403D01*Y017184D01*X028462Y015618D01*
X028279Y015435D01*X02802D01*X027407Y015505D01*X027105D01*
X026796Y015405D01*X026538Y015305D01*X025827Y014783D01*X031956Y01934D02*
X032215Y019952D01*Y020128D01*X032091Y020253D01*X031705Y020325D01*
X031491Y020539D01*X031174Y021996D01*X031139Y022455D01*Y02284D01*
X03119Y024828D01*X031314Y024953D01*X032002Y02514D01*X006693Y026083D02*
X006496Y025591D01*X005807Y024567D01*X005341Y02374D01*Y02294D01*
X006006Y02189D01*X004035Y025551D02*X006102Y026378D01*X006791D01*
X009756Y02544D01*X01063Y02628D01*X011516D01*X01306Y025874D01*
X014456Y02544D01*X015453Y026378D01*X01624D01*X019179Y02549D01*
X020177Y02628D01*X020965D01*X022431Y025874D01*X023929Y02544D01*
X024902Y02628D01*X025591D01*X027234Y025874D01*X028629Y02544D01*
X029528Y026378D01*X030118D01*X033352Y02549D01*X03435Y02628D01*
X035039D01*X036604Y025874D01*X038109Y025465D01*X039075Y02628D01*
X041407Y025874D01*X042802Y02544D01*X013297Y023317D02*X013407Y023247D01*
X013562Y023092D01*X015095Y020994D01*X015141Y020748D01*
X015421Y020246D01*X015456Y01939D01*X015503Y019024D01*X015667Y01883D01*
X015945Y01752D01*X041644Y022146D02*X042071Y021855D01*X042167Y021759D01*
Y021622D01*X042115Y02146D01*Y021158D01*X042821Y020006D01*
X042971Y019466D01*Y018915D01*X04295Y017653D01*X042944Y014967D01*
X042844Y014674D01*X042244Y012943D01*X028297Y017461D02*X02802Y017601D01*
X027837Y017784D01*X027534Y019329D01*X027434Y019681D01*X026564Y02114D01*
X026504Y022622D01*Y023008D01*X026636Y023385D01*X026733Y023482D01*
X02687D01*X027136Y023317D01*X008858Y019094D02*X007773Y019475D01*
X005913Y021175D01*X00387Y02308D01*X00376Y02315D01*X01122Y019094D02*
X010282Y019714D01*X009693Y020159D01*X00853Y020775D01*X008141Y021165D01*
X006241Y02313D01*X006141Y023272D01*Y023409D01*X006238Y023505D01*
X006523Y023519D01*X037152Y02144D02*Y02164D01*X01122Y008268D02*
X010646Y012293D01*X01022Y013495D01*X009817Y019329D01*X009486Y019659D01*
X008022Y020075D01*X007691Y020406D01*X005741Y022923D01*
X005641Y023065D01*Y023616D01*X006091Y024131D01*X006246Y024286D01*
X006356Y024356D01*X034652Y02334D02*X034687Y023172D01*X036587Y021206D01*
X036918Y020875D01*X039173Y019094D01*X034702Y023686D02*
X034543Y023605D01*X034387Y02345D01*Y02323D01*X034487Y023089D01*
X036767Y020709D01*X038599Y018789D01*X039173Y014764D01*X02061Y024823D02*
X022209Y024653D01*X022392Y02447D01*X023228Y023091D01*X025147Y021405D01*
X025244Y021309D01*X026969Y019488D01*X014173Y010433D02*
X014842Y012417D01*X015142Y012718D01*X015567Y01307D01*X015867Y01337D01*
X016143Y014792D01*X01661Y016851D01*Y017795D01*X016421Y01965D01*
X016071Y021133D01*X015542Y023207D01*Y023427D01*X015697Y023582D01*
X015807Y023652D01*X031939Y022648D02*X031774Y022381D01*Y022245D01*
X032087Y021139D01*X032815Y020377D01*X032921Y019533D01*
X032945Y017122D01*Y016737D01*X032942Y014851D01*X031693Y010433D01*D28*
X030669Y010039D02*X030804Y009971D01*X030995Y009781D01*Y009117D01*
X030669Y007874D01*X033268D01*X032942Y009117D01*Y009781D01*
X033133Y009971D01*X033268Y010039D01*D15*X017431Y023317D02*
X017501Y023427D01*X017656Y023582D01*X017876D01*X018084Y023515D01*
X018298Y023301D01*X020119Y021157D01*X021506Y01909D01*X034852Y02324D02*
X036687Y021248D01*X03696Y020975D01*X039242Y019259D01*X039338Y019163D01*
Y01253D01*X039173Y010433D01*X00376Y02248D02*X004321Y021909D01*
X004617Y021032D01*X005008Y020641D01*X005622Y020344D01*
X006761Y019259D01*X006858Y019163D01*Y016861D01*X006299Y014764D01*
X006939Y024154D02*X006791Y023759D01*Y023622D01*X006822Y023315D01*
X008541Y02133D01*X008696Y021175D01*X009855Y020575D01*X010543Y020344D01*
X011765Y019459D01*X011979Y019246D01*X012532Y01505D01*X012963Y014618D01*
X0131D01*X013366Y014783D01*X026555Y012608D02*X025461Y01327D01*
X025278Y013453D01*X025127Y014967D01*X024874Y019287D01*X02411Y020052D01*
X022828Y021075D01*X022614Y021289D01*X020995Y023315D01*
X020964Y023622D01*Y023759D01*X021112Y024154D01*X036811Y016929D02*
X03624Y018872D01*X032371Y023259D01*X032216Y023415D01*X032007Y023482D01*
X031871D01*X031774Y023385D01*X031772Y02315D01*X017598D02*
X017601Y023385D01*X017697Y023482D01*X017834D01*X018043Y023415D01*
X018198Y023259D01*X020019Y021116D01*X021506Y01694D01*X042244Y014783D02*
X042409Y01505D01*X042414Y015186D01*X042521Y01673D01*X042571Y01908D01*
Y0193D01*X042421Y01984D01*X041425Y021107D01*X041237Y021348D01*
X040977Y022747D01*Y022883D01*X041073Y02298D01*X041309Y022982D01*
X036811Y008268D02*X03704Y010501D01*X03747Y012489D01*X03767Y014571D01*
Y019287D01*X037397Y019559D01*X036451Y020275D01*X036237Y020489D01*
X034187Y022965D01*X034087Y023106D01*Y023574D01*X034537Y024089D01*
X034634Y024186D01*X03487Y024188D01*X028987Y017116D02*X028897Y017016D01*
X028742Y016861D01*X028187D01*X028032Y017016D01*X027437Y017618D01*
X027134Y019163D01*X027037Y019259D01*X0269Y019323D01*X025261Y020575D01*
X025164Y020672D01*X023128Y023049D01*X022292Y024428D01*
X022167Y024553D01*X021641D01*X020778Y024488D01*D28*X017913Y01437D02*
X018048Y014302D01*X018239Y014111D01*Y013448D01*X017913Y012205D01*
X018048Y012137D01*X018239Y011946D01*Y011282D01*X017913Y010039D01*
X018048Y009971D01*X018239Y009781D01*Y009117D01*X017913Y007874D01*
X020472D01*X020147Y009117D01*Y009781D01*X020338Y009971D01*
X020472Y010039D01*D15*X003848Y010433D02*X004515Y01254D01*
X004715Y016807D01*Y019285D01*X004361Y019871D01*X004235Y020293D01*
X003841Y02118D01*X003495Y022036D01*X003428Y022245D01*X003425Y022815D01*
X017766Y022648D02*X017656Y022578D01*X017501Y022423D01*Y022203D01*
X017568Y021994D01*X017914Y021139D01*X018642Y020377D01*
X018726Y019037D01*X018733Y014695D01*X018898Y012598D01*
X034213Y010433D02*X034536Y010698D01*X035915Y011205D01*X03604Y011329D01*
X036821Y012572D01*X03737Y014695D01*Y019163D01*X037273Y019259D01*
X036327Y019975D01*X035937Y020365D01*X033887Y02284D01*X033787Y022982D01*
Y023698D01*X034437Y024465D01*X034783Y024823D01*X020696Y023519D02*
X020411Y023505D01*X020314Y023409D01*Y023272D01*X020414Y02313D01*
X022264Y020572D01*X022361Y020475D01*X024056Y01909D01*X034252Y016929D02*
X033215Y020543D01*X032963Y021032D01*X032667Y021909D01*
X032271Y022549D01*X032106Y022815D01*X036811Y019094D02*
X032257Y023515D01*X032049Y023582D01*X031829D01*X031674Y023427D01*
X031604Y023317D01*X018898Y010433D02*X018733Y01253D01*X018633Y014654D01*
X018626Y018996D01*X018542Y020335D01*X017814Y021098D01*
X017468Y021953D01*X017401Y022162D01*Y022464D01*X017431Y022648D01*
X027303Y022313D02*X027264Y02195D01*Y02143D01*X027452Y021189D01*
X029122Y019202D01*X029163Y018943D01*X029756Y017486D01*Y017101D01*
X028662Y015536D01*X028362Y015235D01*X027937D01*X027324Y015305D01*
X027188D01*X026906Y01514D01*X026606Y01694D02*X025502Y017701D01*
X025378Y017825D01*X025174Y019411D01*X023536Y021231D01*
X023444Y021359D01*X023144Y021709D01*X021457Y023622D01*
X041309Y023317D02*X041043Y023482D01*X040906D01*X040809Y023385D01*
X040677Y023008D01*Y022622D01*X040937Y021223D01*X041125Y020982D01*
X042121Y019716D01*X042141Y019122D01*X042256Y01684D01*X016309Y02315D02*
X016921Y019857D01*X01711Y018002D01*Y016643D01*X016643Y014585D01*
X016367Y013163D01*X015667Y011288D01*X015042Y010169D01*
X014638Y008075D01*X014366Y007803D01*X012883Y006874D01*X010345D01*
X01022Y006998D01*X009252Y008268D01*X042323Y010433D02*X043717Y013495D01*
X044117Y01766D01*X044217Y02083D01*Y02105D01*X044117Y022D01*
X043789Y023166D01*Y023468D01*X043989Y02372D01*X044085Y023817D01*
X044321Y023819D01*X008556Y02474D02*X008189Y025709D01*X015266Y017461D02*
X015042Y017784D01*X014627Y019285D01*X013769Y021158D01*Y02146D01*
X013821Y021622D01*Y021759D01*X013724Y021855D01*X013297Y022146D01*
X044656Y023484D02*X044821Y023218D01*X044917Y02134D01*Y02054D01*
X044817Y01737D01*X044217Y008957D01*X043917Y006916D01*X043675Y006674D01*
X040774D01*X035697Y006774D01*X034144Y008093D01*X034048Y00819D01*
X033481Y010128D01*X033356Y010252D01*X032087Y010433D01*X01122D02*
X010646Y014458D01*X01022Y01566D01*X009917Y01937D01*X009527Y019759D01*
X008063Y020175D01*X007791Y020448D01*X005841Y022965D01*
X005741Y023106D01*Y023574D01*X006191Y024089D01*X006288Y024186D01*
X006523Y024188D01*X014094Y012943D02*X015667Y015618D01*X01621Y017016D01*
Y017629D01*X015933Y019202D01*X015791Y019389D01*X015621Y020328D01*
X015341Y02083D01*X015295Y021077D01*X015041Y021698D01*Y022083D01*
X015042Y023634D01*X015642Y024389D01*X015739Y024486D01*
X015974Y024488D01*X032106Y02248D02*X032271Y022214D01*X032337Y021572D01*
X032434Y021475D01*X032521Y021455D01*X032617Y021359D01*
X033115Y020501D01*X033581Y01883D01*X034252Y014764D01*X013456Y01694D02*
X013711Y016764D01*X013848D01*X013945Y016861D01*Y016997D01*
X013297Y018734D01*X013221Y019209D01*X013124Y019305D01*X012988D01*
X012874Y019225D01*X012738D01*X010403Y021118D01*X007283Y023622D01*
X039764Y010433D02*X040732Y012293D01*X042074Y014715D01*
X042091Y016909D01*X042121Y017006D01*Y017474D01*X042041Y01908D01*
X042021Y019674D01*X041025Y020941D01*X040837Y021182D01*
X040577Y022581D01*Y023049D01*X040709Y023427D01*X040865Y023582D01*
X041084D01*X041377Y023482D01*X041474Y023385D01*X041476Y02315D01*
X008858Y012598D02*X009417Y014695D01*X009517Y016819D01*Y019204D01*
X009362Y019359D01*X007898Y019775D01*X006038Y021475D01*
X003911Y023515D01*X003702Y023582D01*X003483D01*X003328Y023427D01*
X003258Y023317D01*X041556Y01724D02*X040857Y017701D01*X040732Y017825D01*
X040029Y019204D01*X039874Y019359D01*X037806Y021134D01*
X037709Y021231D01*X037617Y021359D01*X037317Y021709D01*
X037221Y021805D01*X035433Y023425D01*X031693Y012598D02*
X032842Y014892D01*X032845Y016778D01*Y01708D01*X032821Y019491D01*
X032715Y020335D01*X031987Y021098D01*X031674Y022203D01*Y022423D01*
X031769Y022579D01*X031772Y022815D01*X035118Y024321D02*X035037Y0238D01*
Y02358D01*X035068Y023274D01*X036787Y021289D01*X037001Y021075D01*
X039283Y019359D01*X039438Y019204D01*X039499Y010323D01*
X039654Y010168D01*X040857Y009039D01*X041732Y008465D01*
X015266Y019301D02*X014402Y020837D01*Y020974D01*X014621Y021272D01*
Y021409D01*X013462Y023051D01*X013366Y023147D01*X01313Y02315D01*
X009252Y010433D02*X01022Y009164D01*X011055Y008199D01*X011152Y008103D01*
X012883Y008087D01*X013628Y007903D01*X014324D01*X014538Y008117D01*
X014942Y01021D01*X015567Y011329D01*X016267Y013205D01*X016543Y014626D01*
X01701Y016685D01*Y017961D01*X016821Y019816D01*X016144Y023081D01*
X016142Y023317D01*X043456Y01934D02*X043441Y020994D01*X043289Y022959D01*
Y023675D01*X043889Y024431D01*X044044Y024586D01*X044154Y024656D01*
X036535Y025709D02*X036902Y02474D01*X030148Y023484D02*X029912Y023482D01*
X029815Y023385D01*Y023249D01*X030444Y021216D01*X03069Y019745D01*
X03084Y019445D01*X031321Y018955D01*Y015494D01*X031028Y015039D01*
X030921Y013495D01*X029996Y0125D01*X028538Y010709D01*X028362Y009164D01*
X028238Y009039D01*X026969Y008268D01*X026555Y012943D02*
X026821Y013108D01*X027115Y013208D01*X028279Y01327D01*X029684Y014638D01*
X029781Y014735D01*X030256Y016894D01*Y017693D01*X029893Y019246D01*
X029214Y021698D01*X029115Y022959D01*Y023675D01*X029715Y024431D01*
X029871Y024586D01*X02998Y024656D01*X014094Y012608D02*X014361Y012773D01*
X014497Y012778D01*X015484Y01327D01*X015667Y013453D01*X015943Y014875D01*
X01641Y016933D01*Y017712D01*X016133Y019285D01*X015991Y019472D01*
X015771Y021009D01*X015241Y02178D01*Y022D01*X015242Y023551D01*
X015642Y024055D01*X015739Y024151D01*X015974Y024154D01*
X029134Y012598D02*X027293Y012443D01*X026487D01*X02542Y01317D01*
X025178Y013412D01*X025027Y014925D01*X024774Y019246D01*
X024069Y019952D01*X022787Y020975D01*X022514Y021248D01*
X020895Y023274D01*X020864Y02358D01*Y0238D01*X020945Y024321D01*
X017431Y022982D02*X017321Y022913D01*X017166Y022757D01*Y022538D01*
X017201Y022079D01*X017268Y02187D01*X017614Y021015D01*X018342Y020253D01*
X018426Y018913D01*Y015536D01*X017701Y014458D01*X017699Y014148D01*
X017499Y01213D01*X017399Y011772D01*X016447Y010433D01*X041909Y012943D02*
X042744Y014715D01*X042844Y015008D01*X04285Y017695D01*X042871Y018956D01*
Y019424D01*X042721Y019964D01*X041725Y021231D01*X041537Y021472D01*
X041479Y022077D01*X041476Y022313D01*X043456Y01704D02*X04358Y017392D01*
X043585Y017529D01*X043817Y017784D01*Y01883D01*X043489Y023041D01*
Y023592D01*X043889Y024096D01*X044044Y024251D01*X044154Y024321D01*
X04375Y017461D02*X043917Y017742D01*Y018872D01*X043589Y023083D01*
Y023551D01*X043989Y024055D01*X044085Y024151D01*X044321Y024154D01*
X017766Y023317D02*X018001Y023315D01*X018098Y023218D01*
X019919Y021074D01*X020685Y018789D01*X021457Y014764D01*
X012628Y023317D02*X01243Y022966D01*Y022664D01*X012465Y022038D01*
X012591Y021223D01*X013721Y019416D01*X013797Y018941D01*
X014621Y017133D01*Y016748D01*X013366Y015118D01*X02747Y02499D02*
X027235Y024988D01*X026414Y02474D01*X026156Y024482D01*X026154Y02445D01*
Y023857D01*X026156Y022999D01*X026264Y021016D01*X027134Y019557D01*
X027234Y019204D01*X027537Y01766D01*X028132Y017058D01*X028229Y016961D01*
X0287D01*X028797Y017058D01*X028822Y017184D01*X028919Y017281D01*
X029056D01*X029152Y017184D01*Y017047D01*X029056Y016951D01*
X028783Y016761D01*X028061Y016748D01*X027953Y016732D01*
X025492Y015118D01*X026606Y01909D02*X025219Y020475D01*X025064Y02063D01*
X024701Y020994D01*X024576Y021118D01*X021525Y023787D01*X02128Y023986D01*
X014173Y008268D02*X014942Y012376D01*X015183Y012618D01*X015608Y01297D01*
X015967Y013329D01*X016243Y01475D01*X01671Y016809D01*Y017837D01*
X016521Y019691D01*X016171Y021174D01*X015642Y023249D01*Y023385D01*
X015739Y023482D01*X015974Y023484D01*X027303Y024823D02*
X027067Y024821D01*X026456Y02464D01*X026256Y02444D01*X026254Y024409D01*
Y023898D01*X026256Y02304D01*X026364Y021058D01*X027234Y019598D01*
X027334Y019246D01*X027637Y017701D01*X027937Y017401D01*
X028187Y017196D01*X028297Y017126D01*X021024Y008258D02*
X020785Y010169D01*X02026Y011329D01*X019243Y016849D01*Y017068D01*
X019271Y019172D01*Y019309D01*X019042Y020543D01*X01879Y021032D01*
X018494Y021909D01*X018098Y022549D01*X017933Y022815D01*X022979Y02164D02*
Y02144D01*X041476Y022815D02*X041712Y022645D01*X041809Y022549D01*
X042367Y021841D01*Y021539D01*X042315Y021377D01*Y021241D01*
X043021Y020088D01*X043171Y019548D01*Y018832D01*X04315Y01757D01*
X043144Y014884D01*X042579Y012943D01*X041909Y014783D02*
X041249Y014618D01*X041113D01*X040681Y01505D01*X039929Y019163D01*
X039832Y019259D01*X037084Y021275D01*X036987Y021372D01*
X035268Y023357D01*Y023494D01*X035302Y02369D01*X026606Y01514D02*
X026838Y015305D01*X027146Y015405D01*X027366D01*X027979Y015335D01*
X028321D01*X028562Y015577D01*X029656Y017142D01*Y017445D01*
X028792Y019066D01*X028662Y019452D01*X027164Y021389D01*
X027138Y022245D01*Y022381D01*X027235Y022478D01*X02747Y02248D01*
X024409Y010433D02*X025378Y009164D01*X025502Y009039D01*
X026506Y008103D01*X027037D01*X028279Y008939D01*X028462Y009122D01*
X028638Y010667D01*X030096Y012459D01*X031021Y013453D01*
X031128Y014998D01*X031421Y015453D01*Y018996D01*X03094Y019486D01*
X03079Y019786D01*X030544Y021257D01*X029983Y023081D01*X02998Y023317D01*
X034702Y024356D02*X034593Y024286D01*X034437Y024131D01*
X033987Y023616D01*Y023065D01*X034087Y022923D01*X036137Y020448D01*
X03641Y020175D01*X037356Y019459D01*X03757Y019246D01*Y014613D01*
X03737Y01253D01*X036811Y010433D01*X007874Y025472D02*X008406Y02454D01*
X022579D02*X022047Y025472D01*X044154Y023986D02*X044044Y023917D01*
X043889Y023761D01*X043689Y02351D01*Y023124D01*X044017Y021959D01*
X044117Y021009D01*Y020872D01*X044017Y017701D01*X043915Y017392D01*
X04375Y017126D01*X041909Y015118D02*X041991Y01695D01*X042021Y017048D01*
Y017433D01*X041941Y019039D01*X041921Y019633D01*X040925Y020899D01*
X040737Y02114D01*X040477Y022539D01*Y02309D01*X040609Y023468D01*
X040823Y023682D01*X041126D01*X041419Y023582D01*X041574Y023427D01*
X041644Y023317D01*X039152Y02184D02*X039665Y025984D01*X044321Y02315D02*
X044517Y022166D01*X044617Y021216D01*Y020665D01*X044517Y017494D01*
X043917Y009081D01*X043675Y008839D01*X041883Y0081D01*X040857Y008087D01*
X039874Y008003D01*X039063D01*X038515Y008187D01*X037205Y008268D01*
X03487Y023854D02*X034634Y023851D01*X034537Y023755D01*X034287Y023491D01*
Y023189D01*X034387Y023048D01*X036437Y020572D01*X036534Y020475D01*
X03748Y019759D01*X03787Y01937D01*X038173Y017825D01*X038599Y016624D01*
X039173Y012598D01*X030315Y023317D02*X030317Y023081D01*X030744Y02134D01*
X03099Y019869D01*X03114Y019569D01*X031621Y019079D01*Y01537D01*
X031328Y014915D01*X031221Y01337D01*X030296Y012376D01*X028838Y010584D01*
X028662Y00904D01*X028362Y008739D01*X02712Y007903D01*X026424D01*
X025679Y008087D01*X023947Y008103D01*X023455Y008201D01*
X023359Y008298D01*X02185Y010433D01*X036656Y01264D02*X03604Y018789D01*
X032371Y022925D01*X032216Y02308D01*X032106Y02315D01*X021024Y010433D02*
X020685Y012293D01*X02026Y013495D01*X019343Y01689D01*Y017027D01*
X019371Y01913D01*Y01935D01*X019142Y020584D01*X01889Y021073D01*
X018594Y02195D01*X018098Y022883D01*X018001Y02298D01*X017766Y022982D01*
X044321Y023484D02*X044085Y023482D01*X043989Y023385D01*Y023249D01*
X044317Y022083D01*X044417Y021133D01*Y020748D01*X044317Y017577D01*
X043717Y009164D01*X043592Y009039D01*X041801Y0083D01*X040774Y008287D01*
X039764Y008268D01*X025827Y015118D02*X026496Y015405D01*
X026755Y015505D01*X027063Y015605D01*X027449D01*X028061Y015535D01*
X028238D01*X028362Y01566D01*X029456Y017225D01*Y017362D01*
X028592Y018983D01*X028462Y01937D01*X026964Y021306D01*X026938Y022162D01*
Y022464D01*X026969Y022815D01*X02998Y023986D02*X029871Y023917D01*
X029715Y023761D01*X029515Y02351D01*Y023124D01*X030144Y021091D01*
X03039Y019621D01*X03054Y019321D01*X031021Y01883D01*Y015618D01*
X030181Y014569D01*X02985Y014238D01*X028445Y01287D01*X027224Y012608D01*
X030148Y024154D02*X029912Y024151D01*X029815Y024055D01*
X029415Y023551D01*Y023083D01*X029514Y021822D01*X030044Y02105D01*
X03029Y019579D01*X03044Y019279D01*X030921Y018789D01*Y01566D01*
X030081Y014611D01*X029809Y014338D01*X028403Y01297D01*X027293Y012778D01*
X027156Y012773D01*X02689Y012608D01*X027224Y012943D02*X028362Y01307D01*
X029767Y014438D01*X029981Y014652D01*X030456Y016811D01*Y017776D01*
X029944Y021009D01*X029414Y02178D01*X029315Y023041D01*Y023592D01*
X029715Y024096D01*X029871Y024251D01*X02998Y024321D01*X044488Y023317D02*
X044491Y023081D01*X044617Y022207D01*X044717Y021257D01*Y020623D01*
X044617Y017452D01*X044017Y00904D01*X043717Y006998D01*X043592Y006874D01*
X040857D01*X038474Y008087D01*X036743Y008103D01*X035739Y009039D01*
X035614Y009164D01*X034646Y010433D01*X024075Y016929D02*
X022943Y017701D01*X022819Y017825D01*X022415Y019329D01*X020214Y02323D01*
Y02345D01*X020369Y023605D01*X020529Y023686D01*X006437Y024823D02*
X006091Y024465D01*X005441Y023698D01*Y022982D01*X005541Y02284D01*
X007491Y020323D01*X007939Y019875D01*X009403Y019459D01*
X009617Y019246D01*Y016778D01*X009517Y014654D01*X009087Y012667D01*
X008819Y010433D01*X006299Y012598D02*X006858Y014695D01*
X006958Y016819D01*Y019204D01*X006803Y019359D01*X005663Y020444D01*
X00505Y020741D01*X004717Y021073D01*X004421Y02195D01*X003925Y022549D01*
X003828Y022645D01*X003593Y022648D01*X034213Y008258D02*
X034481Y010501D01*X034577Y010598D01*X035956Y011105D01*X03614Y011288D01*
X036921Y01253D01*X03747Y014654D01*Y019204D01*X037314Y019359D01*
X036368Y020075D01*X036037Y020406D01*X033987Y022882D01*
X033887Y023023D01*Y023657D01*X034537Y024424D01*X034634Y024521D01*
X034771D01*X034951Y024488D01*X013297Y022982D02*X014021Y021841D01*
Y021539D01*X013969Y021377D01*Y021241D01*X015101Y019233D01*
X015197Y019136D01*X015442Y018914D01*X015567Y018789D01*X0156Y017461D01*
X03487Y023519D02*X034584Y023505D01*X034487Y023409D01*Y023272D01*
X034587Y02313D01*X036867Y02075D01*X038699Y01883D01*X039173Y016929D01*
X008858D02*X009023Y019026D01*Y019163D01*X008927Y019259D01*
X007815Y019575D01*X005955Y021275D01*X003828Y023315D01*
X003593Y023317D01*X017766Y022313D02*X017768Y022077D01*
X018114Y021222D01*X018842Y02046D01*X018926Y01912D01*X019006Y01694D01*
X035453Y023986D02*X035698Y023787D01*X038791Y021218D01*
X038974Y021035D01*X039337Y020672D01*X039434Y020575D01*X041456Y01944D01*
X039173Y008268D02*X038599Y010128D01*X038173Y011329D01*X03777Y019329D01*
X037439Y019659D01*X036493Y020375D01*X036337Y02053D01*X034287Y023006D01*
X034187Y023148D01*Y023533D01*X034437Y023796D01*X034593Y023951D01*
X034702Y024021D01*X029528Y012598D02*X030496Y014458D01*
X031221Y015536D01*Y018913D01*X03074Y019403D01*X03059Y019703D01*
X030344Y021174D01*X029715Y023207D01*Y023427D01*X029871Y023582D01*
X02998Y023652D01*X012697Y015118D02*X014321Y016872D01*Y017009D01*
X013497Y018817D01*X013421Y019291D01*X012291Y021099D01*
X012165Y021913D01*X011981Y023857D01*Y02445D01*X012164Y024634D01*
X012894Y024821D01*X01313Y024823D01*X019291Y010433D02*X020561Y010252D01*
X020685Y010128D01*X020859Y00819D01*X020955Y008093D01*X022902Y006774D01*
X02572D01*X027203Y007703D01*X028445Y008539D01*X028862Y008957D01*
X029038Y010501D01*X030496Y012293D01*X031421Y013287D01*
X031528Y014832D01*X031821Y015287D01*Y019162D01*X03134Y019652D01*
X03119Y019952D01*X030647Y023218D01*X030482Y023484D01*X024016Y008268D02*
X022819Y011329D01*X022015Y019163D01*X019814Y023065D01*Y023616D01*
X020264Y024131D01*X020419Y024286D01*X020529Y024356D01*X041644Y02499D02*
X041408Y024988D01*X040469Y024734D01*X040227Y024492D01*
X040177Y023215D01*Y022415D01*X040437Y021016D01*X040625Y020775D01*
X041621Y019509D01*X041641Y018915D01*X041721Y017309D01*Y017172D01*
X041158Y01566D01*X040846Y015118D01*X006356Y023686D02*X006196Y023605D01*
X006041Y02345D01*Y02323D01*X006141Y023089D01*X008091Y020572D01*
X008188Y020475D01*X009652Y020059D01*X010217Y019494D01*X010746Y01883D01*
X01122Y016929D01*X006299Y019094D02*X005677Y020147D01*X00558Y020244D01*
X004967Y020541D01*X004517Y020991D01*X004271Y021359D01*
X004174Y021455D01*X004088Y021475D01*X003991Y021572D01*X00376Y022146D01*
X041476Y024823D02*X041241Y024821D01*X04051Y024634D01*X040327Y02445D01*
X040277Y023173D01*Y022457D01*X040537Y021058D01*X040725Y020817D01*
X041721Y01955D01*X041741Y018956D01*X041821Y01735D01*Y01713D01*
X041181Y015118D01*X02747Y022146D02*X027364Y021909D01*Y021472D01*
X027552Y021231D01*X029222Y019244D01*X029263Y018985D01*
X029856Y017527D01*Y017059D01*X028762Y015494D01*X028403Y015135D01*
X027896D01*X027256Y01514D01*X013031Y014783D02*X013196Y01505D01*
X013201Y015186D01*X014521Y016789D01*Y017091D01*X013697Y0189D01*
X013621Y019374D01*X012491Y021182D01*X012365Y021996D01*X01233Y022622D01*
Y023008D01*X012463Y023385D01*X01256Y023482D01*X012696D01*
X012963Y023317D01*X014429Y014783D02*X014594Y01505D01*X015021Y016582D01*
Y017298D01*X014842Y017701D01*X014427Y019202D01*X014221Y019623D01*
X013091Y02143D01*X012965Y022245D01*Y022381D01*X013128Y022579D01*
X01313Y022815D01*X015974Y02315D02*X016721Y019774D01*X01691Y017919D01*
Y016726D01*X016443Y014668D01*X016167Y013246D01*X015691Y01277D01*
X015266Y012418D01*X015142Y012293D01*X014438Y008158D01*
X014283Y008003D01*X01367D01*X012925Y008187D01*X011614Y008268D01*
X013297Y02248D02*X013921Y0218D01*Y02158D01*X013869Y021419D01*
Y021199D01*X014727Y019326D01*X015142Y017825D01*X015431Y017529D01*
X015435Y017392D01*X0156Y017126D01*X029203Y010433D02*X030797Y011205D01*
X030921Y011329D01*X031521Y013246D01*X032645Y016861D01*Y016997D01*
X032621Y019409D01*X032515Y020253D01*X031787Y021015D01*X031474Y02212D01*
X031439Y022579D01*Y022716D01*X031604Y022982D01*
%LPD*%
D25*X023659Y002397D03*D15*X023756Y002494D02*X023792Y00253D01*
X023659Y002535D02*Y002585D01*X023562Y002494D02*X023526Y00253D01*
X023521Y002397D02*X023471D01*X023562Y002299D02*X023526Y002264D01*
X023659Y002259D02*Y002209D01*X023756Y002299D02*X023792Y002264D01*
X023797Y002397D02*X023847D01*D25*X025606Y001886D03*X025114D03*D18*
X041142Y022815D03*X042579Y015118D03*D25*X042702Y02394D03*D15*
X0428Y024038D02*X042835Y024073D01*X042702Y024078D02*Y024128D01*
X042605Y024038D02*X04257Y024073D01*X042565Y02394D02*X042515D01*
X042605Y023843D02*X04257Y023807D01*X042702Y023802D02*Y023752D01*
X0428Y023843D02*X042835Y023807D01*X04284Y02394D02*X04289D01*D25*
X033268Y018307D03*D18*X030482Y02315D03*X02185Y008268D03*D25*
X043504Y01437D03*D18*X015807Y024656D03*X013366Y012943D03*
X035285Y024154D03*X041909Y012608D03*D25*X005315Y009252D03*
X010433Y010039D03*D18*X027303Y02315D03*X027256Y01479D03*D25*
X033252Y02324D03*X029823Y025984D03*D15*X02992Y026082D02*
X029956Y026117D01*X029823Y026122D02*Y026172D01*X029725Y026082D02*
X02969Y026117D01*X029685Y025984D02*X029635D01*X029725Y025887D02*
X02969Y025851D01*X029823Y025846D02*Y025796D01*X02992Y025887D02*
X029956Y025851D01*X029961Y025984D02*X030011D01*D25*X033268Y009646D03*
X014006Y02429D03*D15*X014103Y024388D02*X014139Y024423D01*
X014006Y024428D02*Y024478D01*X013908Y024388D02*X013873Y024423D01*
X013868Y02429D02*X013818D01*X013908Y024193D02*X013873Y024157D01*
X014006Y024152D02*Y024102D01*X014103Y024193D02*X014139Y024157D01*
X014144Y02429D02*X014194D01*D18*X037205Y014764D03*D25*
X020472Y016535D03*X023031Y015748D03*X030709Y011417D03*
X017913Y017913D03*Y015748D03*X015354Y009252D03*Y007087D03*D18*
X006594Y001083D03*X009764Y021299D03*X006693Y012598D03*
X042579Y014783D03*X041309Y022648D03*D25*X043504Y013976D03*D18*
X037205Y016929D03*X036752Y02454D03*X03622Y025472D03*X002854Y004823D03*
D25*X020472Y013583D03*X023429Y02324D03*X023779D03*D15*
X023877Y023338D02*X023912Y023373D01*X023779Y023378D02*Y023428D01*
X023682Y023338D02*X023646Y023373D01*X023641Y02324D02*X023591D01*
X023682Y023143D02*X023646Y023107D01*X023779Y023102D02*Y023052D01*
X023877Y023143D02*X023912Y023107D01*X023917Y02324D02*X023967D01*D18*
X024409Y008268D03*X030148Y02315D03*D25*X015056Y02464D03*D15*
X015153Y024738D02*X015189Y024773D01*X015056Y024778D02*Y024828D01*
X014958Y024738D02*X014923Y024773D01*X014918Y02464D02*X014868D01*
X014958Y024543D02*X014923Y024507D01*X015056Y024502D02*Y024452D01*
X015153Y024543D02*X015189Y024507D01*X015194Y02464D02*X015244D01*D18*
X016447Y008258D03*X017854Y024892D03*D25*X014006Y02359D03*D15*
X014103Y023688D02*X014139Y023723D01*X014006Y023728D02*Y023778D01*
X013908Y023688D02*X013873Y023723D01*X013868Y02359D02*X013818D01*
X013908Y023493D02*X013873Y023457D01*X014006Y023452D02*Y023402D01*
X014103Y023493D02*X014139Y023457D01*X014144Y02359D02*X014194D01*D25*
X028529Y02394D03*D15*X028627Y024038D02*X028662Y024073D01*
X028529Y024078D02*Y024128D01*X028432Y024038D02*X028396Y024073D01*
X028391Y02394D02*X028341D01*X028432Y023843D02*X028396Y023807D01*
X028529Y023802D02*Y023752D01*X028627Y023843D02*X028662Y023807D01*
X028667Y02394D02*X028717D01*D25*X014006D03*D15*X014103Y024038D02*
X014139Y024073D01*X014006Y024078D02*Y024128D01*X013908Y024038D02*
X013873Y024073D01*X013868Y02394D02*X013818D01*X013908Y023843D02*
X013873Y023807D01*X014006Y023802D02*Y023752D01*X014103Y023843D02*
X014139Y023807D01*X014144Y02394D02*X014194D01*D38*X011319Y004232D03*
D18*X008307Y004764D03*D12*X008371Y004827D02*X008364Y00482D01*
X008307Y004854D02*Y004844D01*X008243Y004827D02*X008251Y00482D01*
X008217Y004764D02*X008227D01*X008243Y0047D02*X008251Y004707D01*
X008307Y004674D02*Y004684D01*X008371Y0047D02*X008364Y004707D01*
X008397Y004764D02*X008387D01*D25*X043402Y02464D03*D15*X0435Y024738D02*
X043535Y024773D01*X043402Y024778D02*Y024828D01*X043305Y024738D02*
X04327Y024773D01*X043265Y02464D02*X043215D01*X043305Y024543D02*
X04327Y024507D01*X043402Y024502D02*Y024452D01*X0435Y024543D02*
X043535Y024507D01*X04354Y02464D02*X04359D01*D25*X018729Y02429D03*D15*
X018827Y024388D02*X018862Y024423D01*X018729Y024428D02*Y024478D01*
X018632Y024388D02*X018596Y024423D01*X018591Y02429D02*X018541D01*
X018632Y024193D02*X018596Y024157D01*X018729Y024152D02*Y024102D01*
X018827Y024193D02*X018862Y024157D01*X018867Y02429D02*X018917D01*D25*
X023779D03*D15*X023877Y024388D02*X023912Y024423D01*X023779Y024428D02*
Y024478D01*X023682Y024388D02*X023646Y024423D01*X023641Y02429D02*
X023591D01*X023682Y024193D02*X023646Y024157D01*X023779Y024152D02*
Y024102D01*X023877Y024193D02*X023912Y024157D01*X023917Y02429D02*
X023967D01*D25*X009606Y02394D03*D15*X009703Y024038D02*
X009739Y024073D01*X009606Y024078D02*Y024128D01*X009508Y024038D02*
X009473Y024073D01*X009468Y02394D02*X009418D01*X009508Y023843D02*
X009473Y023807D01*X009606Y023802D02*Y023752D01*X009703Y023843D02*
X009739Y023807D01*X009744Y02394D02*X009794D01*D25*X014356Y02324D03*D15*
X014453Y023338D02*X014489Y023373D01*X014356Y023378D02*Y023428D01*
X014258Y023338D02*X014223Y023373D01*X014218Y02324D02*X014168D01*
X014258Y023143D02*X014223Y023107D01*X014356Y023102D02*Y023052D01*
X014453Y023143D02*X014489Y023107D01*X014494Y02324D02*X014544D01*D18*
X017656Y02069D03*X042717Y004035D03*D12*X04278Y004099D02*
X042773Y004092D01*X042717Y004125D02*Y004115D01*X042653Y004099D02*
X04266Y004092D01*X042627Y004035D02*X042637D01*X042807D02*X042797D01*
D18*X017234Y01224D03*D25*X014006Y02324D03*D15*X014103Y023338D02*
X014139Y023373D01*X014006Y023378D02*Y023428D01*X013908Y023338D02*
X013873Y023373D01*X013868Y02324D02*X013818D01*X013908Y023143D02*
X013873Y023107D01*X014006Y023102D02*Y023052D01*X014103Y023143D02*
X014139Y023107D01*X014144Y02324D02*X014194D01*D18*X013878Y002067D03*
X027165Y005315D03*D22*X027229Y005379D02*X027264Y005414D01*
X027165Y005405D02*Y005455D01*X027102Y005379D02*X027066Y005414D01*
X027075Y005315D02*X027025D01*X027102Y005251D02*X027066Y005216D01*
X027165Y005225D02*Y005175D01*X027229Y005251D02*X027264Y005216D01*
X027255Y005315D02*X027305D01*D18*X029232Y020276D03*X027362Y005315D03*
D22*X027426Y005379D02*X027461Y005414D01*X027362Y005405D02*Y005455D01*
X027299Y005379D02*X027263Y005414D01*X027272Y005315D02*X027222D01*
X027299Y005251D02*X027263Y005216D01*X027362Y005225D02*Y005175D01*
X027426Y005251D02*X027461Y005216D01*X027452Y005315D02*X027502D01*D18*
X011516Y002953D03*X014862Y001673D03*D25*X017913Y007087D03*
X038386Y012205D03*D18*X02874Y020906D03*D25*X005315Y01437D03*D18*
X003642Y004429D03*X003543Y004626D03*X002756Y018406D03*
X027165Y005709D03*D22*X027075D02*X027085D01*X027102Y005645D02*
X027109Y005652D01*X027165Y005619D02*Y005629D01*X027229Y005645D02*
X027222Y005652D01*X027255Y005709D02*X027245D01*D18*X045177Y025591D03*
D22*X045241Y025654D02*X045276Y02569D01*X045177Y025681D02*Y025731D01*
X045114Y025654D02*X045078Y02569D01*X045087Y025591D02*X045037D01*
X045114Y025527D02*X045078Y025492D01*X045177Y025501D02*Y025451D01*
X045241Y025527D02*X045276Y025492D01*X045267Y025591D02*X045317D01*D18*
X012697Y002461D03*X026969Y010433D03*X030148Y023819D03*D25*
X043898Y025689D03*D15*X043995Y025786D02*X04403Y025822D01*
X043898Y025827D02*Y025877D01*X0438Y025786D02*X043765Y025822D01*
X04376Y025689D02*X04371D01*X0438Y025592D02*X043765Y025556D01*
X043898Y025551D02*Y025501D01*X043995Y025592D02*X04403Y025556D01*
X044035Y025689D02*X044085D01*D25*X038386Y018701D03*X037602Y02429D03*
D15*X0377Y024388D02*X037735Y024423D01*X037602Y024428D02*Y024478D01*
X037505Y024388D02*X03747Y024423D01*X037465Y02429D02*X037415D01*
X037505Y024193D02*X03747Y024157D01*X037602Y024152D02*Y024102D01*
X0377Y024193D02*X037735Y024157D01*X03774Y02429D02*X03779D01*D18*
X005217Y019783D03*X012303Y002461D03*Y002264D03*X013091Y002067D03*
X023622Y008563D03*X002953Y004626D03*D25*X019079Y02464D03*D15*
X019177Y024738D02*X019212Y024773D01*X019079Y024778D02*Y024828D01*
X018982Y024738D02*X018946Y024773D01*X018941Y02464D02*X018891D01*
X018982Y024543D02*X018946Y024507D01*X019079Y024502D02*Y024452D01*
X019177Y024543D02*X019212Y024507D01*X019217Y02464D02*X019267D01*D25*
X033268Y013976D03*D18*X019291Y012598D03*X043415Y017461D03*
X044321Y024488D03*D25*X039173Y025768D03*D11*X039035D02*X039045D01*
X039311D02*X039301D01*D18*X003681Y024892D03*X00374Y016929D03*D25*
X042352Y02429D03*D15*X04245Y024388D02*X042485Y024423D01*
X042352Y024428D02*Y024478D01*X042255Y024388D02*X04222Y024423D01*
X042215Y02429D02*X042165D01*X042255Y024193D02*X04222Y024157D01*
X042352Y024152D02*Y024102D01*X04245Y024193D02*X042485Y024157D01*
X04249Y02429D02*X04254D01*D18*X042802Y02134D03*D25*X033252Y02429D03*
D15*X03335Y024388D02*X033385Y024423D01*X033252Y024428D02*Y024478D01*
X033155Y024388D02*X03312Y024423D01*X033115Y02429D02*X033065D01*
X033155Y024193D02*X03312Y024157D01*X033252Y024152D02*Y024102D01*
X03335Y024193D02*X033385Y024157D01*X03339Y02429D02*X03344D01*D18*
X004921Y020079D03*X012697Y002067D03*D25*X025591Y009252D03*
X033902Y02464D03*D18*X004921Y019783D03*X023524Y019882D03*
X014075Y002362D03*X012303Y002067D03*X015059Y003051D03*
X017421Y000984D03*D23*X017485Y001048D02*X01752Y001083D01*
X017421Y001074D02*Y001124D01*X017358Y001048D02*X017322Y001083D01*
X017331Y000984D02*X017281D01*X017358Y000921D02*X017322Y000885D01*
X017421Y000894D02*Y000844D01*X017485Y000921D02*X01752Y000885D01*
X017511Y000984D02*X017561D01*D18*X011319Y002953D03*X005217Y020079D03*
X010433D03*X01811Y00187D03*D14*X018174Y001934D02*X018209Y001969D01*
X01811Y00196D02*Y00201D01*X018047Y001934D02*X018011Y001969D01*
X01802Y00187D02*X01797D01*X018047Y001806D02*X018011Y001771D01*
X01811Y00178D02*Y00173D01*X018174Y001806D02*X018209Y001771D01*
X0182Y00187D02*X01825D01*D18*X02126Y023425D03*X026606Y01479D03*D25*
X028179Y02464D03*D15*X028277Y024738D02*X028312Y024773D01*
X028179Y024778D02*Y024828D01*X028082Y024738D02*X028046Y024773D01*
X028041Y02464D02*X027991D01*X028082Y024543D02*X028046Y024507D01*
X028179Y024502D02*Y024452D01*X028277Y024543D02*X028312Y024507D01*
X028317Y02464D02*X028367D01*D18*X037205Y012598D03*X026575Y008268D03*
X020479Y02334D03*X003642Y004823D03*X038386Y004724D03*X002756Y017815D03*
X015256Y020177D03*X03376Y020472D03*X045374Y025591D03*D22*
X045438Y025654D02*X045473Y02569D01*X045374Y025681D02*Y025731D01*
X04531Y025654D02*X045275Y02569D01*X045284Y025591D02*X045234D01*
X04531Y025527D02*X045275Y025492D01*X045374Y025501D02*Y025451D01*
X045438Y025527D02*X045473Y025492D01*X045464Y025591D02*X045514D01*D25*
X007874Y007874D03*X012628Y023986D03*D18*X007087Y023425D03*
X013056Y01914D03*D25*X043504Y018701D03*D18*X017618Y003839D03*D21*
X017682Y003902D02*X017717Y003938D01*X017618Y003929D02*Y003979D01*
X017554Y003902D02*X017519Y003938D01*X017528Y003839D02*X017478D01*
X017554Y003775D02*X017519Y00374D01*X017618Y003749D02*Y003699D01*
X017682Y003775D02*X017717Y00374D01*X017708Y003839D02*X017758D01*D25*
X02815Y015748D03*D18*X005512Y020079D03*X003248Y004823D03*
X02372Y019587D03*X015059Y003445D03*D25*X010433Y007087D03*D18*
X018279Y02129D03*D25*X031752Y02424D03*D18*X017172Y025478D03*
X041644Y02248D03*X042244Y012608D03*D25*X017913Y016535D03*D18*
X031856Y02069D03*X020768Y026083D03*X020179Y02189D03*D25*
X043504Y016142D03*D18*X010433Y002657D03*X01063D03*D25*X036252Y02399D03*
D18*X010236Y002657D03*X042579Y012608D03*X041644Y022982D03*D25*
X03378Y020945D03*D18*X009252Y001969D03*D14*X009316Y002032D02*
X009351Y002068D01*X009252Y002059D02*Y002109D01*X009188Y002032D02*
X009153Y002068D01*X009162Y001969D02*X009112D01*X009188Y001905D02*
X009153Y00187D01*X009252Y001879D02*Y001829D01*X009316Y001905D02*
X009351Y00187D01*X009342Y001969D02*X009392D01*D18*X009252Y001772D03*
D20*X009316Y001835D02*X009351Y001871D01*X009252Y001862D02*Y001912D01*
X009188Y001835D02*X009153Y001871D01*X009162Y001772D02*X009112D01*
X009188Y001708D02*X009153Y001673D01*X009252Y001682D02*Y001632D01*
X009316Y001708D02*X009351Y001673D01*X009342Y001772D02*X009392D01*D18*
X009252Y001614D03*D20*X009316Y001678D02*X009351Y001713D01*
X009252Y001704D02*Y001754D01*X009188Y001678D02*X009153Y001713D01*
X009162Y001614D02*X009112D01*X009188Y001551D02*X009153Y001515D01*
X009252Y001524D02*Y001474D01*X009316Y001551D02*X009351Y001515D01*
X009342Y001614D02*X009392D01*D18*X009252Y002559D03*D20*
X009316Y002623D02*X009351Y002658D01*X009252Y002649D02*Y002699D01*
X009188Y002623D02*X009153Y002658D01*X009162Y002559D02*X009112D01*
X009188Y002495D02*X009153Y00246D01*X009252Y002469D02*Y002419D01*
X009316Y002495D02*X009351Y00246D01*X009342Y002559D02*X009392D01*D18*
X029291Y017293D03*X026969Y02315D03*X017598Y022815D03*X019518Y008258D03*
X009547Y004134D03*D20*X009611Y004198D02*X009646Y004233D01*
X009547Y004224D02*Y004274D01*X009484Y004198D02*X009448Y004233D01*
X009457Y004134D02*X009407D01*X009484Y00407D02*X009448Y004035D01*
X009547Y004044D02*Y003994D01*X009611Y00407D02*X009646Y004035D01*
X009637Y004134D02*X009687D01*D18*X006604Y024488D03*X008819Y008258D03*
X003848D03*X003258Y022982D03*X034646Y012598D03*D25*X02815Y012205D03*
X004556Y02324D03*D18*X006523Y023854D03*X01122Y014764D03*D25*
X015354Y016535D03*D18*X032502Y02184D03*D25*X012795Y011811D03*D18*
X038386Y005315D03*X014134Y021309D03*X015807Y023317D03*
X011614Y010433D03*X014567Y001969D03*X017323Y003839D03*D21*
X017386Y003902D02*X017422Y003938D01*X017323Y003929D02*Y003979D01*
X017259Y003902D02*X017224Y003938D01*X017233Y003839D02*X017183D01*
X017259Y003775D02*X017224Y00374D01*X017323Y003749D02*Y003699D01*
X017386Y003775D02*X017422Y00374D01*X017413Y003839D02*X017463D01*D18*
X019587Y020079D03*X015138Y002067D03*D25*X005315Y00748D03*D18*
X024979Y02184D03*X025492Y025984D03*D25*X029055Y020906D03*
X005206Y02464D03*D15*X005303Y024738D02*X005339Y024773D01*
X005206Y024778D02*Y024828D01*X005108Y024738D02*X005073Y024773D01*
X005068Y02464D02*X005018D01*X005108Y024543D02*X005073Y024507D01*
X005206Y024502D02*Y024452D01*X005303Y024543D02*X005339Y024507D01*
X005344Y02464D02*X005394D01*D25*X025591Y013583D03*Y007874D03*
X023031D03*X040945Y016142D03*X025591Y00748D03*D18*X012963Y024656D03*
X013031Y015118D03*D25*X043898Y025984D03*D15*X043995Y026082D02*
X04403Y026117D01*X043898Y026122D02*Y026172D01*X0438Y026082D02*
X043765Y026117D01*X04376Y025984D02*X04371D01*X0438Y025887D02*
X043765Y025851D01*X043898Y025846D02*Y025796D01*X043995Y025887D02*
X04403Y025851D01*X044035Y025984D02*X044085D01*D25*X023031Y00748D03*
X031402Y02004D03*X032002D03*X018729Y02324D03*D18*X018976Y021378D03*
X013356Y02184D03*X04248Y021309D03*X04498Y024803D03*D11*X04489D02*
X0449D01*X04507D02*X04506D01*D18*X00374Y012598D03*X003258Y022648D03*
D25*X035902Y02399D03*X030669Y009252D03*D18*X012992Y025709D03*
X042306Y01919D03*X040974Y023317D03*X041181Y014783D03*X041309Y024656D03*
D25*X032902Y02429D03*D15*X033Y024388D02*X033035Y024423D01*
X032902Y024428D02*Y024478D01*X032805Y024388D02*X03277Y024423D01*
X032765Y02429D02*X032715D01*X032805Y024193D02*X03277Y024157D01*
X032902Y024152D02*Y024102D01*X033Y024193D02*X033035Y024157D01*
X03304Y02429D02*X03309D01*D18*X006693Y016929D03*X013356Y02154D03*
X003656Y02514D03*X003681Y019134D03*D25*X003056Y02404D03*
X043504Y007087D03*D18*X01689Y002657D03*X027165Y025709D03*
X016693Y003642D03*X003593Y022982D03*X006919Y008258D03*D25*
X010433Y016535D03*D18*X005118Y020906D03*D25*X043504Y018307D03*D18*
X006299Y010433D03*X00376Y022815D03*X034646Y014764D03*X032106Y022146D03*
X034252Y012598D03*X010806Y02184D03*X011319Y026083D03*D25*
X010433Y018307D03*X042352Y02359D03*D15*X04245Y023688D02*
X042485Y023723D01*X042352Y023728D02*Y023778D01*X042255Y023688D02*
X04222Y023723D01*X042215Y02359D02*X042165D01*X042255Y023493D02*
X04222Y023457D01*X042352Y023452D02*Y023402D01*X04245Y023493D02*
X042485Y023457D01*X04249Y02359D02*X04254D01*D25*X031702Y02004D03*
X012795Y011417D03*D18*X006506Y02324D03*X01378Y010433D03*D25*
X014706Y02464D03*D15*X014803Y024738D02*X014839Y024773D01*
X014706Y024778D02*Y024828D01*X014608Y024738D02*X014573Y024773D01*
X014568Y02464D02*X014518D01*X014608Y024543D02*X014573Y024507D01*
X014706Y024502D02*Y024452D01*X014803Y024543D02*X014839Y024507D01*
X014844Y02464D02*X014894D01*D25*X007874Y011417D03*D18*
X002756Y018701D03*X028956Y01434D03*X021129Y02369D03*D25*
X019606Y020945D03*D18*X00435Y016959D03*X006772Y024321D03*
X013366Y012608D03*D25*X015354Y011417D03*X005315Y018307D03*
X042702Y02464D03*D15*X0428Y024738D02*X042835Y024773D01*
X042702Y024778D02*Y024828D01*X042605Y024738D02*X04257Y024773D01*
X042565Y02464D02*X042515D01*X042605Y024543D02*X04257Y024507D01*
X042702Y024502D02*Y024452D01*X0428Y024543D02*X042835Y024507D01*
X04284Y02464D02*X04289D01*D25*X005315Y011811D03*X007874D03*X010433D03*
X023031Y013976D03*D18*X011614Y019094D03*X008858Y014764D03*
X003425Y02315D03*D25*X035902Y02434D03*X007874Y013976D03*D18*
X028632Y017461D03*X026801Y023317D03*D25*X038386Y009646D03*D18*
X042244Y015118D03*X041142Y02315D03*X030148Y024488D03*X02689Y012943D03*
X039764Y014764D03*X003593Y022313D03*X006299Y016929D03*D25*
X035827Y009646D03*D43*X001378Y024803D03*D11*X001796Y025221D02*
X001788Y025214D01*X001378Y025394D02*Y025384D01*X00096Y025221D02*
X000967Y025214D01*X000787Y024803D02*X000797D01*X00096Y024386D02*
X000967Y024393D01*X001378Y024213D02*Y024223D01*X001796Y024386D02*
X001788Y024393D01*X001969Y024803D02*X001959D01*D25*X025591Y018307D03*
D18*X032002Y02464D03*X031693Y014764D03*X012795Y022815D03*
X014429Y015118D03*X038346Y020906D03*X008256Y02064D03*X01624Y003465D03*
X032056Y01724D03*X032028Y024892D03*X027136Y024656D03*X028632Y017126D03*
X031604Y022648D03*X029203Y008258D03*X012795Y02315D03*X014094Y014783D03*
D25*X015354Y009646D03*X030669D03*D18*X014429Y012943D03*
X015807Y024321D03*D25*X037952Y02429D03*D15*X03805Y024388D02*
X038085Y024423D01*X037952Y024428D02*Y024478D01*X037855Y024388D02*
X03782Y024423D01*X037815Y02429D02*X037765D01*X037855Y024193D02*
X03782Y024157D01*X037952Y024152D02*Y024102D01*X03805Y024193D02*
X038085Y024157D01*X03809Y02429D02*X03814D01*D18*X012963Y022982D03*
X014094Y015118D03*X015266Y017126D03*X01313Y022313D03*D25*
X038386Y016535D03*D18*X017234Y01184D03*X017829Y02464D03*
X003313Y025715D03*D25*X033268Y013583D03*X02815D03*X033552Y02464D03*D15*
X03365Y024738D02*X033685Y024773D01*X033552Y024778D02*Y024828D01*
X033455Y024738D02*X03342Y024773D01*X033415Y02464D02*X033365D01*
X033455Y024543D02*X03342Y024507D01*X033552Y024502D02*Y024452D01*
X03365Y024543D02*X033685Y024507D01*X03369Y02464D02*X03374D01*D25*
X023031Y010039D03*X028179Y02394D03*D15*X028277Y024038D02*
X028312Y024073D01*X028179Y024078D02*Y024128D01*X028082Y024038D02*
X028046Y024073D01*X028041Y02394D02*X027991D01*X028082Y023843D02*
X028046Y023807D01*X028179Y023802D02*Y023752D01*X028277Y023843D02*
X028312Y023807D01*X028317Y02394D02*X028367D01*D18*X031939Y023317D03*
X036811Y014764D03*D25*X021729Y02399D03*D18*X034646Y008268D03*
X044656Y02315D03*X020696Y024188D03*X024055Y010433D03*D25*
X038252Y02464D03*D15*X03835Y024738D02*X038385Y024773D01*
X038252Y024778D02*Y024828D01*X038155Y024738D02*X03812Y024773D01*
X038115Y02464D02*X038065D01*X038155Y024543D02*X03812Y024507D01*
X038252Y024502D02*Y024452D01*X03835Y024543D02*X038385Y024507D01*
X03839Y02464D02*X03844D01*D25*X015354Y017913D03*X040974Y024321D03*D18*
X027529Y02184D03*D25*X007874Y018307D03*X023031Y011417D03*
X020472Y00748D03*X012795Y007874D03*D18*X018898Y014764D03*
X017933Y02248D03*X014429Y012608D03*X015974Y023819D03*X03563Y023622D03*
X040056Y01944D03*X043852Y02189D03*D25*X020374Y025984D03*D15*
X020471Y026082D02*X020464Y026075D01*X020374Y026122D02*Y026112D01*
X020277Y026082D02*X020284Y026075D01*X020236Y025984D02*X020246D01*
X020277Y025887D02*X020284Y025894D01*X020374Y025846D02*Y025856D01*
X020471Y025887D02*X020464Y025894D01*X020512Y025984D02*X020502D01*D25*
X023031Y017913D03*D18*X024075Y014764D03*X020696Y023854D03*
X034941Y025984D03*X034352Y02189D03*D25*X038386Y009252D03*
X020472Y018307D03*X02472Y003264D03*D18*X01122Y012598D03*
X006356Y024021D03*X020529D03*X024055Y012598D03*X026969Y016929D03*
X016043Y003642D03*D25*X043504Y016535D03*Y009252D03*D18*
X003656Y02464D03*X00374Y014764D03*D25*X043504Y013583D03*
X026467Y023986D03*X033252Y02359D03*D15*X03335Y023688D02*
X033385Y023723D01*X033252Y023728D02*Y023778D01*X033155Y023688D02*
X03312Y023723D01*X033115Y02359D02*X033065D01*X033155Y023493D02*
X03312Y023457D01*X033252Y023452D02*Y023402D01*X03335Y023493D02*
X033385Y023457D01*X03339Y02359D02*X03344D01*D18*X037874Y021299D03*D25*
X007874Y009646D03*X006201Y025984D03*D15*X006298Y026082D02*
X006291Y026075D01*X006201Y026122D02*Y026112D01*X006103Y026082D02*
X00611Y026075D01*X006063Y025984D02*X006073D01*X006103Y025887D02*
X00611Y025894D01*X006201Y025846D02*Y025856D01*X006298Y025887D02*
X006291Y025894D01*X006339Y025984D02*X006329D01*D18*X017717Y000984D03*
D20*X01778Y001048D02*X017816Y001083D01*X017717Y001074D02*Y001124D01*
X017653Y001048D02*X017618Y001083D01*X017627Y000984D02*X017577D01*
X017653Y000921D02*X017618Y000885D01*X017717Y000894D02*Y000844D01*
X01778Y000921D02*X017816Y000885D01*X017807Y000984D02*X017857D01*D18*
X027362Y005512D03*D22*X027426Y005575D02*X027461Y005611D01*
X027362Y005602D02*Y005652D01*X027299Y005575D02*X027263Y005611D01*
X027272Y005512D02*X027222D01*X027299Y005448D02*X027263Y005413D01*
X027362Y005422D02*Y005372D01*X027426Y005448D02*X027461Y005413D01*
X027452Y005512D02*X027502D01*D25*X00689Y003543D03*D18*Y002264D03*
X010039Y002657D03*X032452Y02129D03*D25*X019379Y02464D03*D15*
X019477Y024738D02*X019512Y024773D01*X019379Y024778D02*Y024828D01*
X019282Y024738D02*X019246Y024773D01*X019241Y02464D02*X019191D01*
X019282Y024543D02*X019246Y024507D01*X019379Y024502D02*Y024452D01*
X019477Y024543D02*X019512Y024507D01*X019517Y02464D02*X019567D01*D30*
X001969Y003642D03*D17*X002108Y003781D02*X002143Y003816D01*
X001969Y003839D02*Y003889D01*X001829Y003781D02*X001794Y003816D01*
X001772Y003642D02*X001722D01*X001829Y003503D02*X001794Y003467D01*
X001969Y003445D02*Y003395D01*X002108Y003503D02*X002143Y003467D01*
X002165Y003642D02*X002215D01*D30*X001949Y00561D03*D17*
X002088Y005749D02*X002123Y005785D01*X001949Y005807D02*Y005857D01*
X00181Y005749D02*X001774Y005785D01*X001752Y00561D02*X001702D01*
X00181Y005471D02*X001774Y005436D01*X001949Y005413D02*Y005363D01*
X002088Y005471D02*X002123Y005436D01*X002146Y00561D02*X002196D01*D48*
X002382Y00315D03*D17*X002692Y003351D02*X002685Y003344D01*
X002382Y003435D02*Y003425D01*X002072Y003351D02*X002079Y003344D01*
X001988Y00315D02*X001998D01*X002072Y002948D02*X002079Y002955D01*
X002382Y002864D02*Y002874D01*X002692Y002948D02*X002685Y002955D01*
X002776Y00315D02*X002766D01*D48*X002362Y006102D03*D17*
X002672Y006304D02*X002665Y006297D01*X002362Y006388D02*Y006378D01*
X002052Y006304D02*X002059Y006297D01*X001969Y006102D02*X001979D01*
X002052Y005901D02*X002059Y005908D01*X002362Y005817D02*Y005827D01*
X002672Y005901D02*X002665Y005908D01*X002756Y006102D02*X002746D01*D46*
X000866Y003091D03*D17*X001148Y003265D02*X001141Y003257D01*
X000866Y003337D02*Y003327D01*X000584Y003265D02*X000591Y003257D01*
X000512Y003091D02*X000522D01*X000584Y002917D02*X000591Y002924D01*
X000866Y002844D02*Y002854D01*X001148Y002917D02*X001141Y002924D01*
X00122Y003091D02*X00121D01*D46*X000866Y006161D03*D17*X001148Y006335D02*
X001141Y006328D01*X000866Y006407D02*Y006397D01*X000584Y006335D02*
X000591Y006328D01*X000512Y006161D02*X000522D01*X000584Y005987D02*
X000591Y005994D01*X000866Y005915D02*Y005925D01*X001148Y005987D02*
X001141Y005994D01*X00122Y006161D02*X00121D01*D25*X015354Y010039D03*D18*
X016156Y01954D03*X015807Y023986D03*D25*X037952Y02359D03*D15*
X03805Y023688D02*X038085Y023723D01*X037952Y023728D02*Y023778D01*
X037855Y023688D02*X03782Y023723D01*X037815Y02359D02*X037765D01*
X037855Y023493D02*X03782Y023457D01*X037952Y023452D02*Y023402D01*
X03805Y023493D02*X038085Y023457D01*X03809Y02359D02*X03814D01*D25*
X040945Y007087D03*Y018701D03*X030709Y012205D03*D18*X019106Y01924D03*
X017933Y022146D03*X006956Y02369D03*X01378Y016929D03*D25*
X035827Y016535D03*D18*X007106Y023986D03*X012806Y01939D03*
X029232Y020079D03*D25*X038386Y013976D03*D18*X013484Y002067D03*D25*
X037602Y02464D03*D15*X0377Y024738D02*X037735Y024773D01*
X037602Y024778D02*Y024828D01*X037505Y024738D02*X03747Y024773D01*
X037465Y02464D02*X037415D01*X037505Y024543D02*X03747Y024507D01*
X037602Y024502D02*Y024452D01*X0377Y024543D02*X037735Y024507D01*
X03774Y02464D02*X03779D01*D25*X031402Y02404D03*D18*X019291Y014764D03*
X019783Y020276D03*X019556Y01914D03*D25*X010433Y007874D03*D18*
X013656Y02169D03*X015606Y02094D03*D25*X037602Y02394D03*D15*
X0377Y024038D02*X037735Y024073D01*X037602Y024078D02*Y024128D01*
X037505Y024038D02*X03747Y024073D01*X037465Y02394D02*X037415D01*
X037505Y023843D02*X03747Y023807D01*X037602Y023802D02*Y023752D01*
X0377Y023843D02*X037735Y023807D01*X03774Y02394D02*X03779D01*D18*
X032313Y008258D03*X031939Y022313D03*D25*X033252Y02394D03*D15*
X03335Y024038D02*X033385Y024073D01*X033252Y024078D02*Y024128D01*
X033155Y024038D02*X03312Y024073D01*X033115Y02394D02*X033065D01*
X033155Y023843D02*X03312Y023807D01*X033252Y023802D02*Y023752D01*
X03335Y023843D02*X033385Y023807D01*X03339Y02394D02*X03344D01*D25*
X025591Y010039D03*D18*X007677Y003543D03*D12*X007741Y003607D02*
X007776Y003642D01*X007677Y003633D02*Y003683D01*X007614Y003607D02*
X007578Y003642D01*X007587Y003543D02*X007537D01*X007614Y00348D02*
X007578Y003444D01*X007677Y003453D02*Y003403D01*X007741Y00348D02*
X007776Y003444D01*X007767Y003543D02*X007817D01*D18*X007874D03*D12*
X007938Y003607D02*X007973Y003642D01*X007874Y003633D02*Y003683D01*
X00781Y003607D02*X007775Y003642D01*X007784Y003543D02*X007734D01*
X00781Y00348D02*X007775Y003444D01*X007874Y003453D02*Y003403D01*
X007938Y00348D02*X007973Y003444D01*X007964Y003543D02*X008014D01*D18*
X017829Y02514D03*X017234Y01399D03*X009154Y003937D03*D12*
X009217Y004001D02*X009253Y004036D01*X009154Y004027D02*Y004077D01*
X00909Y004001D02*X009055Y004036D01*X009064Y003937D02*X009014D01*
X00909Y003873D02*X009055Y003838D01*X009154Y003847D02*Y003797D01*
X009217Y003873D02*X009253Y003838D01*X009244Y003937D02*X009294D01*D18*
X007972Y001083D03*X024173Y020906D03*D25*X030709Y013976D03*
X020472Y015748D03*X038661Y020906D03*D18*X006693Y010433D03*
X016309Y023484D03*D25*X015354Y00748D03*X023031Y009252D03*
X015354Y013583D03*D18*X027136Y022982D03*X028297Y019301D03*D25*
X026801Y024321D03*D18*X014156Y01694D03*X013297Y02499D03*
X027303Y022815D03*X026956Y01479D03*X008071Y003264D03*D12*
X008135Y003327D02*X00817Y003363D01*X008071Y003354D02*Y003404D01*
X008007Y003327D02*X007972Y003363D01*X007981Y003264D02*X007931D01*
X008007Y0032D02*X007972Y003165D01*X008071Y003174D02*Y003124D01*
X008135Y0032D02*X00817Y003165D01*X008161Y003264D02*X008211D01*D25*
X023779Y02394D03*D15*X023877Y024038D02*X023912Y024073D01*
X023779Y024078D02*Y024128D01*X023682Y024038D02*X023646Y024073D01*
X023641Y02394D02*X023591D01*X023682Y023843D02*X023646Y023807D01*
X023779Y023802D02*Y023752D01*X023877Y023843D02*X023912Y023807D01*
X023917Y02394D02*X023967D01*D18*X008976Y002185D03*X017224Y001476D03*
X02747Y023317D03*X029616Y014803D03*D25*X030709Y018307D03*D18*
X022736Y019685D03*D25*X02815Y017913D03*X017913Y00748D03*
X02815Y018307D03*D18*X011713Y002953D03*X023917Y007382D03*D25*
X028179Y02359D03*D15*X028277Y023688D02*X028312Y023723D01*
X028179Y023728D02*Y023778D01*X028082Y023688D02*X028046Y023723D01*
X028041Y02359D02*X027991D01*X028082Y023493D02*X028046Y023457D01*
X028179Y023452D02*Y023402D01*X028277Y023493D02*X028312Y023457D01*
X028317Y02359D02*X028367D01*D25*X012795Y007087D03*X015354Y011811D03*
D18*X015945Y017126D03*X041702Y02154D03*D25*X003056Y02439D03*D18*
X037452Y02129D03*D25*X017913Y013583D03*X025606Y003264D03*
X02472Y001886D03*D18*X011614Y012598D03*D25*X032902Y02394D03*D15*
X033Y024038D02*X033035Y024073D01*X032902Y024078D02*Y024128D01*
X032805Y024038D02*X03277Y024073D01*X032765Y02394D02*X032715D01*
X032805Y023843D02*X03277Y023807D01*X032902Y023802D02*Y023752D01*
X033Y023843D02*X033035Y023807D01*X03304Y02394D02*X03309D01*D25*
X007906Y02399D03*X012293Y024321D03*X042702Y02324D03*D15*
X0428Y023338D02*X042835Y023373D01*X042702Y023378D02*Y023428D01*
X042605Y023338D02*X04257Y023373D01*X042565Y02324D02*X042515D01*
X042605Y023143D02*X04257Y023107D01*X042702Y023102D02*Y023052D01*
X0428Y023143D02*X042835Y023107D01*X04284Y02324D02*X04289D01*D25*
X005433Y020945D03*D18*X032456Y01934D03*X003839Y004823D03*D25*
X04064Y024321D03*X010433Y00748D03*X028529Y02324D03*D15*
X028627Y023338D02*X028662Y023373D01*X028529Y023378D02*Y023428D01*
X028432Y023338D02*X028396Y023373D01*X028391Y02324D02*X028341D01*
X028432Y023143D02*X028396Y023107D01*X028529Y023102D02*Y023052D01*
X028627Y023143D02*X028662Y023107D01*X028667Y02324D02*X028717D01*D18*
X01378Y008268D03*X006306Y02334D03*X021457Y012598D03*X017933Y02315D03*
X015157Y002854D03*D25*X012795Y010039D03*D18*X029528Y019094D03*
X02747Y022982D03*X019783Y020079D03*X042126Y008661D03*X044154Y023652D03*
X023524Y008366D03*D25*X010256Y02464D03*D15*X010353Y024738D02*
X010389Y024773D01*X010256Y024778D02*Y024828D01*X010158Y024738D02*
X010123Y024773D01*X010118Y02464D02*X010068D01*X010158Y024543D02*
X010123Y024507D01*X010256Y024502D02*Y024452D01*X010353Y024543D02*
X010389Y024507D01*X010394Y02464D02*X010444D01*D25*X012293Y023986D03*
X02815Y010039D03*D18*X045177Y025394D03*D22*X045241Y025457D02*
X045276Y025493D01*X045177Y025484D02*Y025534D01*X045114Y025457D02*
X045078Y025493D01*X045087Y025394D02*X045037D01*X045114Y02533D02*
X045078Y025295D01*X045177Y025304D02*Y025254D01*X045241Y02533D02*
X045276Y025295D01*X045267Y025394D02*X045317D01*D25*X033268Y016535D03*
D18*X003445Y004823D03*D25*X023031Y011811D03*D18*X014262Y019134D03*
X012963Y022648D03*D25*X025591Y015748D03*X02815Y016535D03*
X020472Y016142D03*X040945Y007874D03*Y013583D03*D18*X00435Y014783D03*
D25*X012795Y013976D03*D18*X020679Y02324D03*X026575Y010433D03*
X037205D03*X044154Y023317D03*X008806Y02164D03*Y02144D03*
X022362Y025709D03*X022729Y02474D03*D25*X009906Y02464D03*D15*
X010003Y024738D02*X010039Y024773D01*X009906Y024778D02*Y024828D01*
X009808Y024738D02*X009773Y024773D01*X009768Y02464D02*X009718D01*
X009808Y024543D02*X009773Y024507D01*X009906Y024502D02*Y024452D01*
X010003Y024543D02*X010039Y024507D01*X010044Y02464D02*X010094D01*D25*
X035827Y007874D03*X010433Y012205D03*X034547Y025787D03*D15*
X034645Y025885D02*X034638Y025878D01*X034547Y025925D02*Y025915D01*
X03445Y025885D02*X034457Y025878D01*X034409Y025787D02*X034419D01*
X03445Y02569D02*X034457Y025697D01*X034547Y02565D02*Y02566D01*
X034645Y02569D02*X034638Y025697D01*X034685Y025787D02*X034675D01*D25*
X004906Y02359D03*D15*X005003Y023688D02*X005039Y023723D01*
X004906Y023728D02*Y023778D01*X004808Y023688D02*X004773Y023723D01*
X004768Y02359D02*X004718D01*X004808Y023493D02*X004773Y023457D01*
X004906Y023452D02*Y023402D01*X005003Y023493D02*X005039Y023457D01*
X005044Y02359D02*X005094D01*D18*X034252Y019094D03*X031939Y022982D03*
X027136Y022648D03*X025827Y014783D03*D25*X040945Y016535D03*
X037952Y02324D03*D15*X03805Y023338D02*X038085Y023373D01*
X037952Y023378D02*Y023428D01*X037855Y023338D02*X03782Y023373D01*
X037815Y02324D02*X037765D01*X037855Y023143D02*X03782Y023107D01*
X037952Y023102D02*Y023052D01*X03805Y023143D02*X038085Y023107D01*
X03809Y02324D02*X03814D01*D25*X015354Y018701D03*X040945Y012205D03*
X033268Y016142D03*D18*X043952Y02094D03*D25*X005315Y016142D03*
X025606Y002378D03*D15*X025704Y002475D02*X025739Y002511D01*
X025606Y002516D02*Y002566D01*X025509Y002475D02*X025474Y002511D01*
X025469Y002378D02*X025419D01*X025509Y002281D02*X025474Y002245D01*
X025606Y00224D02*Y00219D01*X025704Y002281D02*X025739Y002245D01*
X025744Y002378D02*X025794D01*D25*X034547Y025984D03*D15*
X034645Y026082D02*X034638Y026075D01*X034547Y026122D02*Y026112D01*
X03445Y026082D02*X034457Y026075D01*X034409Y025984D02*X034419D01*
X03445Y025887D02*X034457Y025894D01*X034547Y025846D02*Y025856D01*
X034645Y025887D02*X034638Y025894D01*X034685Y025984D02*X034675D01*D25*
X015354Y018307D03*X017579Y02424D03*X033268Y009252D03*D18*
X00435Y012608D03*D25*X025591Y012205D03*D18*X031956Y01934D03*
X032002Y02514D03*D25*X007874Y016142D03*D18*X002756Y007874D03*
X001378Y022835D03*D11*X001288D02*X001298D01*X001468D02*X001458D01*D35*
X04576Y003886D03*X04676Y007886D03*X04576Y008886D03*X04676D03*
X04576Y009886D03*X04676D03*D23*X046937Y010063D02*X046972Y010098D01*
X04676Y010136D02*Y010186D01*X046583Y010063D02*X046548Y010098D01*
X04651Y009886D02*X04646D01*X046583Y009709D02*X046548Y009674D01*
X04676Y009636D02*Y009586D01*X046937Y009709D02*X046972Y009674D01*
X04701Y009886D02*X04706D01*D35*X04576Y010886D03*X04676D03*
X04576Y011886D03*X04676D03*X04576Y012886D03*X04676Y003886D03*
Y012886D03*D23*X046937Y013063D02*X046972Y013098D01*X04676Y013136D02*
Y013186D01*X046583Y013063D02*X046548Y013098D01*X04651Y012886D02*
X04646D01*X046583Y012709D02*X046548Y012674D01*X04676Y012636D02*
Y012586D01*X046937Y012709D02*X046972Y012674D01*X04701Y012886D02*
X04706D01*D35*X04576Y013886D03*X04676D03*X04576Y014886D03*X04676D03*
X04576Y015886D03*X04676D03*X04576Y016886D03*X04676D03*X04576Y017886D03*
X04576Y004886D03*X04676Y017886D03*D23*X046937Y018063D02*
X046972Y018098D01*X04676Y018136D02*Y018186D01*X046583Y018063D02*
X046548Y018098D01*X04651Y017886D02*X04646D01*X046583Y017709D02*
X046548Y017674D01*X04676Y017636D02*Y017586D01*X046937Y017709D02*
X046972Y017674D01*X04701Y017886D02*X04706D01*D35*X04576Y018886D03*
X04676D03*X04576Y019886D03*X04676D03*D23*X046937Y020063D02*
X046972Y020098D01*X04676Y020136D02*Y020186D01*X046583Y020063D02*
X046548Y020098D01*X04651Y019886D02*X04646D01*X046583Y019709D02*
X046548Y019674D01*X04676Y019636D02*Y019586D01*X046937Y019709D02*
X046972Y019674D01*X04701Y019886D02*X04706D01*D35*X04576Y020886D03*
X04676D03*X04576Y021886D03*X04676D03*X04576Y022886D03*X04676Y004886D03*
Y022886D03*X04576Y005886D03*X04676D03*D23*X046937Y006063D02*
X046972Y006098D01*X04676Y006136D02*Y006186D01*X046583Y006063D02*
X046548Y006098D01*X04651Y005886D02*X04646D01*X046583Y005709D02*
X046548Y005674D01*X04676Y005636D02*Y005586D01*X046937Y005709D02*
X046972Y005674D01*X04701Y005886D02*X04706D01*D35*X04576Y006886D03*
X04676D03*X04576Y007886D03*D43*X04626Y001969D03*D11*X046677Y002386D02*
X04667Y002379D01*X04626Y002559D02*Y002549D01*X045842Y002386D02*
X045849Y002379D01*X045669Y001969D02*X045679D01*X045842Y001551D02*
X045849Y001558D01*X04626Y001378D02*Y001388D01*X046677Y001551D02*
X04667Y001558D01*X04685Y001969D02*X04684D01*D43*X037205D03*
X04626Y024803D03*D35*X046677Y025221D02*X046713Y025256D01*
X04626Y025394D02*Y025444D01*Y024213D02*Y024163D01*X046677Y024386D02*
X046713Y02435D01*X04685Y024803D02*X0469D01*D18*X002756Y008661D03*
Y00748D03*D25*X006693Y026083D03*D18*X006006Y02189D03*X002756Y009055D03*
D25*X029229Y02464D03*D15*X029327Y024738D02*X029362Y024773D01*
X029229Y024778D02*Y024828D01*X029132Y024738D02*X029096Y024773D01*
X029091Y02464D02*X029041D01*X029132Y024543D02*X029096Y024507D01*
X029229Y024502D02*Y024452D01*X029327Y024543D02*X029362Y024507D01*
X029367Y02464D02*X029417D01*D18*X004035Y025551D03*X009756Y02544D03*
X014456D03*X019179Y02549D03*X023929Y02544D03*X028629D03*
X033352Y02549D03*X038109Y025465D03*X042802Y02544D03*X013297Y023317D03*
X015945Y01752D03*X041644Y022146D03*X042244Y012943D03*X014764Y00374D03*
D12*Y00365D02*Y00366D01*D18*X015506Y02189D03*D25*X012795Y016535D03*
X015354Y015748D03*X012795D03*X010433D03*X040945D03*X019729Y02464D03*
X019079Y02429D03*D15*X019177Y024388D02*X019212Y024423D01*
X019079Y024428D02*Y024478D01*X018982Y024388D02*X018946Y024423D01*
X018941Y02429D02*X018891D01*X018982Y024193D02*X018946Y024157D01*
X019079Y024152D02*Y024102D01*X019177Y024193D02*X019212Y024157D01*
X019217Y02429D02*X019267D01*D25*X007874Y015748D03*X028179Y02429D03*D15*
X028277Y024388D02*X028312Y024423D01*X028179Y024428D02*Y024478D01*
X028082Y024388D02*X028046Y024423D01*X028041Y02429D02*X027991D01*
X028082Y024193D02*X028046Y024157D01*X028179Y024152D02*Y024102D01*
X028277Y024193D02*X028312Y024157D01*X028317Y02429D02*X028367D01*D25*
X043504Y015748D03*X023429Y02394D03*D15*X023527Y024038D02*
X023562Y024073D01*X023429Y024078D02*Y024128D01*X023332Y024038D02*
X023296Y024073D01*X023291Y02394D02*X023241D01*X023332Y023843D02*
X023296Y023807D01*X023429Y023802D02*Y023752D01*X023527Y023843D02*
X023562Y023807D01*X023567Y02394D02*X023617D01*D18*X025329Y02074D03*D25*
X005315Y016535D03*D18*X011614Y014764D03*X028297Y017461D03*
X027136Y023317D03*D25*X037602Y02359D03*D15*X0377Y023688D02*
X037735Y023723D01*X037602Y023728D02*Y023778D01*X037505Y023688D02*
X03747Y023723D01*X037465Y02359D02*X037415D01*X037505Y023493D02*
X03747Y023457D01*X037602Y023452D02*Y023402D01*X0377Y023493D02*
X037735Y023457D01*X03774Y02359D02*X03779D01*D25*X015354Y012205D03*D18*
X00435Y019134D03*D25*X026098Y002772D03*D15*X026196Y002869D02*
X026231Y002904D01*X026098Y002909D02*Y002959D01*X026001Y002869D02*
X025966Y002904D01*X025961Y002772D02*X025911D01*X026001Y002674D02*
X025966Y002639D01*X026098Y002634D02*Y002584D01*X026196Y002674D02*
X026231Y002639D01*X026236Y002772D02*X026286D01*D25*X023659Y002747D03*
D15*X023756Y002844D02*X023792Y00288D01*X023659Y002885D02*Y002935D01*
X023562Y002844D02*X023526Y00288D01*X023521Y002747D02*X023471D01*
X023562Y002649D02*X023526Y002614D01*X023659Y002609D02*Y002559D01*
X023756Y002649D02*X023792Y002614D01*X023797Y002747D02*X023847D01*D25*
X025606Y002772D03*D15*X025704Y002869D02*X025739Y002904D01*
X025606Y002909D02*Y002959D01*X025509Y002869D02*X025474Y002904D01*
X025469Y002772D02*X025419D01*X025509Y002674D02*X025474Y002639D01*
X025606Y002634D02*Y002584D01*X025704Y002674D02*X025739Y002639D01*
X025744Y002772D02*X025794D01*D25*X033268Y015748D03*D18*
X008858Y019094D03*X00376Y02315D03*D25*X004556Y02359D03*D15*
X004653Y023688D02*X004689Y023723D01*X004556Y023728D02*Y023778D01*
X004458Y023688D02*X004423Y023723D01*X004418Y02359D02*X004368D01*
X004458Y023493D02*X004423Y023457D01*X004556Y023452D02*Y023402D01*
X004653Y023493D02*X004689Y023457D01*X004694Y02359D02*X004744D01*D25*
X030709Y018701D03*X023031Y013583D03*D18*X025079Y02124D03*
X026969Y019094D03*D25*X037602Y02324D03*D15*X0377Y023338D02*
X037735Y023373D01*X037602Y023378D02*Y023428D01*X037505Y023338D02*
X03747Y023373D01*X037465Y02324D02*X037415D01*X037505Y023143D02*
X03747Y023107D01*X037602Y023102D02*Y023052D01*X0377Y023143D02*
X037735Y023107D01*X03774Y02324D02*X03779D01*D25*X039173Y025984D03*D11*
X039035D02*X039045D01*X039311D02*X039301D01*D25*X02815Y007874D03*
X035827Y015748D03*X005315Y007087D03*X040945Y018307D03*X033252Y02464D03*
D15*X03335Y024738D02*X033385Y024773D01*X033252Y024778D02*Y024828D01*
X033155Y024738D02*X03312Y024773D01*X033115Y02464D02*X033065D01*
X033155Y024543D02*X03312Y024507D01*X033252Y024502D02*Y024452D01*
X03335Y024543D02*X033385Y024507D01*X03339Y02464D02*X03344D01*D18*
X024409Y012598D03*D25*X038386Y015748D03*D18*X010906Y02124D03*
X01122Y019094D03*X006523Y023519D03*D25*X035827Y01437D03*
X02815Y007087D03*X020472Y011417D03*X023031Y016535D03*D18*
X011156Y02074D03*X037152Y02144D03*Y02164D03*D25*X040945Y01437D03*D18*
X01122Y008268D03*X006356Y024356D03*X034652Y02334D03*X039173Y019094D03*
X003248Y004429D03*D25*X02815Y016142D03*D18*X009252Y014764D03*D25*
X017229Y02439D03*D18*X040354Y007382D03*D25*X005556Y02464D03*D43*
X001378Y001969D03*D11*X001796Y002386D02*X001788Y002379D01*
X001378Y002559D02*Y002549D01*X00096Y002386D02*X000967Y002379D01*
X000787Y001969D02*X000797D01*X00096Y001551D02*X000967Y001558D01*
X001378Y001378D02*Y001388D01*X001796Y001551D02*X001788Y001558D01*
X001969Y001969D02*X001959D01*D25*X02815Y00748D03*Y013976D03*D18*
X002756Y01063D03*Y009843D03*Y008268D03*Y009449D03*D25*X00187Y022047D03*
D18*X002756Y006693D03*Y010236D03*D25*X025114Y003264D03*
X038386Y01437D03*D18*X024409Y014764D03*D25*X026098Y002378D03*D15*
X026196Y002475D02*X026231Y002511D01*X026098Y002516D02*Y002566D01*
X026001Y002475D02*X025966Y002511D01*X025961Y002378D02*X025911D01*
X026001Y002281D02*X025966Y002245D01*X026098Y00224D02*Y00219D01*
X026196Y002281D02*X026231Y002245D01*X026236Y002378D02*X026286D01*D25*
X012795Y018307D03*X036252Y02434D03*X005315Y013976D03*D18*
X039764Y012598D03*D25*X009256Y02394D03*D15*X009353Y024038D02*
X009389Y024073D01*X009256Y024078D02*Y024128D01*X009158Y024038D02*
X009123Y024073D01*X009118Y02394D02*X009068D01*X009158Y023843D02*
X009123Y023807D01*X009256Y023802D02*Y023752D01*X009353Y023843D02*
X009389Y023807D01*X009394Y02394D02*X009444D01*D25*X023031Y018307D03*
D18*X015768Y019134D03*D25*X020472Y009252D03*D18*X034702Y023686D03*
X039173Y014764D03*X009252Y019094D03*X02061Y024823D03*X026969Y019488D03*
D25*X035827Y012205D03*D18*X014173Y010433D03*X015807Y023652D03*D25*
X020472Y012205D03*D18*X031939Y022648D03*X031693Y010433D03*D25*
X023031Y007087D03*D18*X030217Y025984D03*X004882Y021142D03*D25*
X035827Y018701D03*D18*X006693Y014764D03*D25*X004556Y02394D03*D15*
X004653Y024038D02*X004689Y024073D01*X004556Y024078D02*Y024128D01*
X004458Y024038D02*X004423Y024073D01*X004418Y02394D02*X004368D01*
X004458Y023843D02*X004423Y023807D01*X004556Y023802D02*Y023752D01*
X004653Y023843D02*X004689Y023807D01*X004694Y02394D02*X004744D01*D25*
X017229Y02004D03*D18*X002998Y025478D03*X018329Y02164D03*
X004803Y021378D03*D25*X043504Y00748D03*X040945Y009646D03*
X030669Y010039D03*Y007874D03*X033268D03*Y010039D03*X020472Y011811D03*
X038386Y007087D03*X028529Y02464D03*D15*X028627Y024738D02*
X028662Y024773D01*X028529Y024778D02*Y024828D01*X028432Y024738D02*
X028396Y024773D01*X028391Y02464D02*X028341D01*X028432Y024543D02*
X028396Y024507D01*X028529Y024502D02*Y024452D01*X028627Y024543D02*
X028662Y024507D01*X028667Y02464D02*X028717D01*D18*X02185Y014764D03*
X028307Y021309D03*D25*X035827Y011811D03*D18*X002756Y007087D03*D25*
X02815Y009252D03*X020374Y025787D03*D15*X020471Y025885D02*
X020464Y025878D01*X020374Y025925D02*Y025915D01*X020277Y025885D02*
X020284Y025878D01*X020236Y025787D02*X020246D01*X020277Y02569D02*
X020284Y025697D01*X020374Y02565D02*Y02566D01*X020471Y02569D02*
X020464Y025697D01*X020512Y025787D02*X020502D01*D25*X025591Y013976D03*
D38*X013091Y004232D03*D27*X013324Y004466D02*X013359Y004501D01*
X013091Y004562D02*Y004612D01*X012857Y004466D02*X012822Y004501D01*
X012761Y004232D02*X012711D01*X012857Y003999D02*X012822Y003964D01*
X013091Y003902D02*Y003852D01*X013324Y003999D02*X013359Y003964D01*
X013421Y004232D02*X013471D01*D25*X004906Y02464D03*D15*
X005003Y024738D02*X005039Y024773D01*X004906Y024778D02*Y024828D01*
X004808Y024738D02*X004773Y024773D01*X004768Y02464D02*X004718D01*
X004808Y024543D02*X004773Y024507D01*X004906Y024502D02*Y024452D01*
X005003Y024543D02*X005039Y024507D01*X005044Y02464D02*X005094D01*D18*
X029679Y02189D03*D25*X02815Y011811D03*D18*X004626Y01998D03*
X017431Y023317D03*X021506Y01909D03*X034852Y02324D03*X039173Y010433D03*
D25*X019079Y02394D03*D15*X019177Y024038D02*X019212Y024073D01*
X019079Y024078D02*Y024128D01*X018982Y024038D02*X018946Y024073D01*
X018941Y02394D02*X018891D01*X018982Y023843D02*X018946Y023807D01*
X019079Y023802D02*Y023752D01*X019177Y023843D02*X019212Y023807D01*
X019217Y02394D02*X019267D01*D25*X02815Y011417D03*D18*X009106Y02129D03*
X00376Y02248D03*X006299Y014764D03*X039252Y02124D03*D25*
X025591Y011417D03*D18*X006939Y024154D03*X013366Y014783D03*
X026555Y012608D03*X021112Y024154D03*D25*X025213Y002772D03*D15*
X02531Y002869D02*X025345Y002904D01*X025213Y002909D02*Y002959D01*
X025115Y002869D02*X02508Y002904D01*X025075Y002772D02*X025025D01*
X025115Y002674D02*X02508Y002639D01*X025213Y002634D02*Y002584D01*
X02531Y002674D02*X025345Y002639D01*X02535Y002772D02*X0254D01*D18*
X00561Y000689D03*D25*X038386Y011811D03*Y013583D03*X033268Y012205D03*
X04064Y023986D03*D18*X023937Y021299D03*X023279Y02129D03*D25*
X035827Y009252D03*D18*X006102Y001083D03*X02372Y007382D03*
X008366Y001083D03*X032677Y012795D03*D25*X031402Y02439D03*D18*
X036811Y016929D03*X031772Y02315D03*D25*X043228Y020906D03*
X01565Y025787D03*D15*X015747Y025885D02*X01574Y025878D01*
X01565Y025925D02*Y025915D01*X015552Y025885D02*X015559Y025878D01*
X015512Y025787D02*X015522D01*X015552Y02569D02*X015559Y025697D01*
X01565Y02565D02*Y02566D01*X015747Y02569D02*X01574Y025697D01*
X015787Y025787D02*X015777D01*D25*X010925D03*D15*X011023Y025885D02*
X011016Y025878D01*X010925Y025925D02*Y025915D01*X010828Y025885D02*
X010835Y025878D01*X010787Y025787D02*X010797D01*X010828Y02569D02*
X010835Y025697D01*X010925Y02565D02*Y02566D01*X011023Y02569D02*
X011016Y025697D01*X011063Y025787D02*X011053D01*D18*X024409Y019094D03*
D25*X009256Y02359D03*D15*X009353Y023688D02*X009389Y023723D01*
X009256Y023728D02*Y023778D01*X009158Y023688D02*X009123Y023723D01*
X009118Y02359D02*X009068D01*X009158Y023493D02*X009123Y023457D01*
X009256Y023452D02*Y023402D01*X009353Y023493D02*X009389Y023457D01*
X009394Y02359D02*X009444D01*D25*X01565Y025984D03*D15*X015747Y026082D02*
X01574Y026075D01*X01565Y026122D02*Y026112D01*X015552Y026082D02*
X015559Y026075D01*X015512Y025984D02*X015522D01*X015552Y025887D02*
X015559Y025894D01*X01565Y025846D02*Y025856D01*X015747Y025887D02*
X01574Y025894D01*X015787Y025984D02*X015777D01*D25*X025591Y01437D03*D18*
X017598Y02315D03*X021506Y01694D03*X042244Y014783D03*X041309Y022982D03*
D25*X012795Y012205D03*X003406Y02424D03*X02815Y01437D03*
X038386Y007874D03*X024488Y020906D03*D18*X002264Y022835D03*D11*
X002174D02*X002184D01*X002354D02*X002344D01*D18*X004156Y02184D03*
X036811Y008268D03*X03487Y024188D03*X045177Y025787D03*D22*
X045241Y025851D02*X045276Y025886D01*X045177Y025877D02*Y025927D01*
X045114Y025851D02*X045078Y025886D01*X045087Y025787D02*X045037D01*
X045114Y025724D02*X045078Y025688D01*X045177Y025697D02*Y025647D01*
X045241Y025724D02*X045276Y025688D01*X045267Y025787D02*X045317D01*D18*
X011122Y002953D03*D25*X018729Y02394D03*D15*X018827Y024038D02*
X018862Y024073D01*X018729Y024078D02*Y024128D01*X018632Y024038D02*
X018596Y024073D01*X018591Y02394D02*X018541D01*X018632Y023843D02*
X018596Y023807D01*X018729Y023802D02*Y023752D01*X018827Y023843D02*
X018862Y023807D01*X018867Y02394D02*X018917D01*D18*X00374Y004626D03*
X003051Y004823D03*X00315Y004626D03*X02372Y008366D03*X013287Y002067D03*
X028987Y017116D03*X020778Y024488D03*X032502Y02164D03*X019587Y019882D03*
X012697Y002264D03*X017618Y001575D03*D14*X017682Y001638D02*
X017717Y001674D01*X017618Y001665D02*Y001715D01*X017554Y001638D02*
X017519Y001674D01*X017528Y001575D02*X017478D01*X017554Y001511D02*
X017519Y001476D01*X017618Y001485D02*Y001435D01*X017682Y001511D02*
X017717Y001476D01*X017708Y001575D02*X017758D01*D25*X017913Y01437D03*
Y012205D03*Y010039D03*Y007874D03*X020472D03*Y010039D03*D18*
X003848Y010433D03*X003425Y022815D03*D25*X018729Y02464D03*D15*
X018827Y024738D02*X018862Y024773D01*X018729Y024778D02*Y024828D01*
X018632Y024738D02*X018596Y024773D01*X018591Y02464D02*X018541D01*
X018632Y024543D02*X018596Y024507D01*X018729Y024502D02*Y024452D01*
X018827Y024543D02*X018862Y024507D01*X018867Y02464D02*X018917D01*D25*
X021729Y02434D03*X012795Y009252D03*X014356Y02429D03*D15*
X014453Y024388D02*X014489Y024423D01*X014356Y024428D02*Y024478D01*
X014258Y024388D02*X014223Y024423D01*X014218Y02429D02*X014168D01*
X014258Y024193D02*X014223Y024157D01*X014356Y024152D02*Y024102D01*
X014453Y024193D02*X014489Y024157D01*X014494Y02429D02*X014544D01*D18*
X028629Y02134D03*D25*X043504Y010039D03*D18*X022429Y02064D03*D25*
X025098Y025984D03*D15*X025196Y026082D02*X025189Y026075D01*
X025098Y026122D02*Y026112D01*X025001Y026082D02*X025008Y026075D01*
X024961Y025984D02*X024971D01*X025001Y025887D02*X025008Y025894D01*
X025098Y025846D02*Y025856D01*X025196Y025887D02*X025189Y025894D01*
X025236Y025984D02*X025226D01*D25*X005315Y017913D03*D18*
X017766Y022648D03*X018898Y012598D03*D25*X031402Y02474D03*
X010433Y009252D03*X009606Y02464D03*D15*X009703Y024738D02*
X009739Y024773D01*X009606Y024778D02*Y024828D01*X009508Y024738D02*
X009473Y024773D01*X009468Y02464D02*X009418D01*X009508Y024543D02*
X009473Y024507D01*X009606Y024502D02*Y024452D01*X009703Y024543D02*
X009739Y024507D01*X009744Y02464D02*X009794D01*D18*X034213Y010433D03*
X034783Y024823D03*D25*X023031Y016142D03*D18*X020696Y023519D03*
X024056Y01909D03*D25*X012795Y013583D03*X038386Y016142D03*
X017913Y011811D03*X025591D03*D18*X007283Y002953D03*D25*
X023779Y02359D03*D15*X023877Y023688D02*X023912Y023723D01*
X023779Y023728D02*Y023778D01*X023682Y023688D02*X023646Y023723D01*
X023641Y02359D02*X023591D01*X023682Y023493D02*X023646Y023457D01*
X023779Y023452D02*Y023402D01*X023877Y023493D02*X023912Y023457D01*
X023917Y02359D02*X023967D01*D25*X017229Y02474D03*D18*X034252Y016929D03*
X032106Y022815D03*X036811Y019094D03*X031604Y023317D03*D25*
X035827Y007087D03*X005315Y015748D03*Y018701D03*D18*X003556Y02069D03*
D25*X007874Y016535D03*D18*X018898Y010433D03*X017431Y022648D03*D25*
X009256Y02324D03*D15*X009353Y023338D02*X009389Y023373D01*
X009256Y023378D02*Y023428D01*X009158Y023338D02*X009123Y023373D01*
X009118Y02324D02*X009068D01*X009158Y023143D02*X009123Y023107D01*
X009256Y023102D02*Y023052D01*X009353Y023143D02*X009389Y023107D01*
X009394Y02324D02*X009444D01*D18*X027303Y022313D03*X026906Y01514D03*
X026606Y01694D03*X021457Y023622D03*D25*X012795Y017913D03*D18*
X041309Y023317D03*X042256Y01684D03*X009528Y021299D03*D25*
X010433Y016142D03*X007874Y017913D03*X010433D03*X038602Y02464D03*D15*
X0387Y024738D02*X038735Y024773D01*X038602Y024778D02*Y024828D01*
X038505Y024738D02*X03847Y024773D01*X038465Y02464D02*X038415D01*
X038505Y024543D02*X03847Y024507D01*X038602Y024502D02*Y024452D01*
X0387Y024543D02*X038735Y024507D01*X03874Y02464D02*X03879D01*D25*
X010433Y013976D03*X014882Y020906D03*D18*X016309Y02315D03*
X009252Y008268D03*D25*X017829Y02004D03*X004906Y02324D03*D15*
X005003Y023338D02*X005039Y023373D01*X004906Y023378D02*Y023428D01*
X004808Y023338D02*X004773Y023373D01*X004768Y02324D02*X004718D01*
X004808Y023143D02*X004773Y023107D01*X004906Y023102D02*Y023052D01*
X005003Y023143D02*X005039Y023107D01*X005044Y02324D02*X005094D01*D25*
X014356Y02394D03*D15*X014453Y024038D02*X014489Y024073D01*
X014356Y024078D02*Y024128D01*X014258Y024038D02*X014223Y024073D01*
X014218Y02394D02*X014168D01*X014258Y023843D02*X014223Y023807D01*
X014356Y023802D02*Y023752D01*X014453Y023843D02*X014489Y023807D01*
X014494Y02394D02*X014544D01*D18*X042323Y010433D03*X044321Y023819D03*
D25*X003056Y02004D03*X009606Y02359D03*D15*X009703Y023688D02*
X009739Y023723D01*X009606Y023728D02*Y023778D01*X009508Y023688D02*
X009473Y023723D01*X009468Y02359D02*X009418D01*X009508Y023493D02*
X009473Y023457D01*X009606Y023452D02*Y023402D01*X009703Y023493D02*
X009739Y023457D01*X009744Y02359D02*X009794D01*D18*X008556Y02474D03*
X008189Y025709D03*D25*X020472Y01437D03*X014356Y02359D03*D15*
X014453Y023688D02*X014489Y023723D01*X014356Y023728D02*Y023778D01*
X014258Y023688D02*X014223Y023723D01*X014218Y02359D02*X014168D01*
X014258Y023493D02*X014223Y023457D01*X014356Y023452D02*Y023402D01*
X014453Y023493D02*X014489Y023457D01*X014494Y02359D02*X014544D01*D25*
X014006Y02464D03*D15*X014103Y024738D02*X014139Y024773D01*
X014006Y024778D02*Y024828D01*X013908Y024738D02*X013873Y024773D01*
X013868Y02464D02*X013818D01*X013908Y024543D02*X013873Y024507D01*
X014006Y024502D02*Y024452D01*X014103Y024543D02*X014139Y024507D01*
X014144Y02464D02*X014194D01*D25*X019079Y02359D03*D15*X019177Y023688D02*
X019212Y023723D01*X019079Y023728D02*Y023778D01*X018982Y023688D02*
X018946Y023723D01*X018941Y02359D02*X018891D01*X018982Y023493D02*
X018946Y023457D01*X019079Y023452D02*Y023402D01*X019177Y023493D02*
X019212Y023457D01*X019217Y02359D02*X019267D01*D25*X005315Y007874D03*
X025591Y017913D03*X014356Y02464D03*D15*X014453Y024738D02*
X014489Y024773D01*X014356Y024778D02*Y024828D01*X014258Y024738D02*
X014223Y024773D01*X014218Y02464D02*X014168D01*X014258Y024543D02*
X014223Y024507D01*X014356Y024502D02*Y024452D01*X014453Y024543D02*
X014489Y024507D01*X014494Y02464D02*X014544D01*D18*X015266Y017461D03*
X013297Y022146D03*D25*X029823Y025787D03*D15*X02992Y025885D02*
X029956Y02592D01*X029823Y025925D02*Y025975D01*X029725Y025885D02*
X02969Y02592D01*X029685Y025787D02*X029635D01*X029725Y02569D02*
X02969Y025655D01*X029823Y02565D02*Y0256D01*X02992Y02569D02*
X029956Y025655D01*X029961Y025787D02*X030011D01*D18*X041949Y004331D03*
D12*X042012Y004394D02*X042048Y00443D01*X041949Y004421D02*Y004471D01*
X041885Y004394D02*X04185Y00443D01*X041859Y004331D02*X041809D01*
X041885Y004267D02*X04185Y004232D01*X041949Y004241D02*Y004191D01*
X042012Y004267D02*X042048Y004232D01*X042039Y004331D02*X042089D01*D18*
X041949Y004035D03*D12*X042012Y004099D02*X042048Y004134D01*
X041949Y004125D02*Y004175D01*X041885Y004099D02*X04185Y004134D01*
X041859Y004035D02*X041809D01*X041885Y003972D02*X04185Y003936D01*
X041949Y003945D02*Y003895D01*X042012Y003972D02*X042048Y003936D01*
X042039Y004035D02*X042089D01*D18*X042244Y005512D03*D12*
X042308Y005575D02*X042343Y005611D01*X042244Y005602D02*Y005652D01*
X04218Y005575D02*X042145Y005611D01*X042154Y005512D02*X042104D01*
X04218Y005448D02*X042145Y005413D01*X042244Y005422D02*Y005372D01*
X042308Y005448D02*X042343Y005413D01*X042334Y005512D02*X042384D01*D25*
X006201Y025787D03*D15*X006298Y025885D02*X006291Y025878D01*
X006201Y025925D02*Y025915D01*X006103Y025885D02*X00611Y025878D01*
X006063Y025787D02*X006073D01*X006103Y02569D02*X00611Y025697D01*
X006201Y02565D02*Y02566D01*X006298Y02569D02*X006291Y025697D01*
X006339Y025787D02*X006329D01*D25*X026801Y023986D03*X024114Y002303D03*
D15*X024212Y002401D02*X024247Y002436D01*X024114Y002441D02*Y002491D01*
X024017Y002401D02*X023981Y002436D01*X023976Y002303D02*X023926D01*
X024017Y002206D02*X023981Y00217D01*X024114Y002165D02*Y002115D01*
X024212Y002206D02*X024247Y00217D01*X024252Y002303D02*X024302D01*D18*
X042539Y005512D03*D12*X042603Y005575D02*X042638Y005611D01*
X042539Y005602D02*Y005652D01*X042476Y005575D02*X04244Y005611D01*
X042449Y005512D02*X042399D01*X042476Y005448D02*X04244Y005413D01*
X042539Y005422D02*Y005372D01*X042603Y005448D02*X042638Y005413D01*
X042629Y005512D02*X042679D01*D25*X028529Y02359D03*D15*
X028627Y023688D02*X028662Y023723D01*X028529Y023728D02*Y023778D01*
X028432Y023688D02*X028396Y023723D01*X028391Y02359D02*X028341D01*
X028432Y023493D02*X028396Y023457D01*X028529Y023452D02*Y023402D01*
X028627Y023493D02*X028662Y023457D01*X028667Y02359D02*X028717D01*D25*
X022079Y02434D03*D18*X032677Y014961D03*X02185Y019094D03*D25*
X007874Y012205D03*X005315D03*D18*X028957Y019134D03*D25*
X035827Y013583D03*D18*X044656Y023484D03*X032087Y010433D03*D25*
X017913Y011417D03*X015354Y007874D03*D18*X01122Y010433D03*
X006523Y024188D03*D25*X015354Y016142D03*X004556Y02429D03*D15*
X004653Y024388D02*X004689Y024423D01*X004556Y024428D02*Y024478D01*
X004458Y024388D02*X004423Y024423D01*X004418Y02429D02*X004368D01*
X004458Y024193D02*X004423Y024157D01*X004556Y024152D02*Y024102D01*
X004653Y024193D02*X004689Y024157D01*X004694Y02429D02*X004744D01*D25*
X003056Y02474D03*X032902Y02324D03*X010925Y025984D03*D15*
X011023Y026082D02*X011016Y026075D01*X010925Y026122D02*Y026112D01*
X010828Y026082D02*X010835Y026075D01*X010787Y025984D02*X010797D01*
X010828Y025887D02*X010835Y025894D01*X010925Y025846D02*Y025856D01*
X011023Y025887D02*X011016Y025894D01*X011063Y025984D02*X011053D01*D25*
X007556Y02399D03*X043504Y012205D03*D18*X009252Y016929D03*
X014094Y012943D03*X015974Y024488D03*X039764Y016929D03*D25*
X024079Y02464D03*D15*X024177Y024738D02*X024212Y024773D01*
X024079Y024778D02*Y024828D01*X023982Y024738D02*X023946Y024773D01*
X023941Y02464D02*X023891D01*X023982Y024543D02*X023946Y024507D01*
X024079Y024502D02*Y024452D01*X024177Y024543D02*X024212Y024507D01*
X024217Y02464D02*X024267D01*D18*X032106Y02248D03*X034252Y014764D03*
X013456Y01694D03*X007283Y023622D03*D25*X033268Y017913D03*
X004556Y02464D03*D15*X004653Y024738D02*X004689Y024773D01*
X004556Y024778D02*Y024828D01*X004458Y024738D02*X004423Y024773D01*
X004418Y02464D02*X004368D01*X004458Y024543D02*X004423Y024507D01*
X004556Y024502D02*Y024452D01*X004653Y024543D02*X004689Y024507D01*
X004694Y02464D02*X004744D01*D25*X005315Y010039D03*X004906Y02394D03*D15*
X005003Y024038D02*X005039Y024073D01*X004906Y024078D02*Y024128D01*
X004808Y024038D02*X004773Y024073D01*X004768Y02394D02*X004718D01*
X004808Y023843D02*X004773Y023807D01*X004906Y023802D02*Y023752D01*
X005003Y023843D02*X005039Y023807D01*X005044Y02394D02*X005094D01*D25*
X007874Y010039D03*X017913Y018701D03*X040945Y00748D03*X020472Y017913D03*
D18*X041024Y025472D03*X003445Y004429D03*D25*X023429Y02464D03*D15*
X023527Y024738D02*X023562Y024773D01*X023429Y024778D02*Y024828D01*
X023332Y024738D02*X023296Y024773D01*X023291Y02464D02*X023241D01*
X023332Y024543D02*X023296Y024507D01*X023429Y024502D02*Y024452D01*
X023527Y024543D02*X023562Y024507D01*X023567Y02464D02*X023617D01*D18*
X010006Y02094D03*D25*X007874Y018701D03*X042352Y02324D03*D15*
X04245Y023338D02*X042485Y023373D01*X042352Y023378D02*Y023428D01*
X042255Y023338D02*X04222Y023373D01*X042215Y02324D02*X042165D01*
X042255Y023143D02*X04222Y023107D01*X042352Y023102D02*Y023052D01*
X04245Y023143D02*X042485Y023107D01*X04249Y02324D02*X04254D01*D25*
X009606D03*D15*X009703Y023338D02*X009739Y023373D01*X009606Y023378D02*
Y023428D01*X009508Y023338D02*X009473Y023373D01*X009468Y02324D02*
X009418D01*X009508Y023143D02*X009473Y023107D01*X009606Y023102D02*
Y023052D01*X009703Y023143D02*X009739Y023107D01*X009744Y02324D02*
X009794D01*D25*X009256Y02429D03*D15*X009353Y024388D02*
X009389Y024423D01*X009256Y024428D02*Y024478D01*X009158Y024388D02*
X009123Y024423D01*X009118Y02429D02*X009068D01*X009158Y024193D02*
X009123Y024157D01*X009256Y024152D02*Y024102D01*X009353Y024193D02*
X009389Y024157D01*X009394Y02429D02*X009444D01*D18*X042002Y02169D03*D25*
X020472Y013976D03*X017913D03*X015354Y01437D03*X012795D03*D18*
X019291Y020906D03*X019055Y021142D03*D25*X037952Y02394D03*D15*
X03805Y024038D02*X038085Y024073D01*X037952Y024078D02*Y024128D01*
X037855Y024038D02*X03782Y024073D01*X037815Y02394D02*X037765D01*
X037855Y023843D02*X03782Y023807D01*X037952Y023802D02*Y023752D01*
X03805Y023843D02*X038085Y023807D01*X03809Y02394D02*X03814D01*D18*
X016043Y026083D03*X017487Y025715D03*X041702Y02184D03*X02185Y012598D03*
D25*X042352Y02394D03*D15*X04245Y024038D02*X042485Y024073D01*
X042352Y024078D02*Y024128D01*X042255Y024038D02*X04222Y024073D01*
X042215Y02394D02*X042165D01*X042255Y023843D02*X04222Y023807D01*
X042352Y023802D02*Y023752D01*X04245Y023843D02*X042485Y023807D01*
X04249Y02394D02*X04254D01*D25*X040974Y023986D03*D18*X041555Y010472D03*
X039764Y010433D03*X041476Y02315D03*X03811Y021299D03*X037205Y019094D03*
D25*X030669Y007087D03*D18*X004106Y02129D03*D25*X033268Y007087D03*
Y00748D03*D18*X034646Y019094D03*D25*X012795Y009646D03*D18*
X008858Y012598D03*X003258Y023317D03*X041556Y01724D03*X035433Y023425D03*
X03248Y016929D03*X036602Y02064D03*X016142Y003937D03*D12*Y004027D02*
Y004017D01*D25*X035827Y00748D03*D18*X034646Y016929D03*
X031693Y012598D03*X031772Y022815D03*X035118Y024321D03*
X041732Y008465D03*D25*X038386Y00748D03*X035827Y016142D03*
X043504Y011811D03*X005315Y011417D03*X040945Y009252D03*Y013976D03*
X007906Y02434D03*X030669Y00748D03*X043504Y011417D03*X040945D03*
X035827D03*D18*X015266Y019301D03*X01313Y02315D03*D25*X038386Y011417D03*
X017529Y02004D03*X035827Y010039D03*X038386D03*D18*X009252Y010433D03*
X016142Y023317D03*D25*X040945Y010039D03*D18*X04189Y021299D03*D25*
X033268Y011417D03*X007874Y01437D03*X035827Y018307D03*X038386D03*D18*
X008071Y003543D03*D12*X008135Y003607D02*X00817Y003642D01*
X008071Y003633D02*Y003683D01*X008007Y003607D02*X007972Y003642D01*
X007981Y003543D02*X007931D01*X008007Y00348D02*X007972Y003444D01*
X008071Y003453D02*Y003403D01*X008135Y00348D02*X00817Y003444D01*
X008161Y003543D02*X008211D01*D18*X043456Y01934D03*X044154Y024656D03*
X007874Y003264D03*D12*X007938Y003327D02*X007973Y003363D01*
X007874Y003354D02*Y003404D01*X00781Y003327D02*X007775Y003363D01*
X007784Y003264D02*X007734D01*X00781Y0032D02*X007775Y003165D01*
X007874Y003174D02*Y003124D01*X007938Y0032D02*X007973Y003165D01*
X007964Y003264D02*X008014D01*D18*X036535Y025709D03*X036902Y02474D03*
D25*X038386Y017913D03*X040945D03*D18*X030148Y023484D03*
X026969Y008268D03*D25*X017913Y009252D03*D18*X026555Y012943D03*
X02998Y024656D03*D25*X043504Y017913D03*D18*X027829Y02169D03*
X007677Y003264D03*D12*X007741Y003327D02*X007776Y003363D01*
X007677Y003354D02*Y003404D01*X007614Y003327D02*X007578Y003363D01*
X007587Y003264D02*X007537D01*X007614Y0032D02*X007578Y003165D01*
X007677Y003174D02*Y003124D01*X007741Y0032D02*X007776Y003165D01*
X007767Y003264D02*X007817D01*D25*X042352Y02464D03*D15*X04245Y024738D02*
X042485Y024773D01*X042352Y024778D02*Y024828D01*X042255Y024738D02*
X04222Y024773D01*X042215Y02464D02*X042165D01*X042255Y024543D02*
X04222Y024507D01*X042352Y024502D02*Y024452D01*X04245Y024543D02*
X042485Y024507D01*X04249Y02464D02*X04254D01*D18*X00748Y002657D03*D25*
X030709Y015748D03*D18*X023701Y021299D03*X014094Y012608D03*
X015974Y024154D03*X029134Y012598D03*X020945Y024321D03*
X017431Y022982D03*X016447Y010433D03*X041909Y012943D03*
X041476Y022313D03*X043456Y01704D03*X044154Y024321D03*D25*
X037952Y02464D03*D15*X03805Y024738D02*X038085Y024773D01*
X037952Y024778D02*Y024828D01*X037855Y024738D02*X03782Y024773D01*
X037815Y02464D02*X037765D01*X037855Y024543D02*X03782Y024507D01*
X037952Y024502D02*Y024452D01*X03805Y024543D02*X038085Y024507D01*
X03809Y02464D02*X03814D01*D18*X04375Y017461D03*X044321Y024154D03*
X042913Y020906D03*D25*X023031Y018701D03*D18*X041339Y025709D03*D25*
X003356Y02004D03*D18*X03166Y025715D03*X019508Y016959D03*
X017766Y023317D03*X021457Y014764D03*X012628Y023317D03*
X013366Y015118D03*X02747Y02499D03*X025492Y015118D03*X026606Y01909D03*
X02128Y023986D03*X031345Y025478D03*X017234Y01434D03*X014173Y008268D03*
X015974Y023484D03*X027303Y024823D03*X028297Y017126D03*X029779Y02094D03*
X021024Y008258D03*X017933Y022815D03*D25*X030709Y011811D03*D18*
X022979Y02164D03*Y02144D03*X041476Y022815D03*X042579Y012943D03*
X041909Y014783D03*X035302Y02369D03*X02185Y016929D03*X026606Y01514D03*
X02747Y02248D03*X024409Y010433D03*X02998Y023317D03*D25*
X025591Y007087D03*X017229Y02404D03*D18*X034702Y024356D03*
X036811Y010433D03*X007874Y025472D03*X008406Y02454D03*X022579D03*
X022047Y025472D03*D25*X010433Y013583D03*D18*X024409Y016929D03*D25*
X020472Y018701D03*D18*X044154Y023986D03*X04375Y017126D03*
X009252Y012598D03*X041909Y015118D03*X041644Y023317D03*D25*
X003622Y020039D03*D18*X039152Y02184D03*X039665Y025984D03*
X044321Y02315D03*X037205Y008268D03*X03487Y023854D03*X039173Y012598D03*
X030315Y023317D03*X02185Y010433D03*X039173Y003543D03*D14*
X039237Y003607D02*X03923Y0036D01*X039173Y003633D02*Y003623D01*
X03911Y003607D02*X039117Y0036D01*X039083Y003543D02*X039093D01*
X03911Y00348D02*X039117Y003487D01*X039173Y003453D02*Y003463D01*
X039237Y00348D02*X03923Y003487D01*X039263Y003543D02*X039253D01*D25*
X042702Y02359D03*D15*X0428Y023688D02*X042835Y023723D01*
X042702Y023728D02*Y023778D01*X042605Y023688D02*X04257Y023723D01*
X042565Y02359D02*X042515D01*X042605Y023493D02*X04257Y023457D01*
X042702Y023452D02*Y023402D01*X0428Y023493D02*X042835Y023457D01*
X04284Y02359D02*X04289D01*D25*X025098Y025787D03*D15*X025196Y025885D02*
X025189Y025878D01*X025098Y025925D02*Y025915D01*X025001Y025885D02*
X025008Y025878D01*X024961Y025787D02*X024971D01*X025001Y02569D02*
X025008Y025697D01*X025098Y02565D02*Y02566D01*X025196Y02569D02*
X025189Y025697D01*X025236Y025787D02*X025226D01*D25*X035827Y017913D03*
X023429Y02359D03*D15*X023527Y023688D02*X023562Y023723D01*
X023429Y023728D02*Y023778D01*X023332Y023688D02*X023296Y023723D01*
X023291Y02359D02*X023241D01*X023332Y023493D02*X023296Y023457D01*
X023429Y023452D02*Y023402D01*X023527Y023493D02*X023562Y023457D01*
X023567Y02359D02*X023617D01*D18*X036656Y01264D03*X032106Y02315D03*
X021024Y010433D03*X017766Y022982D03*X044321Y023484D03*
X039764Y008268D03*D25*X012795Y00748D03*X043504Y007874D03*
X005315Y009646D03*D18*X02685Y025472D03*X025827Y015118D03*
X026969Y022815D03*D25*X033268Y018701D03*X010433Y009646D03*
X030709Y016535D03*D18*X033465Y020906D03*D25*X010433Y01437D03*
X019079Y02324D03*D15*X019177Y023338D02*X019212Y023373D01*
X019079Y023378D02*Y023428D01*X018982Y023338D02*X018946Y023373D01*
X018941Y02324D02*X018891D01*X018982Y023143D02*X018946Y023107D01*
X019079Y023102D02*Y023052D01*X019177Y023143D02*X019212Y023107D01*
X019217Y02324D02*X019267D01*D18*X02998Y023986D03*X027224Y012608D03*D25*
X010315Y020906D03*D18*X030148Y024154D03*X02689Y012608D03*
X033228Y021142D03*D25*X017913Y018307D03*D18*X027224Y012943D03*
X02998Y024321D03*D25*X023031Y012205D03*D18*X044488Y023317D03*
X034646Y010433D03*D25*X007874Y013583D03*D18*X004156Y02164D03*D25*
X007556Y02434D03*X005315Y013583D03*X023031Y01437D03*D18*
X024075Y016929D03*X020529Y023686D03*X018329Y02184D03*X007579Y004232D03*
D25*X02815Y009646D03*X025591D03*X033268Y011811D03*X023429Y02429D03*D15*
X023527Y024388D02*X023562Y024423D01*X023429Y024428D02*Y024478D01*
X023332Y024388D02*X023296Y024423D01*X023291Y02429D02*X023241D01*
X023332Y024193D02*X023296Y024157D01*X023429Y024152D02*Y024102D01*
X023527Y024193D02*X023562Y024157D01*X023567Y02429D02*X023617D01*D25*
X023779Y02464D03*D15*X023877Y024738D02*X023912Y024773D01*
X023779Y024778D02*Y024828D01*X023682Y024738D02*X023646Y024773D01*
X023641Y02464D02*X023591D01*X023682Y024543D02*X023646Y024507D01*
X023779Y024502D02*Y024452D01*X023877Y024543D02*X023912Y024507D01*
X023917Y02464D02*X023967D01*D18*X016831Y000984D03*D20*
X016894Y001048D02*X01693Y001083D01*X016831Y001074D02*Y001124D01*
X016767Y001048D02*X016732Y001083D01*X016741Y000984D02*X016691D01*
X016767Y000921D02*X016732Y000885D01*X016831Y000894D02*Y000844D01*
X016894Y000921D02*X01693Y000885D01*X016921Y000984D02*X016971D01*D18*
X005709Y020846D03*X002756Y01811D03*X045374Y025787D03*D22*
X045438Y025851D02*X045473Y025886D01*X045374Y025877D02*Y025927D01*
X04531Y025851D02*X045275Y025886D01*X045284Y025787D02*X045234D01*
X04531Y025724D02*X045275Y025688D01*X045374Y025697D02*Y025647D01*
X045438Y025724D02*X045473Y025688D01*X045464Y025787D02*X045514D01*D18*
X003839Y004429D03*X003346Y004626D03*X023228Y019488D03*
X023917Y019587D03*X027362Y005709D03*D22*X027272D02*X027282D01*
X027299Y005645D02*X027306Y005652D01*X027362Y005619D02*Y005629D01*
X027426Y005645D02*X027419Y005652D01*X027452Y005709D02*X027442D01*D25*
X010433Y011417D03*D18*X015059Y020177D03*X019587Y020276D03*
X002854Y004429D03*X003051D03*X027165Y005512D03*D22*X027229Y005575D02*
X027264Y005611D01*X027165Y005602D02*Y005652D01*X027102Y005575D02*
X027066Y005611D01*X027075Y005512D02*X027025D01*X027102Y005448D02*
X027066Y005413D01*X027165Y005422D02*Y005372D01*X027229Y005448D02*
X027264Y005413D01*X027255Y005512D02*X027305D01*D18*X013681Y002067D03*
X027529Y02154D03*D25*X028879Y02464D03*D15*X028977Y024738D02*
X029012Y024773D01*X028879Y024778D02*Y024828D01*X028782Y024738D02*
X028746Y024773D01*X028741Y02464D02*X028691D01*X028782Y024543D02*
X028746Y024507D01*X028879Y024502D02*Y024452D01*X028977Y024543D02*
X029012Y024507D01*X029017Y02464D02*X029067D01*D18*X020279Y02164D03*
X006437Y024823D03*X008819Y010433D03*D25*X015846Y003051D03*D18*
X015944Y003149D02*X015979Y003184D01*X015846Y003189D02*Y003239D01*
X015749Y003149D02*X015714Y003184D01*X015709Y003051D02*X015659D01*
X015749Y002954D02*X015714Y002918D01*X015846Y002913D02*Y002863D01*
X015944Y002954D02*X015979Y002918D01*X015984Y003051D02*X016034D01*D25*
X016437D03*D18*X016534Y003149D02*X01657Y003184D01*X016437Y003189D02*
Y003239D01*X01634Y003149D02*X016304Y003184D01*X016299Y003051D02*
X016249D01*X01634Y002954D02*X016304Y002918D01*X016437Y002913D02*
Y002863D01*X016534Y002954D02*X01657Y002918D01*X016575Y003051D02*
X016625D01*D25*X016437Y002067D03*D19*X016534Y002164D02*X01657Y0022D01*
X016437Y002205D02*Y002255D01*X01634Y002164D02*X016304Y0022D01*
X016299Y002067D02*X016249D01*X01634Y001969D02*X016304Y001934D01*
X016437Y001929D02*Y001879D01*X016534Y001969D02*X01657Y001934D01*
X016575Y002067D02*X016625D01*D25*X015846D03*D19*X015944Y002164D02*
X015979Y0022D01*X015846Y002205D02*Y002255D01*X015749Y002164D02*
X015714Y0022D01*X015709Y002067D02*X015659D01*X015749Y001969D02*
X015714Y001934D01*X015846Y001929D02*Y001879D01*X015944Y001969D02*
X015979Y001934D01*X015984Y002067D02*X016034D01*D25*X009606Y02429D03*
D15*X009703Y024388D02*X009739Y024423D01*X009606Y024428D02*Y024478D01*
X009508Y024388D02*X009473Y024423D01*X009468Y02429D02*X009418D01*
X009508Y024193D02*X009473Y024157D01*X009606Y024152D02*Y024102D01*
X009703Y024193D02*X009739Y024157D01*X009744Y02429D02*X009794D01*D25*
X028179Y02324D03*D15*X028277Y023338D02*X028312Y023373D01*
X028179Y023378D02*Y023428D01*X028082Y023338D02*X028046Y023373D01*
X028041Y02324D02*X027991D01*X028082Y023143D02*X028046Y023107D01*
X028179Y023102D02*Y023052D01*X028277Y023143D02*X028312Y023107D01*
X028317Y02324D02*X028367D01*D18*X006299Y012598D03*X003593Y022648D03*
D25*X020472Y009646D03*D18*X034213Y008258D03*X034951Y024488D03*D25*
X030709Y017913D03*D18*X045374Y025394D03*D22*X045438Y025457D02*
X045473Y025493D01*X045374Y025484D02*Y025534D01*X04531Y025457D02*
X045275Y025493D01*X045284Y025394D02*X045234D01*X04531Y02533D02*
X045275Y025295D01*X045374Y025304D02*Y025254D01*X045438Y02533D02*
X045473Y025295D01*X045464Y025394D02*X045514D01*D25*X012795Y016142D03*
D32*X03324Y004807D03*X032256D03*X031469D03*X030484D03*D12*
X030331Y004654D02*X030338Y004661D01*X030484Y004591D02*Y004601D01*
X030637Y004654D02*X03063Y004661D01*D41*X034449Y00374D03*D23*
X034797Y004088D02*X03479Y004081D01*X034449Y004232D02*Y004222D01*
X034101Y004088D02*X034108Y004081D01*X033957Y00374D02*X033967D01*
X034101Y003392D02*X034108Y003399D01*X034797Y003392D02*X03479Y003399D01*
X034941Y00374D02*X034931D01*D41*X029276D03*D23*X029624Y004088D02*
X029617Y004081D01*X029276Y004232D02*Y004222D01*X028928Y004088D02*
X028935Y004081D01*X028783Y00374D02*X028793D01*X028928Y003392D02*
X028935Y003399D01*X029624Y003392D02*X029617Y003399D01*X029768Y00374D02*
X029758D01*D25*X028529Y02429D03*D15*X028627Y024388D02*
X028662Y024423D01*X028529Y024428D02*Y024478D01*X028432Y024388D02*
X028396Y024423D01*X028391Y02429D02*X028341D01*X028432Y024193D02*
X028396Y024157D01*X028529Y024152D02*Y024102D01*X028627Y024193D02*
X028662Y024157D01*X028667Y02429D02*X028717D01*D25*X026467Y024321D03*
X012795Y018701D03*X025591Y016142D03*X035827Y013976D03*D18*
X039502Y02074D03*D25*X030709Y013583D03*X043504Y009646D03*D18*
X013297Y022982D03*X0156Y017461D03*X014456Y02134D03*X03487Y023519D03*
X039173Y016929D03*X039567Y005413D03*D25*X007874Y007087D03*
X010433Y018701D03*X017913Y016142D03*D18*X04311Y005906D03*X044685D03*
X039764Y019094D03*X027717Y021299D03*X012677Y025472D03*D25*
X020472Y007087D03*D18*X008858Y016929D03*X003593Y023317D03*D25*
X043052Y02464D03*D15*X04315Y024738D02*X043185Y024773D01*
X043052Y024778D02*Y024828D01*X042955Y024738D02*X04292Y024773D01*
X042915Y02464D02*X042865D01*X042955Y024543D02*X04292Y024507D01*
X043052Y024502D02*Y024452D01*X04315Y024543D02*X043185Y024507D01*
X04319Y02464D02*X04324D01*D25*X033268Y01437D03*X040945Y011811D03*
X015354Y013976D03*X030709Y016142D03*D18*X017766Y022313D03*
X019006Y01694D03*D25*X017913Y009646D03*D18*X035453Y023986D03*
X041456Y01944D03*X006693Y019094D03*D25*X023031Y009646D03*D18*
X039173Y008268D03*X034702Y024021D03*D25*X012628Y024321D03*D18*
X03315Y021378D03*D25*X032902Y02464D03*D15*X033Y024738D02*
X033035Y024773D01*X032902Y024778D02*Y024828D01*X032805Y024738D02*
X03277Y024773D01*X032765Y02464D02*X032715D01*X032805Y024543D02*
X03277Y024507D01*X032902Y024502D02*Y024452D01*X033Y024543D02*
X033035Y024507D01*X03304Y02464D02*X03309D01*D25*X042702Y02429D03*D15*
X0428Y024388D02*X042835Y024423D01*X042702Y024428D02*Y024478D01*
X042605Y024388D02*X04257Y024423D01*X042565Y02429D02*X042515D01*
X042605Y024193D02*X04257Y024157D01*X042702Y024152D02*Y024102D01*
X0428Y024193D02*X042835Y024157D01*X04284Y02429D02*X04289D01*D18*
X034452Y02164D03*X024642Y002575D03*D25*X022079Y02399D03*D18*
X029528Y012598D03*X02998Y023652D03*X012697Y015118D03*X01313Y024823D03*
X014567Y020906D03*D25*X030709Y01437D03*X007874Y009252D03*D18*
X011614Y016929D03*X019291Y010433D03*X030482Y023484D03*
X024016Y008268D03*X020529Y024356D03*D25*X024429Y02464D03*D15*
X024527Y024738D02*X024562Y024773D01*X024429Y024778D02*Y024828D01*
X024332Y024738D02*X024296Y024773D01*X024291Y02464D02*X024241D01*
X024332Y024543D02*X024296Y024507D01*X024429Y024502D02*Y024452D01*
X024527Y024543D02*X024562Y024507D01*X024567Y02464D02*X024617D01*D18*
X041644Y02499D03*X040846Y015118D03*D25*X009256Y02464D03*D15*
X009353Y024738D02*X009389Y024773D01*X009256Y024778D02*Y024828D01*
X009158Y024738D02*X009123Y024773D01*X009118Y02464D02*X009068D01*
X009158Y024543D02*X009123Y024507D01*X009256Y024502D02*Y024452D01*
X009353Y024543D02*X009389Y024507D01*X009394Y02464D02*X009444D01*D18*
X006356Y023686D03*X01122Y016929D03*X013543Y021299D03*X006299Y019094D03*
X00376Y022146D03*X041476Y024823D03*X041181Y015118D03*X02747Y022146D03*
X027256Y01514D03*X039469Y006496D03*X013031Y014783D03*X012963Y023317D03*
X039665Y004331D03*D12*X039729Y004394D02*X039722Y004387D01*
X039665Y004421D02*Y004411D01*X039602Y004394D02*X039609Y004387D01*
X039575Y004331D02*X039585D01*X039755D02*X039745D01*D18*
X047185Y014232D03*D29*X014075Y004429D03*D25*X007874Y00748D03*D18*
X039665Y004724D03*D12*X039729Y004788D02*X039722Y004781D01*
X039665Y004814D02*Y004804D01*X039602Y004788D02*X039609Y004781D01*
X039575Y004724D02*X039585D01*X039755D02*X039745D01*D25*
X004906Y02429D03*D15*X005003Y024388D02*X005039Y024423D01*
X004906Y024428D02*Y024478D01*X004808Y024388D02*X004773Y024423D01*
X004768Y02429D02*X004718D01*X004808Y024193D02*X004773Y024157D01*
X004906Y024152D02*Y024102D01*X005003Y024193D02*X005039Y024157D01*
X005044Y02429D02*X005094D01*D25*X018729Y02359D03*D15*X018827Y023688D02*
X018862Y023723D01*X018729Y023728D02*Y023778D01*X018632Y023688D02*
X018596Y023723D01*X018591Y02359D02*X018541D01*X018632Y023493D02*
X018596Y023457D01*X018729Y023452D02*Y023402D01*X018827Y023493D02*
X018862Y023457D01*X018867Y02359D02*X018917D01*D18*X014429Y014783D03*
X01313Y022815D03*X006106Y02164D03*X015974Y02315D03*X011614Y008268D03*
D25*X025591Y018701D03*D18*X013297Y02248D03*X0156Y017126D03*D25*
X02815Y018701D03*X032902Y02359D03*D15*X033Y023688D02*X033035Y023723D01*
X032902Y023728D02*Y023778D01*X032805Y023688D02*X03277Y023723D01*
X032765Y02359D02*X032715D01*X032805Y023493D02*X03277Y023457D01*
X032902Y023452D02*Y023402D01*X033Y023493D02*X033035Y023457D01*
X03304Y02359D02*X03309D01*D18*X029203Y010433D03*X031604Y022982D03*D25*
X025591Y016535D03*X025213Y002378D03*D15*X02531Y002475D02*
X025345Y002511D01*X025213Y002516D02*Y002566D01*X025115Y002475D02*
X02508Y002511D01*X025075Y002378D02*X025025D01*X025115Y002281D02*
X02508Y002245D01*X025213Y00224D02*Y00219D01*X02531Y002281D02*
X025345Y002245D01*X02535Y002378D02*X0254D01*D11*X041142Y022815D02*
X041144Y022579D01*X041337Y021389D01*X041525Y021148D01*
X042521Y019881D01*X042671Y019341D01*Y019039D01*X042621Y016689D01*
X042579Y015118D01*X030482Y02315D02*X030844Y021381D01*X03109Y019911D01*
X03124Y019611D01*X031721Y01912D01*Y015328D01*X031428Y014874D01*
X031321Y013329D01*X030396Y012334D01*X028938Y010543D01*
X028762Y008998D01*X028403Y008639D01*X027161Y007803D01*
X025679Y006874D01*X022943D01*X022819Y006998D01*X02185Y008268D01*
X015807Y024656D02*X015697Y024586D01*X015542Y024431D01*
X014942Y023675D01*X014941Y022124D01*Y021656D01*X015195Y021035D01*
X015241Y020789D01*X015521Y020287D01*X015603Y019066D01*
X015767Y018872D01*X01611Y017588D01*Y017058D01*X015567Y01566D01*
X013366Y012943D01*X035285Y024154D02*X035137Y023759D01*Y023622D01*
X035168Y023315D01*X036887Y02133D01*X037043Y021175D01*X039324Y019459D01*
X039538Y019246D01*X039599Y010365D01*X039695Y010268D01*X039832D01*
X041033Y011205D01*X041158Y011329D01*X041909Y012608D01*X027303Y02315D02*
X027539Y023147D01*X027635Y023051D01*X028794Y021409D01*Y021272D01*
X028575Y020974D01*Y020837D01*X029067Y02001D01*X029693Y019163D01*
X030056Y01761D01*Y016976D01*X028962Y015411D01*X028486Y014935D01*
X027256Y01479D01*D25*X017913Y017913D02*X017588Y01667D01*Y016007D01*
X017779Y015816D01*X017913Y015748D01*X016956Y014455D01*X01668Y013034D01*
X01568Y009511D01*X015489Y00932D01*X015354Y009252D01*X01568Y008009D01*
Y007345D01*X015489Y007155D01*X015354Y007087D01*D11*X042579Y014783D02*
X042744Y01505D01*X04275Y017736D01*X042771Y018998D01*Y019383D01*
X042621Y019923D01*X041625Y021189D01*X041437Y02143D01*X041311Y022245D01*
X041309Y022648D01*X036752Y02454D02*X03622Y025472D01*X024409Y008268D02*
X02572Y008187D01*X026465Y008003D01*X027078D01*X028321Y008839D01*
X028562Y009081D01*X028738Y010626D01*X030196Y012417D01*
X031121Y013412D01*X031228Y014956D01*X031521Y015411D01*Y019037D01*
X03104Y019528D01*X03089Y019828D01*X030644Y021298D01*X030148Y02315D01*
X016447Y008258D02*X016282Y010365D01*Y010501D01*X017399Y013922D01*
X017499Y01423D01*X017501Y014541D01*X018226Y015618D01*Y01883D01*
X018142Y02017D01*X017959Y020353D01*X017546Y020425D01*X017391Y02058D01*
X017001Y021996D01*X016966Y022455D01*Y02284D01*X017166Y023427D01*
X017792Y024152D01*Y024328D01*X017664Y024572D01*Y024709D01*
X017761Y024805D01*X017854Y024892D01*X026969Y010433D02*
X028238Y011205D01*X028362Y011329D01*X029299Y01253D01*X029363Y012667D01*
X030396Y0145D01*X031121Y015577D01*Y018872D01*X03064Y019362D01*
X03049Y019662D01*X030244Y021133D01*X029615Y023166D01*Y023468D01*
X029815Y02372D01*X029912Y023817D01*X030148Y023819D01*X043415Y017461D02*
X043485Y01757D01*X043717Y017825D01*Y018789D01*X043389Y023D01*
Y023634D01*X043989Y024389D01*X044085Y024486D01*X044321Y024488D01*
X003681Y024892D02*X003588Y024805D01*X003491Y024709D01*Y024572D01*
X003619Y024328D01*Y024152D01*X002993Y023427D01*X002893Y022799D01*
Y022496D01*X003291Y02058D01*X003446Y020425D01*X00371Y020252D01*
X003835Y020128D01*X003846Y019202D01*Y019066D01*X00374Y016929D01*
X02126Y023425D02*X022814Y021372D01*X022911Y021275D01*X024193Y020252D01*
X025074Y01937D01*X025327Y01505D01*X025758Y014618D01*X025895D01*
X026606Y01479D01*X026575Y008268D02*X025378Y011329D01*X024978Y013329D01*
X024827Y014843D01*X024574Y019163D01*X023986Y019752D01*
X022704Y020775D01*X022314Y021165D01*X020514Y023172D01*X020479Y02334D01*
X007087Y023425D02*X008874Y021805D01*X008971Y021709D01*
X009271Y021359D01*X009363Y021231D01*X009459Y021134D01*
X009938Y020775D01*X010626Y020544D01*X012696Y019125D01*X012916D01*
X013056Y01914D01*X041644Y02248D02*X042267Y0218D01*Y02158D01*
X042215Y021419D01*Y021199D01*X042921Y020047D01*X043071Y019507D01*
Y018873D01*X04305Y017612D01*X043044Y014925D01*X042414Y013011D01*
X042409Y012875D01*X042244Y012608D01*X020768Y026083D02*
X020669Y025591D01*X01998Y024587D01*X019714Y023657D01*Y023023D01*
X020179Y02189D01*X042579Y012608D02*X042744Y012875D01*X043244Y014843D01*
X04325Y017529D01*X043271Y01879D01*Y01959D01*X043121Y02013D01*
X042748Y020837D01*Y020974D01*X042967Y021272D01*Y021409D01*
X041644Y022982D01*X029291Y017293D02*X028362Y018789D01*
X026764Y021223D01*X026704Y022705D01*Y022925D01*X026859Y02308D01*
X026969Y02315D01*X017598Y022815D02*X017363Y022813D01*X017266Y022716D01*
Y022579D01*X017301Y02212D01*X017368Y021912D01*X017714Y021056D01*
X018442Y020294D01*X018526Y018955D01*X018533Y014613D01*
X018733Y010365D01*X019518Y008258D01*X006604Y024488D02*
X006424Y024521D01*X006288D01*X006191Y024424D01*X005541Y023657D01*
Y023023D01*X005641Y022882D01*X007591Y020365D01*X00798Y019975D01*
X009445Y019559D01*X009717Y019287D01*Y016737D01*X009617Y014613D01*
X009417Y01253D01*X009087Y010501D01*X008819Y008258D01*X003848D02*
X003683Y010365D01*X003575Y01253D01*Y012667D01*X004515Y01689D01*
Y019202D01*X004161Y019788D01*X004035Y02021D01*X003641Y021098D01*
X003295Y021953D01*X003093Y022579D01*Y022716D01*X003258Y022982D01*
X006523Y023854D02*X006288Y023851D01*X006191Y023755D01*
X005941Y023491D01*Y023189D01*X006041Y023048D01*X007991Y02053D01*
X008146Y020375D01*X00961Y019959D01*X010117Y019453D01*X010646Y018789D01*
X01122Y014764D01*X015807Y023317D02*X015809Y023081D01*X016271Y021216D01*
X016621Y019733D01*X01681Y017878D01*Y016768D01*X016343Y014709D01*
X016067Y013287D01*X01565Y01287D01*X015225Y012518D01*X015042Y012334D01*
X014338Y008199D01*X014242Y008103D01*X013711D01*X012707Y009039D01*
X012582Y009164D01*X011614Y010433D01*X024979Y02184D02*X025492Y025984D01*
X012963Y024656D02*X012205Y024534D01*X012081Y024409D01*Y023898D01*
X012265Y021955D01*X012391Y02114D01*X013521Y019333D01*X013597Y018858D01*
X014421Y01705D01*Y01683D01*X013101Y015228D01*X013031Y015118D01*
X00374Y012598D02*X004515Y014715D01*X004615Y016849D01*Y019244D01*
X004261Y019829D01*X004135Y020252D01*X003741Y021139D01*
X003395Y021994D01*X003328Y022203D01*X003258Y022648D01*X042306Y01919D02*
X042221Y019757D01*X041225Y021024D01*X041037Y021265D01*
X040777Y022664D01*Y022966D01*X040974Y023317D01*X041181Y014783D02*
X041346Y01505D01*X041891Y016991D01*X041921Y017089D01*Y017391D01*
X041841Y018998D01*X041821Y019591D01*X040825Y020858D01*
X040637Y021099D01*X040377Y022498D01*Y023132D01*X040427Y024409D01*
X040552Y024534D01*X041309Y024656D01*X003656Y02514D02*X002968Y024953D01*
X002843Y024828D01*X002793Y02284D01*Y022455D01*X002843Y019952D01*
X002993Y019652D01*X003118Y019527D01*X003681Y019134D01*
X003593Y022982D02*X003828Y02298D01*X005818Y021111D01*X005974Y020956D01*
X007158Y019287D01*Y016737D01*X006958Y012489D01*X006528Y010501D01*
Y010365D01*X006919Y008258D01*X006299Y010433D02*X006858Y01253D01*
X007058Y016778D01*Y019246D01*X005874Y020915D01*X005777Y021011D01*
X00387Y022745D01*X00376Y022815D01*X032106Y022146D02*X032287Y021222D01*
X033015Y02046D01*X033481Y018789D01*X034252Y012598D01*X010806Y02184D02*
X011319Y026083D01*X006506Y02324D02*X008341Y021248D01*X008613Y020975D01*
X009776Y020359D01*X010365Y019914D01*X011683Y019259D01*
X011779Y019163D01*X012482Y013453D01*X013008Y012293D01*X01378Y010433D01*
X028956Y01434D02*X028362Y013495D01*X028238Y01337D01*X025502D01*
X025378Y013495D01*X025227Y015008D01*X024974Y019329D01*
X024151Y020152D01*X022869Y021175D01*X022714Y02133D01*X021095Y023357D01*
Y023494D01*X021129Y02369D01*X006772Y024321D02*X006691Y0238D01*
Y02358D01*X006722Y023274D01*X008441Y021289D01*X008655Y021075D01*
X009813Y020475D01*X010501Y020244D01*X011724Y019359D01*
X011879Y019204D01*X012582Y013495D01*X013366Y012608D01*
X008858Y014764D02*X009417Y016861D01*Y019163D01*X00932Y019259D01*
X007856Y019675D01*X005996Y021375D01*X00387Y023415D01*X003661Y023482D01*
X003524D01*X003428Y023385D01*X003425Y02315D01*X028632Y017461D02*
X028366Y017626D01*X028061Y017701D01*X027937Y017825D01*X027634Y01937D01*
X027534Y019722D01*X026664Y021182D01*X026604Y022664D01*Y022966D01*
X026801Y023317D01*X042244Y015118D02*X042421Y016772D01*
X042471Y019122D01*Y019259D01*X042321Y019798D01*X041325Y021065D01*
X041137Y021306D01*X040877Y022705D01*Y022925D01*X041032Y02308D01*
X041142Y02315D01*X030148Y024488D02*X029912Y024486D01*X029815Y024389D01*
X029215Y023634D01*Y023D01*X029314Y021739D01*X029993Y019287D01*
X030356Y017734D01*Y016852D01*X029881Y014693D01*X029726Y014538D01*
X028321Y01317D01*X027156Y013108D01*X02689Y012943D01*X003593Y022313D02*
X003595Y022077D01*X003941Y021222D01*X004335Y020335D01*
X004461Y019912D01*X005528Y018789D01*X006299Y016929D01*X032002Y02464D02*
X032065Y02437D01*Y024111D01*X031439Y023385D01*X031339Y022757D01*
Y022538D01*X031374Y022079D01*X031691Y020622D01*X031788Y020525D01*
X032173Y020453D01*X032415Y020211D01*Y019869D01*X032291Y019409D01*
X032221Y017172D01*X031921Y015246D01*X031693Y014764D01*
X012795Y022815D02*X012765Y022464D01*Y022162D01*X012891Y021348D01*
X014021Y01954D01*X014097Y019066D01*X014921Y017257D01*Y016623D01*
X014429Y015118D01*X032056Y01724D02*X032191Y01945D01*X032315Y019911D01*
Y02017D01*X032132Y020353D01*X031746Y020425D01*X031591Y02058D01*
X031274Y022038D01*X031239Y022496D01*Y022799D01*X031339Y023427D01*
X031965Y024152D01*Y024328D01*X031837Y024572D01*Y024709D01*
X031934Y024805D01*X032028Y024892D01*X027136Y024656D02*
X027014Y023898D01*X026889Y023773D01*X026691Y023582D01*
X026536Y023427D01*X026404Y023049D01*Y022581D01*X026464Y021099D01*
X027334Y019639D01*X027434Y019287D01*X027737Y017742D01*
X027979Y017501D01*X028229Y017296D01*X028366Y017291D01*
X028632Y017126D01*X031604Y022648D02*X031574Y022464D01*Y022162D01*
X031887Y021056D01*X032615Y020294D01*X032721Y01945D01*X032745Y017039D01*
Y016819D01*X031621Y013205D01*X031021Y011288D01*X029203Y008258D01*
X012795Y02315D02*X012686Y02308D01*X01253Y022925D01*Y022705D01*
X012565Y022079D01*X012691Y021265D01*X013821Y019457D01*
X013897Y018983D01*X014721Y017174D01*Y016706D01*X013929Y015186D01*
Y01505D01*X014094Y014783D01*X014429Y012943D02*X015442Y01337D01*
X015567Y013495D01*X015843Y014916D01*X01631Y016975D01*Y017671D01*
X016033Y019244D01*X015891Y01943D01*X015721Y02037D01*X015441Y020872D01*
X015395Y021118D01*X015141Y021739D01*Y022041D01*X015142Y023592D01*
X015542Y024096D01*X015697Y024251D01*X015807Y024321D01*
X012963Y022982D02*X012727Y02298D01*X01263Y022883D01*Y022747D01*
X012665Y02212D01*X012791Y021306D01*X013921Y019498D01*X013997Y019024D01*
X014821Y017216D01*Y016665D01*X014094Y015118D01*X015266Y017126D02*
X015101Y017392D01*X014942Y017742D01*X014527Y019244D01*
X014321Y019664D01*X013191Y021472D01*X013132Y022077D01*X01313Y022313D01*
X017234Y01184D02*X017399Y012172D01*X017599Y014189D01*X017601Y0145D01*
X018326Y015577D01*Y018872D01*X018242Y020211D01*X018Y020453D01*
X017588Y020525D01*X017491Y020622D01*X017101Y022038D01*
X017066Y022496D01*Y022799D01*X017266Y023385D01*X017892Y024111D01*
Y02437D01*X017829Y02464D01*X031939Y023317D02*X032175Y023315D01*
X032271Y023218D01*X03614Y01883D01*X036811Y014764D01*X034646Y008268D02*
X035614Y006998D01*X035739Y006874D01*X040815Y006774D01*X043634D01*
X043817Y006957D01*X044117Y008998D01*X044717Y017411D01*
X044817Y020582D01*Y021298D01*X044656Y02315D01*X020696Y024188D02*
X020461Y024186D01*X020364Y024089D01*X019914Y023574D01*Y023106D01*
X022115Y019204D01*X022819Y013495D01*X024055Y010433D01*
X018898Y014764D02*X018841Y016872D01*X018826Y019079D01*
X018742Y020418D01*X018014Y02118D01*X017668Y022036D01*X017601Y022245D01*
Y022381D01*X017697Y022478D01*X017933Y02248D01*X014429Y012608D02*
X015525Y01317D01*X015767Y013412D01*X016043Y014833D01*X01651Y016892D01*
Y017754D01*X016321Y019609D01*X015971Y021091D01*X015442Y023166D01*
Y023468D01*X015642Y02372D01*X015739Y023817D01*X015974Y023819D01*
X03563Y023622D02*X03875Y021118D01*X038874Y020994D01*X040056Y01944D01*
X024075Y014764D02*X023244Y016624D01*X022719Y017784D01*
X022315Y019287D01*X020114Y023189D01*Y023491D01*X020364Y023755D01*
X020461Y023851D01*X020696Y023854D01*X034941Y025984D02*
X034843Y025591D01*X034134Y024567D01*X033687Y02374D01*Y02294D01*
X034352Y02189D01*X01122Y012598D02*X010646Y016624D01*X01022Y017825D01*
X010017Y019411D01*X009569Y019859D01*X008105Y020275D01*
X007891Y020489D01*X005941Y023006D01*X005841Y023148D01*Y023533D01*
X006091Y023796D01*X006246Y023951D01*X006356Y024021D01*X020529D02*
X020419Y023951D01*X020264Y023796D01*X020014Y023533D01*Y023148D01*
X022215Y019246D01*X022819Y01566D01*X024055Y012598D01*X003656Y02464D02*
X003719Y02437D01*Y024111D01*X003093Y023385D01*X002993Y022757D01*
Y022538D01*X003391Y020622D01*X003488Y020525D01*X003752Y020352D01*
X003935Y020169D01*X003946Y019244D01*Y019024D01*X003905Y016861D01*
X00374Y014764D01*D18*X00689Y003543D02*Y002264D01*X007576Y002427D01*
X008957Y002953D01*X009547D01*X010039Y002657D01*D11*X016156Y01954D02*
X015871Y02105D01*X015341Y021822D01*Y021959D01*X015342Y02351D01*
X015542Y023761D01*X015697Y023917D01*X015807Y023986D01*X019106Y01924D02*
X018942Y020501D01*X018444Y021359D01*X018347Y021455D01*
X018261Y021475D01*X018164Y021572D01*X017933Y022146D01*X006956Y02369D02*
X006922Y023494D01*Y023357D01*X008641Y021372D01*X008738Y021275D01*
X009896Y020675D01*X010584Y020444D01*X012655Y019025D01*
X012883Y018914D01*X013008Y018789D01*X01378Y016929D01*X007106Y023986D02*
X010838Y021075D01*X011224Y020905D01*X012806Y01939D01*X032313Y008258D02*
X031922Y010365D01*Y010501D01*X032842Y012727D01*X033042Y014809D01*
X033045Y016695D01*Y017163D01*X033021Y019574D01*X032915Y020418D01*
X032187Y02118D01*X031941Y022077D01*X031939Y022313D01*X017829Y02514D02*
X017141Y024953D01*X017016Y024828D01*X016866Y022882D01*Y022414D01*
X016901Y021955D01*X017291Y020539D01*X017505Y020325D01*
X017917Y020253D01*X018042Y020128D01*X018126Y018789D01*Y01566D01*
X017401Y014582D01*X017399Y014272D01*X017234Y01399D01*X006693Y010433D02*
X007661Y009164D01*X007786Y009039D01*X008751Y008093D01*
X010304Y006774D01*X012925D01*X014407Y007703D01*X014738Y008034D01*
X015142Y010128D01*X015767Y011246D01*X016467Y013122D01*
X016743Y014543D01*X01721Y016602D01*Y018044D01*X017021Y019898D01*
X016474Y023218D01*X016309Y023484D01*X027136Y022982D02*X0269Y02298D01*
X026804Y022883D01*Y022747D01*X026864Y021265D01*X028297Y019301D01*
X014156Y01694D02*X013397Y018776D01*X013321Y01925D01*X012191Y021058D01*
X012065Y021872D01*X011881Y023815D01*Y024492D01*X012122Y024734D01*
X013062Y024988D01*X013297Y02499D01*X027303Y022815D02*X027539Y022645D01*
X027635Y022549D01*X027994Y021759D01*X028042Y021199D01*
X028867Y019928D01*X029322Y019285D01*X029363Y019026D01*
X029956Y017569D01*Y017018D01*X028862Y015453D01*X028445Y015035D01*
X027188Y014955D01*X026956Y01479D01*X02747Y023317D02*X02758Y023247D01*
X027735Y023092D01*X029268Y020994D01*X029793Y019204D01*
X030156Y017652D01*Y016935D01*X029616Y014803D01*X01378Y008268D02*
X012582Y011329D01*X011779Y016997D01*X011385Y019163D01*
X011289Y019259D01*X010323Y019814D01*X009735Y020259D01*
X008572Y020875D01*X008241Y021206D01*X006341Y023172D01*X006306Y02334D01*
X021457Y012598D02*X02026Y01566D01*X019948Y020344D01*X019819Y021033D01*
X018198Y022925D01*X018043Y02308D01*X017933Y02315D01*X029528Y019094D02*
X029422Y019326D01*X028967Y019969D01*X028142Y021241D01*X028094Y0218D01*
X027735Y02259D01*X02747Y022982D01*X042126Y008661D02*X043717Y011329D01*
X044217Y017618D01*X044317Y020789D01*Y021091D01*X044217Y022041D01*
X043889Y023207D01*Y023427D01*X044044Y023582D01*X044154Y023652D01*
X014262Y019134D02*X014121Y019581D01*X012991Y021389D01*
X012865Y022203D01*Y022423D01*X012963Y022648D01*X020679Y02324D02*
X022414Y021206D01*X022745Y020875D01*X024027Y019852D01*
X024674Y019204D01*X024927Y014884D01*X025078Y01337D01*X025803Y012293D01*
X026575Y010433D01*X037205D02*X038173Y009164D01*X039008Y008199D01*
X039105Y008103D01*X039832D01*X040815Y008187D01*X041842Y0082D01*
X043634Y008939D01*X043817Y009122D01*X044417Y017535D01*
X044517Y020706D01*Y021174D01*X044417Y022124D01*X044156Y023081D01*
X044154Y023317D01*X008806Y02164D02*Y02144D01*X022362Y025709D02*
X022729Y02474D01*X034252Y019094D02*X033063Y021073D01*X032767Y02195D01*
X032271Y022883D01*X032175Y02298D01*X031939Y022982D01*X027136Y022648D02*
X027038Y022423D01*Y022203D01*X027064Y021348D01*X028562Y019411D01*
X028692Y019024D01*X029556Y017403D01*Y017184D01*X028462Y015618D01*
X028279Y015435D01*X02802D01*X027407Y015505D01*X027105D01*
X026796Y015405D01*X026538Y015305D01*X025827Y014783D01*X031956Y01934D02*
X032215Y019952D01*Y020128D01*X032091Y020253D01*X031705Y020325D01*
X031491Y020539D01*X031174Y021996D01*X031139Y022455D01*Y02284D01*
X03119Y024828D01*X031314Y024953D01*X032002Y02514D01*X006693Y026083D02*
X006496Y025591D01*X005807Y024567D01*X005341Y02374D01*Y02294D01*
X006006Y02189D01*X004035Y025551D02*X006102Y026378D01*X006791D01*
X009756Y02544D01*X01063Y02628D01*X011516D01*X01306Y025874D01*
X014456Y02544D01*X015453Y026378D01*X01624D01*X019179Y02549D01*
X020177Y02628D01*X020965D01*X022431Y025874D01*X023929Y02544D01*
X024902Y02628D01*X025591D01*X027234Y025874D01*X028629Y02544D01*
X029528Y026378D01*X030118D01*X033352Y02549D01*X03435Y02628D01*
X035039D01*X036604Y025874D01*X038109Y025465D01*X039075Y02628D01*
X041407Y025874D01*X042802Y02544D01*X013297Y023317D02*X013407Y023247D01*
X013562Y023092D01*X015095Y020994D01*X015141Y020748D01*
X015421Y020246D01*X015456Y01939D01*X015503Y019024D01*X015667Y01883D01*
X015945Y01752D01*X041644Y022146D02*X042071Y021855D01*X042167Y021759D01*
Y021622D01*X042115Y02146D01*Y021158D01*X042821Y020006D01*
X042971Y019466D01*Y018915D01*X04295Y017653D01*X042944Y014967D01*
X042844Y014674D01*X042244Y012943D01*X028297Y017461D02*X02802Y017601D01*
X027837Y017784D01*X027534Y019329D01*X027434Y019681D01*X026564Y02114D01*
X026504Y022622D01*Y023008D01*X026636Y023385D01*X026733Y023482D01*
X02687D01*X027136Y023317D01*X008858Y019094D02*X007773Y019475D01*
X005913Y021175D01*X00387Y02308D01*X00376Y02315D01*X01122Y019094D02*
X010282Y019714D01*X009693Y020159D01*X00853Y020775D01*X008141Y021165D01*
X006241Y02313D01*X006141Y023272D01*Y023409D01*X006238Y023505D01*
X006523Y023519D01*X037152Y02144D02*Y02164D01*X01122Y008268D02*
X010646Y012293D01*X01022Y013495D01*X009817Y019329D01*X009486Y019659D01*
X008022Y020075D01*X007691Y020406D01*X005741Y022923D01*
X005641Y023065D01*Y023616D01*X006091Y024131D01*X006246Y024286D01*
X006356Y024356D01*X034652Y02334D02*X034687Y023172D01*X036587Y021206D01*
X036918Y020875D01*X039173Y019094D01*X034702Y023686D02*
X034543Y023605D01*X034387Y02345D01*Y02323D01*X034487Y023089D01*
X036767Y020709D01*X038599Y018789D01*X039173Y014764D01*X02061Y024823D02*
X022209Y024653D01*X022392Y02447D01*X023228Y023091D01*X025147Y021405D01*
X025244Y021309D01*X026969Y019488D01*X014173Y010433D02*
X014842Y012417D01*X015142Y012718D01*X015567Y01307D01*X015867Y01337D01*
X016143Y014792D01*X01661Y016851D01*Y017795D01*X016421Y01965D01*
X016071Y021133D01*X015542Y023207D01*Y023427D01*X015697Y023582D01*
X015807Y023652D01*X031939Y022648D02*X031774Y022381D01*Y022245D01*
X032087Y021139D01*X032815Y020377D01*X032921Y019533D01*
X032945Y017122D01*Y016737D01*X032942Y014851D01*X031693Y010433D01*D25*
X030669Y010039D02*X030804Y009971D01*X030995Y009781D01*Y009117D01*
X030669Y007874D01*X033268D01*X032942Y009117D01*Y009781D01*
X033133Y009971D01*X033268Y010039D01*D11*X017431Y023317D02*
X017501Y023427D01*X017656Y023582D01*X017876D01*X018084Y023515D01*
X018298Y023301D01*X020119Y021157D01*X021506Y01909D01*X034852Y02324D02*
X036687Y021248D01*X03696Y020975D01*X039242Y019259D01*X039338Y019163D01*
Y01253D01*X039173Y010433D01*X00376Y02248D02*X004321Y021909D01*
X004617Y021032D01*X005008Y020641D01*X005622Y020344D01*
X006761Y019259D01*X006858Y019163D01*Y016861D01*X006299Y014764D01*
X006939Y024154D02*X006791Y023759D01*Y023622D01*X006822Y023315D01*
X008541Y02133D01*X008696Y021175D01*X009855Y020575D01*X010543Y020344D01*
X011765Y019459D01*X011979Y019246D01*X012532Y01505D01*X012963Y014618D01*
X0131D01*X013366Y014783D01*X026555Y012608D02*X025461Y01327D01*
X025278Y013453D01*X025127Y014967D01*X024874Y019287D01*X02411Y020052D01*
X022828Y021075D01*X022614Y021289D01*X020995Y023315D01*
X020964Y023622D01*Y023759D01*X021112Y024154D01*X036811Y016929D02*
X03624Y018872D01*X032371Y023259D01*X032216Y023415D01*X032007Y023482D01*
X031871D01*X031774Y023385D01*X031772Y02315D01*X017598D02*
X017601Y023385D01*X017697Y023482D01*X017834D01*X018043Y023415D01*
X018198Y023259D01*X020019Y021116D01*X021506Y01694D01*X042244Y014783D02*
X042409Y01505D01*X042414Y015186D01*X042521Y01673D01*X042571Y01908D01*
Y0193D01*X042421Y01984D01*X041425Y021107D01*X041237Y021348D01*
X040977Y022747D01*Y022883D01*X041073Y02298D01*X041309Y022982D01*
X036811Y008268D02*X03704Y010501D01*X03747Y012489D01*X03767Y014571D01*
Y019287D01*X037397Y019559D01*X036451Y020275D01*X036237Y020489D01*
X034187Y022965D01*X034087Y023106D01*Y023574D01*X034537Y024089D01*
X034634Y024186D01*X03487Y024188D01*X028987Y017116D02*X028897Y017016D01*
X028742Y016861D01*X028187D01*X028032Y017016D01*X027437Y017618D01*
X027134Y019163D01*X027037Y019259D01*X0269Y019323D01*X025261Y020575D01*
X025164Y020672D01*X023128Y023049D01*X022292Y024428D01*
X022167Y024553D01*X021641D01*X020778Y024488D01*D25*X017913Y01437D02*
X018048Y014302D01*X018239Y014111D01*Y013448D01*X017913Y012205D01*
X018048Y012137D01*X018239Y011946D01*Y011282D01*X017913Y010039D01*
X018048Y009971D01*X018239Y009781D01*Y009117D01*X017913Y007874D01*
X020472D01*X020147Y009117D01*Y009781D01*X020338Y009971D01*
X020472Y010039D01*D11*X003848Y010433D02*X004515Y01254D01*
X004715Y016807D01*Y019285D01*X004361Y019871D01*X004235Y020293D01*
X003841Y02118D01*X003495Y022036D01*X003428Y022245D01*X003425Y022815D01*
X017766Y022648D02*X017656Y022578D01*X017501Y022423D01*Y022203D01*
X017568Y021994D01*X017914Y021139D01*X018642Y020377D01*
X018726Y019037D01*X018733Y014695D01*X018898Y012598D01*
X034213Y010433D02*X034536Y010698D01*X035915Y011205D01*X03604Y011329D01*
X036821Y012572D01*X03737Y014695D01*Y019163D01*X037273Y019259D01*
X036327Y019975D01*X035937Y020365D01*X033887Y02284D01*X033787Y022982D01*
Y023698D01*X034437Y024465D01*X034783Y024823D01*X020696Y023519D02*
X020411Y023505D01*X020314Y023409D01*Y023272D01*X020414Y02313D01*
X022264Y020572D01*X022361Y020475D01*X024056Y01909D01*X034252Y016929D02*
X033215Y020543D01*X032963Y021032D01*X032667Y021909D01*
X032271Y022549D01*X032106Y022815D01*X036811Y019094D02*
X032257Y023515D01*X032049Y023582D01*X031829D01*X031674Y023427D01*
X031604Y023317D01*X018898Y010433D02*X018733Y01253D01*X018633Y014654D01*
X018626Y018996D01*X018542Y020335D01*X017814Y021098D01*
X017468Y021953D01*X017401Y022162D01*Y022464D01*X017431Y022648D01*
X027303Y022313D02*X027264Y02195D01*Y02143D01*X027452Y021189D01*
X029122Y019202D01*X029163Y018943D01*X029756Y017486D01*Y017101D01*
X028662Y015536D01*X028362Y015235D01*X027937D01*X027324Y015305D01*
X027188D01*X026906Y01514D01*X026606Y01694D02*X025502Y017701D01*
X025378Y017825D01*X025174Y019411D01*X023536Y021231D01*
X023444Y021359D01*X023144Y021709D01*X021457Y023622D01*
X041309Y023317D02*X041043Y023482D01*X040906D01*X040809Y023385D01*
X040677Y023008D01*Y022622D01*X040937Y021223D01*X041125Y020982D01*
X042121Y019716D01*X042141Y019122D01*X042256Y01684D01*X016309Y02315D02*
X016921Y019857D01*X01711Y018002D01*Y016643D01*X016643Y014585D01*
X016367Y013163D01*X015667Y011288D01*X015042Y010169D01*
X014638Y008075D01*X014366Y007803D01*X012883Y006874D01*X010345D01*
X01022Y006998D01*X009252Y008268D01*X042323Y010433D02*X043717Y013495D01*
X044117Y01766D01*X044217Y02083D01*Y02105D01*X044117Y022D01*
X043789Y023166D01*Y023468D01*X043989Y02372D01*X044085Y023817D01*
X044321Y023819D01*X008556Y02474D02*X008189Y025709D01*X015266Y017461D02*
X015042Y017784D01*X014627Y019285D01*X013769Y021158D01*Y02146D01*
X013821Y021622D01*Y021759D01*X013724Y021855D01*X013297Y022146D01*
X044656Y023484D02*X044821Y023218D01*X044917Y02134D01*Y02054D01*
X044817Y01737D01*X044217Y008957D01*X043917Y006916D01*X043675Y006674D01*
X040774D01*X035697Y006774D01*X034144Y008093D01*X034048Y00819D01*
X033481Y010128D01*X033356Y010252D01*X032087Y010433D01*X01122D02*
X010646Y014458D01*X01022Y01566D01*X009917Y01937D01*X009527Y019759D01*
X008063Y020175D01*X007791Y020448D01*X005841Y022965D01*
X005741Y023106D01*Y023574D01*X006191Y024089D01*X006288Y024186D01*
X006523Y024188D01*X014094Y012943D02*X015667Y015618D01*X01621Y017016D01*
Y017629D01*X015933Y019202D01*X015791Y019389D01*X015621Y020328D01*
X015341Y02083D01*X015295Y021077D01*X015041Y021698D01*Y022083D01*
X015042Y023634D01*X015642Y024389D01*X015739Y024486D01*
X015974Y024488D01*X032106Y02248D02*X032271Y022214D01*X032337Y021572D01*
X032434Y021475D01*X032521Y021455D01*X032617Y021359D01*
X033115Y020501D01*X033581Y01883D01*X034252Y014764D01*X013456Y01694D02*
X013711Y016764D01*X013848D01*X013945Y016861D01*Y016997D01*
X013297Y018734D01*X013221Y019209D01*X013124Y019305D01*X012988D01*
X012874Y019225D01*X012738D01*X010403Y021118D01*X007283Y023622D01*
X039764Y010433D02*X040732Y012293D01*X042074Y014715D01*
X042091Y016909D01*X042121Y017006D01*Y017474D01*X042041Y01908D01*
X042021Y019674D01*X041025Y020941D01*X040837Y021182D01*
X040577Y022581D01*Y023049D01*X040709Y023427D01*X040865Y023582D01*
X041084D01*X041377Y023482D01*X041474Y023385D01*X041476Y02315D01*
X008858Y012598D02*X009417Y014695D01*X009517Y016819D01*Y019204D01*
X009362Y019359D01*X007898Y019775D01*X006038Y021475D01*
X003911Y023515D01*X003702Y023582D01*X003483D01*X003328Y023427D01*
X003258Y023317D01*X041556Y01724D02*X040857Y017701D01*X040732Y017825D01*
X040029Y019204D01*X039874Y019359D01*X037806Y021134D01*
X037709Y021231D01*X037617Y021359D01*X037317Y021709D01*
X037221Y021805D01*X035433Y023425D01*X031693Y012598D02*
X032842Y014892D01*X032845Y016778D01*Y01708D01*X032821Y019491D01*
X032715Y020335D01*X031987Y021098D01*X031674Y022203D01*Y022423D01*
X031769Y022579D01*X031772Y022815D01*X035118Y024321D02*X035037Y0238D01*
Y02358D01*X035068Y023274D01*X036787Y021289D01*X037001Y021075D01*
X039283Y019359D01*X039438Y019204D01*X039499Y010323D01*
X039654Y010168D01*X040857Y009039D01*X041732Y008465D01*
X015266Y019301D02*X014402Y020837D01*Y020974D01*X014621Y021272D01*
Y021409D01*X013462Y023051D01*X013366Y023147D01*X01313Y02315D01*
X009252Y010433D02*X01022Y009164D01*X011055Y008199D01*X011152Y008103D01*
X012883Y008087D01*X013628Y007903D01*X014324D01*X014538Y008117D01*
X014942Y01021D01*X015567Y011329D01*X016267Y013205D01*X016543Y014626D01*
X01701Y016685D01*Y017961D01*X016821Y019816D01*X016144Y023081D01*
X016142Y023317D01*X043456Y01934D02*X043441Y020994D01*X043289Y022959D01*
Y023675D01*X043889Y024431D01*X044044Y024586D01*X044154Y024656D01*
X036535Y025709D02*X036902Y02474D01*X030148Y023484D02*X029912Y023482D01*
X029815Y023385D01*Y023249D01*X030444Y021216D01*X03069Y019745D01*
X03084Y019445D01*X031321Y018955D01*Y015494D01*X031028Y015039D01*
X030921Y013495D01*X029996Y0125D01*X028538Y010709D01*X028362Y009164D01*
X028238Y009039D01*X026969Y008268D01*X026555Y012943D02*
X026821Y013108D01*X027115Y013208D01*X028279Y01327D01*X029684Y014638D01*
X029781Y014735D01*X030256Y016894D01*Y017693D01*X029893Y019246D01*
X029214Y021698D01*X029115Y022959D01*Y023675D01*X029715Y024431D01*
X029871Y024586D01*X02998Y024656D01*X014094Y012608D02*X014361Y012773D01*
X014497Y012778D01*X015484Y01327D01*X015667Y013453D01*X015943Y014875D01*
X01641Y016933D01*Y017712D01*X016133Y019285D01*X015991Y019472D01*
X015771Y021009D01*X015241Y02178D01*Y022D01*X015242Y023551D01*
X015642Y024055D01*X015739Y024151D01*X015974Y024154D01*
X029134Y012598D02*X027293Y012443D01*X026487D01*X02542Y01317D01*
X025178Y013412D01*X025027Y014925D01*X024774Y019246D01*
X024069Y019952D01*X022787Y020975D01*X022514Y021248D01*
X020895Y023274D01*X020864Y02358D01*Y0238D01*X020945Y024321D01*
X017431Y022982D02*X017321Y022913D01*X017166Y022757D01*Y022538D01*
X017201Y022079D01*X017268Y02187D01*X017614Y021015D01*X018342Y020253D01*
X018426Y018913D01*Y015536D01*X017701Y014458D01*X017699Y014148D01*
X017499Y01213D01*X017399Y011772D01*X016447Y010433D01*X041909Y012943D02*
X042744Y014715D01*X042844Y015008D01*X04285Y017695D01*X042871Y018956D01*
Y019424D01*X042721Y019964D01*X041725Y021231D01*X041537Y021472D01*
X041479Y022077D01*X041476Y022313D01*X043456Y01704D02*X04358Y017392D01*
X043585Y017529D01*X043817Y017784D01*Y01883D01*X043489Y023041D01*
Y023592D01*X043889Y024096D01*X044044Y024251D01*X044154Y024321D01*
X04375Y017461D02*X043917Y017742D01*Y018872D01*X043589Y023083D01*
Y023551D01*X043989Y024055D01*X044085Y024151D01*X044321Y024154D01*
X017766Y023317D02*X018001Y023315D01*X018098Y023218D01*
X019919Y021074D01*X020685Y018789D01*X021457Y014764D01*
X012628Y023317D02*X01243Y022966D01*Y022664D01*X012465Y022038D01*
X012591Y021223D01*X013721Y019416D01*X013797Y018941D01*
X014621Y017133D01*Y016748D01*X013366Y015118D01*X02747Y02499D02*
X027235Y024988D01*X026414Y02474D01*X026156Y024482D01*X026154Y02445D01*
Y023857D01*X026156Y022999D01*X026264Y021016D01*X027134Y019557D01*
X027234Y019204D01*X027537Y01766D01*X028132Y017058D01*X028229Y016961D01*
X0287D01*X028797Y017058D01*X028822Y017184D01*X028919Y017281D01*
X029056D01*X029152Y017184D01*Y017047D01*X029056Y016951D01*
X028783Y016761D01*X028061Y016748D01*X027953Y016732D01*
X025492Y015118D01*X026606Y01909D02*X025219Y020475D01*X025064Y02063D01*
X024701Y020994D01*X024576Y021118D01*X021525Y023787D01*X02128Y023986D01*
X014173Y008268D02*X014942Y012376D01*X015183Y012618D01*X015608Y01297D01*
X015967Y013329D01*X016243Y01475D01*X01671Y016809D01*Y017837D01*
X016521Y019691D01*X016171Y021174D01*X015642Y023249D01*Y023385D01*
X015739Y023482D01*X015974Y023484D01*X027303Y024823D02*
X027067Y024821D01*X026456Y02464D01*X026256Y02444D01*X026254Y024409D01*
Y023898D01*X026256Y02304D01*X026364Y021058D01*X027234Y019598D01*
X027334Y019246D01*X027637Y017701D01*X027937Y017401D01*
X028187Y017196D01*X028297Y017126D01*X021024Y008258D02*
X020785Y010169D01*X02026Y011329D01*X019243Y016849D01*Y017068D01*
X019271Y019172D01*Y019309D01*X019042Y020543D01*X01879Y021032D01*
X018494Y021909D01*X018098Y022549D01*X017933Y022815D01*X022979Y02164D02*
Y02144D01*X041476Y022815D02*X041712Y022645D01*X041809Y022549D01*
X042367Y021841D01*Y021539D01*X042315Y021377D01*Y021241D01*
X043021Y020088D01*X043171Y019548D01*Y018832D01*X04315Y01757D01*
X043144Y014884D01*X042579Y012943D01*X041909Y014783D02*
X041249Y014618D01*X041113D01*X040681Y01505D01*X039929Y019163D01*
X039832Y019259D01*X037084Y021275D01*X036987Y021372D01*
X035268Y023357D01*Y023494D01*X035302Y02369D01*X026606Y01514D02*
X026838Y015305D01*X027146Y015405D01*X027366D01*X027979Y015335D01*
X028321D01*X028562Y015577D01*X029656Y017142D01*Y017445D01*
X028792Y019066D01*X028662Y019452D01*X027164Y021389D01*
X027138Y022245D01*Y022381D01*X027235Y022478D01*X02747Y02248D01*
X024409Y010433D02*X025378Y009164D01*X025502Y009039D01*
X026506Y008103D01*X027037D01*X028279Y008939D01*X028462Y009122D01*
X028638Y010667D01*X030096Y012459D01*X031021Y013453D01*
X031128Y014998D01*X031421Y015453D01*Y018996D01*X03094Y019486D01*
X03079Y019786D01*X030544Y021257D01*X029983Y023081D01*X02998Y023317D01*
X034702Y024356D02*X034593Y024286D01*X034437Y024131D01*
X033987Y023616D01*Y023065D01*X034087Y022923D01*X036137Y020448D01*
X03641Y020175D01*X037356Y019459D01*X03757Y019246D01*Y014613D01*
X03737Y01253D01*X036811Y010433D01*X007874Y025472D02*X008406Y02454D01*
X022579D02*X022047Y025472D01*X044154Y023986D02*X044044Y023917D01*
X043889Y023761D01*X043689Y02351D01*Y023124D01*X044017Y021959D01*
X044117Y021009D01*Y020872D01*X044017Y017701D01*X043915Y017392D01*
X04375Y017126D01*X041909Y015118D02*X041991Y01695D01*X042021Y017048D01*
Y017433D01*X041941Y019039D01*X041921Y019633D01*X040925Y020899D01*
X040737Y02114D01*X040477Y022539D01*Y02309D01*X040609Y023468D01*
X040823Y023682D01*X041126D01*X041419Y023582D01*X041574Y023427D01*
X041644Y023317D01*X039152Y02184D02*X039665Y025984D01*X044321Y02315D02*
X044517Y022166D01*X044617Y021216D01*Y020665D01*X044517Y017494D01*
X043917Y009081D01*X043675Y008839D01*X041883Y0081D01*X040857Y008087D01*
X039874Y008003D01*X039063D01*X038515Y008187D01*X037205Y008268D01*
X03487Y023854D02*X034634Y023851D01*X034537Y023755D01*X034287Y023491D01*
Y023189D01*X034387Y023048D01*X036437Y020572D01*X036534Y020475D01*
X03748Y019759D01*X03787Y01937D01*X038173Y017825D01*X038599Y016624D01*
X039173Y012598D01*X030315Y023317D02*X030317Y023081D01*X030744Y02134D01*
X03099Y019869D01*X03114Y019569D01*X031621Y019079D01*Y01537D01*
X031328Y014915D01*X031221Y01337D01*X030296Y012376D01*X028838Y010584D01*
X028662Y00904D01*X028362Y008739D01*X02712Y007903D01*X026424D01*
X025679Y008087D01*X023947Y008103D01*X023455Y008201D01*
X023359Y008298D01*X02185Y010433D01*X036656Y01264D02*X03604Y018789D01*
X032371Y022925D01*X032216Y02308D01*X032106Y02315D01*X021024Y010433D02*
X020685Y012293D01*X02026Y013495D01*X019343Y01689D01*Y017027D01*
X019371Y01913D01*Y01935D01*X019142Y020584D01*X01889Y021073D01*
X018594Y02195D01*X018098Y022883D01*X018001Y02298D01*X017766Y022982D01*
X044321Y023484D02*X044085Y023482D01*X043989Y023385D01*Y023249D01*
X044317Y022083D01*X044417Y021133D01*Y020748D01*X044317Y017577D01*
X043717Y009164D01*X043592Y009039D01*X041801Y0083D01*X040774Y008287D01*
X039764Y008268D01*X025827Y015118D02*X026496Y015405D01*
X026755Y015505D01*X027063Y015605D01*X027449D01*X028061Y015535D01*
X028238D01*X028362Y01566D01*X029456Y017225D01*Y017362D01*
X028592Y018983D01*X028462Y01937D01*X026964Y021306D01*X026938Y022162D01*
Y022464D01*X026969Y022815D01*X02998Y023986D02*X029871Y023917D01*
X029715Y023761D01*X029515Y02351D01*Y023124D01*X030144Y021091D01*
X03039Y019621D01*X03054Y019321D01*X031021Y01883D01*Y015618D01*
X030181Y014569D01*X02985Y014238D01*X028445Y01287D01*X027224Y012608D01*
X030148Y024154D02*X029912Y024151D01*X029815Y024055D01*
X029415Y023551D01*Y023083D01*X029514Y021822D01*X030044Y02105D01*
X03029Y019579D01*X03044Y019279D01*X030921Y018789D01*Y01566D01*
X030081Y014611D01*X029809Y014338D01*X028403Y01297D01*X027293Y012778D01*
X027156Y012773D01*X02689Y012608D01*X027224Y012943D02*X028362Y01307D01*
X029767Y014438D01*X029981Y014652D01*X030456Y016811D01*Y017776D01*
X029944Y021009D01*X029414Y02178D01*X029315Y023041D01*Y023592D01*
X029715Y024096D01*X029871Y024251D01*X02998Y024321D01*X044488Y023317D02*
X044491Y023081D01*X044617Y022207D01*X044717Y021257D01*Y020623D01*
X044617Y017452D01*X044017Y00904D01*X043717Y006998D01*X043592Y006874D01*
X040857D01*X038474Y008087D01*X036743Y008103D01*X035739Y009039D01*
X035614Y009164D01*X034646Y010433D01*X024075Y016929D02*
X022943Y017701D01*X022819Y017825D01*X022415Y019329D01*X020214Y02323D01*
Y02345D01*X020369Y023605D01*X020529Y023686D01*X006437Y024823D02*
X006091Y024465D01*X005441Y023698D01*Y022982D01*X005541Y02284D01*
X007491Y020323D01*X007939Y019875D01*X009403Y019459D01*
X009617Y019246D01*Y016778D01*X009517Y014654D01*X009087Y012667D01*
X008819Y010433D01*X006299Y012598D02*X006858Y014695D01*
X006958Y016819D01*Y019204D01*X006803Y019359D01*X005663Y020444D01*
X00505Y020741D01*X004717Y021073D01*X004421Y02195D01*X003925Y022549D01*
X003828Y022645D01*X003593Y022648D01*X034213Y008258D02*
X034481Y010501D01*X034577Y010598D01*X035956Y011105D01*X03614Y011288D01*
X036921Y01253D01*X03747Y014654D01*Y019204D01*X037314Y019359D01*
X036368Y020075D01*X036037Y020406D01*X033987Y022882D01*
X033887Y023023D01*Y023657D01*X034537Y024424D01*X034634Y024521D01*
X034771D01*X034951Y024488D01*X013297Y022982D02*X014021Y021841D01*
Y021539D01*X013969Y021377D01*Y021241D01*X015101Y019233D01*
X015197Y019136D01*X015442Y018914D01*X015567Y018789D01*X0156Y017461D01*
X03487Y023519D02*X034584Y023505D01*X034487Y023409D01*Y023272D01*
X034587Y02313D01*X036867Y02075D01*X038699Y01883D01*X039173Y016929D01*
X008858D02*X009023Y019026D01*Y019163D01*X008927Y019259D01*
X007815Y019575D01*X005955Y021275D01*X003828Y023315D01*
X003593Y023317D01*X017766Y022313D02*X017768Y022077D01*
X018114Y021222D01*X018842Y02046D01*X018926Y01912D01*X019006Y01694D01*
X035453Y023986D02*X035698Y023787D01*X038791Y021218D01*
X038974Y021035D01*X039337Y020672D01*X039434Y020575D01*X041456Y01944D01*
X039173Y008268D02*X038599Y010128D01*X038173Y011329D01*X03777Y019329D01*
X037439Y019659D01*X036493Y020375D01*X036337Y02053D01*X034287Y023006D01*
X034187Y023148D01*Y023533D01*X034437Y023796D01*X034593Y023951D01*
X034702Y024021D01*X029528Y012598D02*X030496Y014458D01*
X031221Y015536D01*Y018913D01*X03074Y019403D01*X03059Y019703D01*
X030344Y021174D01*X029715Y023207D01*Y023427D01*X029871Y023582D01*
X02998Y023652D01*X012697Y015118D02*X014321Y016872D01*Y017009D01*
X013497Y018817D01*X013421Y019291D01*X012291Y021099D01*
X012165Y021913D01*X011981Y023857D01*Y02445D01*X012164Y024634D01*
X012894Y024821D01*X01313Y024823D01*X019291Y010433D02*X020561Y010252D01*
X020685Y010128D01*X020859Y00819D01*X020955Y008093D01*X022902Y006774D01*
X02572D01*X027203Y007703D01*X028445Y008539D01*X028862Y008957D01*
X029038Y010501D01*X030496Y012293D01*X031421Y013287D01*
X031528Y014832D01*X031821Y015287D01*Y019162D01*X03134Y019652D01*
X03119Y019952D01*X030647Y023218D01*X030482Y023484D01*X024016Y008268D02*
X022819Y011329D01*X022015Y019163D01*X019814Y023065D01*Y023616D01*
X020264Y024131D01*X020419Y024286D01*X020529Y024356D01*X041644Y02499D02*
X041408Y024988D01*X040469Y024734D01*X040227Y024492D01*
X040177Y023215D01*Y022415D01*X040437Y021016D01*X040625Y020775D01*
X041621Y019509D01*X041641Y018915D01*X041721Y017309D01*Y017172D01*
X041158Y01566D01*X040846Y015118D01*X006356Y023686D02*X006196Y023605D01*
X006041Y02345D01*Y02323D01*X006141Y023089D01*X008091Y020572D01*
X008188Y020475D01*X009652Y020059D01*X010217Y019494D01*X010746Y01883D01*
X01122Y016929D01*X006299Y019094D02*X005677Y020147D01*X00558Y020244D01*
X004967Y020541D01*X004517Y020991D01*X004271Y021359D01*
X004174Y021455D01*X004088Y021475D01*X003991Y021572D01*X00376Y022146D01*
X041476Y024823D02*X041241Y024821D01*X04051Y024634D01*X040327Y02445D01*
X040277Y023173D01*Y022457D01*X040537Y021058D01*X040725Y020817D01*
X041721Y01955D01*X041741Y018956D01*X041821Y01735D01*Y01713D01*
X041181Y015118D01*X02747Y022146D02*X027364Y021909D01*Y021472D01*
X027552Y021231D01*X029222Y019244D01*X029263Y018985D01*
X029856Y017527D01*Y017059D01*X028762Y015494D01*X028403Y015135D01*
X027896D01*X027256Y01514D01*X013031Y014783D02*X013196Y01505D01*
X013201Y015186D01*X014521Y016789D01*Y017091D01*X013697Y0189D01*
X013621Y019374D01*X012491Y021182D01*X012365Y021996D01*X01233Y022622D01*
Y023008D01*X012463Y023385D01*X01256Y023482D01*X012696D01*
X012963Y023317D01*X014429Y014783D02*X014594Y01505D01*X015021Y016582D01*
Y017298D01*X014842Y017701D01*X014427Y019202D01*X014221Y019623D01*
X013091Y02143D01*X012965Y022245D01*Y022381D01*X013128Y022579D01*
X01313Y022815D01*X015974Y02315D02*X016721Y019774D01*X01691Y017919D01*
Y016726D01*X016443Y014668D01*X016167Y013246D01*X015691Y01277D01*
X015266Y012418D01*X015142Y012293D01*X014438Y008158D01*
X014283Y008003D01*X01367D01*X012925Y008187D01*X011614Y008268D01*
X013297Y02248D02*X013921Y0218D01*Y02158D01*X013869Y021419D01*
Y021199D01*X014727Y019326D01*X015142Y017825D01*X015431Y017529D01*
X015435Y017392D01*X0156Y017126D01*X029203Y010433D02*X030797Y011205D01*
X030921Y011329D01*X031521Y013246D01*X032645Y016861D01*Y016997D01*
X032621Y019409D01*X032515Y020253D01*X031787Y021015D01*X031474Y02212D01*
X031439Y022579D01*Y022716D01*X031604Y022982D01*
M02*