%FSTAX24Y24*%
%MOIN*%
%IN LAYER2.GBR *%
%ADD10C,0.0020*%
%ADD11C,0.0050*%
%ADD12C,0.0098*%
%ADD13C,0.0118*%
%ADD14C,0.0120*%
%ADD15C,0.0130*%
%ADD16C,0.0150*%
%ADD17C,0.0160*%
%ADD18C,0.0180*%
%ADD19C,0.0197*%
%ADD20C,0.0198*%
%ADD21C,0.0200*%
%ADD22C,0.0218*%
%ADD23C,0.0250*%
%ADD24C,0.0256*%
%ADD25C,0.0276*%
%ADD26C,0.0280*%
%ADD27C,0.0300*%
%ADD28C,0.0376*%
%ADD29C,0.0380*%
%ADD30C,0.0394*%
%ADD31C,0.0413*%
%ADD32C,0.0433*%
%ADD33C,0.0480*%
%ADD34C,0.0494*%
%ADD35C,0.0500*%
%ADD36C,0.0533*%
%ADD37C,0.0600*%
%ADD38C,0.0640*%
%ADD39C,0.0660*%
%ADD40C,0.0760*%
%ADD41C,0.0964*%
%ADD42C,0.0984*%
%ADD43C,0.1161*%
%ADD44C,0.1181*%
%ADD45O,0.0689X0.0472*%
%ADD46O,0.0709X0.0492*%
%ADD47O,0.0787X0.0571*%
%ADD48O,0.0887X0.0671*%
D10*X004406Y01894D02*G01X004856Y01929D01*X011791Y019291D01*Y024488D01*
X012963D01*Y019301D01*X016437Y019291D01*X016929Y018996D01*X018504D01*
Y016535D01*X017323Y014173D01*Y006496D01*X015945D01*Y00748D01*
X004134D01*Y008268D01*X015945D01*Y009646D01*X004134D01*Y010433D01*
X015945D01*Y011811D01*X004134D01*Y012598D01*X015945Y012795D01*
Y013976D01*X004134D01*Y014764D01*X015157D01*X015945Y015354D01*
Y016142D01*X004134D01*Y016929D01*X015157D01*X016142Y017717D01*
Y018307D01*X004406Y01829D01*Y01894D01*G36*G01X004856Y01929D01*
X011791Y019291D01*Y024488D01*X012963D01*Y019301D01*X016437Y019291D01*
X016929Y018996D01*X018504D01*Y016535D01*X017323Y014173D01*Y006496D01*
X015945D01*Y00748D01*X004134D01*Y008268D01*X015945D01*Y009646D01*
X004134D01*Y010433D01*X015945D01*Y011811D01*X004134D01*Y012598D01*
X015945Y012795D01*Y013976D01*X004134D01*Y014764D01*X015157D01*
X015945Y015354D01*Y016142D01*X004134D01*Y016929D01*X015157D01*
X016142Y017717D01*Y018307D01*X004406Y01829D01*Y01894D01*G37*
X007456Y02449D02*G01X00748Y020669D01*X004506Y02069D01*X002956Y01899D01*
X002953Y006988D01*X003445Y006496D01*X015748D01*Y007283D01*X003937D01*
Y008465D01*X015748D01*Y009449D01*X003937D01*Y01063D01*X015748D01*
Y011614D01*X003937D01*Y012795D01*X015748Y012992D01*Y01378D01*
X003937D01*Y014961D01*X014961D01*X015748Y015551D01*Y015945D01*
X003937D01*Y017126D01*X014961D01*X015748Y017717D01*Y01811D01*
X004206Y01814D01*Y01899D01*X004806Y01949D01*X008661Y019488D01*
X008656Y02344D01*X008206Y02449D01*X007456D01*X00748Y023425D01*G36*
X007456Y02449D02*G01X00748Y020669D01*X004506Y02069D01*X002956Y01899D01*
X002953Y006988D01*X003445Y006496D01*X015748D01*Y007283D01*X003937D01*
Y008465D01*X015748D01*Y009449D01*X003937D01*Y01063D01*X015748D01*
Y011614D01*X003937D01*Y012795D01*X015748Y012992D01*Y01378D01*
X003937D01*Y014961D01*X014961D01*X015748Y015551D01*Y015945D01*
X003937D01*Y017126D01*X014961D01*X015748Y017717D01*Y01811D01*
X004206Y01814D01*Y01899D01*X004806Y01949D01*X008661Y019488D01*
X008656Y02344D01*X008206Y02449D01*X007456D01*X00748Y023425D01*G37*
X002559Y022933D02*G01X002657Y024902D01*X003906Y02489D01*
X003956Y021228D01*X004306Y02079D01*X002854Y019193D01*X002559D01*
Y022933D01*G36*G01X002657Y024902D01*X003906Y02489D01*X003956Y021228D01*
X004306Y02079D01*X002854Y019193D01*X002559D01*Y022933D01*G37*
X020079Y018898D02*G01Y018307D01*X02874Y01829D01*Y016929D01*
X020056Y01694D01*Y016142D01*X02874D01*Y014764D01*X020079D01*Y013976D01*
X02874D01*Y012598D01*X020079D01*Y011811D01*X02874D01*Y010433D01*
X020079D01*Y009646D01*X02874D01*Y008268D01*X020079D01*Y00748D01*
X02874D01*Y006496D01*X029921D01*Y009449D01*X031102Y012008D01*
Y018848D01*X03065Y019301D01*X027136D01*Y024488D01*X025965D01*
Y019291D01*X020507D01*X020079Y018898D01*X020472Y019291D01*G36*
X020079Y018898D02*G01Y018307D01*X02874Y01829D01*Y016929D01*
X020056Y01694D01*Y016142D01*X02874D01*Y014764D01*X020079D01*Y013976D01*
X02874D01*Y012598D01*X020079D01*Y011811D01*X02874D01*Y010433D01*
X020079D01*Y009646D01*X02874D01*Y008268D01*X020079D01*Y00748D01*
X02874D01*Y006496D01*X029921D01*Y009449D01*X031102Y012008D01*
Y018848D01*X03065Y019301D01*X027136D01*Y024488D01*X025965D01*
Y019291D01*X020507D01*X020079Y018898D01*X020472Y019291D01*G37*
X021654Y023425D02*G01X021629Y02449D01*X022379D01*X022829Y02344D01*
X022835Y019488D01*X020406Y01949D01*X019882Y019094D01*Y01811D01*
X028543D01*Y01714D01*X019856D01*Y015945D01*X028543D01*Y014961D01*
X019882D01*Y01378D01*X028543D01*Y012795D01*X019882D01*Y011614D01*
X028543D01*Y01063D01*X019882D01*Y009449D01*X028543D01*Y008465D01*
X019882D01*Y007283D01*X028543D01*Y006496D01*X01752D01*Y013976D01*
X018701Y016339D01*X018756Y01904D01*X020256Y02069D01*X021654Y020669D01*
X021629Y02449D01*G36*X021654Y023425D02*G01X021629Y02449D01*X022379D01*
X022829Y02344D01*X022835Y019488D01*X020406Y01949D01*X019882Y019094D01*
Y01811D01*X028543D01*Y01714D01*X019856D01*Y015945D01*X028543D01*
Y014961D01*X019882D01*Y01378D01*X028543D01*Y012795D01*X019882D01*
Y011614D01*X028543D01*Y01063D01*X019882D01*Y009449D01*X028543D01*
Y008465D01*X019882D01*Y007283D01*X028543D01*Y006496D01*X01752D01*
Y013976D01*X018701Y016339D01*X018756Y01904D01*X020256Y02069D01*
X021654Y020669D01*X021629Y02449D01*G37*X017079Y02289D02*
G01X017028Y019882D01*X017224Y019685D01*X017815D01*X018012Y020177D01*
Y020768D01*X018079Y02489D01*X017079D01*Y02289D01*G36*
G01X017028Y019882D01*X017224Y019685D01*X017815D01*X018012Y020177D01*
Y020768D01*X018079Y02489D01*X017079D01*Y02289D01*G37*X032752Y01894D02*
G01Y01829D01*X044094Y018307D01*Y016929D01*X032906Y01694D01*Y016142D01*
X044094D01*Y014764D01*X03248D01*Y013976D01*X044094D01*Y012598D01*
X03248D01*Y011811D01*X044094D01*Y010433D01*X03248D01*Y009646D01*
X044094D01*Y008268D01*X03248D01*Y00748D01*X044094D01*Y006496D01*
X045079D01*Y019291D01*X041309Y019301D01*Y024488D01*X040138D01*
Y019291D01*X033202Y01929D01*X032752Y01894D01*G36*G01Y01829D01*
X044094Y018307D01*Y016929D01*X032906Y01694D01*Y016142D01*X044094D01*
Y014764D01*X03248D01*Y013976D01*X044094D01*Y012598D01*X03248D01*
Y011811D01*X044094D01*Y010433D01*X03248D01*Y009646D01*X044094D01*
Y008268D01*X03248D01*Y00748D01*X044094D01*Y006496D01*X045079D01*
Y019291D01*X041309Y019301D01*Y024488D01*X040138D01*Y019291D01*
X033202Y01929D01*X032752Y01894D01*G37*X035802Y02449D02*
G01X035827Y020669D01*X032852Y02069D01*X031299Y018898D01*
X031306Y01504D01*X031299Y012008D01*X030118Y009449D01*Y006496D01*
X043898D01*Y007283D01*X032283D01*Y008465D01*X043898D01*Y009449D01*
X032283D01*Y01063D01*X043898D01*Y011614D01*X032283D01*Y012795D01*
X043898D01*Y01378D01*X032283D01*Y014961D01*X043898D01*Y01594D01*
X032706D01*Y01719D01*X043898Y017126D01*Y01811D01*X032552Y01814D01*
Y01899D01*X033152Y01949D01*X037008Y019488D01*X037002Y02344D01*
X036552Y02449D01*X035802D01*X035827Y023425D01*G36*X035802Y02449D02*
G01X035827Y020669D01*X032852Y02069D01*X031299Y018898D01*
X031306Y01504D01*X031299Y012008D01*X030118Y009449D01*Y006496D01*
X043898D01*Y007283D01*X032283D01*Y008465D01*X043898D01*Y009449D01*
X032283D01*Y01063D01*X043898D01*Y011614D01*X032283D01*Y012795D01*
X043898D01*Y01378D01*X032283D01*Y014961D01*X043898D01*Y01594D01*
X032706D01*Y01719D01*X043898Y017126D01*Y01811D01*X032552Y01814D01*
Y01899D01*X033152Y01949D01*X037008Y019488D01*X037002Y02344D01*
X036552Y02449D01*X035802D01*X035827Y023425D01*G37*X031252Y02289D02*
G01X031299Y020866D01*X031004Y020079D01*X031299Y019783D01*
X031988Y019882D01*X03248Y020768D01*X032302Y021228D01*X032252Y02489D01*
X031252D01*Y02289D01*G36*G01X031299Y020866D01*X031004Y020079D01*
X031299Y019783D01*X031988Y019882D01*X03248Y020768D01*X032302Y021228D01*
X032252Y02489D01*X031252D01*Y02289D01*G37*X013189Y020866D02*
G01Y01939D01*X016535D01*X017028Y019094D01*X018602D01*X01998Y020571D01*
Y020669D01*X01811D01*Y020177D01*X017913Y019587D01*X017126D01*
X016929Y019783D01*Y020866D01*X013189D01*G36*G01Y01939D01*X016535D01*
X017028Y019094D01*X018602D01*X01998Y020571D01*Y020669D01*X01811D01*
Y020177D01*X017913Y019587D01*X017126D01*X016929Y019783D01*Y020866D01*
X013189D01*G37*X01378Y004823D02*G01X005118D01*X004134Y003937D01*
X00187D01*Y018996D01*X002854D01*Y00689D01*X003346Y006398D01*X004035D01*
X018012Y006299D01*X026083D01*Y003051D01*X023425D01*Y002067D01*
X026083Y002165D01*Y001378D01*X023228Y00128D01*X018012Y002264D01*
X014862Y001673D01*X012008D01*Y00315D01*X01378Y003839D01*Y004823D01*G36*
G01X005118D01*X004134Y003937D01*X00187D01*Y018996D01*X002854D01*
Y00689D01*X003346Y006398D01*X004035D01*X018012Y006299D01*X026083D01*
Y003051D01*X023425D01*Y002067D01*X026083Y002165D01*Y001378D01*
X023228Y00128D01*X018012Y002264D01*X014862Y001673D01*X012008D01*
Y00315D01*X01378Y003839D01*Y004823D01*G37*X026181Y0D02*G01Y00128D01*
X023228Y001181D01*X018012Y002165D01*X014862Y001575D01*X016339Y0D01*
X026181D01*G36*G01Y00128D01*X023228Y001181D01*X018012Y002165D01*
X014862Y001575D01*X016339Y0D01*X026181D01*G37*X004456Y02089D02*
G01X007283Y020866D01*X007256Y02469D01*X008858D01*Y019488D01*X011624D01*
Y024656D01*X01313D01*X013189Y020965D01*X016806D01*Y02509D01*X018206D01*
Y02149D01*X018606Y02094D01*X021456Y02089D01*Y02469D01*X022456D01*
X023006Y02349D01*X023056Y01949D01*X025756D01*Y02469D01*X027306D01*
X027362Y020866D01*X030807D01*Y02504D01*X032356D01*Y02144D01*
X032856Y02089D01*X035606D01*Y02469D01*X036656D01*X037206Y02354D01*
Y01949D01*X039956D01*Y02464D01*X041476Y024656D01*Y01949D01*
X045276Y019488D01*Y006299D01*X026181D01*Y002953D01*X023524D01*
Y002165D01*X026181Y002264D01*Y0D01*X047835D01*Y026772D01*X0D01*Y0D01*
X016339D01*X014862Y001575D01*X008563D01*X004232Y003839D01*X001772D01*
Y019094D01*X002461D01*Y022933D01*X002559Y025098D01*X004056Y02509D01*
X004106Y02139D01*X004456Y02094D01*G36*Y02089D02*G01X007283Y020866D01*
X007256Y02469D01*X008858D01*Y019488D01*X011624D01*Y024656D01*X01313D01*
X013189Y020965D01*X016806D01*Y02509D01*X018206D01*Y02149D01*
X018606Y02094D01*X021456Y02089D01*Y02469D01*X022456D01*
X023006Y02349D01*X023056Y01949D01*X025756D01*Y02469D01*X027306D01*
X027362Y020866D01*X030807D01*Y02504D01*X032356D01*Y02144D01*
X032856Y02089D01*X035606D01*Y02469D01*X036656D01*X037206Y02354D01*
Y01949D01*X039956D01*Y02464D01*X041476Y024656D01*Y01949D01*
X045276Y019488D01*Y006299D01*X026181D01*Y002953D01*X023524D01*
Y002165D01*X026181Y002264D01*Y0D01*X047835D01*Y026772D01*X0D01*Y0D01*
X016339D01*X014862Y001575D01*X008563D01*X004232Y003839D01*X001772D01*
Y019094D01*X002461D01*Y022933D01*X002559Y025098D01*X004056Y02509D01*
X004106Y02139D01*X004456Y02094D01*G37*X005217Y004724D02*
G01X004232Y003839D01*X008563Y001575D01*X011909D01*Y003248D01*
X013681Y003937D01*Y004724D01*X005217D01*G36*G01X004232Y003839D01*
X008563Y001575D01*X011909D01*Y003248D01*X013681Y003937D01*Y004724D01*
X005217D01*G37*
%LPC*%
D28*X032902Y02359D03*D26*X041142Y022815D03*D24*X02815Y018701D03*D26*
X036811Y010433D03*D24*X025213Y002378D03*X023659Y002397D03*
X025606Y001886D03*X025114D03*X025591Y016535D03*Y018701D03*D26*
X029203Y010433D03*X013297Y02248D03*D28*X042702Y02394D03*
X033268Y018307D03*D26*X030482Y02315D03*D24*X043504Y01437D03*D26*
X015807Y024656D03*X044321Y024488D03*X031604Y022982D03*
X012963Y024656D03*D28*X043898Y025984D03*X023031Y00748D03*
X031402Y02004D03*D24*X032002D03*D28*X018729Y02324D03*D26*
X018976Y021378D03*X017172Y025478D03*X008806Y02144D03*X013356Y02184D03*
X04248Y021309D03*X041024Y025472D03*X04498Y024803D03*X011319Y026083D03*
X00374Y012598D03*D28*X035902Y02399D03*D26*X015974Y023819D03*
X018898Y012598D03*X039173Y010433D03*D24*X030669Y009252D03*D26*
X042306Y01919D03*X039764Y008268D03*X041181Y014783D03*D28*
X032902Y02429D03*D26*X006693Y016929D03*X01313Y022815D03*Y022313D03*
X013356Y02154D03*X014429Y015118D03*X012963Y022648D03*X003656Y02514D03*
D28*X003056Y02404D03*D24*X043504Y007087D03*D26*X01689Y002657D03*
X016693Y003642D03*X027165Y025709D03*X028629Y02134D03*X026969Y02315D03*
X003593Y022982D03*D24*X010433Y016535D03*D26*X005118Y020906D03*D28*
X043504Y018307D03*D26*X006299Y010433D03*X034646Y014764D03*
X032106Y022146D03*X010806Y02184D03*D28*X010433Y018307D03*
X042352Y02359D03*X031702Y02004D03*D26*X026969Y019488D03*D24*
X012795Y011417D03*D26*X006506Y02324D03*D28*X014706Y02464D03*D24*
X007874Y011417D03*D17*X002756Y018701D03*D26*X028956Y01434D03*D28*
X019606Y020945D03*D26*X019587Y020276D03*X019783D03*Y020079D03*
X019587D03*Y019882D03*X00435Y016959D03*X006772Y024321D03*
X042256Y01684D03*D24*X015354Y011417D03*D28*X005315Y018307D03*
X042702Y02464D03*X005315Y011811D03*X007874D03*X010433D03*
X023031Y013976D03*D26*X011614Y019094D03*X008858Y014764D03*D24*
X035902Y02434D03*D28*X007874Y013976D03*D26*X028632Y017461D03*
X00376Y02315D03*X039173Y019094D03*D28*X038386Y009646D03*D26*
X042244Y015118D03*X030148Y024488D03*X035302Y02369D03*X039764Y014764D03*
X003593Y022313D03*D28*X035827Y009646D03*D43*X001378Y024803D03*D28*
X025591Y018307D03*D26*X032002Y02464D03*X012795Y022815D03*
X038346Y020906D03*X008256Y02064D03*X01624Y003465D03*X0156Y017461D03*
X032056Y01724D03*X027136Y024656D03*X031604Y022648D03*X012795Y02315D03*
X017933Y022146D03*D28*X015354Y009646D03*X030669D03*D26*
X014429Y012943D03*D28*X037952Y02429D03*D26*X012963Y022982D03*
X015266Y017126D03*X013366Y012943D03*D24*X038386Y016535D03*D26*
X017234Y01184D03*D24*X033268Y013583D03*X02815D03*D26*X028297Y017126D03*
X015807Y023986D03*X041309Y024656D03*D28*X033552Y02464D03*
X023031Y010039D03*X028179Y02394D03*D26*X031939Y023317D03*D28*
X021729Y02399D03*D26*X034646Y008268D03*X020696Y024188D03*
X031693Y010433D03*D28*X038252Y02464D03*D24*X015354Y017913D03*D28*
X040974Y024321D03*D26*X022979Y02144D03*X027529Y02184D03*
X024056Y01909D03*D28*X007874Y018307D03*D26*X017933Y022815D03*D24*
X023031Y011417D03*D28*X020472Y00748D03*D26*X006523Y023519D03*D24*
X012795Y007874D03*D26*X018898Y014764D03*X014429Y012608D03*
X03563Y023622D03*X043852Y02189D03*D24*X020374Y025984D03*
X023031Y017913D03*D26*X024075Y014764D03*X034941Y025984D03*D24*
X038386Y009252D03*D28*X020472Y018307D03*D26*X039665Y025984D03*D24*
X02472Y003264D03*D26*X01122Y012598D03*X020529Y024021D03*
X026969Y016929D03*X016043Y003642D03*D24*X043504Y016535D03*Y009252D03*
D26*X003656Y02464D03*D24*X043504Y013583D03*D28*X026467Y023986D03*
X033252Y02359D03*D26*X037874Y021299D03*X036752Y02454D03*D28*
X007874Y009646D03*D24*X006201Y025984D03*D26*X024055Y010433D03*
X017717Y000984D03*X027362Y005512D03*D28*X00689Y003543D03*D26*
X032452Y02129D03*D28*X019379Y02464D03*D34*X001969Y003642D03*
X001949Y00561D03*D48*X002382Y00315D03*X002362Y006102D03*D45*
X000866Y003091D03*Y006161D03*D24*X015354Y010039D03*D26*
X016156Y01954D03*D28*X037952Y02359D03*D24*X040945Y007087D03*Y018701D03*
X030709Y012205D03*D26*X019106Y01924D03*X006956Y02369D03*D24*
X035827Y016535D03*D26*X007106Y023986D03*D28*X038386Y013976D03*D26*
X013484Y002067D03*D28*X037602Y02464D03*X031402Y02404D03*D26*
X019291Y014764D03*X019556Y01914D03*D24*X010433Y007874D03*D26*
X020529Y024356D03*X013656Y02169D03*X02689Y012943D03*X015606Y02094D03*
D28*X037602Y02394D03*D26*X034646Y010433D03*X032313Y008258D03*D28*
X033252Y02394D03*X025591Y010039D03*D26*X007677Y003543D03*X007874D03*
X017829Y02514D03*X009154Y003937D03*X007972Y001083D03*X024173Y020906D03*
D28*X030709Y013976D03*D24*X020472Y015748D03*D28*X038661Y020906D03*D26*
X006693Y010433D03*D28*X015354Y00748D03*D24*X023031Y009252D03*
X015354Y013583D03*D26*X027136Y022982D03*X009756Y02544D03*
X00689Y002264D03*D28*X026801Y024321D03*D26*X014156Y01694D03*
X027303Y022815D03*X008071Y003264D03*D28*X023779Y02394D03*D26*
X008976Y002185D03*X017224Y001476D03*X026906Y01514D03*X02747Y023317D03*
D28*X030709Y018307D03*D26*X022736Y019685D03*D24*X02815Y017913D03*D28*
X017913Y00748D03*X02815Y018307D03*D26*X011713Y002953D03*
X023917Y007382D03*D28*X028179Y02359D03*D24*X012795Y007087D03*D28*
X015354Y011811D03*D26*X015945Y017126D03*X041702Y02154D03*
X034252Y012598D03*D24*X015354Y007087D03*D28*X003056Y02439D03*D26*
X037452Y02129D03*D24*X017913Y013583D03*X025606Y003264D03*
X02472Y001886D03*D26*X011614Y012598D03*D28*X032902Y02394D03*
X007906Y02399D03*X012293Y024321D03*X042702Y02324D03*D26*
X040846Y015118D03*D28*X005433Y020945D03*D26*X032456Y01934D03*
X030482Y023484D03*X003839Y004823D03*D24*X015354Y009252D03*D28*
X04064Y024321D03*X010433Y00748D03*X028529Y02324D03*D26*
X01378Y008268D03*X021457Y012598D03*X015157Y002854D03*D24*
X012795Y010039D03*D26*X029528Y019094D03*X036811Y014764D03*
X042126Y008661D03*X023524Y008366D03*D28*X010256Y02464D03*D26*
X042802Y02544D03*D28*X012293Y023986D03*D26*X039173Y014764D03*D28*
X02815Y010039D03*D26*X045177Y025394D03*D24*X033268Y016535D03*D26*
X003445Y004823D03*D28*X023031Y011811D03*D26*X031772Y02315D03*
X026956Y01479D03*X014262Y019134D03*D24*X025591Y015748D03*
X02815Y016535D03*D28*X020472Y016142D03*D24*X040945Y007874D03*
Y013583D03*D26*X00435Y014783D03*D24*X033268Y007874D03*D28*
X012795Y013976D03*D26*X020679Y02324D03*X037205Y010433D03*
X008806Y02164D03*X00374Y014764D03*X022362Y025709D03*D28*
X009906Y02464D03*D24*X035827Y007874D03*D26*X044154Y023652D03*
X031693Y014764D03*D24*X010433Y012205D03*X034547Y025787D03*D28*
X004906Y02359D03*D26*X034252Y019094D03*X044154Y024656D03*
X027136Y022648D03*D24*X040945Y016535D03*D28*X037952Y02324D03*D24*
X015354Y018701D03*X040945Y012205D03*D26*X007283Y023622D03*D28*
X033268Y016142D03*D17*X043952Y02094D03*D28*X005315Y016142D03*D24*
X025606Y002378D03*X034547Y025984D03*D28*X015354Y018307D03*D26*
X019179Y02549D03*X041644Y022982D03*D28*X017579Y02424D03*D24*
X033268Y009252D03*D26*X00435Y012608D03*D24*X025591Y012205D03*D26*
X031956Y01934D03*D28*X007874Y016142D03*D17*X002756Y007874D03*
X001378Y022835D03*D37*X04576Y003886D03*X04676Y007886D03*
X04576Y008886D03*X04676D03*X04576Y009886D03*X04676D03*X04576Y010886D03*
X04676D03*X04576Y011886D03*X04676D03*X04576Y012886D03*X04676Y003886D03*
Y012886D03*X04576Y013886D03*X04676D03*X04576Y014886D03*X04676D03*
X04576Y015886D03*X04676D03*D26*X047185Y014232D03*D37*X04576Y016886D03*
X04676D03*X04576Y017886D03*X04576Y004886D03*X04676Y017886D03*
X04576Y018886D03*X04676D03*X04576Y019886D03*X04676D03*X04576Y020886D03*
X04676D03*X04576Y021886D03*X04676D03*X04576Y022886D03*X04676Y004886D03*
Y022886D03*X04576Y005886D03*X04676D03*X04576Y006886D03*X04676D03*
X04576Y007886D03*D43*X04626Y001969D03*X037205D03*X04626Y024803D03*D17*
X002756Y008661D03*Y00748D03*D28*X006693Y026083D03*D17*
X002756Y009055D03*D28*X029229Y02464D03*D26*X004035Y025551D03*
X013297Y023317D03*X041644Y022146D03*X014764Y00374D03*X015506Y02189D03*
X041909Y012608D03*D24*X012795Y016535D03*X015354Y015748D03*X012795D03*
D26*X037152Y02164D03*X034702Y024021D03*D24*X010433Y015748D03*
X040945D03*D26*X034252Y014764D03*X013366Y012608D03*X044321Y023819D03*
D28*X019729Y02464D03*X019079Y02429D03*D24*X007874Y015748D03*D26*
X04375Y017126D03*D28*X028179Y02429D03*D26*X026575Y010433D03*
X021112Y024154D03*D24*X043504Y015748D03*D28*X023429Y02394D03*D26*
X02128Y023986D03*X025329Y02074D03*D28*X005315Y016535D03*D26*
X017933Y02315D03*X011614Y014764D03*X034783Y024823D03*X028297Y017461D03*
X029203Y008258D03*X044154Y024321D03*X003593Y022648D03*D28*
X037602Y02359D03*D24*X015354Y012205D03*D26*X00435Y019134D03*D24*
X026098Y002772D03*X023659Y002747D03*X025606Y002772D03*D26*
X016447Y010433D03*D24*X033268Y015748D03*D26*X008858Y019094D03*D28*
X004556Y02359D03*D24*X030709Y018701D03*X023031Y013583D03*D26*
X025079Y02124D03*X026969Y019094D03*D28*X037602Y02324D03*
X039173Y025984D03*D26*X006356Y024021D03*D24*X02815Y007874D03*
X035827Y015748D03*X005315Y007087D03*D26*X032106Y022815D03*
X011614Y010433D03*D28*X040945Y018307D03*X033252Y02464D03*D26*
X024409Y012598D03*D24*X038386Y015748D03*D26*X032087Y010433D03*
X00374Y016929D03*X010906Y02124D03*X01122Y019094D03*X014456Y02544D03*
D24*X035827Y01437D03*X02815Y007087D03*X020472Y011417D03*
X023031Y016535D03*D26*X006306Y02334D03*X011156Y02074D03*
X037152Y02144D03*D24*X040945Y01437D03*D26*X01122Y008268D03*
X034652Y02334D03*X003248Y004429D03*D28*X02815Y016142D03*D26*
X009252Y014764D03*D28*X017229Y02439D03*D26*X040354Y007382D03*D28*
X005556Y02464D03*D43*X001378Y001969D03*D28*X02815Y00748D03*Y013976D03*
D17*X002756Y01063D03*Y009843D03*Y008268D03*Y009449D03*D28*
X00187Y022047D03*D17*X002756Y006693D03*Y010236D03*D24*
X025114Y003264D03*X038386Y01437D03*D26*X031939Y022313D03*
X024409Y014764D03*D24*X026098Y002378D03*D28*X012795Y018307D03*D24*
X036252Y02434D03*D28*X005315Y013976D03*D26*X039764Y012598D03*
X01378Y016929D03*D28*X009256Y02394D03*X023031Y018307D03*D26*
X015768Y019134D03*D24*X020472Y009252D03*D26*X025827Y014783D03*
X034702Y023686D03*X009252Y019094D03*X027224Y012608D03*X02061Y024823D03*
D24*X035827Y012205D03*D26*X014173Y010433D03*X017766Y022982D03*
X006299Y016929D03*D24*X020472Y012205D03*D26*X031939Y022648D03*D24*
X023031Y007087D03*D26*X032106Y02315D03*X024055Y012598D03*
X030217Y025984D03*X031604Y023317D03*X004882Y021142D03*
X003313Y025715D03*X00376Y022815D03*D24*X035827Y018701D03*D26*
X020945Y024321D03*X006693Y014764D03*D28*X004556Y02394D03*D26*
X006299Y014764D03*D24*X017229Y02004D03*D26*X018329Y02164D03*
X004803Y021378D03*X002998Y025478D03*X003425Y022815D03*D28*
X043504Y00748D03*X040945Y009646D03*X030669Y010039D03*X020472Y011811D03*
D24*X038386Y007087D03*D26*X02185Y010433D03*D28*X028529Y02464D03*D26*
X02185Y014764D03*X017431Y022648D03*D28*X035827Y011811D03*D17*
X002756Y007087D03*D24*X02815Y009252D03*X020374Y025787D03*D28*
X025591Y013976D03*D38*X013091Y004232D03*D28*X004906Y02464D03*D26*
X029679Y02189D03*D28*X02815Y011811D03*D26*X004626Y01998D03*
X017431Y023317D03*X034852Y02324D03*D28*X019079Y02394D03*D24*
X02815Y011417D03*D26*X009106Y02129D03*X00376Y02248D03*X039252Y02124D03*
D24*X025591Y011417D03*D26*X006939Y024154D03*X026555Y012608D03*D24*
X025213Y002772D03*D26*X003681Y019134D03*X00561Y000689D03*D28*
X038386Y011811D03*D26*X042244Y012943D03*X028297Y019301D03*D24*
X038386Y013583D03*D26*X019006Y01694D03*D24*X033268Y012205D03*D28*
X04064Y023986D03*D26*X023279Y02129D03*D24*X035827Y009252D03*D26*
X006102Y001083D03*X02372Y007382D03*X008366Y001083D03*X032677Y012795D03*
D28*X031402Y02439D03*D26*X036811Y016929D03*D28*X043228Y020906D03*D24*
X01565Y025787D03*X010925D03*D26*X024409Y019094D03*D28*X009256Y02359D03*
D24*X01565Y025984D03*X025591Y01437D03*D26*X017598Y02315D03*
X042244Y014783D03*D24*X012795Y012205D03*D28*X003406Y02424D03*D24*
X02815Y01437D03*X038386Y007874D03*D28*X024488Y020906D03*D17*
X002264Y022835D03*D26*X004156Y02184D03*X036811Y008268D03*
X045177Y025787D03*X011122Y002953D03*D28*X018729Y02394D03*D26*
X025492Y025984D03*X00374Y004626D03*X003051Y004823D03*X00315Y004626D03*
X02372Y008366D03*X013287Y002067D03*X028987Y017116D03*X017854Y024892D03*
X021129Y02369D03*X026606Y01479D03*X032502Y02164D03*X012697Y002264D03*
X017618Y001575D03*X013366Y015118D03*X019518Y008258D03*D28*
X017913Y01437D03*D26*X003848Y010433D03*D28*X018729Y02464D03*D24*
X021729Y02434D03*X012795Y009252D03*D26*X021506Y01909D03*D28*
X014356Y02429D03*D26*X021457Y014764D03*X02998Y024321D03*D24*
X043504Y010039D03*D26*X026969Y008268D03*X022429Y02064D03*D24*
X025098Y025984D03*D26*X023929Y02544D03*D24*X005315Y017913D03*D26*
X017766Y022648D03*D24*X031402Y02474D03*D26*X013366Y014783D03*
X031772Y022815D03*D24*X010433Y009252D03*D28*X009606Y02464D03*D26*
X012963Y023317D03*X034213Y010433D03*D28*X023031Y016142D03*D26*
X020696Y023519D03*D24*X012795Y013583D03*D28*X038386Y016142D03*
X017913Y011811D03*X025591D03*D26*X007283Y002953D03*D28*
X023779Y02359D03*D24*X017229Y02474D03*D26*X034252Y016929D03*
X036811Y019094D03*D24*X035827Y007087D03*D28*X005315Y015748D03*D24*
Y018701D03*D26*X003556Y02069D03*D24*X007874Y016535D03*D28*
X017913Y012205D03*D26*X018898Y010433D03*X037205Y008268D03*D28*
X009256Y02324D03*D26*X027303Y022313D03*X013056Y01914D03*
X026606Y01694D03*D24*X012795Y017913D03*D26*X041309Y023317D03*
X009528Y021299D03*X008406Y02454D03*X026969Y022815D03*D28*
X010433Y016142D03*D24*X007874Y017913D03*X010433D03*D28*
X038602Y02464D03*X010433Y013976D03*D26*X041732Y008465D03*D28*
X014882Y020906D03*D26*X035433Y023425D03*X003258Y023317D03*
X016309Y02315D03*D24*X017829Y02004D03*D28*X004906Y02324D03*D26*
X015974Y024154D03*D28*X014356Y02394D03*D26*X042323Y010433D03*
X015807Y024321D03*Y023652D03*D24*X003056Y02004D03*D28*X009606Y02359D03*
D24*X020472Y01437D03*D28*X014356Y02359D03*X014006Y02464D03*
X019079Y02359D03*D24*X005315Y007874D03*X025591Y017913D03*D28*
X014356Y02464D03*D26*X032028Y024892D03*X015266Y017461D03*D24*
X029823Y025787D03*D26*X041949Y004331D03*Y004035D03*X042244Y005512D03*
X009252Y008268D03*X0156Y017126D03*D24*X006201Y025787D03*D28*
X026801Y023986D03*D26*X003425Y02315D03*D24*X024114Y002303D03*D26*
X042539Y005512D03*D28*X028529Y02359D03*D26*X041309Y022648D03*
X039173Y012598D03*D24*X022079Y02434D03*D26*X032677Y014961D03*
X02185Y019094D03*D24*X007874Y012205D03*X005315D03*D26*
X028957Y019134D03*D24*X035827Y013583D03*D26*X041181Y015118D03*
X044656Y023484D03*D24*X017913Y011417D03*D26*X02185Y008268D03*D24*
X015354Y007874D03*D26*X003258Y022982D03*X01122Y010433D03*
X039173Y016929D03*D28*X015354Y016142D03*D26*X003593Y023317D03*
X021457Y023622D03*X003258Y022648D03*X006523Y024188D03*D28*
X004556Y02429D03*D24*X003056Y02474D03*D28*X032902Y02324D03*D24*
X010925Y025984D03*D28*X007556Y02399D03*D24*X043504Y012205D03*D26*
X027256Y01479D03*X009252Y016929D03*X014094Y012943D03*X012806Y01939D03*
X039764Y016929D03*X016142Y023317D03*X031939Y022982D03*
X042244Y012608D03*D28*X024079Y02464D03*D26*X032106Y02248D03*
X015974Y023484D03*X013456Y01694D03*X01313Y024823D03*X013297Y02499D03*
X01313Y02315D03*X006356Y024356D03*X013031Y015118D03*X044321Y024154D03*
D24*X033268Y017913D03*D26*X006919Y008258D03*D28*X004556Y02464D03*D26*
X015974Y024488D03*D24*X005315Y010039D03*D28*X004906Y02394D03*D24*
X007874Y010039D03*D26*X03622Y025472D03*X013297Y022146D03*
X014094Y015118D03*D24*X017913Y018701D03*D26*X030148Y02315D03*
X028632Y017126D03*D28*X040945Y00748D03*D24*X020472Y017913D03*D26*
X003445Y004429D03*D28*X023429Y02464D03*D26*X010006Y02094D03*D24*
X007874Y018701D03*D28*X042352Y02324D03*X009606D03*D26*
X014094Y014783D03*D28*X009256Y02429D03*X017913Y015748D03*D26*
X042002Y02169D03*D28*X020472Y013976D03*X017913D03*D24*X015354Y01437D03*
X012795D03*D26*X02998Y024656D03*X034951Y024488D03*X019291Y020906D03*
X019055Y021142D03*X017487Y025715D03*D28*X037952Y02394D03*D26*
X016043Y026083D03*X034352Y02189D03*X041702Y02184D03*X02185Y012598D03*
D28*X042352Y02394D03*D26*X03487Y024188D03*X017829Y02464D03*D28*
X040974Y023986D03*D26*X020479Y02334D03*D24*X033268Y010039D03*D26*
X041555Y010472D03*X039764Y010433D03*X03811Y021299D03*X036902Y02474D03*
X037205Y019094D03*D24*X030669Y007087D03*D26*X004106Y02129D03*D24*
X033268Y007087D03*D28*Y00748D03*D26*X034646Y019094D03*D28*
X012795Y009646D03*D26*X008858Y012598D03*X041556Y01724D03*
X03248Y016929D03*X036602Y02064D03*X016142Y003937D03*D28*
X035827Y00748D03*D26*X034646Y016929D03*X031693Y012598D03*
X035118Y024321D03*D28*X038386Y00748D03*X035827Y016142D03*
X043504Y011811D03*D24*X005315Y011417D03*X040945Y009252D03*D28*
Y013976D03*D24*X007906Y02434D03*D28*X030669Y00748D03*D24*
X043504Y011417D03*X040945D03*X035827D03*D26*X015266Y019301D03*D24*
X038386Y011417D03*X017529Y02004D03*X035827Y010039D03*X038386D03*D26*
X009252Y010433D03*D24*X040945Y010039D03*D26*X04189Y021299D03*D24*
X033268Y011417D03*X007874Y01437D03*D28*X035827Y018307D03*X038386D03*
D26*X008071Y003543D03*X043456Y01934D03*X007874Y003264D03*
X036535Y025709D03*D24*X038386Y017913D03*X040945D03*D26*
X030148Y023484D03*D24*X017913Y009252D03*D26*X026555Y012943D03*D24*
X043504Y017913D03*D26*X027829Y02169D03*X007677Y003264D03*D28*
X042352Y02464D03*D26*X00748Y002657D03*D28*X030709Y015748D03*D26*
X023701Y021299D03*X022579Y02454D03*X014094Y012608D03*X029134Y012598D03*
X041309Y022982D03*X017431D03*X041909Y012943D03*X043456Y01704D03*D28*
X037952Y02464D03*D26*X04375Y017461D03*X042913Y020906D03*D24*
X023031Y018701D03*D26*X041339Y025709D03*X042802Y02134D03*D24*
X003356Y02004D03*D26*X03166Y025715D03*X033228Y021142D03*
X019508Y016959D03*X017766Y023317D03*X012628D03*X02747Y02499D03*
X026606Y01909D03*X031345Y025478D03*X03315Y021378D03*X017234Y01434D03*
X014173Y008268D03*X027303Y024823D03*X029779Y02094D03*X021024Y008258D03*
D28*X030709Y011811D03*D26*X022979Y02164D03*X041476Y022313D03*
Y022815D03*X041909Y014783D03*X02185Y016929D03*X044656Y02315D03*
X026606Y01514D03*X024409Y010433D03*D24*X025591Y007087D03*D28*
X017229Y02404D03*D26*X042579Y015118D03*X034702Y024356D03*
X007874Y025472D03*D24*X010433Y013583D03*D26*X015945Y01752D03*
X024409Y016929D03*D24*X020472Y018701D03*D26*X044154Y023986D03*
X009252Y012598D03*X041909Y015118D03*D24*X003622Y020039D03*D26*
X039152Y02184D03*X044321Y02315D03*X03487Y023854D03*X030315Y023317D03*
X039173Y003543D03*D28*X042702Y02359D03*D24*X025098Y025787D03*
X035827Y017913D03*D28*X023429Y02359D03*D26*X036656Y01264D03*
X021024Y010433D03*X044321Y023484D03*D28*X012795Y00748D03*D24*
X043504Y007874D03*D28*X005315Y009646D03*D26*X02685Y025472D03*
X028307Y021309D03*X01122Y016929D03*X025827Y015118D03*X038109Y025465D03*
D24*X033268Y018701D03*D28*X010433Y009646D03*D26*X041142Y02315D03*D24*
X030709Y016535D03*D26*X033465Y020906D03*D24*X010433Y01437D03*D28*
X019079Y02324D03*D26*X02998Y023986D03*D28*X010315Y020906D03*D26*
X030148Y024154D03*D28*X017913Y018307D03*Y016142D03*D26*
X027256Y01514D03*X027224Y012943D03*D24*X023031Y012205D03*D26*
X044488Y023317D03*D24*X007874Y013583D03*D26*X004156Y02164D03*D24*
X007556Y02434D03*X005315Y013583D03*X023031Y01437D03*D26*
X024075Y016929D03*X018329Y02184D03*X007579Y004232D03*X042579Y012943D03*
D28*X02815Y009646D03*X025591D03*D26*X022729Y02474D03*X023937Y021299D03*
D28*X033268Y011811D03*X023429Y02429D03*X023779Y02464D03*D26*
X016831Y000984D03*X005709Y020846D03*D17*X002756Y01811D03*D26*
X045374Y025787D03*X020778Y024488D03*X003839Y004429D03*
X003346Y004626D03*X023228Y019488D03*X023917Y019587D03*
X027362Y005709D03*D24*X010433Y011417D03*D26*X015059Y020177D03*
X002854Y004429D03*X003051D03*X027165Y005512D03*X013681Y002067D03*
X027529Y02154D03*D28*X028879Y02464D03*D26*X020279Y02164D03*
X01122Y014764D03*X006437Y024823D03*D28*X015846Y003051D03*X016437D03*
Y002067D03*X015846D03*X009606Y02429D03*D26*X00376Y022146D03*D28*
X028179Y02324D03*D26*X006299Y012598D03*D28*X020472Y009646D03*D26*
X034213Y008258D03*X029616Y014803D03*D28*X030709Y017913D03*D26*
X041476Y02315D03*X045374Y025394D03*X032002Y02514D03*D28*
X012795Y016142D03*D36*X03324Y004807D03*X032256D03*X031469D03*D31*
X030484D03*D41*X034449Y00374D03*X029276D03*D28*X028529Y02429D03*
X026467Y024321D03*D24*X012795Y018701D03*D28*X025591Y016142D03*
X035827Y013976D03*D26*X039502Y02074D03*D28*X030709Y013583D03*
X043504Y009646D03*D26*X013297Y022982D03*D24*X020472Y010039D03*D26*
X02998Y023652D03*X014456Y02134D03*X012992Y025709D03*X03487Y023519D03*
X039567Y005413D03*D24*X007874Y007087D03*X010433Y018701D03*D26*
X044685Y005906D03*X04311D03*X039764Y019094D03*X027717Y021299D03*
X041456Y01944D03*D24*X020472Y007087D03*D26*X008858Y016929D03*D28*
X043052Y02464D03*D24*X033268Y01437D03*D26*X044154Y023317D03*D28*
X040945Y011811D03*X015354Y013976D03*X030709Y016142D03*D26*
X017766Y022313D03*X01378Y010433D03*X02747Y022982D03*D28*
X017913Y009646D03*D26*X020529Y023686D03*X035453Y023986D03*
X006693Y019094D03*D28*X023031Y009646D03*D26*X039173Y008268D03*D28*
X012628Y024321D03*X032902Y02464D03*X042702Y02429D03*D26*
X034452Y02164D03*X024642Y002575D03*D28*X022079Y02399D03*D26*
X029528Y012598D03*X012697Y015118D03*X014567Y020906D03*D24*
X030709Y01437D03*X007874Y009252D03*D26*X011614Y016929D03*
X019291Y010433D03*X024016Y008268D03*D28*X024429Y02464D03*D26*
X041644Y02499D03*D28*X009256Y02464D03*D26*X006356Y023686D03*
X013543Y021299D03*X006299Y019094D03*X041476Y024823D03*X02747Y022146D03*
X039469Y006496D03*X013031Y014783D03*X039665Y004331D03*D33*
X014075Y004429D03*D28*X007874Y00748D03*D17*X039665Y004724D03*D28*
X004906Y02429D03*X018729Y02359D03*D26*X014429Y014783D03*
X006106Y02164D03*X015974Y02315D03*X035285Y024154D03*D24*
X005315Y009252D03*X010433Y010039D03*D26*X027303Y02315D03*D28*
X033252Y02324D03*D24*X029823Y025984D03*D28*X033268Y009646D03*
X014006Y02429D03*D26*X037205Y014764D03*D24*X020472Y016535D03*
X023031Y015748D03*D28*X030709Y011417D03*X017913Y017913D03*D26*
X006594Y001083D03*X009764Y021299D03*X008556Y02474D03*X006693Y012598D03*
X042579Y014783D03*D28*X043504Y013976D03*D26*X037205Y016929D03*
X002854Y004823D03*D24*X020472Y013583D03*D28*X023429Y02324D03*
X023779D03*D26*X024409Y008268D03*D28*X015056Y02464D03*D26*
X016447Y008258D03*X021506Y01694D03*D28*X014006Y02359D03*
X028529Y02394D03*X014006D03*D26*X02689Y012608D03*D40*X011319Y004232D03*
D26*X008307Y004764D03*D28*X043402Y02464D03*X018729Y02429D03*X023779D03*
X009606Y02394D03*X014356Y02324D03*D26*X017656Y02069D03*D17*
X042717Y004035D03*D26*X017234Y01224D03*D28*X014006Y02324D03*D26*
X013878Y002067D03*X027165Y005315D03*X027362D03*X011516Y002953D03*
X014862Y001673D03*D24*X017913Y007087D03*X038386Y012205D03*D26*
X02874Y020906D03*D24*X005315Y01437D03*D26*X003642Y004429D03*
X003543Y004626D03*D17*X002756Y018406D03*D26*X027165Y005709D03*
X045177Y025591D03*X012697Y002461D03*X026969Y010433D03*D28*
X043898Y025689D03*D24*X038386Y018701D03*D28*X037602Y02429D03*D26*
X005217Y019783D03*X012303Y002461D03*Y002264D03*X013091Y002067D03*
X023622Y008563D03*X002953Y004626D03*X02998Y023317D03*D28*
X019079Y02464D03*X033268Y013976D03*X017913Y010039D03*D26*
X019291Y012598D03*X026801Y023317D03*X025492Y015118D03*
X043415Y017461D03*X030148Y023819D03*D28*X039173Y025768D03*D26*
X003681Y024892D03*D28*X042352Y02429D03*X033252D03*D26*
X004921Y020079D03*X02747Y02248D03*X012697Y002067D03*D24*
X025591Y009252D03*D28*X033902Y02464D03*D26*X004921Y019783D03*
X023524Y019882D03*X014075Y002362D03*X033352Y02549D03*X012303Y002067D03*
X015059Y003051D03*X017421Y000984D03*X011319Y002953D03*
X005217Y020079D03*X010433D03*X01811Y00187D03*X02126Y023425D03*D28*
X028179Y02464D03*X030669Y007874D03*D26*X022047Y025472D03*
X037205Y012598D03*X040974Y023317D03*X026575Y008268D03*
X020696Y023854D03*X003642Y004823D03*D17*X002756Y017815D03*D26*
X015256Y020177D03*X045374Y025591D03*D24*X007874Y007874D03*D26*
X011614Y008268D03*D28*X012628Y023986D03*D26*X007087Y023425D03*
X028629Y02544D03*D24*X043504Y018701D03*D26*X017618Y003839D03*
X006006Y02189D03*D24*X02815Y015748D03*D26*X005512Y020079D03*
X003248Y004823D03*X02372Y019587D03*X015059Y003445D03*D24*
X010433Y007087D03*D26*X008819Y010433D03*X040056Y01944D03*D28*
X017913Y007874D03*D26*X018279Y02129D03*D28*X031752Y02424D03*D26*
X008819Y008258D03*X041644Y02248D03*D24*X017913Y016535D03*D26*
X031856Y02069D03*X010039Y002657D03*X020768Y026083D03*D28*
X043504Y016142D03*D26*X010433Y002657D03*X01063D03*D28*X036252Y02399D03*
D26*X010236Y002657D03*X042579Y012608D03*D28*X03378Y020945D03*D26*
X03376Y020472D03*X029232Y020079D03*Y020276D03*D28*X029055Y020906D03*
D26*X041644Y023317D03*X009252Y001969D03*Y001772D03*D17*Y001614D03*D26*
Y002559D03*X029291Y017293D03*X017598Y022815D03*X009547Y004134D03*
X016309Y023484D03*X006604Y024488D03*X003848Y008258D03*
X034646Y012598D03*D24*X02815Y012205D03*D28*X004556Y02324D03*D26*
X006523Y023854D03*D24*X015354Y016535D03*D26*X032502Y02184D03*D28*
X012795Y011811D03*D26*X038386Y005315D03*Y004724D03*X017234Y01399D03*
X014134Y021309D03*X012677Y025472D03*X008189Y025709D03*
X027136Y023317D03*X015807D03*X014567Y001969D03*X017323Y003839D03*
X015138Y002067D03*D28*X005315Y00748D03*D26*X024979Y02184D03*
X020179Y02189D03*D28*X005206Y02464D03*D24*X025591Y013583D03*Y007874D03*
D26*X017933Y02248D03*D24*X023031Y007874D03*X020472D03*D28*
X040945Y016142D03*X025591Y00748D03*D16*X018976Y021378D02*
G01X018389Y021025D01*X018169D01*X018014Y02118D01*X017992Y02155D01*
Y021633D01*X018029Y021932D01*X018098Y022077D01*Y023218D01*
X018019Y02496D01*X017994Y025209D01*X017897Y025305D01*X017172Y025478D01*
X04248Y021309D02*X042Y021034D01*X04178D01*X041625Y021189D01*
X041437Y02143D01*X040977Y022747D01*X040809Y023249D01*Y023385D01*
X040906Y023482D01*X041502Y02364D01*X041809Y024922D01*Y025059D01*
X041712Y025155D01*X041024Y025472D01*X01689Y002657D02*X016693Y003642D01*
X027165Y025709D02*X027735Y0251D01*Y02488D01*X027635Y022914D01*
X027138Y022381D01*Y022245D01*X027364Y021472D01*X027552Y021231D01*
X027648Y021134D01*X027785D01*X028239Y021474D01*X028375D01*
X028629Y02134D01*D26*X019606Y020945D02*X019587Y020276D01*X019783D01*
Y020079D01*X019587D01*Y019882D01*D16*X037874Y021299D02*
X037562Y021025D01*X037343D01*X037152Y021101D01*X037061Y02114D01*
X037002Y021199D01*X036887Y02133D01*X036752Y02454D01*X04676Y015886D02*
X047085Y01502D01*X047185Y014232D01*X004882Y021142D02*X004968Y02131D01*
Y021446D01*X004871Y021543D01*X004735D01*X004174Y021125D01*X004038D01*
X003941Y021222D01*X003931Y021318D01*X003956Y02189D01*X004056Y02209D01*
X004025Y023259D01*X003946Y025002D01*X003921Y02525D01*X003766Y025405D01*
X003313Y025715D01*X004803Y021378D02*X004216Y021025D01*X003996D01*
X003841Y02118D01*X003831Y021276D01*Y021359D01*X003856Y021932D01*
X003925Y022077D01*Y023218D01*X003846Y02496D01*X003821Y025209D01*
X003724Y025305D01*X002998Y025478D01*X009528Y021299D02*
X009216Y021025D01*X008996D01*X008805Y021101D01*X008714Y02114D01*
X008656Y021199D01*X008541Y02133D01*X008406Y02454D01*X019055Y021142D02*
X019141Y02131D01*Y021446D01*X019045Y021543D01*X018908D01*
X018347Y021125D01*X018211D01*X018114Y021222D01*X018092Y021592D01*
X018129Y02189D01*X018229Y02209D01*X018198Y023259D01*X018119Y025002D01*
X018094Y02525D01*X017939Y025405D01*X017487Y025715D01*X03811Y021299D02*
X037942Y021464D01*X037806D01*X037709Y021368D01*X037617Y021222D01*
X037521Y021125D01*X037384D01*X037193Y021201D01*X037102Y02124D01*
X036987Y021372D01*X036917Y024609D01*X036902Y02474D01*X023701Y021299D02*
X023389Y021025D01*X023169D01*X022979Y021101D01*X022888Y02114D01*
X022829Y021199D01*X022714Y02133D01*X022579Y02454D01*X041339Y025709D02*
X041909Y0251D01*Y02488D01*X041809Y022914D01*X041311Y022381D01*
Y022245D01*X041537Y021472D01*X041725Y021231D01*X041821Y021134D01*
X041958D01*X042412Y021474D01*X042549D01*X042802Y02134D01*
X03166Y025715D02*X032112Y025405D01*X032267Y02525D01*X032293Y025002D01*
X032371Y023259D01*X032402Y02209D01*X032302Y02189D01*X032277Y021318D01*
X032287Y021222D01*X032384Y021125D01*X032521D01*X033081Y021543D01*
X033218D01*X033315Y021446D01*Y02131D01*X033228Y021142D01*
X031345Y025478D02*X032071Y025305D01*X032167Y025209D01*X032193Y02496D01*
X032271Y023218D01*Y022077D01*X032202Y021932D01*X032177Y021359D01*
Y021276D01*X032187Y02118D01*X032343Y021025D01*X032562D01*
X03315Y021378D01*X02685Y025472D02*X027539Y025155D01*X027635Y025059D01*
Y024922D01*X027329Y02364D01*X026733Y023482D01*X026636Y023385D01*
Y023249D01*X026804Y022747D01*X027264Y02143D01*X027452Y021189D01*
X027607Y021034D01*X027826D01*X028307Y021309D01*D28*X017913Y018307D02*
X018504D01*Y016142D01*X017913D01*D16*X022729Y02474D02*
X022744Y024609D01*X022814Y021372D01*X022929Y02124D01*X02302Y021201D01*
X023211Y021125D01*X023347D01*X023444Y021222D01*X023536Y021368D01*
X023632Y021464D01*X023769D01*X023937Y021299D01*X014456Y02134D02*
X014202Y021474D01*X014066D01*X013612Y021134D01*X013475D01*
X013378Y021231D01*X013191Y021472D01*X012965Y022245D01*Y022381D01*
X013462Y022914D01*X013562Y02488D01*Y0251D01*X012992Y025709D01*D22*
X044685Y005906D02*X04311D01*D16*X009764Y021299D02*X009596Y021464D01*
X009459D01*X009363Y021368D01*X009271Y021222D01*X009174Y021125D01*
X009038D01*X008847Y021201D01*X008756Y02124D01*X008641Y021372D01*
X008571Y024609D01*X008556Y02474D01*D28*X03378Y020945D02*
X033742Y02079D01*X03358Y020628D01*X03376Y020472D01*X03358Y020628D02*
X03335D01*X032776Y020669D01*D26*X032264Y019744D01*X031211Y019571D01*
D28*X029232Y020079D01*Y020276D01*X031211Y019571D02*X029055Y020906D01*
D20*X038386Y005315D02*Y004724D01*D16*X014134Y021309D02*
X013653Y021034D01*X013434D01*X013278Y021189D01*X013091Y02143D01*
X01263Y022747D01*X012463Y023249D01*Y023385D01*X01256Y023482D01*
X013156Y02364D01*X013462Y024922D01*Y025059D01*X013366Y025155D01*
X012677Y025472D01*
%LPD*%
D25*X032902Y02359D03*D21*X033Y023688D02*X033035Y023723D01*
X032902Y023728D02*Y023778D01*X032805Y023688D02*X03277Y023723D01*
X032765Y02359D02*X032715D01*X032805Y023493D02*X03277Y023457D01*
X032902Y023452D02*Y023402D01*X033Y023493D02*X033035Y023457D01*
X03304Y02359D02*X03309D01*D18*X041142Y022815D03*D25*X02815Y018701D03*
D21*X028247Y018798D02*X02824Y018791D01*X02815Y018839D02*Y018829D01*
X028052Y018798D02*X028059Y018791D01*X028012Y018701D02*X028022D01*
X028052Y018603D02*X028059Y01861D01*X028247Y018603D02*X02824Y01861D01*
X028287Y018701D02*X028277D01*D18*X036811Y010433D03*D25*
X025213Y002378D03*D16*X02531Y002475D02*X025303Y002468D01*
X025213Y002516D02*Y002506D01*X025115Y002475D02*X025122Y002468D01*
X025075Y002378D02*X025085D01*X02535D02*X02534D01*D25*X023659Y002397D03*
D16*X023756Y002494D02*X023749Y002487D01*X023659Y002535D02*Y002525D01*
X023562Y002494D02*X023569Y002487D01*X023797Y002397D02*X023787D01*D25*
X025606Y001886D03*D16*X025704Y001983D02*X025697Y001976D01*
X025606Y002024D02*Y002014D01*X025509Y001983D02*X025516Y001976D01*
X025469Y001886D02*X025479D01*X025509Y001788D02*X025516Y001795D01*
X025606Y001748D02*Y001758D01*X025704Y001788D02*X025697Y001795D01*
X025744Y001886D02*X025734D01*D25*X025114D03*D16*X025212Y001983D02*
X025205Y001976D01*X025114Y002024D02*Y002014D01*X025017Y001983D02*
X025024Y001976D01*X024976Y001886D02*X024986D01*X025017Y001788D02*
X025024Y001795D01*X025114Y001748D02*Y001758D01*X025212Y001788D02*
X025205Y001795D01*X025252Y001886D02*X025242D01*D25*X025591Y016535D03*
D21*X025688Y016633D02*X025681Y016626D01*X025591Y016673D02*Y016663D01*
X025493Y016633D02*X0255Y016626D01*X025453Y016535D02*X025463D01*
X025493Y016438D02*X0255Y016445D01*X025688Y016438D02*X025681Y016445D01*
X025728Y016535D02*X025718D01*D25*X025591Y018701D03*D21*
X025688Y018798D02*X025681Y018791D01*X025591Y018839D02*Y018829D01*
X025493Y018798D02*X0255Y018791D01*X025453Y018701D02*X025463D01*
X025493Y018603D02*X0255Y01861D01*X025688Y018603D02*X025681Y01861D01*
X025728Y018701D02*X025718D01*D18*X029203Y010433D03*X013297Y02248D03*
D25*X042702Y02394D03*D21*X0428Y024038D02*X042835Y024073D01*
X042702Y024078D02*Y024128D01*X042605Y024038D02*X04257Y024073D01*
X042565Y02394D02*X042515D01*X042605Y023843D02*X04257Y023807D01*
X042702Y023802D02*Y023752D01*X0428Y023843D02*X042835Y023807D01*
X04284Y02394D02*X04289D01*D25*X033268Y018307D03*D18*X030482Y02315D03*
D25*X043504Y01437D03*D21*X043601Y014468D02*X043594Y01446D01*
X043504Y014508D02*Y014498D01*X043406Y014468D02*X043414Y01446D01*
X043366Y01437D02*X043376D01*X043406Y014273D02*X043414Y01428D01*
X043601Y014273D02*X043594Y01428D01*X043642Y01437D02*X043632D01*D18*
X015807Y024656D03*X044321Y024488D03*X031604Y022982D03*
X012963Y024656D03*D25*X043898Y025984D03*D21*X043995Y026082D02*
X04403Y026117D01*X043898Y026122D02*Y026172D01*X0438Y026082D02*
X043765Y026117D01*X04376Y025984D02*X04371D01*X0438Y025887D02*
X043765Y025851D01*X043898Y025846D02*Y025796D01*X043995Y025887D02*
X04403Y025851D01*X044035Y025984D02*X044085D01*D25*X023031Y00748D03*
X031402Y02004D03*D19*X0315Y020138D02*X031535Y020173D01*
X031402Y020178D02*Y020228D01*X031305Y020138D02*X03127Y020173D01*
X031265Y02004D02*X031215D01*X03154D02*X03159D01*D25*X032002D03*D21*
Y020178D02*Y020168D01*X031905Y020138D02*X031912Y020131D01*
X031865Y02004D02*X031875D01*D25*X018729Y02324D03*D21*X018827Y023338D02*
X018862Y023373D01*X018729Y023378D02*Y023428D01*X018632Y023338D02*
X018596Y023373D01*X018591Y02324D02*X018541D01*X018632Y023143D02*
X018596Y023107D01*X018729Y023102D02*Y023052D01*X018827Y023143D02*
X018862Y023107D01*X018867Y02324D02*X018917D01*D18*X018976Y021378D03*
X017172Y025478D03*X008806Y02144D03*D15*X00887Y021504D02*
X008905Y021539D01*X008806Y02153D02*Y02158D01*X00887Y021377D02*
X008905Y021341D01*X008896Y02144D02*X008946D01*D18*X013356Y02184D03*D15*
X01342Y021904D02*X013455Y021939D01*X013292Y021904D02*X013257Y021939D01*
X013356Y02175D02*Y0217D01*X01342Y021777D02*X013455Y021741D01*
X013446Y02184D02*X013496D01*D18*X04248Y021309D03*X041024Y025472D03*
X04498Y024803D03*X011319Y026083D03*X00374Y012598D03*D25*
X035902Y02399D03*D21*X036Y024088D02*X036035Y024123D01*
X035902Y024128D02*Y024178D01*Y023852D02*Y023802D01*X036Y023893D02*
X036035Y023857D01*X03604Y02399D02*X03609D01*D18*X015974Y023819D03*
X018898Y012598D03*X039173Y010433D03*D25*X030669Y009252D03*D21*
X030767Y009349D02*X03076Y009342D01*X030572Y009349D02*X030579Y009342D01*
X030531Y009252D02*X030541D01*X030572Y009155D02*X030579Y009162D01*
X030669Y009114D02*Y009124D01*X030767Y009155D02*X03076Y009162D01*
X030807Y009252D02*X030797D01*D18*X042306Y01919D03*X039764Y008268D03*
X041181Y014783D03*D25*X032902Y02429D03*D21*X033Y024388D02*
X033035Y024423D01*X032902Y024428D02*Y024478D01*X032805Y024388D02*
X03277Y024423D01*X032765Y02429D02*X032715D01*X032805Y024193D02*
X03277Y024157D01*X032902Y024152D02*Y024102D01*X033Y024193D02*
X033035Y024157D01*X03304Y02429D02*X03309D01*D18*X006693Y016929D03*
X01313Y022815D03*Y022313D03*X013356Y02154D03*D15*X01342Y021604D02*
X013455Y021639D01*X013356Y02163D02*Y02168D01*X013446Y02154D02*
X013496D01*D18*X014429Y015118D03*X012963Y022648D03*X003656Y02514D03*
D25*X003056Y02404D03*D21*X003153Y024138D02*X003189Y024173D01*
X003056Y024178D02*Y024228D01*X002958Y024138D02*X002923Y024173D01*
X002918Y02404D02*X002868D01*X002958Y023943D02*X002923Y023907D01*
X003056Y023902D02*Y023852D01*X003153Y023943D02*X003189Y023907D01*
X003194Y02404D02*X003244D01*D25*X043504Y007087D03*D21*
X043601Y007184D02*X043594Y007177D01*X043406Y007184D02*
X043414Y007177D01*X043366Y007087D02*X043376D01*X043406Y006989D02*
X043414Y006996D01*X043504Y006949D02*Y006959D01*X043601Y006989D02*
X043594Y006996D01*X043642Y007087D02*X043632D01*D18*X01689Y002657D03*
X016693Y003642D03*X027165Y025709D03*X028629Y02134D03*X026969Y02315D03*
X003593Y022982D03*D25*X010433Y016535D03*D21*X010531Y016633D02*
X010523Y016626D01*X010433Y016673D02*Y016663D01*X010336Y016633D02*
X010343Y016626D01*X010295Y016535D02*X010305D01*X010336Y016438D02*
X010343Y016445D01*X010531Y016438D02*X010523Y016445D01*
X010571Y016535D02*X010561D01*D18*X005118Y020906D03*D25*
X043504Y018307D03*D18*X006299Y010433D03*X034646Y014764D03*
X032106Y022146D03*X010806Y02184D03*D25*X010433Y018307D03*
X042352Y02359D03*D21*X04245Y023688D02*X042485Y023723D01*
X042352Y023728D02*Y023778D01*X042255Y023688D02*X04222Y023723D01*
X042215Y02359D02*X042165D01*X042255Y023493D02*X04222Y023457D01*
X042352Y023452D02*Y023402D01*X04245Y023493D02*X042485Y023457D01*
X04249Y02359D02*X04254D01*D25*X031702Y02004D03*D19*X0318Y020138D02*
X031835Y020173D01*X031702Y020178D02*Y020228D01*X031605Y020138D02*
X03157Y020173D01*X031565Y02004D02*X031515D01*X03184D02*X03189D01*D18*
X026969Y019488D03*D25*X012795Y011417D03*D21*X012893Y011515D02*
X012886Y011508D01*X012698Y011515D02*X012705Y011508D01*
X012657Y011417D02*X012667D01*X012698Y01132D02*X012705Y011327D01*
X012795Y01128D02*Y01129D01*X012893Y01132D02*X012886Y011327D01*
X012933Y011417D02*X012923D01*D18*X006506Y02324D03*D25*X014706Y02464D03*
D21*X014803Y024738D02*X014839Y024773D01*X014706Y024778D02*Y024828D01*
X014608Y024738D02*X014573Y024773D01*X014568Y02464D02*X014518D01*
X014608Y024543D02*X014573Y024507D01*X014706Y024502D02*Y024452D01*
X014803Y024543D02*X014839Y024507D01*X014844Y02464D02*X014894D01*D25*
X007874Y011417D03*D21*X007971Y011515D02*X007964Y011508D01*
X007777Y011515D02*X007784Y011508D01*X007736Y011417D02*X007746D01*
X007777Y01132D02*X007784Y011327D01*X007874Y01128D02*Y01129D01*
X007971Y01132D02*X007964Y011327D01*X008012Y011417D02*X008002D01*D18*
X002756Y018701D03*Y018791D02*Y018781D01*Y018611D02*Y018621D01*
X028956Y01434D03*D25*X019606Y020945D03*D18*X019587Y020276D03*D19*
X01965Y020339D02*X019686Y020375D01*X019587Y020366D02*Y020416D01*
X019523Y020339D02*X019488Y020375D01*X019497Y020276D02*X019447D01*
X019523Y020212D02*X019488Y020177D01*D18*X019783Y020276D03*Y020079D03*
X019587D03*D19*X019523Y020142D02*X019488Y020178D01*X019497Y020079D02*
X019447D01*D18*X019587Y019882D03*X00435Y016959D03*X006772Y024321D03*
X042256Y01684D03*D25*X015354Y011417D03*D21*X015452Y011515D02*
X015445Y011508D01*X015257Y011515D02*X015264Y011508D01*
X015217Y011417D02*X015227D01*X015257Y01132D02*X015264Y011327D01*
X015354Y01128D02*Y01129D01*X015452Y01132D02*X015445Y011327D01*
X015492Y011417D02*X015482D01*D25*X005315Y018307D03*X042702Y02464D03*
D21*X0428Y024738D02*X042835Y024773D01*X042702Y024778D02*Y024828D01*
X042605Y024738D02*X04257Y024773D01*X042565Y02464D02*X042515D01*
X042605Y024543D02*X04257Y024507D01*X042702Y024502D02*Y024452D01*
X0428Y024543D02*X042835Y024507D01*X04284Y02464D02*X04289D01*D25*
X005315Y011811D03*X007874D03*X010433D03*X023031Y013976D03*D18*
X011614Y019094D03*X008858Y014764D03*D25*X035902Y02434D03*D21*
Y024202D02*Y024212D01*X036Y024243D02*X035993Y02425D01*X03604Y02434D02*
X03603D01*D25*X007874Y013976D03*D18*X028632Y017461D03*X00376Y02315D03*
X039173Y019094D03*D25*X038386Y009646D03*D18*X042244Y015118D03*
X030148Y024488D03*X035302Y02369D03*X039764Y014764D03*X003593Y022313D03*
D25*X035827Y009646D03*D44*X001378Y024803D03*D11*X001796Y025221D02*
X001788Y025214D01*X001378Y025394D02*Y025384D01*X00096Y025221D02*
X000967Y025214D01*X000787Y024803D02*X000797D01*X00096Y024386D02*
X000967Y024393D01*X001378Y024213D02*Y024223D01*X001796Y024386D02*
X001788Y024393D01*X001969Y024803D02*X001959D01*D25*X025591Y018307D03*
D18*X032002Y02464D03*X012795Y022815D03*X038346Y020906D03*
X008256Y02064D03*X01624Y003465D03*X0156Y017461D03*X032056Y01724D03*
X027136Y024656D03*X031604Y022648D03*X012795Y02315D03*X017933Y022146D03*
D25*X015354Y009646D03*X030669D03*D18*X014429Y012943D03*D25*
X037952Y02429D03*D21*X03805Y024388D02*X038085Y024423D01*
X037952Y024428D02*Y024478D01*X037855Y024388D02*X03782Y024423D01*
X037815Y02429D02*X037765D01*X037855Y024193D02*X03782Y024157D01*
X037952Y024152D02*Y024102D01*X03805Y024193D02*X038085Y024157D01*
X03809Y02429D02*X03814D01*D18*X012963Y022982D03*X015266Y017126D03*
X013366Y012943D03*D25*X038386Y016535D03*D21*X038483Y016633D02*
X038476Y016626D01*X038386Y016673D02*Y016663D01*X038288Y016633D02*
X038295Y016626D01*X038248Y016535D02*X038258D01*X038288Y016438D02*
X038295Y016445D01*X038483Y016438D02*X038476Y016445D01*
X038524Y016535D02*X038514D01*D18*X017234Y01184D03*D25*
X033268Y013583D03*D21*X033365Y01368D02*X033358Y013673D01*
X03317Y01368D02*X033177Y013673D01*X03313Y013583D02*X03314D01*
X03317Y013485D02*X033177Y013492D01*X033268Y013445D02*Y013455D01*
X033365Y013485D02*X033358Y013492D01*X033406Y013583D02*X033396D01*D25*
X02815D03*D21*X028247Y01368D02*X02824Y013673D01*X028052Y01368D02*
X028059Y013673D01*X028012Y013583D02*X028022D01*X028052Y013485D02*
X028059Y013492D01*X02815Y013445D02*Y013455D01*X028247Y013485D02*
X02824Y013492D01*X028287Y013583D02*X028277D01*D18*X028297Y017126D03*
X015807Y023986D03*X041309Y024656D03*D25*X033552Y02464D03*D21*
X03365Y024738D02*X033685Y024773D01*X033552Y024778D02*Y024828D01*
X033455Y024738D02*X03342Y024773D01*X033415Y02464D02*X033365D01*
X033455Y024543D02*X03342Y024507D01*X033552Y024502D02*Y024452D01*
X03365Y024543D02*X033685Y024507D01*X03369Y02464D02*X03374D01*D25*
X023031Y010039D03*D21*X023129Y010137D02*X023164Y010172D01*
X023031Y010177D02*Y010227D01*X022934Y010137D02*X022899Y010172D01*
X022894Y010039D02*X022844D01*X022934Y009942D02*X022899Y009907D01*
X023129Y009942D02*X023164Y009907D01*X023169Y010039D02*X023219D01*D25*
X028179Y02394D03*D21*X028277Y024038D02*X028312Y024073D01*
X028179Y024078D02*Y024128D01*X028082Y024038D02*X028046Y024073D01*
X028041Y02394D02*X027991D01*X028082Y023843D02*X028046Y023807D01*
X028179Y023802D02*Y023752D01*X028277Y023843D02*X028312Y023807D01*
X028317Y02394D02*X028367D01*D18*X031939Y023317D03*D25*X021729Y02399D03*
D21*X021827Y024088D02*X021862Y024123D01*X021729Y024128D02*Y024178D01*
Y023852D02*Y023802D01*X021827Y023893D02*X021862Y023857D01*
X021867Y02399D02*X021917D01*D18*X034646Y008268D03*X020696Y024188D03*
X031693Y010433D03*D25*X038252Y02464D03*D21*X03835Y024738D02*
X038385Y024773D01*X038252Y024778D02*Y024828D01*X038155Y024738D02*
X03812Y024773D01*X038115Y02464D02*X038065D01*X038155Y024543D02*
X03812Y024507D01*X038252Y024502D02*Y024452D01*X03835Y024543D02*
X038385Y024507D01*X03839Y02464D02*X03844D01*D25*X015354Y017913D03*D21*
X015452Y018011D02*X015445Y018004D01*X015257Y018011D02*
X015264Y018004D01*X015217Y017913D02*X015227D01*X015257Y017816D02*
X015264Y017823D01*X015354Y017776D02*Y017786D01*X015452Y017816D02*
X015445Y017823D01*X015492Y017913D02*X015482D01*D25*X040974Y024321D03*
D21*X041072Y024418D02*X041107Y024454D01*X040877Y024418D02*
X040842Y024454D01*X040837Y024321D02*X040787D01*X040877Y024223D02*
X040842Y024188D01*X040974Y024183D02*Y024133D01*X041072Y024223D02*
X041107Y024188D01*X041112Y024321D02*X041162D01*D18*X022979Y02144D03*
D15*X023043Y021504D02*X023078Y021539D01*X022979Y02153D02*Y02158D01*
X023043Y021377D02*X023078Y021341D01*X023069Y02144D02*X023119D01*D18*
X027529Y02184D03*D15*X027593Y021904D02*X027628Y021939D01*
X027465Y021904D02*X02743Y021939D01*X027529Y02175D02*Y0217D01*
X027593Y021777D02*X027628Y021741D01*X027619Y02184D02*X027669D01*D18*
X024056Y01909D03*D25*X007874Y018307D03*D18*X017933Y022815D03*D25*
X023031Y011417D03*D21*X023129Y011515D02*X023122Y011508D01*
X022934Y011515D02*X022941Y011508D01*X022894Y011417D02*X022904D01*
X022934Y01132D02*X022941Y011327D01*X023031Y01128D02*Y01129D01*
X023129Y01132D02*X023122Y011327D01*X023169Y011417D02*X023159D01*D25*
X020472Y00748D03*D18*X006523Y023519D03*D25*X012795Y007874D03*D21*
X012893Y007971D02*X012886Y007964D01*X012795Y008012D02*Y008002D01*
X012698Y007971D02*X012705Y007964D01*X012657Y007874D02*X012667D01*
X012698Y007777D02*X012705Y007784D01*X012893Y007777D02*
X012886Y007784D01*X012933Y007874D02*X012923D01*D18*X018898Y014764D03*
X014429Y012608D03*X03563Y023622D03*X043852Y02189D03*D25*
X020374Y025984D03*D21*X020471Y026082D02*X020464Y026075D01*
X020374Y026122D02*Y026112D01*X020277Y026082D02*X020284Y026075D01*
X020236Y025984D02*X020246D01*X020277Y025887D02*X020284Y025894D01*
X020374Y025846D02*Y025856D01*X020471Y025887D02*X020464Y025894D01*
X020512Y025984D02*X020502D01*D25*X023031Y017913D03*D21*
X023129Y018011D02*X023122Y018004D01*X022934Y018011D02*
X022941Y018004D01*X022894Y017913D02*X022904D01*X022934Y017816D02*
X022941Y017823D01*X023031Y017776D02*Y017786D01*X023129Y017816D02*
X023122Y017823D01*X023169Y017913D02*X023159D01*D18*X024075Y014764D03*
X034941Y025984D03*D25*X038386Y009252D03*D21*X038483Y009349D02*
X038476Y009342D01*X038288Y009349D02*X038295Y009342D01*
X038248Y009252D02*X038258D01*X038288Y009155D02*X038295Y009162D01*
X038386Y009114D02*Y009124D01*X038483Y009155D02*X038476Y009162D01*
X038524Y009252D02*X038514D01*D25*X020472Y018307D03*D18*
X039665Y025984D03*D25*X02472Y003264D03*D16*X024818Y003361D02*
X024811Y003354D01*X02472Y003402D02*Y003392D01*X024623Y003361D02*
X02463Y003354D01*X024583Y003264D02*X024593D01*X024623Y003166D02*
X02463Y003173D01*X02472Y003126D02*Y003136D01*X024818Y003166D02*
X024811Y003173D01*X024858Y003264D02*X024848D01*D18*X01122Y012598D03*
X020529Y024021D03*X026969Y016929D03*X016043Y003642D03*D25*
X043504Y016535D03*D21*X043601Y016633D02*X043594Y016626D01*
X043504Y016673D02*Y016663D01*X043406Y016633D02*X043414Y016626D01*
X043366Y016535D02*X043376D01*X043406Y016438D02*X043414Y016445D01*
X043601Y016438D02*X043594Y016445D01*X043642Y016535D02*X043632D01*D25*
X043504Y009252D03*D21*X043601Y009349D02*X043594Y009342D01*
X043406Y009349D02*X043414Y009342D01*X043366Y009252D02*X043376D01*
X043406Y009155D02*X043414Y009162D01*X043504Y009114D02*Y009124D01*
X043601Y009155D02*X043594Y009162D01*X043642Y009252D02*X043632D01*D18*
X003656Y02464D03*D25*X043504Y013583D03*D21*X043601Y01368D02*
X043594Y013673D01*X043406Y01368D02*X043414Y013673D01*X043366Y013583D02*
X043376D01*X043406Y013485D02*X043414Y013492D01*X043504Y013445D02*
Y013455D01*X043601Y013485D02*X043594Y013492D01*X043642Y013583D02*
X043632D01*D25*X026467Y023986D03*D21*X026564Y024084D02*
X026599Y024119D01*X026467Y024124D02*Y024174D01*X026369Y024084D02*
X026334Y024119D01*X026329Y023986D02*X026279D01*X026369Y023889D02*
X026334Y023853D01*X026467Y023848D02*Y023798D01*X026564Y023889D02*
X026599Y023853D01*X026604Y023986D02*X026654D01*D25*X033252Y02359D03*
D21*X03335Y023688D02*X033385Y023723D01*X033252Y023728D02*Y023778D01*
X033155Y023688D02*X03312Y023723D01*X033115Y02359D02*X033065D01*
X033155Y023493D02*X03312Y023457D01*X033252Y023452D02*Y023402D01*
X03335Y023493D02*X033385Y023457D01*X03339Y02359D02*X03344D01*D18*
X037874Y021299D03*X036752Y02454D03*D25*X007874Y009646D03*
X006201Y025984D03*D21*X006298Y026082D02*X006291Y026075D01*
X006201Y026122D02*Y026112D01*X006103Y026082D02*X00611Y026075D01*
X006063Y025984D02*X006073D01*X006103Y025887D02*X00611Y025894D01*
X006201Y025846D02*Y025856D01*X006298Y025887D02*X006291Y025894D01*
X006339Y025984D02*X006329D01*D18*X024055Y010433D03*X017717Y000984D03*
D19*X01778Y001048D02*X017816Y001083D01*X017717Y001074D02*Y001124D01*
X017653Y001048D02*X017618Y001083D01*X017627Y000984D02*X017577D01*
X017653Y000921D02*X017618Y000885D01*X017717Y000894D02*Y000844D01*
X01778Y000921D02*X017816Y000885D01*X017807Y000984D02*X017857D01*D18*
X027362Y005512D03*D25*X00689Y003543D03*D18*X032452Y02129D03*D25*
X019379Y02464D03*D21*X019477Y024738D02*X019512Y024773D01*
X019379Y024778D02*Y024828D01*X019282Y024738D02*X019246Y024773D01*
X019241Y02464D02*X019191D01*X019282Y024543D02*X019246Y024507D01*
X019379Y024502D02*Y024452D01*X019477Y024543D02*X019512Y024507D01*
X019517Y02464D02*X019567D01*D30*X001969Y003642D03*X001949Y00561D03*D47*
X002382Y00315D03*X002362Y006102D03*D46*X000866Y003091D03*D23*
X001148Y003265D02*X001141Y003257D01*X000866Y003337D02*Y003327D01*
X000584Y003265D02*X000591Y003257D01*X000512Y003091D02*X000522D01*
X000584Y002917D02*X000591Y002924D01*X000866Y002844D02*Y002854D01*
X001148Y002917D02*X001141Y002924D01*X00122Y003091D02*X00121D01*D46*
X000866Y006161D03*D23*X001148Y006335D02*X001141Y006328D01*
X000866Y006407D02*Y006397D01*X000584Y006335D02*X000591Y006328D01*
X000512Y006161D02*X000522D01*X000584Y005987D02*X000591Y005994D01*
X000866Y005915D02*Y005925D01*X001148Y005987D02*X001141Y005994D01*
X00122Y006161D02*X00121D01*D25*X015354Y010039D03*D21*X015452Y010137D02*
X015445Y01013D01*X015354Y010177D02*Y010167D01*X015257Y010137D02*
X015264Y01013D01*X015217Y010039D02*X015227D01*X015257Y009942D02*
X015264Y009949D01*X015452Y009942D02*X015445Y009949D01*
X015492Y010039D02*X015482D01*D18*X016156Y01954D03*D25*X037952Y02359D03*
D21*X03805Y023688D02*X038085Y023723D01*X037952Y023728D02*Y023778D01*
X037855Y023688D02*X03782Y023723D01*X037815Y02359D02*X037765D01*
X037855Y023493D02*X03782Y023457D01*X037952Y023452D02*Y023402D01*
X03805Y023493D02*X038085Y023457D01*X03809Y02359D02*X03814D01*D25*
X040945Y007087D03*D21*X041042Y007184D02*X041035Y007177D01*
X040847Y007184D02*X040855Y007177D01*X040807Y007087D02*X040817D01*
X040847Y006989D02*X040855Y006996D01*X040945Y006949D02*Y006959D01*
X041042Y006989D02*X041035Y006996D01*X041083Y007087D02*X041073D01*D25*
X040945Y018701D03*D21*X041042Y018798D02*X041035Y018791D01*
X040945Y018839D02*Y018829D01*X040847Y018798D02*X040855Y018791D01*
X040807Y018701D02*X040817D01*X040847Y018603D02*X040855Y01861D01*
X041042Y018603D02*X041035Y01861D01*X041083Y018701D02*X041073D01*D25*
X030709Y012205D03*D21*X030806Y012302D02*X030799Y012295D01*
X030709Y012343D02*Y012333D01*X030611Y012302D02*X030618Y012295D01*
X030571Y012205D02*X030581D01*X030611Y012107D02*X030618Y012114D01*
X030806Y012107D02*X030799Y012114D01*X030846Y012205D02*X030836D01*D18*
X019106Y01924D03*X006956Y02369D03*D25*X035827Y016535D03*D21*
X035924Y016633D02*X035917Y016626D01*X035827Y016673D02*Y016663D01*
X035729Y016633D02*X035736Y016626D01*X035689Y016535D02*X035699D01*
X035729Y016438D02*X035736Y016445D01*X035924Y016438D02*
X035917Y016445D01*X035965Y016535D02*X035955D01*D18*X007106Y023986D03*
D25*X038386Y013976D03*D18*X013484Y002067D03*D19*X013548Y002131D02*
X013583Y002166D01*X013484Y002157D02*Y002207D01*X013421Y002131D02*
X013385Y002166D01*X013394Y002067D02*X013344D01*X013421Y002003D02*
X013385Y001968D01*X013484Y001977D02*Y001927D01*X013548Y002003D02*
X013583Y001968D01*X013574Y002067D02*X013624D01*D25*X037602Y02464D03*
D21*X0377Y024738D02*X037735Y024773D01*X037602Y024778D02*Y024828D01*
X037505Y024738D02*X03747Y024773D01*X037465Y02464D02*X037415D01*
X037505Y024543D02*X03747Y024507D01*X037602Y024502D02*Y024452D01*
X0377Y024543D02*X037735Y024507D01*X03774Y02464D02*X03779D01*D25*
X031402Y02404D03*D21*X0315Y024138D02*X031535Y024173D01*
X031402Y024178D02*Y024228D01*X031305Y024138D02*X03127Y024173D01*
X031265Y02404D02*X031215D01*X031305Y023943D02*X03127Y023907D01*
X031402Y023902D02*Y023852D01*X0315Y023943D02*X031535Y023907D01*
X03154Y02404D02*X03159D01*D18*X019291Y014764D03*X019556Y01914D03*D25*
X010433Y007874D03*D21*X010531Y007971D02*X010523Y007964D01*
X010433Y008012D02*Y008002D01*X010336Y007971D02*X010343Y007964D01*
X010295Y007874D02*X010305D01*X010336Y007777D02*X010343Y007784D01*
X010531Y007777D02*X010523Y007784D01*X010571Y007874D02*X010561D01*D18*
X020529Y024356D03*X013656Y02169D03*X02689Y012943D03*X015606Y02094D03*
D14*X01567Y021004D02*X015705Y021039D01*X015606Y02103D02*Y02108D01*
X015542Y021004D02*X015507Y021039D01*D25*X037602Y02394D03*D21*
X0377Y024038D02*X037735Y024073D01*X037602Y024078D02*Y024128D01*
X037505Y024038D02*X03747Y024073D01*X037465Y02394D02*X037415D01*
X037505Y023843D02*X03747Y023807D01*X037602Y023802D02*Y023752D01*
X0377Y023843D02*X037735Y023807D01*X03774Y02394D02*X03779D01*D18*
X034646Y010433D03*X032313Y008258D03*D25*X033252Y02394D03*D21*
X03335Y024038D02*X033385Y024073D01*X033252Y024078D02*Y024128D01*
X033155Y024038D02*X03312Y024073D01*X033115Y02394D02*X033065D01*
X033155Y023843D02*X03312Y023807D01*X033252Y023802D02*Y023752D01*
X03335Y023843D02*X033385Y023807D01*X03339Y02394D02*X03344D01*D25*
X025591Y010039D03*D21*X025688Y010137D02*X025723Y010172D01*
X025591Y010177D02*Y010227D01*X025493Y010137D02*X025458Y010172D01*
X025453Y010039D02*X025403D01*X025493Y009942D02*X025458Y009907D01*
X025688Y009942D02*X025723Y009907D01*X025728Y010039D02*X025778D01*D18*
X007677Y003543D03*X007741Y003607D02*X007776Y003642D01*
X007677Y003633D02*Y003683D01*X007614Y003607D02*X007578Y003642D01*
X007587Y003543D02*X007537D01*X007614Y00348D02*X007578Y003444D01*
X007677Y003453D02*Y003403D01*X007741Y00348D02*X007776Y003444D01*
X007767Y003543D02*X007817D01*X007874D03*X007938Y003607D02*
X007973Y003642D01*X007874Y003633D02*Y003683D01*X00781Y003607D02*
X007775Y003642D01*X007784Y003543D02*X007734D01*X00781Y00348D02*
X007775Y003444D01*X007874Y003453D02*Y003403D01*X007938Y00348D02*
X007973Y003444D01*X007964Y003543D02*X008014D01*X017829Y02514D03*
X009154Y003937D03*X009217Y004001D02*X009253Y004036D01*
X009154Y004027D02*Y004077D01*X00909Y004001D02*X009055Y004036D01*
X009064Y003937D02*X009014D01*X00909Y003873D02*X009055Y003838D01*
X009154Y003847D02*Y003797D01*X009217Y003873D02*X009253Y003838D01*
X009244Y003937D02*X009294D01*X007972Y001083D03*X024173Y020906D03*D25*
X030709Y013976D03*X020472Y015748D03*D21*X02057Y015845D02*
X020563Y015838D01*X020375Y015845D02*X020382Y015838D01*
X020335Y015748D02*X020345D01*X020375Y015651D02*X020382Y015658D01*
X020472Y01561D02*Y01562D01*X02057Y015651D02*X020563Y015658D01*
X02061Y015748D02*X0206D01*D25*X038661Y020906D03*D18*X006693Y010433D03*
D25*X015354Y00748D03*X023031Y009252D03*D21*X023129Y009349D02*
X023122Y009342D01*X022934Y009349D02*X022941Y009342D01*
X022894Y009252D02*X022904D01*X022934Y009155D02*X022941Y009162D01*
X023031Y009114D02*Y009124D01*X023129Y009155D02*X023122Y009162D01*
X023169Y009252D02*X023159D01*D25*X015354Y013583D03*D21*
X015452Y01368D02*X015445Y013673D01*X015257Y01368D02*X015264Y013673D01*
X015217Y013583D02*X015227D01*X015257Y013485D02*X015264Y013492D01*
X015354Y013445D02*Y013455D01*X015452Y013485D02*X015445Y013492D01*
X015492Y013583D02*X015482D01*D18*X027136Y022982D03*X009756Y02544D03*
X00689Y002264D03*D25*X026801Y024321D03*D21*X026899Y024418D02*
X026934Y024454D01*X026704Y024418D02*X026668Y024454D01*
X026663Y024321D02*X026613D01*X026704Y024223D02*X026668Y024188D01*
X026801Y024183D02*Y024133D01*X026899Y024223D02*X026934Y024188D01*
X026939Y024321D02*X026989D01*D18*X014156Y01694D03*X027303Y022815D03*
X008071Y003264D03*X008135Y003327D02*X00817Y003363D01*X008071Y003354D02*
Y003404D01*X008007Y003327D02*X007972Y003363D01*X007981Y003264D02*
X007931D01*X008007Y0032D02*X007972Y003165D01*X008071Y003174D02*
Y003124D01*X008135Y0032D02*X00817Y003165D01*X008161Y003264D02*
X008211D01*D25*X023779Y02394D03*D21*X023877Y024038D02*
X023912Y024073D01*X023779Y024078D02*Y024128D01*X023682Y024038D02*
X023646Y024073D01*X023641Y02394D02*X023591D01*X023682Y023843D02*
X023646Y023807D01*X023779Y023802D02*Y023752D01*X023877Y023843D02*
X023912Y023807D01*X023917Y02394D02*X023967D01*D18*X008976Y002185D03*
X017224Y001476D03*X026906Y01514D03*X02747Y023317D03*D25*
X030709Y018307D03*D18*X022736Y019685D03*D25*X02815Y017913D03*D21*
X028247Y018011D02*X02824Y018004D01*X028052Y018011D02*X028059Y018004D01*
X028012Y017913D02*X028022D01*X028052Y017816D02*X028059Y017823D01*
X02815Y017776D02*Y017786D01*X028247Y017816D02*X02824Y017823D01*
X028287Y017913D02*X028277D01*D25*X017913Y00748D03*X02815Y018307D03*D18*
X011713Y002953D03*X023917Y007382D03*D25*X028179Y02359D03*D21*
X028277Y023688D02*X028312Y023723D01*X028179Y023728D02*Y023778D01*
X028082Y023688D02*X028046Y023723D01*X028041Y02359D02*X027991D01*
X028082Y023493D02*X028046Y023457D01*X028179Y023452D02*Y023402D01*
X028277Y023493D02*X028312Y023457D01*X028317Y02359D02*X028367D01*D25*
X012795Y007087D03*D21*X012893Y007184D02*X012886Y007177D01*
X012698Y007184D02*X012705Y007177D01*X012657Y007087D02*X012667D01*
X012698Y006989D02*X012705Y006996D01*X012795Y006949D02*Y006959D01*
X012893Y006989D02*X012886Y006996D01*X012933Y007087D02*X012923D01*D25*
X015354Y011811D03*D18*X015945Y017126D03*X041702Y02154D03*D15*
X041766Y021604D02*X041801Y021639D01*X041702Y02163D02*Y02168D01*
X041792Y02154D02*X041842D01*D18*X034252Y012598D03*D25*
X015354Y007087D03*D21*X015452Y007184D02*X015445Y007177D01*
X015257Y007184D02*X015264Y007177D01*X015217Y007087D02*X015227D01*
X015257Y006989D02*X015264Y006996D01*X015354Y006949D02*Y006959D01*
X015452Y006989D02*X015445Y006996D01*X015492Y007087D02*X015482D01*D25*
X003056Y02439D03*D21*X003153Y024488D02*X003189Y024523D01*
X003056Y024528D02*Y024578D01*X002958Y024488D02*X002923Y024523D01*
X002918Y02439D02*X002868D01*X002958Y024293D02*X002923Y024257D01*
X003056Y024252D02*Y024202D01*X003153Y024293D02*X003189Y024257D01*
X003194Y02439D02*X003244D01*D18*X037452Y02129D03*D25*X017913Y013583D03*
D16*X018011Y01368D02*X018004Y013673D01*X017816Y01368D02*
X017823Y013673D01*X017776Y013583D02*X017786D01*X017816Y013485D02*
X017823Y013492D01*X017913Y013445D02*Y013455D01*X018011Y013485D02*
X018004Y013492D01*X018051Y013583D02*X018041D01*D25*X025606Y003264D03*
D16*X025704Y003361D02*X025697Y003354D01*X025606Y003402D02*Y003392D01*
X025509Y003361D02*X025516Y003354D01*X025469Y003264D02*X025479D01*
X025509Y003166D02*X025516Y003173D01*X025606Y003126D02*Y003136D01*
X025704Y003166D02*X025697Y003173D01*X025744Y003264D02*X025734D01*D25*
X02472Y001886D03*D16*X024818Y001983D02*X024811Y001976D01*
X02472Y002024D02*Y002014D01*X024623Y001983D02*X02463Y001976D01*
X024583Y001886D02*X024593D01*X024623Y001788D02*X02463Y001795D01*
X02472Y001748D02*Y001758D01*X024818Y001788D02*X024811Y001795D01*
X024858Y001886D02*X024848D01*D18*X011614Y012598D03*D25*
X032902Y02394D03*D21*X033Y024038D02*X033035Y024073D01*
X032902Y024078D02*Y024128D01*X032805Y024038D02*X03277Y024073D01*
X032765Y02394D02*X032715D01*X032805Y023843D02*X03277Y023807D01*
X032902Y023802D02*Y023752D01*X033Y023843D02*X033035Y023807D01*
X03304Y02394D02*X03309D01*D25*X007906Y02399D03*D21*X008003Y024088D02*
X008039Y024123D01*X007906Y024128D02*Y024178D01*X007808Y024088D02*
X007773Y024123D01*X007768Y02399D02*X007718D01*X007808Y023893D02*
X007773Y023857D01*X007906Y023852D02*Y023802D01*X008003Y023893D02*
X008039Y023857D01*X008044Y02399D02*X008094D01*D25*X012293Y024321D03*
D21*X012391Y024418D02*X012426Y024454D01*X012196Y024418D02*
X012161Y024454D01*X012156Y024321D02*X012106D01*X012196Y024223D02*
X012161Y024188D01*X012293Y024183D02*Y024133D01*X012391Y024223D02*
X012426Y024188D01*X012431Y024321D02*X012481D01*D25*X042702Y02324D03*
D21*X0428Y023338D02*X042835Y023373D01*X042702Y023378D02*Y023428D01*
X042605Y023338D02*X04257Y023373D01*X042565Y02324D02*X042515D01*
X042605Y023143D02*X04257Y023107D01*X042702Y023102D02*Y023052D01*
X0428Y023143D02*X042835Y023107D01*X04284Y02324D02*X04289D01*D18*
X040846Y015118D03*D25*X005433Y020945D03*D18*X032456Y01934D03*
X030482Y023484D03*X003839Y004823D03*X003902Y004886D02*
X003938Y004922D01*X003839Y004913D02*Y004963D01*X003775Y004886D02*
X00374Y004922D01*X003749Y004823D02*X003699D01*X003775Y004759D02*
X00374Y004724D01*X003839Y004733D02*Y004683D01*X003902Y004759D02*
X003938Y004724D01*X003929Y004823D02*X003979D01*D25*X015354Y009252D03*
D21*X015452Y009349D02*X015445Y009342D01*X015257Y009349D02*
X015264Y009342D01*X015217Y009252D02*X015227D01*X015257Y009155D02*
X015264Y009162D01*X015354Y009114D02*Y009124D01*X015452Y009155D02*
X015445Y009162D01*X015492Y009252D02*X015482D01*D25*X04064Y024321D03*
D21*X040737Y024418D02*X040773Y024454D01*X040542Y024418D02*
X040507Y024454D01*X040502Y024321D02*X040452D01*X040542Y024223D02*
X040507Y024188D01*X04064Y024183D02*Y024133D01*X040737Y024223D02*
X040773Y024188D01*X040778Y024321D02*X040828D01*D25*X010433Y00748D03*
X028529Y02324D03*D21*X028627Y023338D02*X028662Y023373D01*
X028529Y023378D02*Y023428D01*X028432Y023338D02*X028396Y023373D01*
X028391Y02324D02*X028341D01*X028432Y023143D02*X028396Y023107D01*
X028529Y023102D02*Y023052D01*X028627Y023143D02*X028662Y023107D01*
X028667Y02324D02*X028717D01*D18*X01378Y008268D03*X021457Y012598D03*
X015157Y002854D03*D25*X012795Y010039D03*D21*X012893Y010137D02*
X012886Y01013D01*X012795Y010177D02*Y010167D01*X012698Y010137D02*
X012705Y01013D01*X012657Y010039D02*X012667D01*X012698Y009942D02*
X012705Y009949D01*X012893Y009942D02*X012886Y009949D01*
X012933Y010039D02*X012923D01*D18*X029528Y019094D03*X036811Y014764D03*
X042126Y008661D03*X023524Y008366D03*D25*X010256Y02464D03*D21*
X010353Y024738D02*X010389Y024773D01*X010256Y024778D02*Y024828D01*
X010158Y024738D02*X010123Y024773D01*X010118Y02464D02*X010068D01*
X010158Y024543D02*X010123Y024507D01*X010256Y024502D02*Y024452D01*
X010353Y024543D02*X010389Y024507D01*X010394Y02464D02*X010444D01*D18*
X042802Y02544D03*D25*X012293Y023986D03*D21*X012391Y024084D02*
X012426Y024119D01*X012293Y024124D02*Y024174D01*X012196Y024084D02*
X012161Y024119D01*X012156Y023986D02*X012106D01*X012196Y023889D02*
X012161Y023853D01*X012293Y023848D02*Y023798D01*X012391Y023889D02*
X012426Y023853D01*X012431Y023986D02*X012481D01*D18*X039173Y014764D03*
D25*X02815Y010039D03*D21*X028247Y010137D02*X028282Y010172D01*
X02815Y010177D02*Y010227D01*X028052Y010137D02*X028017Y010172D01*
X028012Y010039D02*X027962D01*X028052Y009942D02*X028017Y009907D01*
X028247Y009942D02*X028282Y009907D01*X028287Y010039D02*X028337D01*D18*
X045177Y025394D03*D25*X033268Y016535D03*D21*X033365Y016633D02*
X033358Y016626D01*X033268Y016673D02*Y016663D01*X03317Y016633D02*
X033177Y016626D01*X03313Y016535D02*X03314D01*X03317Y016438D02*
X033177Y016445D01*X033365Y016438D02*X033358Y016445D01*
X033406Y016535D02*X033396D01*D18*X003445Y004823D03*X003509Y004886D02*
X003544Y004922D01*X003445Y004913D02*Y004963D01*X003381Y004886D02*
X003346Y004922D01*X003355Y004823D02*X003305D01*X003381Y004759D02*
X003346Y004724D01*X003445Y004733D02*Y004683D01*X003509Y004759D02*
X003544Y004724D01*X003535Y004823D02*X003585D01*D25*X023031Y011811D03*
D18*X031772Y02315D03*X026956Y01479D03*X014262Y019134D03*D25*
X025591Y015748D03*D21*X025688Y015845D02*X025681Y015838D01*
X025493Y015845D02*X0255Y015838D01*X025453Y015748D02*X025463D01*
X025493Y015651D02*X0255Y015658D01*X025591Y01561D02*Y01562D01*
X025688Y015651D02*X025681Y015658D01*X025728Y015748D02*X025718D01*D25*
X02815Y016535D03*D21*X028247Y016633D02*X02824Y016626D01*
X02815Y016673D02*Y016663D01*X028052Y016633D02*X028059Y016626D01*
X028012Y016535D02*X028022D01*X028052Y016438D02*X028059Y016445D01*
X028247Y016438D02*X02824Y016445D01*X028287Y016535D02*X028277D01*D25*
X020472Y016142D03*X040945Y007874D03*D21*X041042Y007971D02*
X041035Y007964D01*X040945Y008012D02*Y008002D01*X040847Y007971D02*
X040855Y007964D01*X040807Y007874D02*X040817D01*X040847Y007777D02*
X040855Y007784D01*X041042Y007777D02*X041035Y007784D01*
X041083Y007874D02*X041073D01*D25*X040945Y013583D03*D21*
X041042Y01368D02*X041035Y013673D01*X040847Y01368D02*X040855Y013673D01*
X040807Y013583D02*X040817D01*X040847Y013485D02*X040855Y013492D01*
X040945Y013445D02*Y013455D01*X041042Y013485D02*X041035Y013492D01*
X041083Y013583D02*X041073D01*D18*X00435Y014783D03*D25*
X033268Y007874D03*D21*X033365Y007971D02*X033358Y007964D01*
X033268Y008012D02*Y008002D01*X03317Y007971D02*X033177Y007964D01*
X03313Y007874D02*X03314D01*X03317Y007777D02*X033177Y007784D01*
X033365Y007777D02*X033358Y007784D01*X033406Y007874D02*X033396D01*D25*
X012795Y013976D03*D18*X020679Y02324D03*X037205Y010433D03*
X008806Y02164D03*D16*X00887Y021704D02*X008905Y021739D01*
X008806Y02173D02*Y02178D01*X00887Y021577D02*X008905Y021541D01*
X008896Y02164D02*X008946D01*D18*X00374Y014764D03*X022362Y025709D03*D25*
X009906Y02464D03*D21*X010003Y024738D02*X010039Y024773D01*
X009906Y024778D02*Y024828D01*X009808Y024738D02*X009773Y024773D01*
X009768Y02464D02*X009718D01*X009808Y024543D02*X009773Y024507D01*
X009906Y024502D02*Y024452D01*X010003Y024543D02*X010039Y024507D01*
X010044Y02464D02*X010094D01*D25*X035827Y007874D03*D21*
X035924Y007971D02*X035917Y007964D01*X035827Y008012D02*Y008002D01*
X035729Y007971D02*X035736Y007964D01*X035689Y007874D02*X035699D01*
X035729Y007777D02*X035736Y007784D01*X035924Y007777D02*
X035917Y007784D01*X035965Y007874D02*X035955D01*D18*X044154Y023652D03*
X031693Y014764D03*D25*X010433Y012205D03*D21*X010531Y012302D02*
X010523Y012295D01*X010433Y012343D02*Y012333D01*X010336Y012302D02*
X010343Y012295D01*X010295Y012205D02*X010305D01*X010336Y012107D02*
X010343Y012114D01*X010531Y012107D02*X010523Y012114D01*
X010571Y012205D02*X010561D01*D25*X034547Y025787D03*D21*
X034645Y025885D02*X034638Y025878D01*X034547Y025925D02*Y025915D01*
X03445Y025885D02*X034457Y025878D01*X034409Y025787D02*X034419D01*
X03445Y02569D02*X034457Y025697D01*X034547Y02565D02*Y02566D01*
X034645Y02569D02*X034638Y025697D01*X034685Y025787D02*X034675D01*D25*
X004906Y02359D03*D21*X005003Y023688D02*X005039Y023723D01*
X004906Y023728D02*Y023778D01*X004808Y023688D02*X004773Y023723D01*
X004768Y02359D02*X004718D01*X004808Y023493D02*X004773Y023457D01*
X004906Y023452D02*Y023402D01*X005003Y023493D02*X005039Y023457D01*
X005044Y02359D02*X005094D01*D18*X034252Y019094D03*X044154Y024656D03*
X027136Y022648D03*D25*X040945Y016535D03*D21*X041042Y016633D02*
X041035Y016626D01*X040945Y016673D02*Y016663D01*X040847Y016633D02*
X040855Y016626D01*X040807Y016535D02*X040817D01*X040847Y016438D02*
X040855Y016445D01*X041042Y016438D02*X041035Y016445D01*
X041083Y016535D02*X041073D01*D25*X037952Y02324D03*D21*X03805Y023338D02*
X038085Y023373D01*X037952Y023378D02*Y023428D01*X037855Y023338D02*
X03782Y023373D01*X037815Y02324D02*X037765D01*X037855Y023143D02*
X03782Y023107D01*X037952Y023102D02*Y023052D01*X03805Y023143D02*
X038085Y023107D01*X03809Y02324D02*X03814D01*D25*X015354Y018701D03*D21*
X015452Y018798D02*X015445Y018791D01*X015354Y018839D02*Y018829D01*
X015257Y018798D02*X015264Y018791D01*X015217Y018701D02*X015227D01*
X015257Y018603D02*X015264Y01861D01*X015452Y018603D02*X015445Y01861D01*
X015492Y018701D02*X015482D01*D25*X040945Y012205D03*D21*
X041042Y012302D02*X041035Y012295D01*X040945Y012343D02*Y012333D01*
X040847Y012302D02*X040855Y012295D01*X040807Y012205D02*X040817D01*
X040847Y012107D02*X040855Y012114D01*X041042Y012107D02*
X041035Y012114D01*X041083Y012205D02*X041073D01*D18*X007283Y023622D03*
D25*X033268Y016142D03*D18*X043952Y02094D03*D16*X044016Y021004D02*
X044009Y020997D01*X043952Y02103D02*Y02102D01*X043889Y021004D02*
X043896Y020997D01*X043862Y02094D02*X043872D01*X044042D02*X044032D01*
D25*X005315Y016142D03*X025606Y002378D03*D16*X025704Y002475D02*
X025697Y002468D01*X025606Y002516D02*Y002506D01*X025509Y002475D02*
X025516Y002468D01*X025469Y002378D02*X025479D01*X025744D02*X025734D01*
D25*X034547Y025984D03*D21*X034645Y026082D02*X034638Y026075D01*
X034547Y026122D02*Y026112D01*X03445Y026082D02*X034457Y026075D01*
X034409Y025984D02*X034419D01*X03445Y025887D02*X034457Y025894D01*
X034547Y025846D02*Y025856D01*X034645Y025887D02*X034638Y025894D01*
X034685Y025984D02*X034675D01*D25*X015354Y018307D03*D18*
X019179Y02549D03*X041644Y022982D03*D25*X017579Y02424D03*D21*
X017677Y024338D02*X017712Y024373D01*X017579Y024378D02*Y024428D01*
X017482Y024338D02*X017446Y024373D01*X017441Y02424D02*X017391D01*
X017482Y024143D02*X017446Y024107D01*X017579Y024102D02*Y024052D01*
X017677Y024143D02*X017712Y024107D01*X017717Y02424D02*X017767D01*D25*
X033268Y009252D03*D21*X033365Y009349D02*X033358Y009342D01*
X03317Y009349D02*X033177Y009342D01*X03313Y009252D02*X03314D01*
X03317Y009155D02*X033177Y009162D01*X033268Y009114D02*Y009124D01*
X033365Y009155D02*X033358Y009162D01*X033406Y009252D02*X033396D01*D18*
X00435Y012608D03*D25*X025591Y012205D03*D21*X025688Y012302D02*
X025681Y012295D01*X025591Y012343D02*Y012333D01*X025493Y012302D02*
X0255Y012295D01*X025453Y012205D02*X025463D01*X025493Y012107D02*
X0255Y012114D01*X025688Y012107D02*X025681Y012114D01*X025728Y012205D02*
X025718D01*D18*X031956Y01934D03*D25*X007874Y016142D03*D18*
X002756Y007874D03*D12*Y007964D02*Y007954D01*Y007784D02*Y007794D01*D18*
X001378Y022835D03*D11*X001288D02*X001298D01*X001468D02*X001458D01*D35*
X04576Y003886D03*X04676Y007886D03*X04576Y008886D03*X04676D03*
X04576Y009886D03*X04676D03*D23*X046937Y010063D02*X046972Y010098D01*
X04676Y010136D02*Y010186D01*X046583Y010063D02*X046548Y010098D01*
X04651Y009886D02*X04646D01*X046583Y009709D02*X046548Y009674D01*
X04676Y009636D02*Y009586D01*X046937Y009709D02*X046972Y009674D01*
X04701Y009886D02*X04706D01*D35*X04576Y010886D03*X04676D03*
X04576Y011886D03*X04676D03*X04576Y012886D03*X04676Y003886D03*
Y012886D03*D23*X046937Y013063D02*X046972Y013098D01*X04676Y013136D02*
Y013186D01*X046583Y013063D02*X046548Y013098D01*X04651Y012886D02*
X04646D01*X046583Y012709D02*X046548Y012674D01*X04676Y012636D02*
Y012586D01*X046937Y012709D02*X046972Y012674D01*X04701Y012886D02*
X04706D01*D35*X04576Y013886D03*X04676D03*X04576Y014886D03*X04676D03*
X04576Y015886D03*D23*X045937Y016063D02*X045972Y016098D01*
X04576Y016136D02*Y016186D01*X045583Y016063D02*X045548Y016098D01*
X04551Y015886D02*X04546D01*X045583Y015709D02*X045548Y015674D01*
X04576Y015636D02*Y015586D01*X045937Y015709D02*X045972Y015674D01*
X04601Y015886D02*X04606D01*D35*X04676D03*D18*X047185Y014232D03*D35*
X04576Y016886D03*X04676D03*X04576Y017886D03*X04576Y004886D03*
X04676Y017886D03*D23*X046937Y018063D02*X046972Y018098D01*
X04676Y018136D02*Y018186D01*X046583Y018063D02*X046548Y018098D01*
X04651Y017886D02*X04646D01*X046583Y017709D02*X046548Y017674D01*
X04676Y017636D02*Y017586D01*X046937Y017709D02*X046972Y017674D01*
X04701Y017886D02*X04706D01*D35*X04576Y018886D03*X04676D03*
X04576Y019886D03*X04676D03*D23*X046937Y020063D02*X046972Y020098D01*
X04676Y020136D02*Y020186D01*X046583Y020063D02*X046548Y020098D01*
X04651Y019886D02*X04646D01*X046583Y019709D02*X046548Y019674D01*
X04676Y019636D02*Y019586D01*X046937Y019709D02*X046972Y019674D01*
X04701Y019886D02*X04706D01*D35*X04576Y020886D03*X04676D03*
X04576Y021886D03*X04676D03*X04576Y022886D03*D23*X045937Y023063D02*
X045972Y023098D01*X04576Y023136D02*Y023186D01*X045583Y023063D02*
X045548Y023098D01*X04551Y022886D02*X04546D01*X045583Y022709D02*
X045548Y022674D01*X04576Y022636D02*Y022586D01*X045937Y022709D02*
X045972Y022674D01*X04601Y022886D02*X04606D01*D35*X04676Y004886D03*
Y022886D03*X04576Y005886D03*X04676D03*D23*X046937Y006063D02*
X046972Y006098D01*X04676Y006136D02*Y006186D01*X046583Y006063D02*
X046548Y006098D01*X04651Y005886D02*X04646D01*X046583Y005709D02*
X046548Y005674D01*X04676Y005636D02*Y005586D01*X046937Y005709D02*
X046972Y005674D01*X04701Y005886D02*X04706D01*D35*X04576Y006886D03*
X04676D03*X04576Y007886D03*D23*X045937Y008063D02*X045972Y008098D01*
X04576Y008136D02*Y008186D01*X045583Y008063D02*X045548Y008098D01*
X04551Y007886D02*X04546D01*X045583Y007709D02*X045548Y007674D01*
X04576Y007636D02*Y007586D01*X045937Y007709D02*X045972Y007674D01*
X04601Y007886D02*X04606D01*D44*X04626Y001969D03*D11*X046677Y002386D02*
X04667Y002379D01*X04626Y002559D02*Y002549D01*X045842Y002386D02*
X045849Y002379D01*X045669Y001969D02*X045679D01*X045842Y001551D02*
X045849Y001558D01*X04626Y001378D02*Y001388D01*X046677Y001551D02*
X04667Y001558D01*X04685Y001969D02*X04684D01*D44*X037205D03*D11*
X037622Y002386D02*X037615Y002379D01*X037205Y002559D02*Y002549D01*
X036787Y002386D02*X036794Y002379D01*X036614Y001969D02*X036624D01*
X036787Y001551D02*X036794Y001558D01*X037205Y001378D02*Y001388D01*
X037622Y001551D02*X037615Y001558D01*X037795Y001969D02*X037785D01*D44*
X04626Y024803D03*D11*X046677Y025221D02*X04667Y025214D01*
X04626Y025394D02*Y025384D01*X045842Y025221D02*X045849Y025214D01*
X045669Y024803D02*X045679D01*X045842Y024386D02*X045849Y024393D01*
X04626Y024213D02*Y024223D01*X046677Y024386D02*X04667Y024393D01*
X04685Y024803D02*X04684D01*D18*X002756Y008661D03*D12*Y008751D02*
Y008741D01*Y008571D02*Y008581D01*D18*Y00748D03*D12*Y00757D02*Y00756D01*
Y00739D02*Y0074D01*D25*X006693Y026083D03*D18*X002756Y009055D03*D12*
Y009145D02*Y009135D01*Y008965D02*Y008975D01*D25*X029229Y02464D03*D21*
X029327Y024738D02*X029362Y024773D01*X029229Y024778D02*Y024828D01*
X029132Y024738D02*X029096Y024773D01*X029091Y02464D02*X029041D01*
X029132Y024543D02*X029096Y024507D01*X029229Y024502D02*Y024452D01*
X029327Y024543D02*X029362Y024507D01*X029367Y02464D02*X029417D01*D18*
X004035Y025551D03*X013297Y023317D03*X041644Y022146D03*X014764Y00374D03*
X015506Y02189D03*X041909Y012608D03*D25*X012795Y016535D03*D21*
X012893Y016633D02*X012886Y016626D01*X012795Y016673D02*Y016663D01*
X012698Y016633D02*X012705Y016626D01*X012657Y016535D02*X012667D01*
X012698Y016438D02*X012705Y016445D01*X012893Y016438D02*
X012886Y016445D01*X012933Y016535D02*X012923D01*D25*X015354Y015748D03*
D21*X015452Y015845D02*X015445Y015838D01*X015257Y015845D02*
X015264Y015838D01*X015217Y015748D02*X015227D01*X015257Y015651D02*
X015264Y015658D01*X015354Y01561D02*Y01562D01*X015452Y015651D02*
X015445Y015658D01*X015492Y015748D02*X015482D01*D25*X012795D03*D21*
X012893Y015845D02*X012886Y015838D01*X012698Y015845D02*
X012705Y015838D01*X012657Y015748D02*X012667D01*X012698Y015651D02*
X012705Y015658D01*X012795Y01561D02*Y01562D01*X012893Y015651D02*
X012886Y015658D01*X012933Y015748D02*X012923D01*D18*X037152Y02164D03*
D16*X037216Y021704D02*X037251Y021739D01*X037152Y02173D02*Y02178D01*
X037216Y021577D02*X037251Y021541D01*X037242Y02164D02*X037292D01*D18*
X034702Y024021D03*D25*X010433Y015748D03*D21*X010531Y015845D02*
X010523Y015838D01*X010336Y015845D02*X010343Y015838D01*
X010295Y015748D02*X010305D01*X010336Y015651D02*X010343Y015658D01*
X010433Y01561D02*Y01562D01*X010531Y015651D02*X010523Y015658D01*
X010571Y015748D02*X010561D01*D25*X040945D03*D21*X041042Y015845D02*
X041035Y015838D01*X040847Y015845D02*X040855Y015838D01*
X040807Y015748D02*X040817D01*X040847Y015651D02*X040855Y015658D01*
X040945Y01561D02*Y01562D01*X041042Y015651D02*X041035Y015658D01*
X041083Y015748D02*X041073D01*D18*X034252Y014764D03*X013366Y012608D03*
X044321Y023819D03*D25*X019729Y02464D03*D21*X019827Y024738D02*
X019862Y024773D01*X019729Y024778D02*Y024828D01*X019632Y024738D02*
X019596Y024773D01*X019591Y02464D02*X019541D01*X019632Y024543D02*
X019596Y024507D01*X019729Y024502D02*Y024452D01*X019827Y024543D02*
X019862Y024507D01*X019867Y02464D02*X019917D01*D25*X019079Y02429D03*D21*
X019177Y024388D02*X019212Y024423D01*X019079Y024428D02*Y024478D01*
X018982Y024388D02*X018946Y024423D01*X018941Y02429D02*X018891D01*
X018982Y024193D02*X018946Y024157D01*X019079Y024152D02*Y024102D01*
X019177Y024193D02*X019212Y024157D01*X019217Y02429D02*X019267D01*D25*
X007874Y015748D03*D21*X007971Y015845D02*X007964Y015838D01*
X007777Y015845D02*X007784Y015838D01*X007736Y015748D02*X007746D01*
X007777Y015651D02*X007784Y015658D01*X007874Y01561D02*Y01562D01*
X007971Y015651D02*X007964Y015658D01*X008012Y015748D02*X008002D01*D18*
X04375Y017126D03*D25*X028179Y02429D03*D21*X028277Y024388D02*
X028312Y024423D01*X028179Y024428D02*Y024478D01*X028082Y024388D02*
X028046Y024423D01*X028041Y02429D02*X027991D01*X028082Y024193D02*
X028046Y024157D01*X028179Y024152D02*Y024102D01*X028277Y024193D02*
X028312Y024157D01*X028317Y02429D02*X028367D01*D18*X026575Y010433D03*
X021112Y024154D03*D25*X043504Y015748D03*D21*X043601Y015845D02*
X043594Y015838D01*X043406Y015845D02*X043414Y015838D01*
X043366Y015748D02*X043376D01*X043406Y015651D02*X043414Y015658D01*
X043504Y01561D02*Y01562D01*X043601Y015651D02*X043594Y015658D01*
X043642Y015748D02*X043632D01*D25*X023429Y02394D03*D21*
X023527Y024038D02*X023562Y024073D01*X023429Y024078D02*Y024128D01*
X023332Y024038D02*X023296Y024073D01*X023291Y02394D02*X023241D01*
X023332Y023843D02*X023296Y023807D01*X023429Y023802D02*Y023752D01*
X023527Y023843D02*X023562Y023807D01*X023567Y02394D02*X023617D01*D18*
X02128Y023986D03*X025329Y02074D03*D16*X025393Y020804D02*
X025428Y020839D01*X025329Y02083D02*Y02088D01*X025265Y020804D02*
X02523Y020839D01*X025239Y02074D02*X025189D01*X025265Y020677D02*
X02523Y020641D01*X025329Y02065D02*Y0206D01*X025393Y020677D02*
X025428Y020641D01*X025419Y02074D02*X025469D01*D25*X005315Y016535D03*
D21*X005412Y016633D02*X005448Y016668D01*X005315Y016673D02*Y016723D01*
X005218Y016633D02*X005182Y016668D01*X005177Y016535D02*X005127D01*
X005218Y016438D02*X005182Y016403D01*X005412Y016438D02*
X005448Y016403D01*X005453Y016535D02*X005503D01*D18*X017933Y02315D03*
X011614Y014764D03*X034783Y024823D03*X028297Y017461D03*
X029203Y008258D03*X044154Y024321D03*X003593Y022648D03*D25*
X037602Y02359D03*D21*X0377Y023688D02*X037735Y023723D01*
X037602Y023728D02*Y023778D01*X037505Y023688D02*X03747Y023723D01*
X037465Y02359D02*X037415D01*X037505Y023493D02*X03747Y023457D01*
X037602Y023452D02*Y023402D01*X0377Y023493D02*X037735Y023457D01*
X03774Y02359D02*X03779D01*D25*X015354Y012205D03*D21*X015452Y012302D02*
X015445Y012295D01*X015354Y012343D02*Y012333D01*X015257Y012302D02*
X015264Y012295D01*X015217Y012205D02*X015227D01*X015257Y012107D02*
X015264Y012114D01*X015452Y012107D02*X015445Y012114D01*
X015492Y012205D02*X015482D01*D18*X00435Y019134D03*D25*
X026098Y002772D03*D16*X025961D02*X025971D01*X026001Y002674D02*
X026008Y002681D01*X026098Y002634D02*Y002644D01*X026196Y002674D02*
X026189Y002681D01*X026236Y002772D02*X026226D01*D25*X023659Y002747D03*
D16*X023562Y002649D02*X023569Y002656D01*X023659Y002609D02*Y002619D01*
X023756Y002649D02*X023749Y002656D01*X023797Y002747D02*X023787D01*D25*
X025606Y002772D03*D16*X025469D02*X025479D01*X025509Y002674D02*
X025516Y002681D01*X025606Y002634D02*Y002644D01*X025704Y002674D02*
X025697Y002681D01*X025744Y002772D02*X025734D01*D18*X016447Y010433D03*
D25*X033268Y015748D03*D21*X033365Y015845D02*X033358Y015838D01*
X03317Y015845D02*X033177Y015838D01*X03313Y015748D02*X03314D01*
X03317Y015651D02*X033177Y015658D01*X033268Y01561D02*Y01562D01*
X033365Y015651D02*X033358Y015658D01*X033406Y015748D02*X033396D01*D18*
X008858Y019094D03*D25*X004556Y02359D03*D21*X004653Y023688D02*
X004689Y023723D01*X004556Y023728D02*Y023778D01*X004458Y023688D02*
X004423Y023723D01*X004418Y02359D02*X004368D01*X004458Y023493D02*
X004423Y023457D01*X004556Y023452D02*Y023402D01*X004653Y023493D02*
X004689Y023457D01*X004694Y02359D02*X004744D01*D25*X030709Y018701D03*
D21*X030806Y018798D02*X030799Y018791D01*X030709Y018839D02*Y018829D01*
X030611Y018798D02*X030618Y018791D01*X030571Y018701D02*X030581D01*
X030611Y018603D02*X030618Y01861D01*X030806Y018603D02*X030799Y01861D01*
X030846Y018701D02*X030836D01*D25*X023031Y013583D03*D21*
X023129Y01368D02*X023122Y013673D01*X022934Y01368D02*X022941Y013673D01*
X022894Y013583D02*X022904D01*X022934Y013485D02*X022941Y013492D01*
X023031Y013445D02*Y013455D01*X023129Y013485D02*X023122Y013492D01*
X023169Y013583D02*X023159D01*D18*X025079Y02124D03*D16*
X025143Y021304D02*X025178Y021339D01*X025079Y02133D02*Y02138D01*
X025015Y021304D02*X02498Y021339D01*X024989Y02124D02*X024939D01*
X025015Y021177D02*X02498Y021141D01*X025079Y02115D02*Y0211D01*
X025143Y021177D02*X025178Y021141D01*X025169Y02124D02*X025219D01*D18*
X026969Y019094D03*D25*X037602Y02324D03*D21*X0377Y023338D02*
X037735Y023373D01*X037602Y023378D02*Y023428D01*X037505Y023338D02*
X03747Y023373D01*X037465Y02324D02*X037415D01*X037505Y023143D02*
X03747Y023107D01*X037602Y023102D02*Y023052D01*X0377Y023143D02*
X037735Y023107D01*X03774Y02324D02*X03779D01*D25*X039173Y025984D03*D21*
X039271Y026082D02*X039306Y026117D01*X039173Y026122D02*Y026172D01*
X039076Y026082D02*X03904Y026117D01*X039035Y025984D02*X038985D01*
X039076Y025887D02*X03904Y025851D01*X039173Y025846D02*Y025796D01*
X039271Y025887D02*X039306Y025851D01*X039311Y025984D02*X039361D01*D18*
X006356Y024021D03*D25*X02815Y007874D03*D21*X028247Y007971D02*
X02824Y007964D01*X02815Y008012D02*Y008002D01*X028052Y007971D02*
X028059Y007964D01*X028012Y007874D02*X028022D01*X028052Y007777D02*
X028059Y007784D01*X028247Y007777D02*X02824Y007784D01*X028287Y007874D02*
X028277D01*D25*X035827Y015748D03*D21*X035924Y015845D02*
X035917Y015838D01*X035729Y015845D02*X035736Y015838D01*
X035689Y015748D02*X035699D01*X035729Y015651D02*X035736Y015658D01*
X035827Y01561D02*Y01562D01*X035924Y015651D02*X035917Y015658D01*
X035965Y015748D02*X035955D01*D25*X005315Y007087D03*D21*
X005412Y007184D02*X005405Y007177D01*X005218Y007184D02*
X005225Y007177D01*X005177Y007087D02*X005187D01*X005218Y006989D02*
X005225Y006996D01*X005315Y006949D02*Y006959D01*X005412Y006989D02*
X005405Y006996D01*X005453Y007087D02*X005443D01*D18*X032106Y022815D03*
X011614Y010433D03*D25*X040945Y018307D03*X033252Y02464D03*D21*
X03335Y024738D02*X033385Y024773D01*X033252Y024778D02*Y024828D01*
X033155Y024738D02*X03312Y024773D01*X033115Y02464D02*X033065D01*
X033155Y024543D02*X03312Y024507D01*X033252Y024502D02*Y024452D01*
X03335Y024543D02*X033385Y024507D01*X03339Y02464D02*X03344D01*D18*
X024409Y012598D03*D25*X038386Y015748D03*D21*X038483Y015845D02*
X038476Y015838D01*X038288Y015845D02*X038295Y015838D01*
X038248Y015748D02*X038258D01*X038288Y015651D02*X038295Y015658D01*
X038386Y01561D02*Y01562D01*X038483Y015651D02*X038476Y015658D01*
X038524Y015748D02*X038514D01*D18*X032087Y010433D03*X00374Y016929D03*
X010906Y02124D03*D16*X01097Y021304D02*X011005Y021339D01*
X010906Y02133D02*Y02138D01*X010842Y021304D02*X010807Y021339D01*
X010816Y02124D02*X010766D01*X010842Y021177D02*X010807Y021141D01*
X010906Y02115D02*Y0211D01*X01097Y021177D02*X011005Y021141D01*
X010996Y02124D02*X011046D01*D18*X01122Y019094D03*X014456Y02544D03*D25*
X035827Y01437D03*D21*X035924Y014468D02*X035917Y01446D01*
X035827Y014508D02*Y014498D01*X035729Y014468D02*X035736Y01446D01*
X035689Y01437D02*X035699D01*X035729Y014273D02*X035736Y01428D01*
X035924Y014273D02*X035917Y01428D01*X035965Y01437D02*X035955D01*D25*
X02815Y007087D03*D21*X028247Y007184D02*X02824Y007177D01*
X028052Y007184D02*X028059Y007177D01*X028012Y007087D02*X028022D01*
X028052Y006989D02*X028059Y006996D01*X02815Y006949D02*Y006959D01*
X028247Y006989D02*X02824Y006996D01*X028287Y007087D02*X028277D01*D25*
X020472Y011417D03*D21*X02057Y011515D02*X020563Y011508D01*
X020375Y011515D02*X020382Y011508D01*X020335Y011417D02*X020345D01*
X020375Y01132D02*X020382Y011327D01*X020472Y01128D02*Y01129D01*
X02057Y01132D02*X020563Y011327D01*X02061Y011417D02*X0206D01*D25*
X023031Y016535D03*D21*X023129Y016633D02*X023122Y016626D01*
X023031Y016673D02*Y016663D01*X022934Y016633D02*X022941Y016626D01*
X022894Y016535D02*X022904D01*X022934Y016438D02*X022941Y016445D01*
X023129Y016438D02*X023122Y016445D01*X023169Y016535D02*X023159D01*D18*
X006306Y02334D03*X011156Y02074D03*D16*X01122Y020804D02*
X011255Y020839D01*X011156Y02083D02*Y02088D01*X011092Y020804D02*
X011057Y020839D01*X011066Y02074D02*X011016D01*X011092Y020677D02*
X011057Y020641D01*X011156Y02065D02*Y0206D01*X01122Y020677D02*
X011255Y020641D01*X011246Y02074D02*X011296D01*D18*X037152Y02144D03*D15*
X037216Y021504D02*X037251Y021539D01*X037152Y02153D02*Y02158D01*
X037216Y021377D02*X037251Y021341D01*X037242Y02144D02*X037292D01*D25*
X040945Y01437D03*D21*X041042Y014468D02*X041035Y01446D01*
X040945Y014508D02*Y014498D01*X040847Y014468D02*X040855Y01446D01*
X040807Y01437D02*X040817D01*X040847Y014273D02*X040855Y01428D01*
X041042Y014273D02*X041035Y01428D01*X041083Y01437D02*X041073D01*D18*
X01122Y008268D03*X034652Y02334D03*X003248Y004429D03*X003312Y004493D02*
X003347Y004528D01*X003248Y004519D02*Y004569D01*X003184Y004493D02*
X003149Y004528D01*X003158Y004429D02*X003108D01*X003184Y004365D02*
X003149Y00433D01*X003248Y004339D02*Y004289D01*X003312Y004365D02*
X003347Y00433D01*X003338Y004429D02*X003388D01*D25*X02815Y016142D03*D18*
X009252Y014764D03*D25*X017229Y02439D03*D21*X017327Y024488D02*
X017362Y024523D01*X017229Y024528D02*Y024578D01*X017132Y024488D02*
X017096Y024523D01*X017091Y02439D02*X017041D01*X017132Y024293D02*
X017096Y024257D01*X017229Y024252D02*Y024202D01*X017327Y024293D02*
X017362Y024257D01*X017367Y02439D02*X017417D01*D18*X040354Y007382D03*
D25*X005556Y02464D03*D21*X005653Y024738D02*X005689Y024773D01*
X005556Y024778D02*Y024828D01*X005458Y024738D02*X005423Y024773D01*
X005418Y02464D02*X005368D01*X005458Y024543D02*X005423Y024507D01*
X005556Y024502D02*Y024452D01*X005653Y024543D02*X005689Y024507D01*
X005694Y02464D02*X005744D01*D44*X001378Y001969D03*D11*
X001796Y002386D02*X001788Y002379D01*X001378Y002559D02*Y002549D01*
X00096Y002386D02*X000967Y002379D01*X000787Y001969D02*X000797D01*
X00096Y001551D02*X000967Y001558D01*X001378Y001378D02*Y001388D01*
X001796Y001551D02*X001788Y001558D01*X001969Y001969D02*X001959D01*D25*
X02815Y00748D03*Y013976D03*D18*X002756Y01063D03*D12*Y01072D02*
Y01071D01*Y01054D02*Y01055D01*D18*Y009843D03*D12*Y009933D02*Y009923D01*
Y009753D02*Y009763D01*D18*Y008268D03*D12*Y008358D02*Y008348D01*
Y008178D02*Y008188D01*D18*Y009449D03*D12*Y009539D02*Y009529D01*
Y009359D02*Y009369D01*D25*X00187Y022047D03*D18*X002756Y006693D03*D12*
Y006783D02*Y006773D01*Y006603D02*Y006613D01*D18*Y010236D03*D12*
Y010326D02*Y010316D01*Y010146D02*Y010156D01*D25*X025114Y003264D03*D16*
X025212Y003361D02*X025205Y003354D01*X025114Y003402D02*Y003392D01*
X025017Y003361D02*X025024Y003354D01*X024976Y003264D02*X024986D01*
X025017Y003166D02*X025024Y003173D01*X025114Y003126D02*Y003136D01*
X025212Y003166D02*X025205Y003173D01*X025252Y003264D02*X025242D01*D25*
X038386Y01437D03*D21*X038483Y014468D02*X038476Y01446D01*
X038386Y014508D02*Y014498D01*X038288Y014468D02*X038295Y01446D01*
X038248Y01437D02*X038258D01*X038288Y014273D02*X038295Y01428D01*
X038483Y014273D02*X038476Y01428D01*X038524Y01437D02*X038514D01*D18*
X031939Y022313D03*X024409Y014764D03*D25*X026098Y002378D03*D16*
X026196Y002475D02*X026189Y002468D01*X026098Y002516D02*Y002506D01*
X026001Y002475D02*X026008Y002468D01*X025961Y002378D02*X025971D01*
X026236D02*X026226D01*D25*X012795Y018307D03*X036252Y02434D03*D21*
X036115D02*X036125D01*X036155Y024243D02*X036162Y02425D01*
X036252Y024202D02*Y024212D01*X03635Y024243D02*X036343Y02425D01*
X03639Y02434D02*X03638D01*D25*X005315Y013976D03*D18*X039764Y012598D03*
X01378Y016929D03*D25*X009256Y02394D03*D21*X009353Y024038D02*
X009389Y024073D01*X009256Y024078D02*Y024128D01*X009158Y024038D02*
X009123Y024073D01*X009118Y02394D02*X009068D01*X009158Y023843D02*
X009123Y023807D01*X009256Y023802D02*Y023752D01*X009353Y023843D02*
X009389Y023807D01*X009394Y02394D02*X009444D01*D25*X023031Y018307D03*
D18*X015768Y019134D03*D25*X020472Y009252D03*D21*X02057Y009349D02*
X020563Y009342D01*X020375Y009349D02*X020382Y009342D01*
X020335Y009252D02*X020345D01*X020375Y009155D02*X020382Y009162D01*
X020472Y009114D02*Y009124D01*X02057Y009155D02*X020563Y009162D01*
X02061Y009252D02*X0206D01*D18*X025827Y014783D03*X034702Y023686D03*
X009252Y019094D03*X027224Y012608D03*X02061Y024823D03*D25*
X035827Y012205D03*D21*X035924Y012302D02*X035917Y012295D01*
X035827Y012343D02*Y012333D01*X035729Y012302D02*X035736Y012295D01*
X035689Y012205D02*X035699D01*X035729Y012107D02*X035736Y012114D01*
X035924Y012107D02*X035917Y012114D01*X035965Y012205D02*X035955D01*D18*
X014173Y010433D03*X017766Y022982D03*X006299Y016929D03*D25*
X020472Y012205D03*D21*X02057Y012302D02*X020563Y012295D01*
X020472Y012343D02*Y012333D01*X020375Y012302D02*X020382Y012295D01*
X020335Y012205D02*X020345D01*X020375Y012107D02*X020382Y012114D01*
X02057Y012107D02*X020563Y012114D01*X02061Y012205D02*X0206D01*D18*
X031939Y022648D03*D25*X023031Y007087D03*D21*X023129Y007184D02*
X023122Y007177D01*X022934Y007184D02*X022941Y007177D01*
X022894Y007087D02*X022904D01*X022934Y006989D02*X022941Y006996D01*
X023031Y006949D02*Y006959D01*X023129Y006989D02*X023122Y006996D01*
X023169Y007087D02*X023159D01*D18*X032106Y02315D03*X024055Y012598D03*
X030217Y025984D03*X031604Y023317D03*X004882Y021142D03*
X003313Y025715D03*X00376Y022815D03*D25*X035827Y018701D03*D21*
X035924Y018798D02*X035917Y018791D01*X035827Y018839D02*Y018829D01*
X035729Y018798D02*X035736Y018791D01*X035689Y018701D02*X035699D01*
X035729Y018603D02*X035736Y01861D01*X035924Y018603D02*X035917Y01861D01*
X035965Y018701D02*X035955D01*D18*X020945Y024321D03*X006693Y014764D03*
D25*X004556Y02394D03*D21*X004653Y024038D02*X004689Y024073D01*
X004556Y024078D02*Y024128D01*X004458Y024038D02*X004423Y024073D01*
X004418Y02394D02*X004368D01*X004458Y023843D02*X004423Y023807D01*
X004556Y023802D02*Y023752D01*X004653Y023843D02*X004689Y023807D01*
X004694Y02394D02*X004744D01*D18*X006299Y014764D03*D25*X017229Y02004D03*
D21*X017327Y020138D02*X01732Y020131D01*X017229Y020178D02*Y020168D01*
Y019902D02*Y019912D01*X017327Y019943D02*X01732Y01995D01*
X017367Y02004D02*X017357D01*D18*X018329Y02164D03*D15*X018393Y021704D02*
X018428Y021739D01*X018329Y02173D02*Y02178D01*Y02155D02*Y0215D01*
X018393Y021577D02*X018428Y021541D01*X018419Y02164D02*X018469D01*D18*
X004803Y021378D03*X002998Y025478D03*X003425Y022815D03*D25*
X043504Y00748D03*X040945Y009646D03*X030669Y010039D03*X020472Y011811D03*
X038386Y007087D03*D21*X038483Y007184D02*X038476Y007177D01*
X038288Y007184D02*X038295Y007177D01*X038248Y007087D02*X038258D01*
X038288Y006989D02*X038295Y006996D01*X038386Y006949D02*Y006959D01*
X038483Y006989D02*X038476Y006996D01*X038524Y007087D02*X038514D01*D18*
X02185Y010433D03*D25*X028529Y02464D03*D21*X028627Y024738D02*
X028662Y024773D01*X028529Y024778D02*Y024828D01*X028432Y024738D02*
X028396Y024773D01*X028391Y02464D02*X028341D01*X028432Y024543D02*
X028396Y024507D01*X028529Y024502D02*Y024452D01*X028627Y024543D02*
X028662Y024507D01*X028667Y02464D02*X028717D01*D18*X02185Y014764D03*
X017431Y022648D03*D25*X035827Y011811D03*D18*X002756Y007087D03*D12*
Y007177D02*Y007167D01*Y006997D02*Y007007D01*D25*X02815Y009252D03*D21*
X028247Y009349D02*X02824Y009342D01*X028052Y009349D02*X028059Y009342D01*
X028012Y009252D02*X028022D01*X028052Y009155D02*X028059Y009162D01*
X02815Y009114D02*Y009124D01*X028247Y009155D02*X02824Y009162D01*
X028287Y009252D02*X028277D01*D25*X020374Y025787D03*D21*
X020471Y025885D02*X020464Y025878D01*X020374Y025925D02*Y025915D01*
X020277Y025885D02*X020284Y025878D01*X020236Y025787D02*X020246D01*
X020277Y02569D02*X020284Y025697D01*X020374Y02565D02*Y02566D01*
X020471Y02569D02*X020464Y025697D01*X020512Y025787D02*X020502D01*D25*
X025591Y013976D03*D39*X013091Y004232D03*D27*X012761D02*X012771D01*
X012857Y003999D02*X012864Y004006D01*X013091Y003902D02*Y003912D01*
X013324Y003999D02*X013317Y004006D01*X013421Y004232D02*X013411D01*D25*
X004906Y02464D03*D21*X005003Y024738D02*X005039Y024773D01*
X004906Y024778D02*Y024828D01*X004808Y024738D02*X004773Y024773D01*
X004768Y02464D02*X004718D01*X004808Y024543D02*X004773Y024507D01*
X004906Y024502D02*Y024452D01*X005003Y024543D02*X005039Y024507D01*
X005044Y02464D02*X005094D01*D18*X029679Y02189D03*D25*X02815Y011811D03*
D18*X004626Y01998D03*X017431Y023317D03*X034852Y02324D03*D25*
X019079Y02394D03*D21*X019177Y024038D02*X019212Y024073D01*
X019079Y024078D02*Y024128D01*X018982Y024038D02*X018946Y024073D01*
X018941Y02394D02*X018891D01*X018982Y023843D02*X018946Y023807D01*
X019079Y023802D02*Y023752D01*X019177Y023843D02*X019212Y023807D01*
X019217Y02394D02*X019267D01*D25*X02815Y011417D03*D21*X028247Y011515D02*
X02824Y011508D01*X028052Y011515D02*X028059Y011508D01*X028012Y011417D02*
X028022D01*X028052Y01132D02*X028059Y011327D01*X02815Y01128D02*
Y01129D01*X028247Y01132D02*X02824Y011327D01*X028287Y011417D02*
X028277D01*D18*X009106Y02129D03*X00376Y02248D03*X039252Y02124D03*D16*
X039316Y021304D02*X039351Y021339D01*X039252Y02133D02*Y02138D01*
X039189Y021304D02*X039153Y021339D01*X039162Y02124D02*X039112D01*
X039189Y021177D02*X039153Y021141D01*X039252Y02115D02*Y0211D01*
X039316Y021177D02*X039351Y021141D01*X039342Y02124D02*X039392D01*D25*
X025591Y011417D03*D21*X025688Y011515D02*X025681Y011508D01*
X025493Y011515D02*X0255Y011508D01*X025453Y011417D02*X025463D01*
X025493Y01132D02*X0255Y011327D01*X025591Y01128D02*Y01129D01*
X025688Y01132D02*X025681Y011327D01*X025728Y011417D02*X025718D01*D18*
X006939Y024154D03*X026555Y012608D03*D25*X025213Y002772D03*D16*
X025075D02*X025085D01*X025115Y002674D02*X025122Y002681D01*
X025213Y002634D02*Y002644D01*X02531Y002674D02*X025303Y002681D01*
X02535Y002772D02*X02534D01*D18*X003681Y019134D03*X00561Y000689D03*D25*
X038386Y011811D03*D18*X042244Y012943D03*X028297Y019301D03*D25*
X038386Y013583D03*D21*X038483Y01368D02*X038476Y013673D01*
X038288Y01368D02*X038295Y013673D01*X038248Y013583D02*X038258D01*
X038288Y013485D02*X038295Y013492D01*X038386Y013445D02*Y013455D01*
X038483Y013485D02*X038476Y013492D01*X038524Y013583D02*X038514D01*D18*
X019006Y01694D03*D25*X033268Y012205D03*D21*X033365Y012302D02*
X033358Y012295D01*X033268Y012343D02*Y012333D01*X03317Y012302D02*
X033177Y012295D01*X03313Y012205D02*X03314D01*X03317Y012107D02*
X033177Y012114D01*X033365Y012107D02*X033358Y012114D01*
X033406Y012205D02*X033396D01*D25*X04064Y023986D03*D21*
X040737Y024084D02*X040773Y024119D01*X04064Y024124D02*Y024174D01*
X040542Y024084D02*X040507Y024119D01*X040502Y023986D02*X040452D01*
X040542Y023889D02*X040507Y023853D01*X04064Y023848D02*Y023798D01*
X040737Y023889D02*X040773Y023853D01*X040778Y023986D02*X040828D01*D18*
X023279Y02129D03*D25*X035827Y009252D03*D21*X035924Y009349D02*
X035917Y009342D01*X035729Y009349D02*X035736Y009342D01*
X035689Y009252D02*X035699D01*X035729Y009155D02*X035736Y009162D01*
X035827Y009114D02*Y009124D01*X035924Y009155D02*X035917Y009162D01*
X035965Y009252D02*X035955D01*D18*X006102Y001083D03*X02372Y007382D03*
X008366Y001083D03*X032677Y012795D03*D25*X031402Y02439D03*D21*
X0315Y024488D02*X031535Y024523D01*X031402Y024528D02*Y024578D01*
X031305Y024488D02*X03127Y024523D01*X031265Y02439D02*X031215D01*
X031305Y024293D02*X03127Y024257D01*X031402Y024252D02*Y024202D01*
X0315Y024293D02*X031535Y024257D01*X03154Y02439D02*X03159D01*D18*
X036811Y016929D03*D25*X043228Y020906D03*X01565Y025787D03*D21*
X015747Y025885D02*X01574Y025878D01*X01565Y025925D02*Y025915D01*
X015552Y025885D02*X015559Y025878D01*X015512Y025787D02*X015522D01*
X015552Y02569D02*X015559Y025697D01*X01565Y02565D02*Y02566D01*
X015747Y02569D02*X01574Y025697D01*X015787Y025787D02*X015777D01*D25*
X010925D03*D21*X011023Y025885D02*X011016Y025878D01*X010925Y025925D02*
Y025915D01*X010828Y025885D02*X010835Y025878D01*X010787Y025787D02*
X010797D01*X010828Y02569D02*X010835Y025697D01*X010925Y02565D02*
Y02566D01*X011023Y02569D02*X011016Y025697D01*X011063Y025787D02*
X011053D01*D18*X024409Y019094D03*D25*X009256Y02359D03*D21*
X009353Y023688D02*X009389Y023723D01*X009256Y023728D02*Y023778D01*
X009158Y023688D02*X009123Y023723D01*X009118Y02359D02*X009068D01*
X009158Y023493D02*X009123Y023457D01*X009256Y023452D02*Y023402D01*
X009353Y023493D02*X009389Y023457D01*X009394Y02359D02*X009444D01*D25*
X01565Y025984D03*D21*X015747Y026082D02*X01574Y026075D01*
X01565Y026122D02*Y026112D01*X015552Y026082D02*X015559Y026075D01*
X015512Y025984D02*X015522D01*X015552Y025887D02*X015559Y025894D01*
X01565Y025846D02*Y025856D01*X015747Y025887D02*X01574Y025894D01*
X015787Y025984D02*X015777D01*D25*X025591Y01437D03*D21*
X025688Y014468D02*X025681Y01446D01*X025591Y014508D02*Y014498D01*
X025493Y014468D02*X0255Y01446D01*X025453Y01437D02*X025463D01*
X025493Y014273D02*X0255Y01428D01*X025688Y014273D02*X025681Y01428D01*
X025728Y01437D02*X025718D01*D18*X017598Y02315D03*X042244Y014783D03*D25*
X012795Y012205D03*D21*X012893Y012302D02*X012886Y012295D01*
X012795Y012343D02*Y012333D01*X012698Y012302D02*X012705Y012295D01*
X012657Y012205D02*X012667D01*X012698Y012107D02*X012705Y012114D01*
X012893Y012107D02*X012886Y012114D01*X012933Y012205D02*X012923D01*D25*
X003406Y02424D03*D21*X003503Y024338D02*X003539Y024373D01*
X003406Y024378D02*Y024428D01*X003308Y024338D02*X003273Y024373D01*
X003268Y02424D02*X003218D01*X003308Y024143D02*X003273Y024107D01*
X003406Y024102D02*Y024052D01*X003503Y024143D02*X003539Y024107D01*
X003544Y02424D02*X003594D01*D25*X02815Y01437D03*D21*X028247Y014468D02*
X02824Y01446D01*X02815Y014508D02*Y014498D01*X028052Y014468D02*
X028059Y01446D01*X028012Y01437D02*X028022D01*X028052Y014273D02*
X028059Y01428D01*X028247Y014273D02*X02824Y01428D01*X028287Y01437D02*
X028277D01*D25*X038386Y007874D03*D21*X038483Y007971D02*
X038476Y007964D01*X038386Y008012D02*Y008002D01*X038288Y007971D02*
X038295Y007964D01*X038248Y007874D02*X038258D01*X038288Y007777D02*
X038295Y007784D01*X038483Y007777D02*X038476Y007784D01*
X038524Y007874D02*X038514D01*D25*X024488Y020906D03*D18*
X002264Y022835D03*D11*X002174D02*X002184D01*D18*X004156Y02184D03*D15*
X00422Y021904D02*X004255Y021939D01*X004156Y02175D02*Y0217D01*
X00422Y021777D02*X004255Y021741D01*X004246Y02184D02*X004296D01*D18*
X036811Y008268D03*X045177Y025787D03*X011122Y002953D03*D25*
X018729Y02394D03*D21*X018827Y024038D02*X018862Y024073D01*
X018729Y024078D02*Y024128D01*X018632Y024038D02*X018596Y024073D01*
X018591Y02394D02*X018541D01*X018632Y023843D02*X018596Y023807D01*
X018729Y023802D02*Y023752D01*X018827Y023843D02*X018862Y023807D01*
X018867Y02394D02*X018917D01*D18*X025492Y025984D03*X00374Y004626D03*
X003804Y00469D02*X003839Y004725D01*X00374Y004716D02*Y004766D01*
X003677Y00469D02*X003641Y004725D01*X00365Y004626D02*X0036D01*
X003677Y004562D02*X003641Y004527D01*X00374Y004536D02*Y004486D01*
X003804Y004562D02*X003839Y004527D01*X00383Y004626D02*X00388D01*
X003051Y004823D03*X003115Y004886D02*X00315Y004922D01*X003051Y004913D02*
Y004963D01*X002988Y004886D02*X002952Y004922D01*X002961Y004823D02*
X002911D01*X002988Y004759D02*X002952Y004724D01*X003051Y004733D02*
Y004683D01*X003115Y004759D02*X00315Y004724D01*X003141Y004823D02*
X003191D01*X00315Y004626D03*X003213Y00469D02*X003249Y004725D01*
X00315Y004716D02*Y004766D01*X003086Y00469D02*X003051Y004725D01*
X00306Y004626D02*X00301D01*X003086Y004562D02*X003051Y004527D01*
X00315Y004536D02*Y004486D01*X003213Y004562D02*X003249Y004527D01*
X00324Y004626D02*X00329D01*X02372Y008366D03*X013287Y002067D03*D19*
X013351Y002131D02*X013386Y002166D01*X013287Y002157D02*Y002207D01*
X013224Y002131D02*X013188Y002166D01*X013197Y002067D02*X013147D01*
X013224Y002003D02*X013188Y001968D01*X013287Y001977D02*Y001927D01*
X013351Y002003D02*X013386Y001968D01*X013377Y002067D02*X013427D01*D18*
X028987Y017116D03*X017854Y024892D03*X021129Y02369D03*X026606Y01479D03*
X032502Y02164D03*D15*X032566Y021704D02*X032601Y021739D01*
X032502Y02173D02*Y02178D01*Y02155D02*Y0215D01*X032566Y021577D02*
X032601Y021541D01*X032592Y02164D02*X032642D01*D18*X012697Y002264D03*
D19*X01276Y002327D02*X012796Y002363D01*X012697Y002354D02*Y002404D01*
X012633Y002327D02*X012598Y002363D01*X012607Y002264D02*X012557D01*
X012633Y0022D02*X012598Y002165D01*X012697Y002174D02*Y002124D01*
X01276Y0022D02*X012796Y002165D01*X012787Y002264D02*X012837D01*D18*
X017618Y001575D03*D15*X017682Y001638D02*X017717Y001674D01*
X017618Y001665D02*Y001715D01*X017554Y001638D02*X017519Y001674D01*
X017528Y001575D02*X017478D01*X017554Y001511D02*X017519Y001476D01*
X017618Y001485D02*Y001435D01*X017682Y001511D02*X017717Y001476D01*
X017708Y001575D02*X017758D01*D18*X013366Y015118D03*X019518Y008258D03*
D25*X017913Y01437D03*D18*X003848Y010433D03*D25*X018729Y02464D03*D21*
X018827Y024738D02*X018862Y024773D01*X018729Y024778D02*Y024828D01*
X018632Y024738D02*X018596Y024773D01*X018591Y02464D02*X018541D01*
X018632Y024543D02*X018596Y024507D01*X018729Y024502D02*Y024452D01*
X018827Y024543D02*X018862Y024507D01*X018867Y02464D02*X018917D01*D25*
X021729Y02434D03*D21*Y024202D02*Y024212D01*X021827Y024243D02*
X02182Y02425D01*X021867Y02434D02*X021857D01*D25*X012795Y009252D03*D21*
X012893Y009349D02*X012886Y009342D01*X012698Y009349D02*
X012705Y009342D01*X012657Y009252D02*X012667D01*X012698Y009155D02*
X012705Y009162D01*X012795Y009114D02*Y009124D01*X012893Y009155D02*
X012886Y009162D01*X012933Y009252D02*X012923D01*D18*X021506Y01909D03*
D25*X014356Y02429D03*D21*X014453Y024388D02*X014489Y024423D01*
X014356Y024428D02*Y024478D01*X014258Y024388D02*X014223Y024423D01*
X014218Y02429D02*X014168D01*X014258Y024193D02*X014223Y024157D01*
X014356Y024152D02*Y024102D01*X014453Y024193D02*X014489Y024157D01*
X014494Y02429D02*X014544D01*D18*X021457Y014764D03*X02998Y024321D03*D25*
X043504Y010039D03*D21*X043601Y010137D02*X043594Y01013D01*
X043504Y010177D02*Y010167D01*X043406Y010137D02*X043414Y01013D01*
X043366Y010039D02*X043376D01*X043406Y009942D02*X043414Y009949D01*
X043601Y009942D02*X043594Y009949D01*X043642Y010039D02*X043632D01*D18*
X026969Y008268D03*X022429Y02064D03*D25*X025098Y025984D03*D12*
Y025846D02*Y025856D01*D18*X023929Y02544D03*D25*X005315Y017913D03*D21*
X005412Y018011D02*X005405Y018004D01*X005218Y018011D02*
X005225Y018004D01*X005177Y017913D02*X005187D01*X005218Y017816D02*
X005225Y017823D01*X005315Y017776D02*Y017786D01*X005412Y017816D02*
X005405Y017823D01*X005453Y017913D02*X005443D01*D18*X017766Y022648D03*
D25*X031402Y02474D03*D21*X031265D02*X031275D01*X031305Y024643D02*
X031312Y02465D01*X031402Y024602D02*Y024612D01*X0315Y024643D02*
X031493Y02465D01*X03154Y02474D02*X03153D01*D18*X013366Y014783D03*
X031772Y022815D03*D25*X010433Y009252D03*D21*X010531Y009349D02*
X010523Y009342D01*X010336Y009349D02*X010343Y009342D01*
X010295Y009252D02*X010305D01*X010336Y009155D02*X010343Y009162D01*
X010433Y009114D02*Y009124D01*X010531Y009155D02*X010523Y009162D01*
X010571Y009252D02*X010561D01*D25*X009606Y02464D03*D21*
X009703Y024738D02*X009739Y024773D01*X009606Y024778D02*Y024828D01*
X009508Y024738D02*X009473Y024773D01*X009468Y02464D02*X009418D01*
X009508Y024543D02*X009473Y024507D01*X009606Y024502D02*Y024452D01*
X009703Y024543D02*X009739Y024507D01*X009744Y02464D02*X009794D01*D18*
X012963Y023317D03*X034213Y010433D03*D25*X023031Y016142D03*D18*
X020696Y023519D03*D25*X012795Y013583D03*D21*X012893Y01368D02*
X012886Y013673D01*X012698Y01368D02*X012705Y013673D01*X012657Y013583D02*
X012667D01*X012698Y013485D02*X012705Y013492D01*X012795Y013445D02*
Y013455D01*X012893Y013485D02*X012886Y013492D01*X012933Y013583D02*
X012923D01*D25*X038386Y016142D03*X017913Y011811D03*X025591D03*D18*
X007283Y002953D03*D25*X023779Y02359D03*D21*X023877Y023688D02*
X023912Y023723D01*X023779Y023728D02*Y023778D01*X023682Y023688D02*
X023646Y023723D01*X023641Y02359D02*X023591D01*X023682Y023493D02*
X023646Y023457D01*X023779Y023452D02*Y023402D01*X023877Y023493D02*
X023912Y023457D01*X023917Y02359D02*X023967D01*D25*X017229Y02474D03*D21*
X017091D02*X017101D01*X017132Y024643D02*X017139Y02465D01*
X017229Y024602D02*Y024612D01*X017327Y024643D02*X01732Y02465D01*
X017367Y02474D02*X017357D01*D18*X034252Y016929D03*X036811Y019094D03*
D25*X035827Y007087D03*D21*X035924Y007184D02*X035917Y007177D01*
X035729Y007184D02*X035736Y007177D01*X035689Y007087D02*X035699D01*
X035729Y006989D02*X035736Y006996D01*X035827Y006949D02*Y006959D01*
X035924Y006989D02*X035917Y006996D01*X035965Y007087D02*X035955D01*D25*
X005315Y015748D03*D21*X005412Y015845D02*X005448Y015881D01*
X005218Y015845D02*X005182Y015881D01*X005177Y015748D02*X005127D01*
X005218Y015651D02*X005182Y015615D01*X005315Y01561D02*Y01556D01*
X005412Y015651D02*X005448Y015615D01*X005453Y015748D02*X005503D01*D25*
X005315Y018701D03*D21*X005412Y018798D02*X005405Y018791D01*
X005315Y018839D02*Y018829D01*X005218Y018798D02*X005225Y018791D01*
X005177Y018701D02*X005187D01*X005218Y018603D02*X005225Y01861D01*
X005412Y018603D02*X005405Y01861D01*X005453Y018701D02*X005443D01*D18*
X003556Y02069D03*D25*X007874Y016535D03*D21*X007971Y016633D02*
X007964Y016626D01*X007874Y016673D02*Y016663D01*X007777Y016633D02*
X007784Y016626D01*X007736Y016535D02*X007746D01*X007777Y016438D02*
X007784Y016445D01*X007971Y016438D02*X007964Y016445D01*
X008012Y016535D02*X008002D01*D25*X017913Y012205D03*D18*
X018898Y010433D03*X037205Y008268D03*D25*X009256Y02324D03*D21*
X009353Y023338D02*X009389Y023373D01*X009256Y023378D02*Y023428D01*
X009158Y023338D02*X009123Y023373D01*X009118Y02324D02*X009068D01*
X009158Y023143D02*X009123Y023107D01*X009256Y023102D02*Y023052D01*
X009353Y023143D02*X009389Y023107D01*X009394Y02324D02*X009444D01*D18*
X027303Y022313D03*X013056Y01914D03*X026606Y01694D03*D25*
X012795Y017913D03*D21*X012893Y018011D02*X012886Y018004D01*
X012698Y018011D02*X012705Y018004D01*X012657Y017913D02*X012667D01*
X012698Y017816D02*X012705Y017823D01*X012795Y017776D02*Y017786D01*
X012893Y017816D02*X012886Y017823D01*X012933Y017913D02*X012923D01*D18*
X041309Y023317D03*X009528Y021299D03*X008406Y02454D03*X026969Y022815D03*
D25*X010433Y016142D03*X007874Y017913D03*D21*X007971Y018011D02*
X007964Y018004D01*X007777Y018011D02*X007784Y018004D01*
X007736Y017913D02*X007746D01*X007777Y017816D02*X007784Y017823D01*
X007874Y017776D02*Y017786D01*X007971Y017816D02*X007964Y017823D01*
X008012Y017913D02*X008002D01*D25*X010433D03*D21*X010531Y018011D02*
X010523Y018004D01*X010336Y018011D02*X010343Y018004D01*
X010295Y017913D02*X010305D01*X010336Y017816D02*X010343Y017823D01*
X010433Y017776D02*Y017786D01*X010531Y017816D02*X010523Y017823D01*
X010571Y017913D02*X010561D01*D25*X038602Y02464D03*D21*X0387Y024738D02*
X038735Y024773D01*X038602Y024778D02*Y024828D01*X038505Y024738D02*
X03847Y024773D01*X038465Y02464D02*X038415D01*X038505Y024543D02*
X03847Y024507D01*X038602Y024502D02*Y024452D01*X0387Y024543D02*
X038735Y024507D01*X03874Y02464D02*X03879D01*D25*X010433Y013976D03*D18*
X041732Y008465D03*D25*X014882Y020906D03*D13*X014784Y020808D02*
X014749Y020773D01*X014882Y020768D02*Y020718D01*X014979Y020808D02*
X015015Y020773D01*D18*X035433Y023425D03*X003258Y023317D03*
X016309Y02315D03*D25*X017829Y02004D03*D21*Y020178D02*Y020168D01*
X017732Y020138D02*X017739Y020131D01*X017691Y02004D02*X017701D01*
X017732Y019943D02*X017739Y01995D01*D25*X004906Y02324D03*D21*
X005003Y023338D02*X005039Y023373D01*X004906Y023378D02*Y023428D01*
X004808Y023338D02*X004773Y023373D01*X004768Y02324D02*X004718D01*
X004808Y023143D02*X004773Y023107D01*X004906Y023102D02*Y023052D01*
X005003Y023143D02*X005039Y023107D01*X005044Y02324D02*X005094D01*D18*
X015974Y024154D03*D25*X014356Y02394D03*D21*X014453Y024038D02*
X014489Y024073D01*X014356Y024078D02*Y024128D01*X014258Y024038D02*
X014223Y024073D01*X014218Y02394D02*X014168D01*X014258Y023843D02*
X014223Y023807D01*X014356Y023802D02*Y023752D01*X014453Y023843D02*
X014489Y023807D01*X014494Y02394D02*X014544D01*D18*X042323Y010433D03*
X015807Y024321D03*Y023652D03*D25*X003056Y02004D03*D21*
X003153Y020138D02*X003146Y020131D01*X003056Y020178D02*Y020168D01*
Y019902D02*Y019912D01*X003153Y019943D02*X003146Y01995D01*
X003194Y02004D02*X003184D01*D25*X009606Y02359D03*D21*X009703Y023688D02*
X009739Y023723D01*X009606Y023728D02*Y023778D01*X009508Y023688D02*
X009473Y023723D01*X009468Y02359D02*X009418D01*X009508Y023493D02*
X009473Y023457D01*X009606Y023452D02*Y023402D01*X009703Y023493D02*
X009739Y023457D01*X009744Y02359D02*X009794D01*D25*X020472Y01437D03*D21*
X02057Y014468D02*X020563Y01446D01*X020472Y014508D02*Y014498D01*
X020375Y014468D02*X020382Y01446D01*X020335Y01437D02*X020345D01*
X020375Y014273D02*X020382Y01428D01*X02057Y014273D02*X020563Y01428D01*
X02061Y01437D02*X0206D01*D25*X014356Y02359D03*D21*X014453Y023688D02*
X014489Y023723D01*X014356Y023728D02*Y023778D01*X014258Y023688D02*
X014223Y023723D01*X014218Y02359D02*X014168D01*X014258Y023493D02*
X014223Y023457D01*X014356Y023452D02*Y023402D01*X014453Y023493D02*
X014489Y023457D01*X014494Y02359D02*X014544D01*D25*X014006Y02464D03*D21*
X014103Y024738D02*X014139Y024773D01*X014006Y024778D02*Y024828D01*
X013908Y024738D02*X013873Y024773D01*X013868Y02464D02*X013818D01*
X013908Y024543D02*X013873Y024507D01*X014006Y024502D02*Y024452D01*
X014103Y024543D02*X014139Y024507D01*X014144Y02464D02*X014194D01*D25*
X019079Y02359D03*D21*X019177Y023688D02*X019212Y023723D01*
X019079Y023728D02*Y023778D01*X018982Y023688D02*X018946Y023723D01*
X018941Y02359D02*X018891D01*X018982Y023493D02*X018946Y023457D01*
X019079Y023452D02*Y023402D01*X019177Y023493D02*X019212Y023457D01*
X019217Y02359D02*X019267D01*D25*X005315Y007874D03*D21*
X005412Y007971D02*X005405Y007964D01*X005315Y008012D02*Y008002D01*
X005218Y007971D02*X005225Y007964D01*X005177Y007874D02*X005187D01*
X005218Y007777D02*X005225Y007784D01*X005412Y007777D02*
X005405Y007784D01*X005453Y007874D02*X005443D01*D25*X025591Y017913D03*
D21*X025688Y018011D02*X025681Y018004D01*X025493Y018011D02*
X0255Y018004D01*X025453Y017913D02*X025463D01*X025493Y017816D02*
X0255Y017823D01*X025591Y017776D02*Y017786D01*X025688Y017816D02*
X025681Y017823D01*X025728Y017913D02*X025718D01*D25*X014356Y02464D03*
D21*X014453Y024738D02*X014489Y024773D01*X014356Y024778D02*Y024828D01*
X014258Y024738D02*X014223Y024773D01*X014218Y02464D02*X014168D01*
X014258Y024543D02*X014223Y024507D01*X014356Y024502D02*Y024452D01*
X014453Y024543D02*X014489Y024507D01*X014494Y02464D02*X014544D01*D18*
X032028Y024892D03*X015266Y017461D03*D25*X029823Y025787D03*D12*
Y02565D02*Y02566D01*D18*X041949Y004331D03*D12*X042012Y004394D02*
X042048Y00443D01*X041949Y004421D02*Y004471D01*X041885Y004394D02*
X04185Y00443D01*X041859Y004331D02*X041809D01*X041885Y004267D02*
X04185Y004232D01*X041949Y004241D02*Y004191D01*X042012Y004267D02*
X042048Y004232D01*X042039Y004331D02*X042089D01*D18*X041949Y004035D03*
D12*X042012Y004099D02*X042048Y004134D01*X041949Y004125D02*Y004175D01*
X041885Y004099D02*X04185Y004134D01*X041859Y004035D02*X041809D01*
X041885Y003972D02*X04185Y003936D01*X041949Y003945D02*Y003895D01*
X042012Y003972D02*X042048Y003936D01*X042039Y004035D02*X042089D01*D18*
X042244Y005512D03*X009252Y008268D03*X0156Y017126D03*D25*
X006201Y025787D03*D21*X006298Y025885D02*X006291Y025878D01*
X006201Y025925D02*Y025915D01*X006103Y025885D02*X00611Y025878D01*
X006063Y025787D02*X006073D01*X006103Y02569D02*X00611Y025697D01*
X006201Y02565D02*Y02566D01*X006298Y02569D02*X006291Y025697D01*
X006339Y025787D02*X006329D01*D25*X026801Y023986D03*D21*
X026899Y024084D02*X026934Y024119D01*X026801Y024124D02*Y024174D01*
X026704Y024084D02*X026668Y024119D01*X026663Y023986D02*X026613D01*
X026704Y023889D02*X026668Y023853D01*X026801Y023848D02*Y023798D01*
X026899Y023889D02*X026934Y023853D01*X026939Y023986D02*X026989D01*D18*
X003425Y02315D03*D25*X024114Y002303D03*D16*X024212Y002401D02*
X024205Y002394D01*X024114Y002441D02*Y002431D01*X024017Y002401D02*
X024024Y002394D01*X023976Y002303D02*X023986D01*X024252D02*X024242D01*
D18*X042539Y005512D03*D25*X028529Y02359D03*D21*X028627Y023688D02*
X028662Y023723D01*X028529Y023728D02*Y023778D01*X028432Y023688D02*
X028396Y023723D01*X028391Y02359D02*X028341D01*X028432Y023493D02*
X028396Y023457D01*X028529Y023452D02*Y023402D01*X028627Y023493D02*
X028662Y023457D01*X028667Y02359D02*X028717D01*D18*X041309Y022648D03*
X039173Y012598D03*D25*X022079Y02434D03*D21*X021941D02*X021951D01*
X021982Y024243D02*X021989Y02425D01*X022079Y024202D02*Y024212D01*
X022177Y024243D02*X02217Y02425D01*X022217Y02434D02*X022207D01*D18*
X032677Y014961D03*X02185Y019094D03*D25*X007874Y012205D03*D21*
X007971Y012302D02*X007964Y012295D01*X007874Y012343D02*Y012333D01*
X007777Y012302D02*X007784Y012295D01*X007736Y012205D02*X007746D01*
X007777Y012107D02*X007784Y012114D01*X007971Y012107D02*
X007964Y012114D01*X008012Y012205D02*X008002D01*D25*X005315D03*D21*
X005412Y012302D02*X005405Y012295D01*X005315Y012343D02*Y012333D01*
X005218Y012302D02*X005225Y012295D01*X005177Y012205D02*X005187D01*
X005218Y012107D02*X005225Y012114D01*X005412Y012107D02*
X005405Y012114D01*X005453Y012205D02*X005443D01*D18*X028957Y019134D03*
D25*X035827Y013583D03*D21*X035924Y01368D02*X035917Y013673D01*
X035729Y01368D02*X035736Y013673D01*X035689Y013583D02*X035699D01*
X035729Y013485D02*X035736Y013492D01*X035827Y013445D02*Y013455D01*
X035924Y013485D02*X035917Y013492D01*X035965Y013583D02*X035955D01*D18*
X041181Y015118D03*X044656Y023484D03*D25*X017913Y011417D03*D16*
X018011Y011515D02*X018004Y011508D01*X017816Y011515D02*
X017823Y011508D01*X017776Y011417D02*X017786D01*X017816Y01132D02*
X017823Y011327D01*X017913Y01128D02*Y01129D01*X018011Y01132D02*
X018004Y011327D01*X018051Y011417D02*X018041D01*D18*X02185Y008268D03*
D25*X015354Y007874D03*D21*X015452Y007971D02*X015445Y007964D01*
X015354Y008012D02*Y008002D01*X015257Y007971D02*X015264Y007964D01*
X015217Y007874D02*X015227D01*X015257Y007777D02*X015264Y007784D01*
X015452Y007777D02*X015445Y007784D01*X015492Y007874D02*X015482D01*D18*
X003258Y022982D03*X01122Y010433D03*X039173Y016929D03*D25*
X015354Y016142D03*D18*X003593Y023317D03*X021457Y023622D03*
X003258Y022648D03*X006523Y024188D03*D25*X004556Y02429D03*D21*
X004653Y024388D02*X004689Y024423D01*X004556Y024428D02*Y024478D01*
X004458Y024388D02*X004423Y024423D01*X004418Y02429D02*X004368D01*
X004458Y024193D02*X004423Y024157D01*X004556Y024152D02*Y024102D01*
X004653Y024193D02*X004689Y024157D01*X004694Y02429D02*X004744D01*D25*
X003056Y02474D03*D21*X002918D02*X002928D01*X002958Y024643D02*
X002966Y02465D01*X003056Y024602D02*Y024612D01*X003153Y024643D02*
X003146Y02465D01*X003194Y02474D02*X003184D01*D25*X032902Y02324D03*D21*
X033Y023338D02*X033035Y023373D01*X032902Y023378D02*Y023428D01*
X032805Y023338D02*X03277Y023373D01*X032765Y02324D02*X032715D01*
X032805Y023143D02*X03277Y023107D01*X032902Y023102D02*Y023052D01*
X033Y023143D02*X033035Y023107D01*X03304Y02324D02*X03309D01*D25*
X010925Y025984D03*D11*X010787D02*X010797D01*X011063D02*X011053D01*D25*
X007556Y02399D03*D21*X007653Y024088D02*X007689Y024123D01*
X007556Y024128D02*Y024178D01*Y023852D02*Y023802D01*X007653Y023893D02*
X007689Y023857D01*X007694Y02399D02*X007744D01*D25*X043504Y012205D03*
D21*X043601Y012302D02*X043594Y012295D01*X043504Y012343D02*Y012333D01*
X043406Y012302D02*X043414Y012295D01*X043366Y012205D02*X043376D01*
X043406Y012107D02*X043414Y012114D01*X043601Y012107D02*
X043594Y012114D01*X043642Y012205D02*X043632D01*D18*X027256Y01479D03*
X009252Y016929D03*X014094Y012943D03*X012806Y01939D03*X039764Y016929D03*
X016142Y023317D03*X031939Y022982D03*X042244Y012608D03*D25*
X024079Y02464D03*D21*X024177Y024738D02*X024212Y024773D01*
X024079Y024778D02*Y024828D01*X023982Y024738D02*X023946Y024773D01*
X023941Y02464D02*X023891D01*X023982Y024543D02*X023946Y024507D01*
X024079Y024502D02*Y024452D01*X024177Y024543D02*X024212Y024507D01*
X024217Y02464D02*X024267D01*D18*X032106Y02248D03*X015974Y023484D03*
X013456Y01694D03*X01313Y024823D03*X013297Y02499D03*X01313Y02315D03*
X006356Y024356D03*X013031Y015118D03*X044321Y024154D03*D25*
X033268Y017913D03*D21*X033365Y018011D02*X033358Y018004D01*
X03317Y018011D02*X033177Y018004D01*X03313Y017913D02*X03314D01*
X03317Y017816D02*X033177Y017823D01*X033268Y017776D02*Y017786D01*
X033365Y017816D02*X033358Y017823D01*X033406Y017913D02*X033396D01*D18*
X006919Y008258D03*D25*X004556Y02464D03*D21*X004653Y024738D02*
X004689Y024773D01*X004556Y024778D02*Y024828D01*X004458Y024738D02*
X004423Y024773D01*X004418Y02464D02*X004368D01*X004458Y024543D02*
X004423Y024507D01*X004556Y024502D02*Y024452D01*X004653Y024543D02*
X004689Y024507D01*X004694Y02464D02*X004744D01*D18*X015974Y024488D03*
D25*X005315Y010039D03*D21*X005412Y010137D02*X005405Y01013D01*
X005315Y010177D02*Y010167D01*X005218Y010137D02*X005225Y01013D01*
X005177Y010039D02*X005187D01*X005218Y009942D02*X005225Y009949D01*
X005412Y009942D02*X005405Y009949D01*X005453Y010039D02*X005443D01*D25*
X004906Y02394D03*D21*X005003Y024038D02*X005039Y024073D01*
X004906Y024078D02*Y024128D01*X004808Y024038D02*X004773Y024073D01*
X004768Y02394D02*X004718D01*X004808Y023843D02*X004773Y023807D01*
X004906Y023802D02*Y023752D01*X005003Y023843D02*X005039Y023807D01*
X005044Y02394D02*X005094D01*D25*X007874Y010039D03*D21*
X007971Y010137D02*X007964Y01013D01*X007874Y010177D02*Y010167D01*
X007777Y010137D02*X007784Y01013D01*X007736Y010039D02*X007746D01*
X007777Y009942D02*X007784Y009949D01*X007971Y009942D02*
X007964Y009949D01*X008012Y010039D02*X008002D01*D18*X03622Y025472D03*
X013297Y022146D03*X014094Y015118D03*D25*X017913Y018701D03*D16*
X018011Y018798D02*X018004Y018791D01*X017913Y018839D02*Y018829D01*
X017816Y018798D02*X017823Y018791D01*X017776Y018701D02*X017786D01*
X017816Y018603D02*X017823Y01861D01*D18*X030148Y02315D03*
X028632Y017126D03*D25*X040945Y00748D03*X020472Y017913D03*D21*
X02057Y018011D02*X020563Y018004D01*X020375Y018011D02*X020382Y018004D01*
X020335Y017913D02*X020345D01*X020375Y017816D02*X020382Y017823D01*
X020472Y017776D02*Y017786D01*X02057Y017816D02*X020563Y017823D01*
X02061Y017913D02*X0206D01*D18*X003445Y004429D03*X003509Y004493D02*
X003544Y004528D01*X003445Y004519D02*Y004569D01*X003381Y004493D02*
X003346Y004528D01*X003355Y004429D02*X003305D01*X003381Y004365D02*
X003346Y00433D01*X003445Y004339D02*Y004289D01*X003509Y004365D02*
X003544Y00433D01*X003535Y004429D02*X003585D01*D25*X023429Y02464D03*D21*
X023527Y024738D02*X023562Y024773D01*X023429Y024778D02*Y024828D01*
X023332Y024738D02*X023296Y024773D01*X023291Y02464D02*X023241D01*
X023332Y024543D02*X023296Y024507D01*X023429Y024502D02*Y024452D01*
X023527Y024543D02*X023562Y024507D01*X023567Y02464D02*X023617D01*D18*
X010006Y02094D03*D25*X007874Y018701D03*D21*X007971Y018798D02*
X007964Y018791D01*X007874Y018839D02*Y018829D01*X007777Y018798D02*
X007784Y018791D01*X007736Y018701D02*X007746D01*X007777Y018603D02*
X007784Y01861D01*X007971Y018603D02*X007964Y01861D01*X008012Y018701D02*
X008002D01*D25*X042352Y02324D03*D21*X04245Y023338D02*X042485Y023373D01*
X042352Y023378D02*Y023428D01*X042255Y023338D02*X04222Y023373D01*
X042215Y02324D02*X042165D01*X042255Y023143D02*X04222Y023107D01*
X042352Y023102D02*Y023052D01*X04245Y023143D02*X042485Y023107D01*
X04249Y02324D02*X04254D01*D25*X009606D03*D21*X009703Y023338D02*
X009739Y023373D01*X009606Y023378D02*Y023428D01*X009508Y023338D02*
X009473Y023373D01*X009468Y02324D02*X009418D01*X009508Y023143D02*
X009473Y023107D01*X009606Y023102D02*Y023052D01*X009703Y023143D02*
X009739Y023107D01*X009744Y02324D02*X009794D01*D18*X014094Y014783D03*
D25*X009256Y02429D03*D21*X009353Y024388D02*X009389Y024423D01*
X009256Y024428D02*Y024478D01*X009158Y024388D02*X009123Y024423D01*
X009118Y02429D02*X009068D01*X009158Y024193D02*X009123Y024157D01*
X009256Y024152D02*Y024102D01*X009353Y024193D02*X009389Y024157D01*
X009394Y02429D02*X009444D01*D25*X017913Y015748D03*D18*X042002Y02169D03*
D25*X020472Y013976D03*X017913D03*X015354Y01437D03*D21*
X015452Y014468D02*X015445Y01446D01*X015354Y014508D02*Y014498D01*
X015257Y014468D02*X015264Y01446D01*X015217Y01437D02*X015227D01*
X015257Y014273D02*X015264Y01428D01*X015452Y014273D02*X015445Y01428D01*
X015492Y01437D02*X015482D01*D25*X012795D03*D21*X012893Y014468D02*
X012886Y01446D01*X012795Y014508D02*Y014498D01*X012698Y014468D02*
X012705Y01446D01*X012657Y01437D02*X012667D01*X012698Y014273D02*
X012705Y01428D01*X012893Y014273D02*X012886Y01428D01*X012933Y01437D02*
X012923D01*D18*X02998Y024656D03*X034951Y024488D03*X019291Y020906D03*
X019055Y021142D03*X017487Y025715D03*D25*X037952Y02394D03*D21*
X03805Y024038D02*X038085Y024073D01*X037952Y024078D02*Y024128D01*
X037855Y024038D02*X03782Y024073D01*X037815Y02394D02*X037765D01*
X037855Y023843D02*X03782Y023807D01*X037952Y023802D02*Y023752D01*
X03805Y023843D02*X038085Y023807D01*X03809Y02394D02*X03814D01*D18*
X016043Y026083D03*X034352Y02189D03*X041702Y02184D03*D15*
X041766Y021904D02*X041801Y021939D01*X041639Y021904D02*
X041603Y021939D01*X041702Y02175D02*Y0217D01*X041766Y021777D02*
X041801Y021741D01*X041792Y02184D02*X041842D01*D18*X02185Y012598D03*D25*
X042352Y02394D03*D21*X04245Y024038D02*X042485Y024073D01*
X042352Y024078D02*Y024128D01*X042255Y024038D02*X04222Y024073D01*
X042215Y02394D02*X042165D01*X042255Y023843D02*X04222Y023807D01*
X042352Y023802D02*Y023752D01*X04245Y023843D02*X042485Y023807D01*
X04249Y02394D02*X04254D01*D18*X03487Y024188D03*X017829Y02464D03*D25*
X040974Y023986D03*D21*X041072Y024084D02*X041107Y024119D01*
X040974Y024124D02*Y024174D01*X040877Y024084D02*X040842Y024119D01*
X040837Y023986D02*X040787D01*X040877Y023889D02*X040842Y023853D01*
X040974Y023848D02*Y023798D01*X041072Y023889D02*X041107Y023853D01*
X041112Y023986D02*X041162D01*D18*X020479Y02334D03*D25*
X033268Y010039D03*D21*X033365Y010137D02*X033358Y01013D01*
X033268Y010177D02*Y010167D01*X03317Y010137D02*X033177Y01013D01*
X03313Y010039D02*X03314D01*X03317Y009942D02*X033177Y009949D01*
X033365Y009942D02*X033358Y009949D01*X033406Y010039D02*X033396D01*D18*
X041555Y010472D03*X039764Y010433D03*X03811Y021299D03*X036902Y02474D03*
X037205Y019094D03*D25*X030669Y007087D03*D21*X030767Y007184D02*
X03076Y007177D01*X030572Y007184D02*X030579Y007177D01*X030531Y007087D02*
X030541D01*X030572Y006989D02*X030579Y006996D01*X030669Y006949D02*
Y006959D01*X030767Y006989D02*X03076Y006996D01*X030807Y007087D02*
X030797D01*D18*X004106Y02129D03*D25*X033268Y007087D03*D21*
X033365Y007184D02*X033358Y007177D01*X03317Y007184D02*X033177Y007177D01*
X03313Y007087D02*X03314D01*X03317Y006989D02*X033177Y006996D01*
X033268Y006949D02*Y006959D01*X033365Y006989D02*X033358Y006996D01*
X033406Y007087D02*X033396D01*D25*X033268Y00748D03*D18*
X034646Y019094D03*D25*X012795Y009646D03*D18*X008858Y012598D03*
X041556Y01724D03*X03248Y016929D03*X036602Y02064D03*X016142Y003937D03*
D25*X035827Y00748D03*D18*X034646Y016929D03*X031693Y012598D03*
X035118Y024321D03*D25*X038386Y00748D03*X035827Y016142D03*
X043504Y011811D03*X005315Y011417D03*D21*X005412Y011515D02*
X005405Y011508D01*X005218Y011515D02*X005225Y011508D01*
X005177Y011417D02*X005187D01*X005218Y01132D02*X005225Y011327D01*
X005315Y01128D02*Y01129D01*X005412Y01132D02*X005405Y011327D01*
X005453Y011417D02*X005443D01*D25*X040945Y009252D03*D21*
X041042Y009349D02*X041035Y009342D01*X040847Y009349D02*
X040855Y009342D01*X040807Y009252D02*X040817D01*X040847Y009155D02*
X040855Y009162D01*X040945Y009114D02*Y009124D01*X041042Y009155D02*
X041035Y009162D01*X041083Y009252D02*X041073D01*D25*X040945Y013976D03*
X007906Y02434D03*D21*X007768D02*X007778D01*X007808Y024243D02*
X007816Y02425D01*X007906Y024202D02*Y024212D01*X008003Y024243D02*
X007996Y02425D01*X008044Y02434D02*X008034D01*D25*X030669Y00748D03*
X043504Y011417D03*D21*X043601Y011515D02*X043594Y011508D01*
X043406Y011515D02*X043414Y011508D01*X043366Y011417D02*X043376D01*
X043406Y01132D02*X043414Y011327D01*X043504Y01128D02*Y01129D01*
X043601Y01132D02*X043594Y011327D01*X043642Y011417D02*X043632D01*D25*
X040945D03*D21*X041042Y011515D02*X041035Y011508D01*X040847Y011515D02*
X040855Y011508D01*X040807Y011417D02*X040817D01*X040847Y01132D02*
X040855Y011327D01*X040945Y01128D02*Y01129D01*X041042Y01132D02*
X041035Y011327D01*X041083Y011417D02*X041073D01*D25*X035827D03*D21*
X035924Y011515D02*X035917Y011508D01*X035729Y011515D02*
X035736Y011508D01*X035689Y011417D02*X035699D01*X035729Y01132D02*
X035736Y011327D01*X035827Y01128D02*Y01129D01*X035924Y01132D02*
X035917Y011327D01*X035965Y011417D02*X035955D01*D18*X015266Y019301D03*
D25*X038386Y011417D03*D21*X038483Y011515D02*X038476Y011508D01*
X038288Y011515D02*X038295Y011508D01*X038248Y011417D02*X038258D01*
X038288Y01132D02*X038295Y011327D01*X038386Y01128D02*Y01129D01*
X038483Y01132D02*X038476Y011327D01*X038524Y011417D02*X038514D01*D25*
X017529Y02004D03*D21*X017627Y020138D02*X01762Y020131D01*
X017529Y020178D02*Y020168D01*X017432Y020138D02*X017439Y020131D01*
X017391Y02004D02*X017401D01*X017432Y019943D02*X017439Y01995D01*
X017529Y019902D02*Y019912D01*X017627Y019943D02*X01762Y01995D01*
X017667Y02004D02*X017657D01*D25*X035827Y010039D03*D21*
X035924Y010137D02*X035917Y01013D01*X035827Y010177D02*Y010167D01*
X035729Y010137D02*X035736Y01013D01*X035689Y010039D02*X035699D01*
X035729Y009942D02*X035736Y009949D01*X035924Y009942D02*
X035917Y009949D01*X035965Y010039D02*X035955D01*D25*X038386D03*D21*
X038483Y010137D02*X038476Y01013D01*X038386Y010177D02*Y010167D01*
X038288Y010137D02*X038295Y01013D01*X038248Y010039D02*X038258D01*
X038288Y009942D02*X038295Y009949D01*X038483Y009942D02*
X038476Y009949D01*X038524Y010039D02*X038514D01*D18*X009252Y010433D03*
D25*X040945Y010039D03*D21*X041042Y010137D02*X041035Y01013D01*
X040945Y010177D02*Y010167D01*X040847Y010137D02*X040855Y01013D01*
X040807Y010039D02*X040817D01*X040847Y009942D02*X040855Y009949D01*
X041042Y009942D02*X041035Y009949D01*X041083Y010039D02*X041073D01*D18*
X04189Y021299D03*D25*X033268Y011417D03*D21*X033365Y011515D02*
X033358Y011508D01*X03317Y011515D02*X033177Y011508D01*X03313Y011417D02*
X03314D01*X03317Y01132D02*X033177Y011327D01*X033268Y01128D02*Y01129D01*
X033365Y01132D02*X033358Y011327D01*X033406Y011417D02*X033396D01*D25*
X007874Y01437D03*D21*X007971Y014468D02*X007964Y01446D01*
X007874Y014508D02*Y014498D01*X007777Y014468D02*X007784Y01446D01*
X007736Y01437D02*X007746D01*X007777Y014273D02*X007784Y01428D01*
X007971Y014273D02*X007964Y01428D01*X008012Y01437D02*X008002D01*D25*
X035827Y018307D03*X038386D03*D18*X008071Y003543D03*X008135Y003607D02*
X00817Y003642D01*X008071Y003633D02*Y003683D01*X008007Y003607D02*
X007972Y003642D01*X007981Y003543D02*X007931D01*X008007Y00348D02*
X007972Y003444D01*X008071Y003453D02*Y003403D01*X008135Y00348D02*
X00817Y003444D01*X008161Y003543D02*X008211D01*X043456Y01934D03*
X007874Y003264D03*X007938Y003327D02*X007973Y003363D01*
X007874Y003354D02*Y003404D01*X00781Y003327D02*X007775Y003363D01*
X007784Y003264D02*X007734D01*X00781Y0032D02*X007775Y003165D01*
X007874Y003174D02*Y003124D01*X007938Y0032D02*X007973Y003165D01*
X007964Y003264D02*X008014D01*X036535Y025709D03*D25*X038386Y017913D03*
D21*X038483Y018011D02*X038476Y018004D01*X038288Y018011D02*
X038295Y018004D01*X038248Y017913D02*X038258D01*X038288Y017816D02*
X038295Y017823D01*X038386Y017776D02*Y017786D01*X038483Y017816D02*
X038476Y017823D01*X038524Y017913D02*X038514D01*D25*X040945D03*D21*
X041042Y018011D02*X041035Y018004D01*X040847Y018011D02*
X040855Y018004D01*X040807Y017913D02*X040817D01*X040847Y017816D02*
X040855Y017823D01*X040945Y017776D02*Y017786D01*X041042Y017816D02*
X041035Y017823D01*X041083Y017913D02*X041073D01*D18*X030148Y023484D03*
D25*X017913Y009252D03*D16*X018011Y009349D02*X018004Y009342D01*
X017816Y009349D02*X017823Y009342D01*X017776Y009252D02*X017786D01*
X017816Y009155D02*X017823Y009162D01*X017913Y009114D02*Y009124D01*
X018011Y009155D02*X018004Y009162D01*X018051Y009252D02*X018041D01*D18*
X026555Y012943D03*D25*X043504Y017913D03*D21*X043601Y018011D02*
X043594Y018004D01*X043406Y018011D02*X043414Y018004D01*
X043366Y017913D02*X043376D01*X043406Y017816D02*X043414Y017823D01*
X043504Y017776D02*Y017786D01*X043601Y017816D02*X043594Y017823D01*
X043642Y017913D02*X043632D01*D18*X027829Y02169D03*X007677Y003264D03*
X007741Y003327D02*X007776Y003363D01*X007677Y003354D02*Y003404D01*
X007614Y003327D02*X007578Y003363D01*X007587Y003264D02*X007537D01*
X007614Y0032D02*X007578Y003165D01*X007677Y003174D02*Y003124D01*
X007741Y0032D02*X007776Y003165D01*X007767Y003264D02*X007817D01*D25*
X042352Y02464D03*D21*X04245Y024738D02*X042485Y024773D01*
X042352Y024778D02*Y024828D01*X042255Y024738D02*X04222Y024773D01*
X042215Y02464D02*X042165D01*X042255Y024543D02*X04222Y024507D01*
X042352Y024502D02*Y024452D01*X04245Y024543D02*X042485Y024507D01*
X04249Y02464D02*X04254D01*D18*X00748Y002657D03*D25*X030709Y015748D03*
D18*X023701Y021299D03*X022579Y02454D03*X014094Y012608D03*
X029134Y012598D03*X041309Y022982D03*X017431D03*X041909Y012943D03*
X043456Y01704D03*D25*X037952Y02464D03*D21*X03805Y024738D02*
X038085Y024773D01*X037952Y024778D02*Y024828D01*X037855Y024738D02*
X03782Y024773D01*X037815Y02464D02*X037765D01*X037855Y024543D02*
X03782Y024507D01*X037952Y024502D02*Y024452D01*X03805Y024543D02*
X038085Y024507D01*X03809Y02464D02*X03814D01*D18*X04375Y017461D03*
X042913Y020906D03*D25*X023031Y018701D03*D21*X023129Y018798D02*
X023122Y018791D01*X023031Y018839D02*Y018829D01*X022934Y018798D02*
X022941Y018791D01*X022894Y018701D02*X022904D01*X022934Y018603D02*
X022941Y01861D01*X023129Y018603D02*X023122Y01861D01*X023169Y018701D02*
X023159D01*D18*X041339Y025709D03*X042802Y02134D03*D25*X003356Y02004D03*
D21*X003453Y020138D02*X003446Y020131D01*X003356Y020178D02*Y020168D01*
X003258Y020138D02*X003266Y020131D01*X003218Y02004D02*X003228D01*
X003258Y019943D02*X003266Y01995D01*X003356Y019902D02*Y019912D01*
X003453Y019943D02*X003446Y01995D01*X003494Y02004D02*X003484D01*D18*
X03166Y025715D03*X033228Y021142D03*X019508Y016959D03*X017766Y023317D03*
X012628D03*X02747Y02499D03*X026606Y01909D03*X031345Y025478D03*
X03315Y021378D03*X017234Y01434D03*X014173Y008268D03*X027303Y024823D03*
X029779Y02094D03*D16*X029843Y021004D02*X029878Y021039D01*
X029779Y02103D02*Y02108D01*X029715Y021004D02*X02968Y021039D01*
X029689Y02094D02*X029639D01*X029869D02*X029919D01*D18*
X021024Y008258D03*D25*X030709Y011811D03*D18*X022979Y02164D03*D16*
X023043Y021704D02*X023078Y021739D01*X022979Y02173D02*Y02178D01*
X023043Y021577D02*X023078Y021541D01*X023069Y02164D02*X023119D01*D18*
X041476Y022313D03*Y022815D03*X041909Y014783D03*X02185Y016929D03*
X044656Y02315D03*X026606Y01514D03*X024409Y010433D03*D25*
X025591Y007087D03*D21*X025688Y007184D02*X025681Y007177D01*
X025493Y007184D02*X0255Y007177D01*X025453Y007087D02*X025463D01*
X025493Y006989D02*X0255Y006996D01*X025591Y006949D02*Y006959D01*
X025688Y006989D02*X025681Y006996D01*X025728Y007087D02*X025718D01*D25*
X017229Y02404D03*D21*X017327Y024138D02*X017362Y024173D01*
X017229Y024178D02*Y024228D01*X017132Y024138D02*X017096Y024173D01*
X017091Y02404D02*X017041D01*X017132Y023943D02*X017096Y023907D01*
X017229Y023902D02*Y023852D01*X017327Y023943D02*X017362Y023907D01*
X017367Y02404D02*X017417D01*D18*X042579Y015118D03*X034702Y024356D03*
X007874Y025472D03*D25*X010433Y013583D03*D21*X010531Y01368D02*
X010523Y013673D01*X010336Y01368D02*X010343Y013673D01*X010295Y013583D02*
X010305D01*X010336Y013485D02*X010343Y013492D01*X010433Y013445D02*
Y013455D01*X010531Y013485D02*X010523Y013492D01*X010571Y013583D02*
X010561D01*D18*X015945Y01752D03*X024409Y016929D03*D25*
X020472Y018701D03*D21*X02057Y018798D02*X020563Y018791D01*
X020472Y018839D02*Y018829D01*X020375Y018798D02*X020382Y018791D01*
X020335Y018701D02*X020345D01*X020375Y018603D02*X020382Y01861D01*
X02057Y018603D02*X020563Y01861D01*X02061Y018701D02*X0206D01*D18*
X044154Y023986D03*X009252Y012598D03*X041909Y015118D03*D25*
X003622Y020039D03*D21*Y020177D02*Y020167D01*X003525Y020137D02*
X003532Y02013D01*X003484Y020039D02*X003494D01*X003525Y019942D02*
X003532Y019949D01*D18*X039152Y02184D03*X044321Y02315D03*
X03487Y023854D03*X030315Y023317D03*X039173Y003543D03*D15*
X039237Y003607D02*X039272Y003642D01*X039173Y003633D02*Y003683D01*
X03911Y003607D02*X039074Y003642D01*X039083Y003543D02*X039033D01*
X03911Y00348D02*X039074Y003444D01*X039173Y003453D02*Y003403D01*
X039237Y00348D02*X039272Y003444D01*X039263Y003543D02*X039313D01*D25*
X042702Y02359D03*D21*X0428Y023688D02*X042835Y023723D01*
X042702Y023728D02*Y023778D01*X042605Y023688D02*X04257Y023723D01*
X042565Y02359D02*X042515D01*X042605Y023493D02*X04257Y023457D01*
X042702Y023452D02*Y023402D01*X0428Y023493D02*X042835Y023457D01*
X04284Y02359D02*X04289D01*D25*X025098Y025787D03*D12*Y02565D02*
Y02566D01*D25*X035827Y017913D03*D21*X035924Y018011D02*
X035917Y018004D01*X035729Y018011D02*X035736Y018004D01*
X035689Y017913D02*X035699D01*X035729Y017816D02*X035736Y017823D01*
X035827Y017776D02*Y017786D01*X035924Y017816D02*X035917Y017823D01*
X035965Y017913D02*X035955D01*D25*X023429Y02359D03*D21*
X023527Y023688D02*X023562Y023723D01*X023429Y023728D02*Y023778D01*
X023332Y023688D02*X023296Y023723D01*X023291Y02359D02*X023241D01*
X023332Y023493D02*X023296Y023457D01*X023429Y023452D02*Y023402D01*
X023527Y023493D02*X023562Y023457D01*X023567Y02359D02*X023617D01*D18*
X036656Y01264D03*X021024Y010433D03*X044321Y023484D03*D25*
X012795Y00748D03*X043504Y007874D03*D21*X043601Y007971D02*
X043594Y007964D01*X043504Y008012D02*Y008002D01*X043406Y007971D02*
X043414Y007964D01*X043366Y007874D02*X043376D01*X043406Y007777D02*
X043414Y007784D01*X043601Y007777D02*X043594Y007784D01*
X043642Y007874D02*X043632D01*D25*X005315Y009646D03*D18*
X02685Y025472D03*X028307Y021309D03*X01122Y016929D03*X025827Y015118D03*
X038109Y025465D03*D25*X033268Y018701D03*D21*X033365Y018798D02*
X033358Y018791D01*X033268Y018839D02*Y018829D01*X03317Y018798D02*
X033177Y018791D01*X03313Y018701D02*X03314D01*X03317Y018603D02*
X033177Y01861D01*X033365Y018603D02*X033358Y01861D01*X033406Y018701D02*
X033396D01*D25*X010433Y009646D03*D18*X041142Y02315D03*D25*
X030709Y016535D03*D21*X030806Y016633D02*X030799Y016626D01*
X030709Y016673D02*Y016663D01*X030611Y016633D02*X030618Y016626D01*
X030571Y016535D02*X030581D01*X030611Y016438D02*X030618Y016445D01*
X030806Y016438D02*X030799Y016445D01*X030846Y016535D02*X030836D01*D18*
X033465Y020906D03*D25*X010433Y01437D03*D21*X010531Y014468D02*
X010523Y01446D01*X010433Y014508D02*Y014498D01*X010336Y014468D02*
X010343Y01446D01*X010295Y01437D02*X010305D01*X010336Y014273D02*
X010343Y01428D01*X010531Y014273D02*X010523Y01428D01*X010571Y01437D02*
X010561D01*D25*X019079Y02324D03*D21*X019177Y023338D02*
X019212Y023373D01*X019079Y023378D02*Y023428D01*X018982Y023338D02*
X018946Y023373D01*X018941Y02324D02*X018891D01*X018982Y023143D02*
X018946Y023107D01*X019079Y023102D02*Y023052D01*X019177Y023143D02*
X019212Y023107D01*X019217Y02324D02*X019267D01*D18*X02998Y023986D03*D25*
X010315Y020906D03*D18*X030148Y024154D03*D25*X017913Y018307D03*
Y016142D03*D18*X027256Y01514D03*X027224Y012943D03*D25*
X023031Y012205D03*D21*X023129Y012302D02*X023122Y012295D01*
X023031Y012343D02*Y012333D01*X022934Y012302D02*X022941Y012295D01*
X022894Y012205D02*X022904D01*X022934Y012107D02*X022941Y012114D01*
X023129Y012107D02*X023122Y012114D01*X023169Y012205D02*X023159D01*D18*
X044488Y023317D03*D25*X007874Y013583D03*D21*X007971Y01368D02*
X007964Y013673D01*X007777Y01368D02*X007784Y013673D01*X007736Y013583D02*
X007746D01*X007777Y013485D02*X007784Y013492D01*X007874Y013445D02*
Y013455D01*X007971Y013485D02*X007964Y013492D01*X008012Y013583D02*
X008002D01*D18*X004156Y02164D03*D15*X00422Y021704D02*X004255Y021739D01*
X004156Y02173D02*Y02178D01*Y02155D02*Y0215D01*X00422Y021577D02*
X004255Y021541D01*X004246Y02164D02*X004296D01*D25*X007556Y02434D03*D21*
Y024202D02*Y024212D01*X007653Y024243D02*X007646Y02425D01*
X007694Y02434D02*X007684D01*D25*X005315Y013583D03*D21*X005412Y01368D02*
X005405Y013673D01*X005218Y01368D02*X005225Y013673D01*X005177Y013583D02*
X005187D01*X005218Y013485D02*X005225Y013492D01*X005315Y013445D02*
Y013455D01*X005412Y013485D02*X005405Y013492D01*X005453Y013583D02*
X005443D01*D25*X023031Y01437D03*D21*X023129Y014468D02*X023122Y01446D01*
X023031Y014508D02*Y014498D01*X022934Y014468D02*X022941Y01446D01*
X022894Y01437D02*X022904D01*X022934Y014273D02*X022941Y01428D01*
X023129Y014273D02*X023122Y01428D01*X023169Y01437D02*X023159D01*D18*
X024075Y016929D03*X018329Y02184D03*D15*X018393Y021904D02*
X018428Y021939D01*X018329Y02175D02*Y0217D01*X018393Y021777D02*
X018428Y021741D01*X018419Y02184D02*X018469D01*D18*X007579Y004232D03*
X042579Y012943D03*D25*X02815Y009646D03*X025591D03*D18*X022729Y02474D03*
X023937Y021299D03*D25*X033268Y011811D03*X023429Y02429D03*D21*
X023527Y024388D02*X023562Y024423D01*X023429Y024428D02*Y024478D01*
X023332Y024388D02*X023296Y024423D01*X023291Y02429D02*X023241D01*
X023332Y024193D02*X023296Y024157D01*X023429Y024152D02*Y024102D01*
X023527Y024193D02*X023562Y024157D01*X023567Y02429D02*X023617D01*D25*
X023779Y02464D03*D21*X023877Y024738D02*X023912Y024773D01*
X023779Y024778D02*Y024828D01*X023682Y024738D02*X023646Y024773D01*
X023641Y02464D02*X023591D01*X023682Y024543D02*X023646Y024507D01*
X023779Y024502D02*Y024452D01*X023877Y024543D02*X023912Y024507D01*
X023917Y02464D02*X023967D01*D18*X016831Y000984D03*D19*
X016894Y001048D02*X01693Y001083D01*X016831Y001074D02*Y001124D01*
X016767Y001048D02*X016732Y001083D01*X016741Y000984D02*X016691D01*
X016767Y000921D02*X016732Y000885D01*X016831Y000894D02*Y000844D01*
X016894Y000921D02*X01693Y000885D01*X016921Y000984D02*X016971D01*D18*
X005709Y020846D03*D14*X005772Y02091D02*X005808Y020945D01*
X005709Y020936D02*Y020986D01*X005799Y020846D02*X005849D01*D18*
X002756Y01811D03*Y0182D02*Y01819D01*Y01802D02*Y01803D01*
X045374Y025787D03*X020778Y024488D03*X003839Y004429D03*
X003902Y004493D02*X003938Y004528D01*X003839Y004519D02*Y004569D01*
X003775Y004493D02*X00374Y004528D01*X003749Y004429D02*X003699D01*
X003775Y004365D02*X00374Y00433D01*X003839Y004339D02*Y004289D01*
X003902Y004365D02*X003938Y00433D01*X003929Y004429D02*X003979D01*
X003346Y004626D03*X00341Y00469D02*X003445Y004725D01*X003346Y004716D02*
Y004766D01*X003283Y00469D02*X003247Y004725D01*X003256Y004626D02*
X003206D01*X003283Y004562D02*X003247Y004527D01*X003346Y004536D02*
Y004486D01*X00341Y004562D02*X003445Y004527D01*X003436Y004626D02*
X003486D01*X023228Y019488D03*X023917Y019587D03*X027362Y005709D03*D25*
X010433Y011417D03*D21*X010531Y011515D02*X010523Y011508D01*
X010336Y011515D02*X010343Y011508D01*X010295Y011417D02*X010305D01*
X010336Y01132D02*X010343Y011327D01*X010433Y01128D02*Y01129D01*
X010531Y01132D02*X010523Y011327D01*X010571Y011417D02*X010561D01*D18*
X015059Y020177D03*D19*X015123Y020241D02*X015158Y020276D01*
X015059Y020267D02*Y020317D01*X014995Y020241D02*X01496Y020276D01*
X014969Y020177D02*X014919D01*X014995Y020114D02*X01496Y020078D01*
X015059Y020087D02*Y020037D01*X015123Y020114D02*X015158Y020078D01*
X015149Y020177D02*X015199D01*D18*X002854Y004429D03*X002918Y004493D02*
X002953Y004528D01*X002854Y004519D02*Y004569D01*X002791Y004493D02*
X002755Y004528D01*X002791Y004365D02*X002755Y00433D01*X002854Y004339D02*
Y004289D01*X002918Y004365D02*X002953Y00433D01*X002944Y004429D02*
X002994D01*X003051D03*X003115Y004493D02*X00315Y004528D01*
X003051Y004519D02*Y004569D01*X002988Y004493D02*X002952Y004528D01*
X002961Y004429D02*X002911D01*X002988Y004365D02*X002952Y00433D01*
X003051Y004339D02*Y004289D01*X003115Y004365D02*X00315Y00433D01*
X003141Y004429D02*X003191D01*X027165Y005512D03*X013681Y002067D03*D19*
X013745Y002131D02*X01378Y002166D01*X013681Y002157D02*Y002207D01*
X013617Y002131D02*X013582Y002166D01*X013591Y002067D02*X013541D01*
X013617Y002003D02*X013582Y001968D01*X013681Y001977D02*Y001927D01*
X013745Y002003D02*X01378Y001968D01*X013771Y002067D02*X013821D01*D18*
X027529Y02154D03*D15*X027593Y021604D02*X027628Y021639D01*
X027529Y02163D02*Y02168D01*X027619Y02154D02*X027669D01*D25*
X028879Y02464D03*D21*X028977Y024738D02*X029012Y024773D01*
X028879Y024778D02*Y024828D01*X028782Y024738D02*X028746Y024773D01*
X028741Y02464D02*X028691D01*X028782Y024543D02*X028746Y024507D01*
X028879Y024502D02*Y024452D01*X028977Y024543D02*X029012Y024507D01*
X029017Y02464D02*X029067D01*D18*X020279Y02164D03*X01122Y014764D03*
X006437Y024823D03*D25*X015846Y003051D03*X016437D03*Y002067D03*
X015846D03*X009606Y02429D03*D21*X009703Y024388D02*X009739Y024423D01*
X009606Y024428D02*Y024478D01*X009508Y024388D02*X009473Y024423D01*
X009468Y02429D02*X009418D01*X009508Y024193D02*X009473Y024157D01*
X009606Y024152D02*Y024102D01*X009703Y024193D02*X009739Y024157D01*
X009744Y02429D02*X009794D01*D18*X00376Y022146D03*D25*X028179Y02324D03*
D21*X028277Y023338D02*X028312Y023373D01*X028179Y023378D02*Y023428D01*
X028082Y023338D02*X028046Y023373D01*X028041Y02324D02*X027991D01*
X028082Y023143D02*X028046Y023107D01*X028179Y023102D02*Y023052D01*
X028277Y023143D02*X028312Y023107D01*X028317Y02324D02*X028367D01*D18*
X006299Y012598D03*D25*X020472Y009646D03*D18*X034213Y008258D03*
X029616Y014803D03*D25*X030709Y017913D03*D18*X041476Y02315D03*
X045374Y025394D03*X032002Y02514D03*D25*X012795Y016142D03*D32*
X03324Y004807D03*X032256D03*X031469D03*X030484D03*D23*X030268D02*
X030278D01*X030331Y004654D02*X030338Y004661D01*X030484Y004591D02*
Y004601D01*X030637Y004654D02*X03063Y004661D01*X030701Y004807D02*
X030691D01*D42*X034449Y00374D03*D23*X034797Y004088D02*X03479Y004081D01*
X034449Y004232D02*Y004222D01*X034101Y004088D02*X034108Y004081D01*
X033957Y00374D02*X033967D01*X034101Y003392D02*X034108Y003399D01*
X034449Y003248D02*Y003258D01*X034797Y003392D02*X03479Y003399D01*
X034941Y00374D02*X034931D01*D42*X029276D03*D23*X029624Y004088D02*
X029617Y004081D01*X029276Y004232D02*Y004222D01*X028928Y004088D02*
X028935Y004081D01*X028783Y00374D02*X028793D01*X028928Y003392D02*
X028935Y003399D01*X029276Y003248D02*Y003258D01*X029624Y003392D02*
X029617Y003399D01*X029768Y00374D02*X029758D01*D25*X028529Y02429D03*D21*
X028627Y024388D02*X028662Y024423D01*X028529Y024428D02*Y024478D01*
X028432Y024388D02*X028396Y024423D01*X028391Y02429D02*X028341D01*
X028432Y024193D02*X028396Y024157D01*X028529Y024152D02*Y024102D01*
X028627Y024193D02*X028662Y024157D01*X028667Y02429D02*X028717D01*D25*
X026467Y024321D03*D21*X026564Y024418D02*X026599Y024454D01*
X026369Y024418D02*X026334Y024454D01*X026329Y024321D02*X026279D01*
X026369Y024223D02*X026334Y024188D01*X026467Y024183D02*Y024133D01*
X026564Y024223D02*X026599Y024188D01*X026604Y024321D02*X026654D01*D25*
X012795Y018701D03*D21*X012893Y018798D02*X012886Y018791D01*
X012795Y018839D02*Y018829D01*X012698Y018798D02*X012705Y018791D01*
X012657Y018701D02*X012667D01*X012698Y018603D02*X012705Y01861D01*
X012893Y018603D02*X012886Y01861D01*X012933Y018701D02*X012923D01*D25*
X025591Y016142D03*X035827Y013976D03*D18*X039502Y02074D03*D16*
X039566Y020804D02*X039601Y020839D01*X039502Y02083D02*Y02088D01*
X039439Y020804D02*X039403Y020839D01*X039412Y02074D02*X039362D01*
X039439Y020677D02*X039403Y020641D01*X039502Y02065D02*Y0206D01*
X039566Y020677D02*X039601Y020641D01*X039592Y02074D02*X039642D01*D25*
X030709Y013583D03*X043504Y009646D03*D18*X013297Y022982D03*D25*
X020472Y010039D03*D21*X02057Y010137D02*X020563Y01013D01*
X020472Y010177D02*Y010167D01*X020375Y010137D02*X020382Y01013D01*
X020335Y010039D02*X020345D01*X020375Y009942D02*X020382Y009949D01*
X02057Y009942D02*X020563Y009949D01*X02061Y010039D02*X0206D01*D18*
X02998Y023652D03*X014456Y02134D03*X012992Y025709D03*X03487Y023519D03*
X039567Y005413D03*D12*X039631Y005477D02*X039666Y005512D01*
X039567Y005503D02*Y005553D01*X039503Y005477D02*X039468Y005512D01*
X039477Y005413D02*X039427D01*X039503Y00535D02*X039468Y005314D01*
X039567Y005323D02*Y005273D01*X039631Y00535D02*X039666Y005314D01*
X039657Y005413D02*X039707D01*D25*X007874Y007087D03*D21*
X007971Y007184D02*X007964Y007177D01*X007777Y007184D02*
X007784Y007177D01*X007736Y007087D02*X007746D01*X007777Y006989D02*
X007784Y006996D01*X007874Y006949D02*Y006959D01*X007971Y006989D02*
X007964Y006996D01*X008012Y007087D02*X008002D01*D25*X010433Y018701D03*
D21*X010531Y018798D02*X010523Y018791D01*X010433Y018839D02*Y018829D01*
X010336Y018798D02*X010343Y018791D01*X010295Y018701D02*X010305D01*
X010336Y018603D02*X010343Y01861D01*X010531Y018603D02*X010523Y01861D01*
X010571Y018701D02*X010561D01*D18*X044685Y005906D03*X04311D03*
X039764Y019094D03*X027717Y021299D03*X041456Y01944D03*D25*
X020472Y007087D03*D21*X02057Y007184D02*X020563Y007177D01*
X020375Y007184D02*X020382Y007177D01*X020335Y007087D02*X020345D01*
X020375Y006989D02*X020382Y006996D01*X020472Y006949D02*Y006959D01*
X02057Y006989D02*X020563Y006996D01*X02061Y007087D02*X0206D01*D18*
X008858Y016929D03*D25*X043052Y02464D03*D21*X04315Y024738D02*
X043185Y024773D01*X043052Y024778D02*Y024828D01*X042955Y024738D02*
X04292Y024773D01*X042915Y02464D02*X042865D01*X042955Y024543D02*
X04292Y024507D01*X043052Y024502D02*Y024452D01*X04315Y024543D02*
X043185Y024507D01*X04319Y02464D02*X04324D01*D25*X033268Y01437D03*D21*
X033365Y014468D02*X033358Y01446D01*X033268Y014508D02*Y014498D01*
X03317Y014468D02*X033177Y01446D01*X03313Y01437D02*X03314D01*
X03317Y014273D02*X033177Y01428D01*X033365Y014273D02*X033358Y01428D01*
X033406Y01437D02*X033396D01*D18*X044154Y023317D03*D25*
X040945Y011811D03*X015354Y013976D03*X030709Y016142D03*D18*
X017766Y022313D03*X01378Y010433D03*X02747Y022982D03*D25*
X017913Y009646D03*D18*X020529Y023686D03*X035453Y023986D03*
X006693Y019094D03*D25*X023031Y009646D03*D18*X039173Y008268D03*D25*
X012628Y024321D03*D21*X012725Y024418D02*X012761Y024454D01*
X012531Y024418D02*X012495Y024454D01*X01249Y024321D02*X01244D01*
X012531Y024223D02*X012495Y024188D01*X012628Y024183D02*Y024133D01*
X012725Y024223D02*X012761Y024188D01*X012766Y024321D02*X012816D01*D25*
X032902Y02464D03*D21*X033Y024738D02*X033035Y024773D01*
X032902Y024778D02*Y024828D01*X032805Y024738D02*X03277Y024773D01*
X032765Y02464D02*X032715D01*X032805Y024543D02*X03277Y024507D01*
X032902Y024502D02*Y024452D01*X033Y024543D02*X033035Y024507D01*
X03304Y02464D02*X03309D01*D25*X042702Y02429D03*D21*X0428Y024388D02*
X042835Y024423D01*X042702Y024428D02*Y024478D01*X042605Y024388D02*
X04257Y024423D01*X042565Y02429D02*X042515D01*X042605Y024193D02*
X04257Y024157D01*X042702Y024152D02*Y024102D01*X0428Y024193D02*
X042835Y024157D01*X04284Y02429D02*X04289D01*D18*X034452Y02164D03*
X024642Y002575D03*D25*X022079Y02399D03*D21*X022177Y024088D02*
X022212Y024123D01*X022079Y024128D02*Y024178D01*X021982Y024088D02*
X021946Y024123D01*X021941Y02399D02*X021891D01*X021982Y023893D02*
X021946Y023857D01*X022079Y023852D02*Y023802D01*X022177Y023893D02*
X022212Y023857D01*X022217Y02399D02*X022267D01*D18*X029528Y012598D03*
X012697Y015118D03*X014567Y020906D03*D25*X030709Y01437D03*D21*
X030806Y014468D02*X030799Y01446D01*X030709Y014508D02*Y014498D01*
X030611Y014468D02*X030618Y01446D01*X030571Y01437D02*X030581D01*
X030611Y014273D02*X030618Y01428D01*X030806Y014273D02*X030799Y01428D01*
X030846Y01437D02*X030836D01*D25*X007874Y009252D03*D21*
X007971Y009349D02*X007964Y009342D01*X007777Y009349D02*
X007784Y009342D01*X007736Y009252D02*X007746D01*X007777Y009155D02*
X007784Y009162D01*X007874Y009114D02*Y009124D01*X007971Y009155D02*
X007964Y009162D01*X008012Y009252D02*X008002D01*D18*X011614Y016929D03*
X019291Y010433D03*X024016Y008268D03*D25*X024429Y02464D03*D21*
X024527Y024738D02*X024562Y024773D01*X024429Y024778D02*Y024828D01*
X024332Y024738D02*X024296Y024773D01*X024291Y02464D02*X024241D01*
X024332Y024543D02*X024296Y024507D01*X024429Y024502D02*Y024452D01*
X024527Y024543D02*X024562Y024507D01*X024567Y02464D02*X024617D01*D18*
X041644Y02499D03*D25*X009256Y02464D03*D21*X009353Y024738D02*
X009389Y024773D01*X009256Y024778D02*Y024828D01*X009158Y024738D02*
X009123Y024773D01*X009118Y02464D02*X009068D01*X009158Y024543D02*
X009123Y024507D01*X009256Y024502D02*Y024452D01*X009353Y024543D02*
X009389Y024507D01*X009394Y02464D02*X009444D01*D18*X006356Y023686D03*
X013543Y021299D03*X006299Y019094D03*X041476Y024823D03*X02747Y022146D03*
X039469Y006496D03*X013031Y014783D03*X039665Y004331D03*D12*
X039729Y004394D02*X039764Y00443D01*X039665Y004421D02*Y004471D01*
X039602Y004394D02*X039566Y00443D01*X039575Y004331D02*X039525D01*
X039602Y004267D02*X039566Y004232D01*X039665Y004241D02*Y004191D01*
X039729Y004267D02*X039764Y004232D01*X039755Y004331D02*X039805D01*D29*
X014075Y004429D03*D25*X007874Y00748D03*D18*X039665Y004724D03*D12*
X039729Y004788D02*X039722Y004781D01*X039665Y004814D02*Y004804D01*
X039602Y004788D02*X039609Y004781D01*X039575Y004724D02*X039585D01*
X039755D02*X039745D01*D25*X004906Y02429D03*D21*X005003Y024388D02*
X005039Y024423D01*X004906Y024428D02*Y024478D01*X004808Y024388D02*
X004773Y024423D01*X004768Y02429D02*X004718D01*X004808Y024193D02*
X004773Y024157D01*X004906Y024152D02*Y024102D01*X005003Y024193D02*
X005039Y024157D01*X005044Y02429D02*X005094D01*D25*X018729Y02359D03*D21*
X018827Y023688D02*X018862Y023723D01*X018729Y023728D02*Y023778D01*
X018632Y023688D02*X018596Y023723D01*X018591Y02359D02*X018541D01*
X018632Y023493D02*X018596Y023457D01*X018729Y023452D02*Y023402D01*
X018827Y023493D02*X018862Y023457D01*X018867Y02359D02*X018917D01*D18*
X014429Y014783D03*X006106Y02164D03*X015974Y02315D03*X035285Y024154D03*
D25*X005315Y009252D03*D21*X005412Y009349D02*X005405Y009342D01*
X005218Y009349D02*X005225Y009342D01*X005177Y009252D02*X005187D01*
X005218Y009155D02*X005225Y009162D01*X005315Y009114D02*Y009124D01*
X005412Y009155D02*X005405Y009162D01*X005453Y009252D02*X005443D01*D25*
X010433Y010039D03*D21*X010531Y010137D02*X010523Y01013D01*
X010433Y010177D02*Y010167D01*X010336Y010137D02*X010343Y01013D01*
X010295Y010039D02*X010305D01*X010336Y009942D02*X010343Y009949D01*
X010531Y009942D02*X010523Y009949D01*X010571Y010039D02*X010561D01*D18*
X027303Y02315D03*D25*X033252Y02324D03*D21*X03335Y023338D02*
X033385Y023373D01*X033252Y023378D02*Y023428D01*X033155Y023338D02*
X03312Y023373D01*X033115Y02324D02*X033065D01*X033155Y023143D02*
X03312Y023107D01*X033252Y023102D02*Y023052D01*X03335Y023143D02*
X033385Y023107D01*X03339Y02324D02*X03344D01*D25*X029823Y025984D03*D12*
Y025846D02*Y025856D01*D25*X033268Y009646D03*X014006Y02429D03*D21*
X014103Y024388D02*X014139Y024423D01*X014006Y024428D02*Y024478D01*
X013908Y024388D02*X013873Y024423D01*X013868Y02429D02*X013818D01*
X013908Y024193D02*X013873Y024157D01*X014006Y024152D02*Y024102D01*
X014103Y024193D02*X014139Y024157D01*X014144Y02429D02*X014194D01*D18*
X037205Y014764D03*D25*X020472Y016535D03*D21*X02057Y016633D02*
X020563Y016626D01*X020472Y016673D02*Y016663D01*X020375Y016633D02*
X020382Y016626D01*X020335Y016535D02*X020345D01*X020375Y016438D02*
X020382Y016445D01*X02057Y016438D02*X020563Y016445D01*X02061Y016535D02*
X0206D01*D25*X023031Y015748D03*D21*X023129Y015845D02*X023122Y015838D01*
X022934Y015845D02*X022941Y015838D01*X022894Y015748D02*X022904D01*
X022934Y015651D02*X022941Y015658D01*X023031Y01561D02*Y01562D01*
X023129Y015651D02*X023122Y015658D01*X023169Y015748D02*X023159D01*D25*
X030709Y011417D03*X017913Y017913D03*D18*X006594Y001083D03*
X009764Y021299D03*X008556Y02474D03*X006693Y012598D03*X042579Y014783D03*
D25*X043504Y013976D03*D18*X037205Y016929D03*X002854Y004823D03*
X002918Y004886D02*X002953Y004922D01*X002854Y004913D02*Y004963D01*
X002791Y004886D02*X002755Y004922D01*X002791Y004759D02*
X002755Y004724D01*X002854Y004733D02*Y004683D01*X002918Y004759D02*
X002953Y004724D01*X002944Y004823D02*X002994D01*D25*X020472Y013583D03*
D21*X02057Y01368D02*X020563Y013673D01*X020375Y01368D02*
X020382Y013673D01*X020335Y013583D02*X020345D01*X020375Y013485D02*
X020382Y013492D01*X020472Y013445D02*Y013455D01*X02057Y013485D02*
X020563Y013492D01*X02061Y013583D02*X0206D01*D25*X023429Y02324D03*D21*
X023527Y023338D02*X023562Y023373D01*X023429Y023378D02*Y023428D01*
X023332Y023338D02*X023296Y023373D01*X023291Y02324D02*X023241D01*
X023332Y023143D02*X023296Y023107D01*X023429Y023102D02*Y023052D01*
X023527Y023143D02*X023562Y023107D01*X023567Y02324D02*X023617D01*D25*
X023779D03*D21*X023877Y023338D02*X023912Y023373D01*X023779Y023378D02*
Y023428D01*X023682Y023338D02*X023646Y023373D01*X023641Y02324D02*
X023591D01*X023682Y023143D02*X023646Y023107D01*X023779Y023102D02*
Y023052D01*X023877Y023143D02*X023912Y023107D01*X023917Y02324D02*
X023967D01*D18*X024409Y008268D03*D25*X015056Y02464D03*D21*
X015153Y024738D02*X015189Y024773D01*X015056Y024778D02*Y024828D01*
X014958Y024738D02*X014923Y024773D01*X014918Y02464D02*X014868D01*
X014958Y024543D02*X014923Y024507D01*X015056Y024502D02*Y024452D01*
X015153Y024543D02*X015189Y024507D01*X015194Y02464D02*X015244D01*D18*
X016447Y008258D03*X021506Y01694D03*D25*X014006Y02359D03*D21*
X014103Y023688D02*X014139Y023723D01*X014006Y023728D02*Y023778D01*
X013908Y023688D02*X013873Y023723D01*X013868Y02359D02*X013818D01*
X013908Y023493D02*X013873Y023457D01*X014006Y023452D02*Y023402D01*
X014103Y023493D02*X014139Y023457D01*X014144Y02359D02*X014194D01*D25*
X028529Y02394D03*D21*X028627Y024038D02*X028662Y024073D01*
X028529Y024078D02*Y024128D01*X028432Y024038D02*X028396Y024073D01*
X028391Y02394D02*X028341D01*X028432Y023843D02*X028396Y023807D01*
X028529Y023802D02*Y023752D01*X028627Y023843D02*X028662Y023807D01*
X028667Y02394D02*X028717D01*D25*X014006D03*D21*X014103Y024038D02*
X014139Y024073D01*X014006Y024078D02*Y024128D01*X013908Y024038D02*
X013873Y024073D01*X013868Y02394D02*X013818D01*X013908Y023843D02*
X013873Y023807D01*X014006Y023802D02*Y023752D01*X014103Y023843D02*
X014139Y023807D01*X014144Y02394D02*X014194D01*D18*X02689Y012608D03*D39*
X011319Y004232D03*D18*X008307Y004764D03*D25*X043402Y02464D03*D21*
X0435Y024738D02*X043535Y024773D01*X043402Y024778D02*Y024828D01*
X043305Y024738D02*X04327Y024773D01*X043265Y02464D02*X043215D01*
X043305Y024543D02*X04327Y024507D01*X043402Y024502D02*Y024452D01*
X0435Y024543D02*X043535Y024507D01*X04354Y02464D02*X04359D01*D25*
X018729Y02429D03*D21*X018827Y024388D02*X018862Y024423D01*
X018729Y024428D02*Y024478D01*X018632Y024388D02*X018596Y024423D01*
X018591Y02429D02*X018541D01*X018632Y024193D02*X018596Y024157D01*
X018729Y024152D02*Y024102D01*X018827Y024193D02*X018862Y024157D01*
X018867Y02429D02*X018917D01*D25*X023779D03*D21*X023877Y024388D02*
X023912Y024423D01*X023779Y024428D02*Y024478D01*X023682Y024388D02*
X023646Y024423D01*X023641Y02429D02*X023591D01*X023682Y024193D02*
X023646Y024157D01*X023779Y024152D02*Y024102D01*X023877Y024193D02*
X023912Y024157D01*X023917Y02429D02*X023967D01*D25*X009606Y02394D03*D21*
X009703Y024038D02*X009739Y024073D01*X009606Y024078D02*Y024128D01*
X009508Y024038D02*X009473Y024073D01*X009468Y02394D02*X009418D01*
X009508Y023843D02*X009473Y023807D01*X009606Y023802D02*Y023752D01*
X009703Y023843D02*X009739Y023807D01*X009744Y02394D02*X009794D01*D25*
X014356Y02324D03*D21*X014453Y023338D02*X014489Y023373D01*
X014356Y023378D02*Y023428D01*X014258Y023338D02*X014223Y023373D01*
X014218Y02324D02*X014168D01*X014258Y023143D02*X014223Y023107D01*
X014356Y023102D02*Y023052D01*X014453Y023143D02*X014489Y023107D01*
X014494Y02324D02*X014544D01*D18*X017656Y02069D03*X042717Y004035D03*D12*
X04278Y004099D02*X042773Y004092D01*X042717Y004125D02*Y004115D01*
X042653Y004099D02*X04266Y004092D01*X042627Y004035D02*X042637D01*
X042807D02*X042797D01*D18*X017234Y01224D03*D25*X014006Y02324D03*D21*
X014103Y023338D02*X014139Y023373D01*X014006Y023378D02*Y023428D01*
X013908Y023338D02*X013873Y023373D01*X013868Y02324D02*X013818D01*
X013908Y023143D02*X013873Y023107D01*X014006Y023102D02*Y023052D01*
X014103Y023143D02*X014139Y023107D01*X014144Y02324D02*X014194D01*D18*
X013878Y002067D03*D15*X013942Y002131D02*X013977Y002166D01*
X013878Y002157D02*Y002207D01*X013814Y002131D02*X013779Y002166D01*
X013788Y002067D02*X013738D01*X013814Y002003D02*X013779Y001968D01*
X013878Y001977D02*Y001927D01*X013942Y002003D02*X013977Y001968D01*
X013968Y002067D02*X014018D01*D18*X027165Y005315D03*X027362D03*
X011516Y002953D03*X014862Y001673D03*D25*X017913Y007087D03*D16*
X018011Y007184D02*X018004Y007177D01*X017816Y007184D02*
X017823Y007177D01*X017776Y007087D02*X017786D01*X017816Y006989D02*
X017823Y006996D01*X017913Y006949D02*Y006959D01*X018011Y006989D02*
X018004Y006996D01*X018051Y007087D02*X018041D01*D25*X038386Y012205D03*
D21*X038483Y012302D02*X038476Y012295D01*X038386Y012343D02*Y012333D01*
X038288Y012302D02*X038295Y012295D01*X038248Y012205D02*X038258D01*
X038288Y012107D02*X038295Y012114D01*X038483Y012107D02*
X038476Y012114D01*X038524Y012205D02*X038514D01*D18*X02874Y020906D03*
D25*X005315Y01437D03*D21*X005412Y014468D02*X005405Y01446D01*
X005315Y014508D02*Y014498D01*X005218Y014468D02*X005225Y01446D01*
X005177Y01437D02*X005187D01*X005218Y014273D02*X005225Y01428D01*
X005412Y014273D02*X005405Y01428D01*X005453Y01437D02*X005443D01*D18*
X003642Y004429D03*X003705Y004493D02*X003741Y004528D01*
X003642Y004519D02*Y004569D01*X003578Y004493D02*X003543Y004528D01*
X003552Y004429D02*X003502D01*X003578Y004365D02*X003543Y00433D01*
X003642Y004339D02*Y004289D01*X003705Y004365D02*X003741Y00433D01*
X003732Y004429D02*X003782D01*X003543Y004626D03*X003607Y00469D02*
X003642Y004725D01*X003543Y004716D02*Y004766D01*X00348Y00469D02*
X003444Y004725D01*X003453Y004626D02*X003403D01*X00348Y004562D02*
X003444Y004527D01*X003543Y004536D02*Y004486D01*X003607Y004562D02*
X003642Y004527D01*X003633Y004626D02*X003683D01*X002756Y018406D03*
Y018496D02*Y018486D01*Y018316D02*Y018326D01*X027165Y005709D03*
X045177Y025591D03*X012697Y002461D03*D19*X01276Y002524D02*
X012796Y00256D01*X012697Y002551D02*Y002601D01*X012633Y002524D02*
X012598Y00256D01*X012607Y002461D02*X012557D01*X012633Y002397D02*
X012598Y002362D01*X012697Y002371D02*Y002321D01*X01276Y002397D02*
X012796Y002362D01*X012787Y002461D02*X012837D01*D18*X026969Y010433D03*
D25*X043898Y025689D03*D21*X043995Y025786D02*X04403Y025822D01*
X043898Y025827D02*Y025877D01*X0438Y025786D02*X043765Y025822D01*
X04376Y025689D02*X04371D01*X0438Y025592D02*X043765Y025556D01*
X043898Y025551D02*Y025501D01*X043995Y025592D02*X04403Y025556D01*
X044035Y025689D02*X044085D01*D25*X038386Y018701D03*D21*
X038483Y018798D02*X038476Y018791D01*X038386Y018839D02*Y018829D01*
X038288Y018798D02*X038295Y018791D01*X038248Y018701D02*X038258D01*
X038288Y018603D02*X038295Y01861D01*X038483Y018603D02*X038476Y01861D01*
X038524Y018701D02*X038514D01*D25*X037602Y02429D03*D21*X0377Y024388D02*
X037735Y024423D01*X037602Y024428D02*Y024478D01*X037505Y024388D02*
X03747Y024423D01*X037465Y02429D02*X037415D01*X037505Y024193D02*
X03747Y024157D01*X037602Y024152D02*Y024102D01*X0377Y024193D02*
X037735Y024157D01*X03774Y02429D02*X03779D01*D18*X005217Y019783D03*
X012303Y002461D03*D19*X012367Y002524D02*X012402Y00256D01*
X012303Y002551D02*Y002601D01*X01224Y002524D02*X012204Y00256D01*
X012213Y002461D02*X012163D01*X01224Y002397D02*X012204Y002362D01*
X012303Y002371D02*Y002321D01*X012367Y002397D02*X012402Y002362D01*
X012393Y002461D02*X012443D01*D18*X012303Y002264D03*D19*
X012367Y002327D02*X012402Y002363D01*X012303Y002354D02*Y002404D01*
X01224Y002327D02*X012204Y002363D01*X012213Y002264D02*X012163D01*
X01224Y0022D02*X012204Y002165D01*X012303Y002174D02*Y002124D01*
X012367Y0022D02*X012402Y002165D01*X012393Y002264D02*X012443D01*D18*
X013091Y002067D03*D19*X013154Y002131D02*X01319Y002166D01*
X013091Y002157D02*Y002207D01*X013027Y002131D02*X012992Y002166D01*
X013001Y002067D02*X012951D01*X013027Y002003D02*X012992Y001968D01*
X013091Y001977D02*Y001927D01*X013154Y002003D02*X01319Y001968D01*
X013181Y002067D02*X013231D01*D18*X023622Y008563D03*X002953Y004626D03*
X02998Y023317D03*D25*X019079Y02464D03*D21*X019177Y024738D02*
X019212Y024773D01*X019079Y024778D02*Y024828D01*X018982Y024738D02*
X018946Y024773D01*X018941Y02464D02*X018891D01*X018982Y024543D02*
X018946Y024507D01*X019079Y024502D02*Y024452D01*X019177Y024543D02*
X019212Y024507D01*X019217Y02464D02*X019267D01*D25*X033268Y013976D03*
X017913Y010039D03*D18*X019291Y012598D03*X026801Y023317D03*
X025492Y015118D03*X043415Y017461D03*X030148Y023819D03*D25*
X039173Y025768D03*D16*X039271Y025865D02*X039306Y025901D01*
X039173Y025906D02*Y025956D01*X039076Y025865D02*X03904Y025901D01*
X039035Y025768D02*X038985D01*X039076Y02567D02*X03904Y025635D01*
X039173Y02563D02*Y02558D01*X039271Y02567D02*X039306Y025635D01*
X039311Y025768D02*X039361D01*D18*X003681Y024892D03*D25*
X042352Y02429D03*D21*X04245Y024388D02*X042485Y024423D01*
X042352Y024428D02*Y024478D01*X042255Y024388D02*X04222Y024423D01*
X042215Y02429D02*X042165D01*X042255Y024193D02*X04222Y024157D01*
X042352Y024152D02*Y024102D01*X04245Y024193D02*X042485Y024157D01*
X04249Y02429D02*X04254D01*D25*X033252D03*D21*X03335Y024388D02*
X033385Y024423D01*X033252Y024428D02*Y024478D01*X033155Y024388D02*
X03312Y024423D01*X033115Y02429D02*X033065D01*X033155Y024193D02*
X03312Y024157D01*X033252Y024152D02*Y024102D01*X03335Y024193D02*
X033385Y024157D01*X03339Y02429D02*X03344D01*D18*X004921Y020079D03*
X02747Y02248D03*X012697Y002067D03*D19*X01276Y002131D02*
X012796Y002166D01*X012633Y002131D02*X012598Y002166D01*
X012607Y002067D02*X012557D01*X012633Y002003D02*X012598Y001968D01*
X012697Y001977D02*Y001927D01*X01276Y002003D02*X012796Y001968D01*
X012787Y002067D02*X012837D01*D25*X025591Y009252D03*D21*
X025688Y009349D02*X025681Y009342D01*X025493Y009349D02*X0255Y009342D01*
X025453Y009252D02*X025463D01*X025493Y009155D02*X0255Y009162D01*
X025591Y009114D02*Y009124D01*X025688Y009155D02*X025681Y009162D01*
X025728Y009252D02*X025718D01*D25*X033902Y02464D03*D21*X034Y024738D02*
X034035Y024773D01*X033902Y024778D02*Y024828D01*X033805Y024738D02*
X03377Y024773D01*X033765Y02464D02*X033715D01*X033805Y024543D02*
X03377Y024507D01*X033902Y024502D02*Y024452D01*X034Y024543D02*
X034035Y024507D01*X03404Y02464D02*X03409D01*D18*X004921Y019783D03*
X023524Y019882D03*X014075Y002362D03*X033352Y02549D03*X012303Y002067D03*
D19*X012367Y002131D02*X012402Y002166D01*X01224Y002131D02*
X012204Y002166D01*X012213Y002067D02*X012163D01*X01224Y002003D02*
X012204Y001968D01*X012303Y001977D02*Y001927D01*X012367Y002003D02*
X012402Y001968D01*X012393Y002067D02*X012443D01*D18*X015059Y003051D03*
X017421Y000984D03*D23*X017485Y001048D02*X01752Y001083D01*
X017421Y001074D02*Y001124D01*X017358Y001048D02*X017322Y001083D01*
X017331Y000984D02*X017281D01*X017358Y000921D02*X017322Y000885D01*
X017421Y000894D02*Y000844D01*X017485Y000921D02*X01752Y000885D01*
X017511Y000984D02*X017561D01*D18*X011319Y002953D03*X005217Y020079D03*
X010433D03*X01811Y00187D03*D15*X018174Y001934D02*X018209Y001969D01*
X01811Y00196D02*Y00201D01*X018047Y001934D02*X018011Y001969D01*
X01802Y00187D02*X01797D01*X018047Y001806D02*X018011Y001771D01*
X01811Y00178D02*Y00173D01*X018174Y001806D02*X018209Y001771D01*
X0182Y00187D02*X01825D01*D18*X02126Y023425D03*D25*X028179Y02464D03*D21*
X028277Y024738D02*X028312Y024773D01*X028179Y024778D02*Y024828D01*
X028082Y024738D02*X028046Y024773D01*X028041Y02464D02*X027991D01*
X028082Y024543D02*X028046Y024507D01*X028179Y024502D02*Y024452D01*
X028277Y024543D02*X028312Y024507D01*X028317Y02464D02*X028367D01*D25*
X030669Y007874D03*D18*X022047Y025472D03*X037205Y012598D03*
X040974Y023317D03*X026575Y008268D03*X020696Y023854D03*
X003642Y004823D03*X003705Y004886D02*X003741Y004922D01*
X003642Y004913D02*Y004963D01*X003578Y004886D02*X003543Y004922D01*
X003552Y004823D02*X003502D01*X003578Y004759D02*X003543Y004724D01*
X003642Y004733D02*Y004683D01*X003705Y004759D02*X003741Y004724D01*
X003732Y004823D02*X003782D01*X002756Y017815D03*Y017905D02*Y017895D01*
Y017725D02*Y017735D01*X015256Y020177D03*D19*X01532Y020241D02*
X015355Y020276D01*X015256Y020267D02*Y020317D01*X015192Y020241D02*
X015157Y020276D01*X015166Y020177D02*X015116D01*X015192Y020114D02*
X015157Y020078D01*X015256Y020087D02*Y020037D01*X01532Y020114D02*
X015355Y020078D01*X015346Y020177D02*X015396D01*D18*X045374Y025591D03*
D25*X007874Y007874D03*D21*X007971Y007971D02*X007964Y007964D01*
X007874Y008012D02*Y008002D01*X007777Y007971D02*X007784Y007964D01*
X007736Y007874D02*X007746D01*X007777Y007777D02*X007784Y007784D01*
X007971Y007777D02*X007964Y007784D01*X008012Y007874D02*X008002D01*D18*
X011614Y008268D03*D25*X012628Y023986D03*D21*X012725Y024084D02*
X012761Y024119D01*X012628Y024124D02*Y024174D01*X012531Y024084D02*
X012495Y024119D01*X01249Y023986D02*X01244D01*X012531Y023889D02*
X012495Y023853D01*X012628Y023848D02*Y023798D01*X012725Y023889D02*
X012761Y023853D01*X012766Y023986D02*X012816D01*D18*X007087Y023425D03*
X028629Y02544D03*D25*X043504Y018701D03*D21*X043601Y018798D02*
X043594Y018791D01*X043504Y018839D02*Y018829D01*X043406Y018798D02*
X043414Y018791D01*X043366Y018701D02*X043376D01*X043406Y018603D02*
X043414Y01861D01*X043601Y018603D02*X043594Y01861D01*X043642Y018701D02*
X043632D01*D18*X017618Y003839D03*X006006Y02189D03*D25*X02815Y015748D03*
D21*X028247Y015845D02*X02824Y015838D01*X028052Y015845D02*
X028059Y015838D01*X028012Y015748D02*X028022D01*X028052Y015651D02*
X028059Y015658D01*X02815Y01561D02*Y01562D01*X028247Y015651D02*
X02824Y015658D01*X028287Y015748D02*X028277D01*D18*X005512Y020079D03*
X003248Y004823D03*X003312Y004886D02*X003347Y004922D01*
X003248Y004913D02*Y004963D01*X003184Y004886D02*X003149Y004922D01*
X003158Y004823D02*X003108D01*X003184Y004759D02*X003149Y004724D01*
X003248Y004733D02*Y004683D01*X003312Y004759D02*X003347Y004724D01*
X003338Y004823D02*X003388D01*X02372Y019587D03*X015059Y003445D03*D25*
X010433Y007087D03*D21*X010531Y007184D02*X010523Y007177D01*
X010336Y007184D02*X010343Y007177D01*X010295Y007087D02*X010305D01*
X010336Y006989D02*X010343Y006996D01*X010433Y006949D02*Y006959D01*
X010531Y006989D02*X010523Y006996D01*X010571Y007087D02*X010561D01*D18*
X008819Y010433D03*X040056Y01944D03*D25*X017913Y007874D03*D18*
X018279Y02129D03*D25*X031752Y02424D03*D21*X03185Y024338D02*
X031885Y024373D01*X031752Y024378D02*Y024428D01*X031655Y024338D02*
X03162Y024373D01*X031615Y02424D02*X031565D01*X031655Y024143D02*
X03162Y024107D01*X031752Y024102D02*Y024052D01*X03185Y024143D02*
X031885Y024107D01*X03189Y02424D02*X03194D01*D18*X008819Y008258D03*
X041644Y02248D03*D25*X017913Y016535D03*D16*X018011Y016633D02*
X018004Y016626D01*X017913Y016673D02*Y016663D01*X017816Y016633D02*
X017823Y016626D01*X017776Y016535D02*X017786D01*X017816Y016438D02*
X017823Y016445D01*D18*X031856Y02069D03*X010039Y002657D03*
X020768Y026083D03*D25*X043504Y016142D03*D18*X010433Y002657D03*
X01063D03*D25*X036252Y02399D03*D21*X03635Y024088D02*X036385Y024123D01*
X036252Y024128D02*Y024178D01*X036155Y024088D02*X03612Y024123D01*
X036115Y02399D02*X036065D01*X036155Y023893D02*X03612Y023857D01*
X036252Y023852D02*Y023802D01*X03635Y023893D02*X036385Y023857D01*
X03639Y02399D02*X03644D01*D18*X010236Y002657D03*X042579Y012608D03*D25*
X03378Y020945D03*D18*X03376Y020472D03*X029232Y020079D03*Y020276D03*D25*
X029055Y020906D03*D18*X041644Y023317D03*X009252Y001969D03*D15*
X009316Y002032D02*X009351Y002068D01*X009252Y002059D02*Y002109D01*
X009188Y002032D02*X009153Y002068D01*X009162Y001969D02*X009112D01*
X009188Y001905D02*X009153Y00187D01*X009252Y001879D02*Y001829D01*
X009316Y001905D02*X009351Y00187D01*X009342Y001969D02*X009392D01*D18*
X009252Y001772D03*D19*X009316Y001835D02*X009351Y001871D01*
X009252Y001862D02*Y001912D01*X009188Y001835D02*X009153Y001871D01*
X009162Y001772D02*X009112D01*X009188Y001708D02*X009153Y001673D01*
X009252Y001682D02*Y001632D01*X009316Y001708D02*X009351Y001673D01*
X009342Y001772D02*X009392D01*D18*X009252Y001614D03*X009316Y001678D02*
X009309Y001671D01*X009252Y001704D02*Y001694D01*X009188Y001678D02*
X009195Y001671D01*X009162Y001614D02*X009172D01*X009342D02*X009332D01*
X009252Y002559D03*D19*X009316Y002623D02*X009351Y002658D01*
X009252Y002649D02*Y002699D01*X009188Y002623D02*X009153Y002658D01*
X009162Y002559D02*X009112D01*X009188Y002495D02*X009153Y00246D01*
X009252Y002469D02*Y002419D01*X009316Y002495D02*X009351Y00246D01*
X009342Y002559D02*X009392D01*D18*X029291Y017293D03*X017598Y022815D03*
X009547Y004134D03*D19*X009611Y004198D02*X009646Y004233D01*
X009547Y004224D02*Y004274D01*X009484Y004198D02*X009448Y004233D01*
X009457Y004134D02*X009407D01*X009484Y00407D02*X009448Y004035D01*
X009547Y004044D02*Y003994D01*X009611Y00407D02*X009646Y004035D01*
X009637Y004134D02*X009687D01*D18*X016309Y023484D03*X006604Y024488D03*
X003848Y008258D03*X034646Y012598D03*D25*X02815Y012205D03*D21*
X028247Y012302D02*X02824Y012295D01*X02815Y012343D02*Y012333D01*
X028052Y012302D02*X028059Y012295D01*X028012Y012205D02*X028022D01*
X028052Y012107D02*X028059Y012114D01*X028247Y012107D02*X02824Y012114D01*
X028287Y012205D02*X028277D01*D25*X004556Y02324D03*D21*
X004653Y023338D02*X004689Y023373D01*X004556Y023378D02*Y023428D01*
X004458Y023338D02*X004423Y023373D01*X004418Y02324D02*X004368D01*
X004458Y023143D02*X004423Y023107D01*X004556Y023102D02*Y023052D01*
X004653Y023143D02*X004689Y023107D01*X004694Y02324D02*X004744D01*D18*
X006523Y023854D03*D25*X015354Y016535D03*D21*X015452Y016633D02*
X015445Y016626D01*X015354Y016673D02*Y016663D01*X015257Y016633D02*
X015264Y016626D01*X015217Y016535D02*X015227D01*X015257Y016438D02*
X015264Y016445D01*X015452Y016438D02*X015445Y016445D01*
X015492Y016535D02*X015482D01*D18*X032502Y02184D03*D15*
X032566Y021904D02*X032601Y021939D01*X032502Y02175D02*Y0217D01*
X032566Y021777D02*X032601Y021741D01*X032592Y02184D02*X032642D01*D25*
X012795Y011811D03*D18*X038386Y005315D03*Y004724D03*X017234Y01399D03*
X014134Y021309D03*X012677Y025472D03*X008189Y025709D03*
X027136Y023317D03*X015807D03*X014567Y001969D03*D19*X014631Y002032D02*
X014666Y002068D01*X014567Y002059D02*Y002109D01*X014503Y002032D02*
X014468Y002068D01*X014477Y001969D02*X014427D01*X014503Y001905D02*
X014468Y00187D01*X014567Y001879D02*Y001829D01*X014631Y001905D02*
X014666Y00187D01*X014657Y001969D02*X014707D01*D18*X017323Y003839D03*
X015138Y002067D03*D25*X005315Y00748D03*D18*X024979Y02184D03*
X020179Y02189D03*D25*X005206Y02464D03*D21*X005303Y024738D02*
X005339Y024773D01*X005206Y024778D02*Y024828D01*X005108Y024738D02*
X005073Y024773D01*X005068Y02464D02*X005018D01*X005108Y024543D02*
X005073Y024507D01*X005206Y024502D02*Y024452D01*X005303Y024543D02*
X005339Y024507D01*X005344Y02464D02*X005394D01*D25*X025591Y013583D03*
D21*X025688Y01368D02*X025681Y013673D01*X025493Y01368D02*
X0255Y013673D01*X025453Y013583D02*X025463D01*X025493Y013485D02*
X0255Y013492D01*X025591Y013445D02*Y013455D01*X025688Y013485D02*
X025681Y013492D01*X025728Y013583D02*X025718D01*D25*X025591Y007874D03*
D21*X025688Y007971D02*X025681Y007964D01*X025591Y008012D02*Y008002D01*
X025493Y007971D02*X0255Y007964D01*X025453Y007874D02*X025463D01*
X025493Y007777D02*X0255Y007784D01*X025688Y007777D02*X025681Y007784D01*
X025728Y007874D02*X025718D01*D18*X017933Y02248D03*D25*
X023031Y007874D03*D21*X023129Y007971D02*X023122Y007964D01*
X023031Y008012D02*Y008002D01*X022934Y007971D02*X022941Y007964D01*
X022894Y007874D02*X022904D01*X022934Y007777D02*X022941Y007784D01*
X023129Y007777D02*X023122Y007784D01*X023169Y007874D02*X023159D01*D25*
X020472D03*D21*X02057Y007971D02*X020563Y007964D01*X020472Y008012D02*
Y008002D01*X020375Y007971D02*X020382Y007964D01*X020335Y007874D02*
X020345D01*X020375Y007777D02*X020382Y007784D01*X02057Y007777D02*
X020563Y007784D01*X02061Y007874D02*X0206D01*D25*X040945Y016142D03*
X025591Y00748D03*D11*X018976Y021378D02*X018389Y021025D01*X018169D01*
X018014Y02118D01*X017992Y02155D01*Y021633D01*X018029Y021932D01*
X018098Y022077D01*Y023218D01*X018019Y02496D01*X017994Y025209D01*
X017897Y025305D01*X017172Y025478D01*X04248Y021309D02*X042Y021034D01*
X04178D01*X041625Y021189D01*X041437Y02143D01*X040977Y022747D01*
X040809Y023249D01*Y023385D01*X040906Y023482D01*X041502Y02364D01*
X041809Y024922D01*Y025059D01*X041712Y025155D01*X041024Y025472D01*
X01689Y002657D02*X016693Y003642D01*X027165Y025709D02*X027735Y0251D01*
Y02488D01*X027635Y022914D01*X027138Y022381D01*Y022245D01*
X027364Y021472D01*X027552Y021231D01*X027648Y021134D01*X027785D01*
X028239Y021474D01*X028375D01*X028629Y02134D01*D18*X019606Y020945D02*
X019587Y020276D01*X019783D01*Y020079D01*X019587D01*Y019882D01*D11*
X037874Y021299D02*X037562Y021025D01*X037343D01*X037152Y021101D01*
X037061Y02114D01*X037002Y021199D01*X036887Y02133D01*X036752Y02454D01*
X04676Y015886D02*X047085Y01502D01*X047185Y014232D01*X004882Y021142D02*
X004968Y02131D01*Y021446D01*X004871Y021543D01*X004735D01*
X004174Y021125D01*X004038D01*X003941Y021222D01*X003931Y021318D01*
X003956Y02189D01*X004056Y02209D01*X004025Y023259D01*X003946Y025002D01*
X003921Y02525D01*X003766Y025405D01*X003313Y025715D01*X004803Y021378D02*
X004216Y021025D01*X003996D01*X003841Y02118D01*X003831Y021276D01*
Y021359D01*X003856Y021932D01*X003925Y022077D01*Y023218D01*
X003846Y02496D01*X003821Y025209D01*X003724Y025305D01*X002998Y025478D01*
X009528Y021299D02*X009216Y021025D01*X008996D01*X008805Y021101D01*
X008714Y02114D01*X008656Y021199D01*X008541Y02133D01*X008406Y02454D01*
X019055Y021142D02*X019141Y02131D01*Y021446D01*X019045Y021543D01*
X018908D01*X018347Y021125D01*X018211D01*X018114Y021222D01*
X018092Y021592D01*X018129Y02189D01*X018229Y02209D01*X018198Y023259D01*
X018119Y025002D01*X018094Y02525D01*X017939Y025405D01*X017487Y025715D01*
X03811Y021299D02*X037942Y021464D01*X037806D01*X037709Y021368D01*
X037617Y021222D01*X037521Y021125D01*X037384D01*X037193Y021201D01*
X037102Y02124D01*X036987Y021372D01*X036917Y024609D01*X036902Y02474D01*
X023701Y021299D02*X023389Y021025D01*X023169D01*X022979Y021101D01*
X022888Y02114D01*X022829Y021199D01*X022714Y02133D01*X022579Y02454D01*
X041339Y025709D02*X041909Y0251D01*Y02488D01*X041809Y022914D01*
X041311Y022381D01*Y022245D01*X041537Y021472D01*X041725Y021231D01*
X041821Y021134D01*X041958D01*X042412Y021474D01*X042549D01*
X042802Y02134D01*X03166Y025715D02*X032112Y025405D01*X032267Y02525D01*
X032293Y025002D01*X032371Y023259D01*X032402Y02209D01*X032302Y02189D01*
X032277Y021318D01*X032287Y021222D01*X032384Y021125D01*X032521D01*
X033081Y021543D01*X033218D01*X033315Y021446D01*Y02131D01*
X033228Y021142D01*X031345Y025478D02*X032071Y025305D01*
X032167Y025209D01*X032193Y02496D01*X032271Y023218D01*Y022077D01*
X032202Y021932D01*X032177Y021359D01*Y021276D01*X032187Y02118D01*
X032343Y021025D01*X032562D01*X03315Y021378D01*X02685Y025472D02*
X027539Y025155D01*X027635Y025059D01*Y024922D01*X027329Y02364D01*
X026733Y023482D01*X026636Y023385D01*Y023249D01*X026804Y022747D01*
X027264Y02143D01*X027452Y021189D01*X027607Y021034D01*X027826D01*
X028307Y021309D01*D25*X017913Y018307D02*X018504D01*Y016142D01*
X017913D01*D11*X022729Y02474D02*X022744Y024609D01*X022814Y021372D01*
X022929Y02124D01*X02302Y021201D01*X023211Y021125D01*X023347D01*
X023444Y021222D01*X023536Y021368D01*X023632Y021464D01*X023769D01*
X023937Y021299D01*X014456Y02134D02*X014202Y021474D01*X014066D01*
X013612Y021134D01*X013475D01*X013378Y021231D01*X013191Y021472D01*
X012965Y022245D01*Y022381D01*X013462Y022914D01*X013562Y02488D01*
Y0251D01*X012992Y025709D01*D13*X044685Y005906D02*X04311D01*D11*
X009764Y021299D02*X009596Y021464D01*X009459D01*X009363Y021368D01*
X009271Y021222D01*X009174Y021125D01*X009038D01*X008847Y021201D01*
X008756Y02124D01*X008641Y021372D01*X008571Y024609D01*X008556Y02474D01*
D25*X03378Y020945D02*X033742Y02079D01*X03358Y020628D01*
X03376Y020472D01*X03358Y020628D02*X03335D01*X032776Y020669D01*D18*
X032264Y019744D01*X031211Y019571D01*D25*X029232Y020079D01*Y020276D01*
X031211Y019571D02*X029055Y020906D01*D12*X038386Y005315D02*Y004724D01*
D11*X014134Y021309D02*X013653Y021034D01*X013434D01*X013278Y021189D01*
X013091Y02143D01*X01263Y022747D01*X012463Y023249D01*Y023385D01*
X01256Y023482D01*X013156Y02364D01*X013462Y024922D01*Y025059D01*
X013366Y025155D01*X012677Y025472D01*
M02*